<?xml version="1.0" encoding="UTF-8" standalone="no"?>
<!DOCTYPE svg PUBLIC "-//W3C//DTD SVG 1.1//EN"
 "http://www.w3.org/Graphics/SVG/1.1/DTD/svg11.dtd">
<!-- Generated by graphviz version 8.1.0 (20230707.0739)
 -->
<!-- Title: ComputationalGraph Pages: 1 -->
<svg width="194pt" height="98pt"
 viewBox="0.00 0.00 194.25 98.00" xmlns="http://www.w3.org/2000/svg" xmlns:xlink="http://www.w3.org/1999/xlink">
<g id="graph0" class="graph" transform="scale(1 1) rotate(0) translate(4 94)">
<title>ComputationalGraph</title>
<polygon fill="#ffffff" stroke="none" points="-4,4 -4,-94 190.25,-94 190.25,4 -4,4"/>
<!-- input1&#45;&gt;op1 -->
<g id="edge1" class="edge">
<title>input1&#45;&gt;op1</title>
<path fill="none" stroke="#b2b2b2" d="M36.19,-65.46C46.78,-61.44 60.37,-56.27 71.24,-52.13"/>
<polygon fill="#b2b2b2" stroke="#b2b2b2" points="71.32,-52.47 72.94,-51.11 70.83,-51.16 71.32,-52.47"/>
</g>
<!-- input2&#45;&gt;op1 -->
<g id="edge2" class="edge">
<title>input2&#45;&gt;op1</title>
<path fill="none" stroke="#b2b2b2" d="M36.19,-24.54C46.78,-28.56 60.37,-33.73 71.24,-37.87"/>
<polygon fill="#b2b2b2" stroke="#b2b2b2" points="70.83,-38.84 72.94,-38.89 71.32,-37.53 70.83,-38.84"/>
</g>
<!-- op1&#45;&gt;output1 -->
<g id="edge3" class="edge">
<title>op1&#45;&gt;output1</title>
<path fill="none" stroke="#b2b2b2" d="M109.45,-45C120.82,-45 135.67,-45 147.48,-45"/>
<polygon fill="#b2b2b2" stroke="#b2b2b2" points="147.41,-45.7 149.41,-45 147.41,-44.3 147.41,-45.7"/>
<text text-anchor="middle" x="129.62" y="-49" font-family="Open Sans" font-size="10.00">4</text>
</g>
<!-- input1 -->
<g id="node1" class="node">
<title>input1</title>
<polygon fill="#b2b2b2" stroke="#b2b2b2" points="36,-90 0,-90 0,-54 36,-54 36,-90"/>
<text text-anchor="middle" x="18" y="-69.25" font-family="Open Sans" font-size="10.00">1</text>
</g>
<!-- input2 -->
<g id="node2" class="node">
<title>input2</title>
<polygon fill="#b2b2b2" stroke="#b2b2b2" points="36,-36 0,-36 0,0 36,0 36,-36"/>
<text text-anchor="middle" x="18" y="-15.25" font-family="Open Sans" font-size="10.00">3</text>
</g>
<!-- op1 -->
<g id="node3" class="node">
<title>op1</title>
<ellipse fill="#e4e4e4" stroke="#e4e4e4" cx="91" cy="-45" rx="18" ry="18"/>
<text text-anchor="middle" x="91" y="-42.25" font-family="Open Sans" font-size="10.00">1+3</text>
</g>
<!-- output1 -->
<g id="node4" class="node">
<title>output1</title>
</g>
</g>
</svg>
