<?xml version="1.0" encoding="UTF-8" standalone="no"?>
<!DOCTYPE svg PUBLIC "-//W3C//DTD SVG 1.1//EN"
 "http://www.w3.org/Graphics/SVG/1.1/DTD/svg11.dtd">
<!-- Generated by graphviz version 8.1.0 (20230707.0739)
 -->
<!-- Title: ComputationalGraph Pages: 1 -->
<svg width="188pt" height="98pt"
 viewBox="0.00 0.00 188.00 98.00" xmlns="http://www.w3.org/2000/svg" xmlns:xlink="http://www.w3.org/1999/xlink">
<g id="graph0" class="graph" transform="scale(1 1) rotate(0) translate(4 94)">
<title>ComputationalGraph</title>
<polygon fill="#ffffff" stroke="none" points="-4,4 -4,-94 184,-94 184,4 -4,4"/>
<!-- input1&#45;&gt;op1 -->
<g id="edge1" class="edge">
<title>input1&#45;&gt;op1</title>
<path fill="none" stroke="#b2b2b2" d="M36.3,-65.33C46.6,-61.35 59.68,-56.31 70.23,-52.24"/>
<polygon fill="#b2b2b2" stroke="#b2b2b2" points="70.24,-52.6 71.86,-51.23 69.74,-51.29 70.24,-52.6"/>
</g>
<!-- input2&#45;&gt;op1 -->
<g id="edge2" class="edge">
<title>input2&#45;&gt;op1</title>
<path fill="none" stroke="#b2b2b2" d="M36.3,-24.67C46.6,-28.65 59.68,-33.69 70.23,-37.76"/>
<polygon fill="#b2b2b2" stroke="#b2b2b2" points="69.74,-38.71 71.86,-38.77 70.24,-37.4 69.74,-38.71"/>
</g>
<!-- op1&#45;&gt;output1 -->
<g id="edge3" class="edge">
<title>op1&#45;&gt;output1</title>
<path fill="none" stroke="#b2b2b2" d="M108.3,-45C118.37,-45 131.09,-45 141.5,-45"/>
<polygon fill="#b2b2b2" stroke="#b2b2b2" points="141.38,-45.7 143.38,-45 141.38,-44.3 141.38,-45.7"/>
</g>
<!-- input1 -->
<g id="node1" class="node">
<title>input1</title>
<polygon fill="#b2b2b2" stroke="#b2b2b2" points="36,-90 0,-90 0,-54 36,-54 36,-90"/>
<text text-anchor="middle" x="18" y="-69.25" font-family="Open Sans" font-size="10.00">x</text>
</g>
<!-- input2 -->
<g id="node2" class="node">
<title>input2</title>
<polygon fill="#b2b2b2" stroke="#b2b2b2" points="36,-36 0,-36 0,0 36,0 36,-36"/>
<text text-anchor="middle" x="18" y="-15.25" font-family="Open Sans" font-size="10.00">y</text>
</g>
<!-- op1 -->
<g id="node3" class="node">
<title>op1</title>
<ellipse fill="#e4e4e4" stroke="#e4e4e4" cx="90" cy="-45" rx="18" ry="18"/>
<text text-anchor="middle" x="90" y="-42.25" font-family="Open Sans" font-size="10.00">x+y</text>
</g>
<!-- output1 -->
<g id="node4" class="node">
<title>output1</title>
</g>
</g>
</svg>
