<?xml version="1.0" encoding="UTF-8" standalone="no"?>
<!DOCTYPE svg PUBLIC "-//W3C//DTD SVG 1.1//EN"
 "http://www.w3.org/Graphics/SVG/1.1/DTD/svg11.dtd">
<!-- Generated by graphviz version 8.1.0 (20230707.0739)
 -->
<!-- Title: ComputationalGraph Pages: 1 -->
<svg width="397pt" height="212pt"
 viewBox="0.00 0.00 396.80 212.00" xmlns="http://www.w3.org/2000/svg" xmlns:xlink="http://www.w3.org/1999/xlink">
<g id="graph0" class="graph" transform="scale(1 1) rotate(0) translate(4 208)">
<title>ComputationalGraph</title>
<polygon fill="#ffffff" stroke="none" points="-4,4 -4,-208 392.8,-208 392.8,4 -4,4"/>
<!-- input1&#45;&gt;input2 -->
<!-- input1&#45;&gt;int1 -->
<g id="edge1" class="edge">
<title>input1&#45;&gt;int1</title>
<path fill="none" stroke="#b2b2b2" d="M29.16,-156.67C39.33,-162.33 53.26,-170.1 64.23,-176.21"/>
<polygon fill="#b2b2b2" stroke="#b2b2b2" points="63.58,-177.21 65.67,-177.57 64.26,-175.98 63.58,-177.21"/>
</g>
<!-- input1&#45;&gt;op2 -->
<g id="edge2" class="edge">
<title>input1&#45;&gt;op2</title>
<path fill="none" stroke="#b2b2b2" d="M29.18,-144.32C54.08,-135.86 106.63,-118.02 134.88,-108.43"/>
<polygon fill="#b2b2b2" stroke="#b2b2b2" points="134.87,-108.83 136.53,-107.52 134.41,-107.5 134.87,-108.83"/>
</g>
<!-- input2&#45;&gt;input3 -->
<!-- input2&#45;&gt;op2 -->
<g id="edge3" class="edge">
<title>input2&#45;&gt;op2</title>
<path fill="none" stroke="#b2b2b2" d="M29.18,-102C53.82,-102 105.51,-102 133.97,-102"/>
<polygon fill="#b2b2b2" stroke="#b2b2b2" points="133.65,-102.7 135.65,-102 133.65,-101.3 133.65,-102.7"/>
</g>
<!-- input3&#45;&gt;int2 -->
<g id="edge4" class="edge">
<title>input3&#45;&gt;int2</title>
<path fill="none" stroke="#b2b2b2" d="M29.16,-47.33C39.33,-41.67 53.26,-33.9 64.23,-27.79"/>
<polygon fill="#b2b2b2" stroke="#b2b2b2" points="64.26,-28.02 65.67,-26.43 63.58,-26.79 64.26,-28.02"/>
</g>
<!-- input3&#45;&gt;op2 -->
<g id="edge5" class="edge">
<title>input3&#45;&gt;op2</title>
<path fill="none" stroke="#b2b2b2" d="M29.18,-59.68C54.08,-68.14 106.63,-85.98 134.88,-95.57"/>
<polygon fill="#b2b2b2" stroke="#b2b2b2" points="134.41,-96.5 136.53,-96.48 134.87,-95.17 134.41,-96.5"/>
</g>
<!-- int1&#45;&gt;op1 -->
<g id="edge6" class="edge">
<title>int1&#45;&gt;op1</title>
<path fill="none" stroke="#b2b2b2" d="M100.75,-182.37C110.8,-180.21 123.61,-177.47 134.11,-175.22"/>
<polygon fill="#b2b2b2" stroke="#b2b2b2" points="134.2,-175.7 136.01,-174.6 133.91,-174.33 134.2,-175.7"/>
</g>
<!-- int2&#45;&gt;op3 -->
<g id="edge7" class="edge">
<title>int2&#45;&gt;op3</title>
<path fill="none" stroke="#b2b2b2" d="M100.93,-20.29C127.37,-23.83 177.99,-30.6 205.97,-34.35"/>
<polygon fill="#b2b2b2" stroke="#b2b2b2" points="205.54,-35.13 207.61,-34.7 205.72,-33.74 205.54,-35.13"/>
</g>
<!-- op1&#45;&gt;op4 -->
<g id="edge8" class="edge">
<title>op1&#45;&gt;op4</title>
<path fill="none" stroke="#b2b2b2" d="M170.65,-162.09C181.69,-155.47 196.79,-146.4 208.41,-139.44"/>
<polygon fill="#b2b2b2" stroke="#b2b2b2" points="208.62,-139.52 209.98,-137.89 207.9,-138.32 208.62,-139.52"/>
</g>
<!-- op2&#45;&gt;op4 -->
<g id="edge9" class="edge">
<title>op2&#45;&gt;op4</title>
<path fill="none" stroke="#b2b2b2" d="M172.04,-108.26C182.46,-112.28 196.04,-117.52 206.94,-121.73"/>
<polygon fill="#b2b2b2" stroke="#b2b2b2" points="206.53,-122.71 208.65,-122.77 207.04,-121.4 206.53,-122.71"/>
</g>
<!-- op2&#45;&gt;op7 -->
<g id="edge10" class="edge">
<title>op2&#45;&gt;op7</title>
<path fill="none" stroke="#b2b2b2" d="M172.93,-99.71C199.37,-96.17 249.99,-89.4 277.97,-85.65"/>
<polygon fill="#b2b2b2" stroke="#b2b2b2" points="277.72,-86.26 279.61,-85.3 277.54,-84.87 277.72,-86.26"/>
</g>
<!-- op3&#45;&gt;output1 -->
<g id="edge13" class="edge">
<title>op3&#45;&gt;output1</title>
<path fill="none" stroke="#b2b2b2" d="M244.93,-39.77C271.37,-44.06 321.99,-52.26 349.97,-56.79"/>
<polygon fill="#b2b2b2" stroke="#b2b2b2" points="349.52,-57.59 351.61,-57.22 349.75,-56.2 349.52,-57.59"/>
</g>
<!-- op4&#45;&gt;op7 -->
<g id="edge11" class="edge">
<title>op4&#45;&gt;op7</title>
<path fill="none" stroke="#b2b2b2" d="M242.3,-119.47C253.57,-112.07 269.2,-101.79 281.01,-94.04"/>
<polygon fill="#b2b2b2" stroke="#b2b2b2" points="281.03,-94.2 282.31,-92.52 280.26,-93.03 281.03,-94.2"/>
</g>
<!-- op7&#45;&gt;output1 -->
<g id="edge12" class="edge">
<title>op7&#45;&gt;output1</title>
<path fill="none" stroke="#b2b2b2" d="M316.39,-77.55C326.68,-74.17 339.93,-69.81 350.66,-66.29"/>
<polygon fill="#b2b2b2" stroke="#b2b2b2" points="350.65,-66.7 352.33,-65.41 350.21,-65.37 350.65,-66.7"/>
</g>
<!-- input1 -->
<g id="node1" class="node">
<title>input1</title>
<polygon fill="#b2b2b2" stroke="#b2b2b2" points="28.8,-163.4 0,-163.4 0,-134.6 28.8,-134.6 28.8,-163.4"/>
</g>
<!-- input2 -->
<g id="node2" class="node">
<title>input2</title>
<polygon fill="#b2b2b2" stroke="#b2b2b2" points="28.8,-116.4 0,-116.4 0,-87.6 28.8,-87.6 28.8,-116.4"/>
</g>
<!-- input3 -->
<g id="node3" class="node">
<title>input3</title>
<polygon fill="#b2b2b2" stroke="#b2b2b2" points="28.8,-69.4 0,-69.4 0,-40.6 28.8,-40.6 28.8,-69.4"/>
</g>
<!-- int1 -->
<g id="node4" class="node">
<title>int1</title>
<ellipse fill="#579cbf" stroke="#579cbf" cx="82.8" cy="-186" rx="18" ry="18"/>
</g>
<!-- int2 -->
<g id="node5" class="node">
<title>int2</title>
<ellipse fill="#579cbf" stroke="#579cbf" cx="82.8" cy="-18" rx="18" ry="18"/>
</g>
<!-- op1 -->
<g id="node6" class="node">
<title>op1</title>
<ellipse fill="#e4e4e4" stroke="#e4e4e4" cx="154.8" cy="-171" rx="18" ry="18"/>
</g>
<!-- op2 -->
<g id="node7" class="node">
<title>op2</title>
<ellipse fill="#e4e4e4" stroke="#e4e4e4" cx="154.8" cy="-102" rx="18" ry="18"/>
</g>
<!-- op3 -->
<g id="node8" class="node">
<title>op3</title>
<ellipse fill="#00a79d" stroke="#00a79d" cx="226.8" cy="-37" rx="18" ry="18"/>
</g>
<!-- op4 -->
<g id="node9" class="node">
<title>op4</title>
<ellipse fill="#e4e4e4" stroke="#e4e4e4" cx="226.8" cy="-129" rx="18" ry="18"/>
</g>
<!-- op7 -->
<g id="node10" class="node">
<title>op7</title>
<ellipse fill="#e4e4e4" stroke="#e4e4e4" cx="298.8" cy="-83" rx="18" ry="18"/>
</g>
<!-- output1 -->
<g id="node11" class="node">
<title>output1</title>
<ellipse fill="#e4e4e4" stroke="#e4e4e4" cx="370.8" cy="-60" rx="18" ry="18"/>
</g>
</g>
</svg>
