<?xml version="1.0" encoding="UTF-8" standalone="no"?>
<!DOCTYPE svg PUBLIC "-//W3C//DTD SVG 1.1//EN"
 "http://www.w3.org/Graphics/SVG/1.1/DTD/svg11.dtd">
<!-- Generated by graphviz version 8.1.0 (20230707.0739)
 -->
<!-- Title: ComputationalGraph Pages: 1 -->
<svg width="325pt" height="202pt"
 viewBox="0.00 0.00 324.80 202.00" xmlns="http://www.w3.org/2000/svg" xmlns:xlink="http://www.w3.org/1999/xlink">
<g id="graph0" class="graph" transform="scale(1 1) rotate(0) translate(4 198)">
<title>ComputationalGraph</title>
<polygon fill="#ffffff" stroke="none" points="-4,4 -4,-198 320.8,-198 320.8,4 -4,4"/>
<!-- input1&#45;&gt;op1 -->
<g id="edge1" class="edge">
<title>input1&#45;&gt;op1</title>
<path fill="none" stroke="#b2b2b2" d="M29.16,-172.83C38.6,-173.4 51.29,-174.16 61.84,-174.8"/>
<polygon fill="#b2b2b2" stroke="#b2b2b2" points="61.72,-175.55 63.75,-174.97 61.8,-174.15 61.72,-175.55"/>
</g>
<!-- input1&#45;&gt;op2 -->
<g id="edge2" class="edge">
<title>input1&#45;&gt;op2</title>
<path fill="none" stroke="#b2b2b2" d="M29.16,-161.64C39.84,-153.6 54.67,-142.43 65.87,-134"/>
<polygon fill="#b2b2b2" stroke="#b2b2b2" points="65.88,-134.11 67.06,-132.35 65.04,-132.99 65.88,-134.11"/>
</g>
<!-- input2&#45;&gt;op2 -->
<g id="edge3" class="edge">
<title>input2&#45;&gt;op2</title>
<path fill="none" stroke="#b2b2b2" d="M29.16,-122C38.6,-122 51.29,-122 61.84,-122"/>
<polygon fill="#b2b2b2" stroke="#b2b2b2" points="61.75,-122.7 63.75,-122 61.75,-121.3 61.75,-122.7"/>
</g>
<!-- input3&#45;&gt;op2 -->
<g id="edge4" class="edge">
<title>input3&#45;&gt;op2</title>
<path fill="none" stroke="#b2b2b2" d="M29.16,-82.36C39.84,-90.4 54.67,-101.57 65.87,-110"/>
<polygon fill="#b2b2b2" stroke="#b2b2b2" points="65.04,-111.01 67.06,-111.65 65.88,-109.89 65.04,-111.01"/>
</g>
<!-- input3&#45;&gt;op3 -->
<g id="edge5" class="edge">
<title>input3&#45;&gt;op3</title>
<path fill="none" stroke="#b2b2b2" d="M29.16,-71.17C38.6,-70.6 51.29,-69.84 61.84,-69.2"/>
<polygon fill="#b2b2b2" stroke="#b2b2b2" points="61.8,-69.85 63.75,-69.03 61.72,-68.45 61.8,-69.85"/>
</g>
<!-- op1&#45;&gt;op4 -->
<g id="edge6" class="edge">
<title>op1&#45;&gt;op4</title>
<path fill="none" stroke="#b2b2b2" d="M101.1,-174.02C111.02,-172.89 123.51,-171.46 133.84,-170.28"/>
<polygon fill="#b2b2b2" stroke="#b2b2b2" points="133.79,-170.88 135.7,-169.95 133.63,-169.49 133.79,-170.88"/>
</g>
<!-- op2&#45;&gt;op4 -->
<g id="edge7" class="edge">
<title>op2&#45;&gt;op4</title>
<path fill="none" stroke="#b2b2b2" d="M98.3,-131.53C109.57,-138.93 125.2,-149.21 137.01,-156.96"/>
<polygon fill="#b2b2b2" stroke="#b2b2b2" points="136.26,-157.97 138.31,-158.48 137.03,-156.8 136.26,-157.97"/>
</g>
<!-- op2&#45;&gt;op7 -->
<g id="edge8" class="edge">
<title>op2&#45;&gt;op7</title>
<path fill="none" stroke="#b2b2b2" d="M101.21,-122.25C127.65,-122.62 177.79,-123.32 205.73,-123.72"/>
<polygon fill="#b2b2b2" stroke="#b2b2b2" points="205.68,-124.43 207.69,-123.76 205.7,-123.03 205.68,-124.43"/>
</g>
<!-- op3&#45;&gt;op5 -->
<g id="edge9" class="edge">
<title>op3&#45;&gt;op5</title>
<path fill="none" stroke="#b2b2b2" d="M101.1,-68.99C111.02,-69.56 123.51,-70.27 133.84,-70.86"/>
<polygon fill="#b2b2b2" stroke="#b2b2b2" points="133.66,-71.61 135.7,-71.02 133.74,-70.21 133.66,-71.61"/>
</g>
<!-- op3&#45;&gt;op6 -->
<g id="edge10" class="edge">
<title>op3&#45;&gt;op6</title>
<path fill="none" stroke="#b2b2b2" d="M97.97,-57.88C109.35,-49.75 125.36,-38.31 137.32,-29.77"/>
<polygon fill="#b2b2b2" stroke="#b2b2b2" points="137.43,-29.84 138.66,-28.1 136.62,-28.7 137.43,-29.84"/>
</g>
<!-- op4&#45;&gt;op7 -->
<g id="edge11" class="edge">
<title>op4&#45;&gt;op7</title>
<path fill="none" stroke="#b2b2b2" d="M170.65,-158.67C181.78,-151.67 197.05,-142.07 208.7,-134.75"/>
<polygon fill="#b2b2b2" stroke="#b2b2b2" points="208.66,-134.97 209.98,-133.32 207.91,-133.79 208.66,-134.97"/>
</g>
<!-- op5&#45;&gt;op8 -->
<g id="edge12" class="edge">
<title>op5&#45;&gt;op8</title>
<path fill="none" stroke="#b2b2b2" d="M173.1,-71.51C183.02,-71.22 195.51,-70.87 205.84,-70.57"/>
<polygon fill="#b2b2b2" stroke="#b2b2b2" points="205.72,-71.25 207.7,-70.49 205.68,-69.85 205.72,-71.25"/>
</g>
<!-- op6&#45;&gt;op8 -->
<g id="edge13" class="edge">
<title>op6&#45;&gt;op8</title>
<path fill="none" stroke="#b2b2b2" d="M169.97,-28.52C181.35,-36.98 197.36,-48.87 209.32,-57.76"/>
<polygon fill="#b2b2b2" stroke="#b2b2b2" points="208.63,-58.86 210.66,-59.49 209.47,-57.74 208.63,-58.86"/>
</g>
<!-- op7&#45;&gt;output1 -->
<g id="edge14" class="edge">
<title>op7&#45;&gt;output1</title>
<path fill="none" stroke="#b2b2b2" d="M244.04,-117.74C254.46,-113.72 268.04,-108.48 278.94,-104.27"/>
<polygon fill="#b2b2b2" stroke="#b2b2b2" points="279.04,-104.6 280.65,-103.23 278.53,-103.29 279.04,-104.6"/>
</g>
<!-- op8&#45;&gt;output1 -->
<g id="edge15" class="edge">
<title>op8&#45;&gt;output1</title>
<path fill="none" stroke="#b2b2b2" d="M244.04,-76.26C254.46,-80.28 268.04,-85.52 278.94,-89.73"/>
<polygon fill="#b2b2b2" stroke="#b2b2b2" points="278.53,-90.71 280.65,-90.77 279.04,-89.4 278.53,-90.71"/>
</g>
<!-- input1 -->
<g id="node1" class="node">
<title>input1</title>
<polygon fill="#b2b2b2" stroke="#b2b2b2" points="28.8,-186.4 0,-186.4 0,-157.6 28.8,-157.6 28.8,-186.4"/>
</g>
<!-- input2 -->
<g id="node2" class="node">
<title>input2</title>
<polygon fill="#b2b2b2" stroke="#b2b2b2" points="28.8,-136.4 0,-136.4 0,-107.6 28.8,-107.6 28.8,-136.4"/>
</g>
<!-- input3 -->
<g id="node3" class="node">
<title>input3</title>
<polygon fill="#b2b2b2" stroke="#b2b2b2" points="28.8,-86.4 0,-86.4 0,-57.6 28.8,-57.6 28.8,-86.4"/>
</g>
<!-- op1 -->
<g id="node4" class="node">
<title>op1</title>
<ellipse fill="#e4e4e4" stroke="#e4e4e4" cx="82.8" cy="-176" rx="18" ry="18"/>
</g>
<!-- op2 -->
<g id="node5" class="node">
<title>op2</title>
<ellipse fill="#e4e4e4" stroke="#e4e4e4" cx="82.8" cy="-122" rx="18" ry="18"/>
</g>
<!-- op3 -->
<g id="node6" class="node">
<title>op3</title>
<ellipse fill="#e4e4e4" stroke="#e4e4e4" cx="82.8" cy="-68" rx="18" ry="18"/>
</g>
<!-- op4 -->
<g id="node7" class="node">
<title>op4</title>
<ellipse fill="#e4e4e4" stroke="#e4e4e4" cx="154.8" cy="-168" rx="18" ry="18"/>
</g>
<!-- op5 -->
<g id="node8" class="node">
<title>op5</title>
<ellipse fill="#e4e4e4" stroke="#e4e4e4" cx="154.8" cy="-72" rx="18" ry="18"/>
</g>
<!-- op6 -->
<g id="node9" class="node">
<title>op6</title>
<ellipse fill="#e4e4e4" stroke="#e4e4e4" cx="154.8" cy="-18" rx="18" ry="18"/>
</g>
<!-- op7 -->
<g id="node10" class="node">
<title>op7</title>
<ellipse fill="#e4e4e4" stroke="#e4e4e4" cx="226.8" cy="-124" rx="18" ry="18"/>
</g>
<!-- op8 -->
<g id="node11" class="node">
<title>op8</title>
<ellipse fill="#e4e4e4" stroke="#e4e4e4" cx="226.8" cy="-70" rx="18" ry="18"/>
</g>
<!-- output1 -->
<g id="node12" class="node">
<title>output1</title>
<ellipse fill="#e4e4e4" stroke="#e4e4e4" cx="298.8" cy="-97" rx="18" ry="18"/>
</g>
</g>
</svg>
