<?xml version="1.0" encoding="UTF-8" standalone="no"?>
<!DOCTYPE svg PUBLIC "-//W3C//DTD SVG 1.1//EN"
 "http://www.w3.org/Graphics/SVG/1.1/DTD/svg11.dtd">
<!-- Generated by graphviz version 8.1.0 (20230707.0739)
 -->
<!-- Title: ComputationalGraph Pages: 1 -->
<svg width="397pt" height="225pt"
 viewBox="0.00 0.00 396.80 225.00" xmlns="http://www.w3.org/2000/svg" xmlns:xlink="http://www.w3.org/1999/xlink">
<g id="graph0" class="graph" transform="scale(1 1) rotate(0) translate(4 221)">
<title>ComputationalGraph</title>
<polygon fill="#ffffff" stroke="none" points="-4,4 -4,-221 392.8,-221 392.8,4 -4,4"/>
<!-- input1&#45;&gt;input2 -->
<!-- input1&#45;&gt;int1 -->
<g id="edge1" class="edge">
<title>input1&#45;&gt;int1</title>
<path fill="none" stroke="#b2b2b2" d="M29.16,-169.67C39.33,-175.33 53.26,-183.1 64.23,-189.21"/>
<polygon fill="#b2b2b2" stroke="#b2b2b2" points="63.58,-190.21 65.67,-190.57 64.26,-188.98 63.58,-190.21"/>
</g>
<!-- input1&#45;&gt;op2 -->
<g id="edge2" class="edge">
<title>input1&#45;&gt;op2</title>
<path fill="none" stroke="#b2b2b2" d="M29.18,-158.02C53.95,-150.86 106.07,-135.8 134.42,-127.6"/>
<polygon fill="#b2b2b2" stroke="#b2b2b2" points="134.37,-128.06 136.09,-126.83 133.98,-126.71 134.37,-128.06"/>
</g>
<!-- input2&#45;&gt;input3 -->
<!-- input2&#45;&gt;op2 -->
<g id="edge3" class="edge">
<title>input2&#45;&gt;op2</title>
<path fill="none" stroke="#b2b2b2" d="M29.18,-115.7C53.82,-116.94 105.51,-119.56 133.97,-121"/>
<polygon fill="#b2b2b2" stroke="#b2b2b2" points="133.61,-121.73 135.65,-121.13 133.69,-120.33 133.61,-121.73"/>
</g>
<!-- input3&#45;&gt;int2 -->
<g id="edge4" class="edge">
<title>input3&#45;&gt;int2</title>
<path fill="none" stroke="#b2b2b2" d="M29.16,-60.33C39.33,-54.67 53.26,-46.9 64.23,-40.79"/>
<polygon fill="#b2b2b2" stroke="#b2b2b2" points="64.26,-41.02 65.67,-39.43 63.58,-39.79 64.26,-41.02"/>
</g>
<!-- input3&#45;&gt;op2 -->
<g id="edge5" class="edge">
<title>input3&#45;&gt;op2</title>
<path fill="none" stroke="#b2b2b2" d="M29.18,-73.38C54.08,-83.09 106.63,-103.59 134.88,-114.62"/>
<polygon fill="#b2b2b2" stroke="#b2b2b2" points="134.42,-115.58 136.53,-115.65 134.93,-114.27 134.42,-115.58"/>
</g>
<!-- int1&#45;&gt;op1 -->
<g id="edge6" class="edge">
<title>int1&#45;&gt;op1</title>
<path fill="none" stroke="#b2b2b2" d="M101.1,-197.02C111.02,-195.89 123.51,-194.46 133.84,-193.28"/>
<polygon fill="#b2b2b2" stroke="#b2b2b2" points="133.79,-193.88 135.7,-192.95 133.63,-192.49 133.79,-193.88"/>
</g>
<!-- int2&#45;&gt;op3 -->
<g id="edge7" class="edge">
<title>int2&#45;&gt;op3</title>
<path fill="none" stroke="#b2b2b2" d="M101.1,-31C111.02,-31 123.51,-31 133.84,-31"/>
<polygon fill="#b2b2b2" stroke="#b2b2b2" points="133.7,-31.7 135.7,-31 133.7,-30.3 133.7,-31.7"/>
</g>
<!-- op1&#45;&gt;op4 -->
<g id="edge8" class="edge">
<title>op1&#45;&gt;op4</title>
<path fill="none" stroke="#b2b2b2" d="M172.39,-185.55C182.68,-182.17 195.93,-177.81 206.66,-174.29"/>
<polygon fill="#b2b2b2" stroke="#b2b2b2" points="206.65,-174.7 208.33,-173.41 206.21,-173.37 206.65,-174.7"/>
</g>
<!-- op2&#45;&gt;op4 -->
<g id="edge9" class="edge">
<title>op2&#45;&gt;op4</title>
<path fill="none" stroke="#b2b2b2" d="M170.3,-131.53C181.57,-138.93 197.2,-149.21 209.01,-156.96"/>
<polygon fill="#b2b2b2" stroke="#b2b2b2" points="208.26,-157.97 210.31,-158.48 209.03,-156.8 208.26,-157.97"/>
</g>
<!-- op2&#45;&gt;op7 -->
<g id="edge10" class="edge">
<title>op2&#45;&gt;op7</title>
<path fill="none" stroke="#b2b2b2" d="M173.21,-122.25C199.65,-122.62 249.79,-123.32 277.73,-123.72"/>
<polygon fill="#b2b2b2" stroke="#b2b2b2" points="277.68,-124.43 279.69,-123.76 277.7,-123.03 277.68,-124.43"/>
</g>
<!-- op3&#45;&gt;op5 -->
<g id="edge11" class="edge">
<title>op3&#45;&gt;op5</title>
<path fill="none" stroke="#b2b2b2" d="M170.99,-39.9C181.9,-46.29 196.65,-54.93 208.1,-61.63"/>
<polygon fill="#b2b2b2" stroke="#b2b2b2" points="207.56,-62.71 209.64,-63.12 208.27,-61.51 207.56,-62.71"/>
</g>
<!-- op3&#45;&gt;op6 -->
<g id="edge12" class="edge">
<title>op3&#45;&gt;op6</title>
<path fill="none" stroke="#b2b2b2" d="M172.75,-27.85C182.8,-25.98 195.61,-23.61 206.11,-21.66"/>
<polygon fill="#b2b2b2" stroke="#b2b2b2" points="206.17,-22.17 208.01,-21.12 205.92,-20.79 206.17,-22.17"/>
</g>
<!-- op4&#45;&gt;op7 -->
<g id="edge13" class="edge">
<title>op4&#45;&gt;op7</title>
<path fill="none" stroke="#b2b2b2" d="M242.65,-158.67C253.78,-151.67 269.05,-142.07 280.7,-134.75"/>
<polygon fill="#b2b2b2" stroke="#b2b2b2" points="280.66,-134.97 281.98,-133.32 279.91,-133.79 280.66,-134.97"/>
</g>
<!-- op5&#45;&gt;op8 -->
<g id="edge14" class="edge">
<title>op5&#45;&gt;op8</title>
<path fill="none" stroke="#b2b2b2" d="M245.1,-71.51C255.02,-71.22 267.51,-70.87 277.84,-70.57"/>
<polygon fill="#b2b2b2" stroke="#b2b2b2" points="277.72,-71.25 279.7,-70.49 277.68,-69.85 277.72,-71.25"/>
</g>
<!-- op6&#45;&gt;op8 -->
<g id="edge15" class="edge">
<title>op6&#45;&gt;op8</title>
<path fill="none" stroke="#b2b2b2" d="M241.97,-28.52C253.35,-36.98 269.36,-48.87 281.32,-57.76"/>
<polygon fill="#b2b2b2" stroke="#b2b2b2" points="280.63,-58.86 282.66,-59.49 281.47,-57.74 280.63,-58.86"/>
</g>
<!-- op7&#45;&gt;output1 -->
<g id="edge16" class="edge">
<title>op7&#45;&gt;output1</title>
<path fill="none" stroke="#b2b2b2" d="M316.04,-117.74C326.46,-113.72 340.04,-108.48 350.94,-104.27"/>
<polygon fill="#b2b2b2" stroke="#b2b2b2" points="351.04,-104.6 352.65,-103.23 350.53,-103.29 351.04,-104.6"/>
</g>
<!-- op8&#45;&gt;output1 -->
<g id="edge17" class="edge">
<title>op8&#45;&gt;output1</title>
<path fill="none" stroke="#b2b2b2" d="M316.04,-76.26C326.46,-80.28 340.04,-85.52 350.94,-89.73"/>
<polygon fill="#b2b2b2" stroke="#b2b2b2" points="350.53,-90.71 352.65,-90.77 351.04,-89.4 350.53,-90.71"/>
</g>
<!-- input1 -->
<g id="node1" class="node">
<title>input1</title>
<polygon fill="#b2b2b2" stroke="#b2b2b2" points="28.8,-176.4 0,-176.4 0,-147.6 28.8,-147.6 28.8,-176.4"/>
</g>
<!-- input2 -->
<g id="node2" class="node">
<title>input2</title>
<polygon fill="#b2b2b2" stroke="#b2b2b2" points="28.8,-129.4 0,-129.4 0,-100.6 28.8,-100.6 28.8,-129.4"/>
</g>
<!-- input3 -->
<g id="node3" class="node">
<title>input3</title>
<polygon fill="#b2b2b2" stroke="#b2b2b2" points="28.8,-82.4 0,-82.4 0,-53.6 28.8,-53.6 28.8,-82.4"/>
</g>
<!-- int1 -->
<g id="node4" class="node">
<title>int1</title>
<ellipse fill="#579cbf" stroke="#579cbf" cx="82.8" cy="-199" rx="18" ry="18"/>
</g>
<!-- int2 -->
<g id="node5" class="node">
<title>int2</title>
<ellipse fill="#579cbf" stroke="#579cbf" cx="82.8" cy="-31" rx="18" ry="18"/>
</g>
<!-- op1 -->
<g id="node6" class="node">
<title>op1</title>
<ellipse fill="#e4e4e4" stroke="#e4e4e4" cx="154.8" cy="-191" rx="18" ry="18"/>
</g>
<!-- op2 -->
<g id="node7" class="node">
<title>op2</title>
<ellipse fill="#e4e4e4" stroke="#e4e4e4" cx="154.8" cy="-122" rx="18" ry="18"/>
</g>
<!-- op3 -->
<g id="node8" class="node">
<title>op3</title>
<ellipse fill="#e4e4e4" stroke="#e4e4e4" cx="154.8" cy="-31" rx="18" ry="18"/>
</g>
<!-- op4 -->
<g id="node9" class="node">
<title>op4</title>
<ellipse fill="#e4e4e4" stroke="#e4e4e4" cx="226.8" cy="-168" rx="18" ry="18"/>
</g>
<!-- op5 -->
<g id="node10" class="node">
<title>op5</title>
<ellipse fill="#e4e4e4" stroke="#e4e4e4" cx="226.8" cy="-72" rx="18" ry="18"/>
</g>
<!-- op6 -->
<g id="node11" class="node">
<title>op6</title>
<ellipse fill="#e4e4e4" stroke="#e4e4e4" cx="226.8" cy="-18" rx="18" ry="18"/>
</g>
<!-- op7 -->
<g id="node12" class="node">
<title>op7</title>
<ellipse fill="#e4e4e4" stroke="#e4e4e4" cx="298.8" cy="-124" rx="18" ry="18"/>
</g>
<!-- op8 -->
<g id="node13" class="node">
<title>op8</title>
<ellipse fill="#e4e4e4" stroke="#e4e4e4" cx="298.8" cy="-70" rx="18" ry="18"/>
</g>
<!-- output1 -->
<g id="node14" class="node">
<title>output1</title>
<ellipse fill="#e4e4e4" stroke="#e4e4e4" cx="370.8" cy="-97" rx="18" ry="18"/>
</g>
</g>
</svg>
