<svg xmlns="http://www.w3.org/2000/svg" xmlns:xlink="http://www.w3.org/1999/xlink" width="500" zoomAndPan="magnify" viewBox="0 0 375 374.999991" height="500" preserveAspectRatio="xMidYMid meet" version="1.0"><defs><g/><clipPath id="9e8dd94ad6"><path d="M 276 105 L 373 105 L 373 242 L 276 242 Z M 276 105 " clip-rule="nonzero"/></clipPath><clipPath id="e99774d039"><path d="M 272.023438 233.269531 L 360.066406 97.28125 L 376.433594 107.878906 L 288.394531 243.867188 Z M 272.023438 233.269531 " clip-rule="nonzero"/></clipPath><clipPath id="9367cc18d4"><path d="M 272.023438 233.269531 L 360.066406 97.28125 L 376.433594 107.878906 L 288.394531 243.867188 Z M 272.023438 233.269531 " clip-rule="nonzero"/></clipPath><clipPath id="255767630f"><path d="M 272.277344 232.878906 L 359.984375 97.40625 L 376.5 108.101562 L 288.792969 243.570312 Z M 272.277344 232.878906 " clip-rule="nonzero"/></clipPath><clipPath id="95dd1e41b7"><path d="M 290 115 L 374 115 L 374 235 L 290 235 Z M 290 115 " clip-rule="nonzero"/></clipPath><clipPath id="b29c4a7322"><path d="M 363.484375 236.859375 L 284.320312 122.90625 L 297.871094 113.492188 L 377.035156 227.445312 Z M 363.484375 236.859375 " clip-rule="nonzero"/></clipPath><clipPath id="d65c3a8450"><path d="M 363.484375 236.859375 L 284.320312 122.90625 L 297.871094 113.492188 L 377.035156 227.445312 Z M 363.484375 236.859375 " clip-rule="nonzero"/></clipPath></defs><rect x="-37.5" width="450" fill="#ffffff" y="-37.499999" height="449.999989" fill-opacity="1"/><rect x="-37.5" width="450" fill="#ffffff" y="-37.499999" height="449.999989" fill-opacity="1"/><g fill="#05415f" fill-opacity="1"><g transform="translate(-1.593962, 203.645552)"><g><path d="M 40.78125 0 L 22.90625 -58.25 L 22.453125 -58.25 C 23.085938 -46.394531 23.40625 -38.488281 23.40625 -34.53125 L 23.40625 0 L 9.34375 0 L 9.34375 -74.25 L 30.78125 -74.25 L 48.34375 -17.46875 L 48.65625 -17.46875 L 67.28125 -74.25 L 88.71875 -74.25 L 88.71875 0 L 74.046875 0 L 74.046875 -35.140625 C 74.046875 -36.796875 74.066406 -38.707031 74.109375 -40.875 C 74.160156 -43.039062 74.390625 -48.796875 74.796875 -58.140625 L 74.34375 -58.140625 L 55.203125 0 Z M 40.78125 0 "/></g></g></g><g fill="#05415f" fill-opacity="1"><g transform="translate(91.257247, 203.645552)"><g><path d="M 54.796875 0 L 49.40625 -17.671875 L 22.34375 -17.671875 L 16.96875 0 L 0 0 L 26.203125 -74.546875 L 45.453125 -74.546875 L 71.75 0 Z M 45.65625 -30.875 C 40.675781 -46.882812 37.875 -55.9375 37.25 -58.03125 C 36.625 -60.132812 36.175781 -61.796875 35.90625 -63.015625 C 34.789062 -58.679688 31.59375 -47.96875 26.3125 -30.875 Z M 45.65625 -30.875 "/></g></g></g><g fill="#05415f" fill-opacity="1"><g transform="translate(157.805747, 203.645552)"><g><path d="M 53.171875 -20.625 C 53.171875 -13.914062 50.757812 -8.628906 45.9375 -4.765625 C 41.113281 -0.910156 34.398438 1.015625 25.796875 1.015625 C 17.878906 1.015625 10.875 -0.472656 4.78125 -3.453125 L 4.78125 -18.078125 C 9.789062 -15.847656 14.03125 -14.273438 17.5 -13.359375 C 20.96875 -12.441406 24.140625 -11.984375 27.015625 -11.984375 C 30.472656 -11.984375 33.125 -12.644531 34.96875 -13.96875 C 36.8125 -15.289062 37.734375 -17.253906 37.734375 -19.859375 C 37.734375 -21.316406 37.328125 -22.609375 36.515625 -23.734375 C 35.703125 -24.867188 34.507812 -25.960938 32.9375 -27.015625 C 31.363281 -28.066406 28.15625 -29.742188 23.3125 -32.046875 C 18.769531 -34.179688 15.363281 -36.226562 13.09375 -38.1875 C 10.832031 -40.15625 9.023438 -42.441406 7.671875 -45.046875 C 6.316406 -47.648438 5.640625 -50.695312 5.640625 -54.1875 C 5.640625 -60.75 7.863281 -65.910156 12.3125 -69.671875 C 16.769531 -73.429688 22.925781 -75.3125 30.78125 -75.3125 C 34.632812 -75.3125 38.3125 -74.851562 41.8125 -73.9375 C 45.320312 -73.019531 48.988281 -71.734375 52.8125 -70.078125 L 47.734375 -57.84375 C 43.773438 -59.46875 40.5 -60.597656 37.90625 -61.234375 C 35.320312 -61.878906 32.773438 -62.203125 30.265625 -62.203125 C 27.285156 -62.203125 25 -61.507812 23.40625 -60.125 C 21.820312 -58.738281 21.03125 -56.925781 21.03125 -54.6875 C 21.03125 -53.300781 21.347656 -52.09375 21.984375 -51.0625 C 22.628906 -50.03125 23.65625 -49.03125 25.0625 -48.0625 C 26.46875 -47.101562 29.796875 -45.367188 35.046875 -42.859375 C 41.984375 -39.546875 46.738281 -36.21875 49.3125 -32.875 C 51.882812 -29.539062 53.171875 -25.457031 53.171875 -20.625 Z M 53.171875 -20.625 "/></g></g></g><g fill="#05415f" fill-opacity="1"><g transform="translate(209.882678, 203.645552)"><g><path d="M 37.984375 0 L 22.25 0 L 22.25 -61.140625 L 2.078125 -61.140625 L 2.078125 -74.25 L 58.140625 -74.25 L 58.140625 -61.140625 L 37.984375 -61.140625 Z M 37.984375 0 "/></g></g></g><g fill="#05415f" fill-opacity="1"><g transform="translate(264.9047, 203.645552)"><g><path d="M 9.34375 0 L 9.34375 -74.25 L 25.09375 -74.25 L 25.09375 0 Z M 9.34375 0 "/></g></g></g><g fill="#00a79d" fill-opacity="1"><g transform="translate(58.657951, 237.42687)"><g><path d="M 21.59375 0 L 19.484375 -6.96875 L 8.8125 -6.96875 L 6.6875 0 L 0 0 L 10.328125 -29.390625 L 17.921875 -29.390625 L 28.28125 0 Z M 18 -12.171875 L 15.875 -18.984375 C 15.738281 -19.429688 15.5625 -20.007812 15.34375 -20.71875 C 15.125 -21.4375 14.90625 -22.164062 14.6875 -22.90625 C 14.46875 -23.65625 14.289062 -24.300781 14.15625 -24.84375 C 14.019531 -24.300781 13.832031 -23.625 13.59375 -22.8125 C 13.363281 -22 13.140625 -21.234375 12.921875 -20.515625 C 12.710938 -19.796875 12.5625 -19.285156 12.46875 -18.984375 L 10.375 -12.171875 Z M 18 -12.171875 "/></g></g></g><g fill="#00a79d" fill-opacity="1"><g transform="translate(85.58717, 237.42687)"><g><path d="M 3.6875 0 L 3.6875 -29.265625 L 9.890625 -29.265625 L 9.890625 -5.125 L 21.765625 -5.125 L 21.765625 0 Z M 3.6875 0 "/></g></g></g><g fill="#00a79d" fill-opacity="1"><g transform="translate(107.392367, 237.42687)"><g><path d="M 16.078125 0 L 9.03125 -22.96875 L 8.84375 -22.96875 C 8.875 -22.414062 8.914062 -21.585938 8.96875 -20.484375 C 9.03125 -19.390625 9.085938 -18.21875 9.140625 -16.96875 C 9.203125 -15.726562 9.234375 -14.609375 9.234375 -13.609375 L 9.234375 0 L 3.6875 0 L 3.6875 -29.265625 L 12.125 -29.265625 L 19.0625 -6.890625 L 19.171875 -6.890625 L 26.53125 -29.265625 L 34.96875 -29.265625 L 34.96875 0 L 29.1875 0 L 29.1875 -13.859375 C 29.1875 -14.773438 29.203125 -15.832031 29.234375 -17.03125 C 29.265625 -18.238281 29.304688 -19.382812 29.359375 -20.46875 C 29.421875 -21.5625 29.460938 -22.378906 29.484375 -22.921875 L 29.3125 -22.921875 L 21.765625 0 Z M 16.078125 0 "/></g></g></g><g fill="#ffffff" fill-opacity="1"><g transform="translate(144.697008, 237.42687)"><g/></g></g><g fill="#0874aa" fill-opacity="1"><g transform="translate(154.001695, 237.42687)"><g><path d="M 20.734375 -7.96875 C 20.734375 -6.226562 20.3125 -4.734375 19.46875 -3.484375 C 18.625 -2.234375 17.410156 -1.269531 15.828125 -0.59375 C 14.242188 0.0703125 12.359375 0.40625 10.171875 0.40625 C 9.097656 0.40625 8.070312 0.34375 7.09375 0.21875 C 6.125 0.101562 5.207031 -0.0664062 4.34375 -0.296875 C 3.488281 -0.535156 2.707031 -0.820312 2 -1.15625 L 2 -5.6875 C 3.1875 -5.164062 4.515625 -4.691406 5.984375 -4.265625 C 7.453125 -3.847656 8.945312 -3.640625 10.46875 -3.640625 C 11.707031 -3.640625 12.738281 -3.800781 13.5625 -4.125 C 14.382812 -4.457031 14.992188 -4.925781 15.390625 -5.53125 C 15.796875 -6.144531 16 -6.859375 16 -7.671875 C 16 -8.535156 15.765625 -9.265625 15.296875 -9.859375 C 14.828125 -10.460938 14.117188 -11.015625 13.171875 -11.515625 C 12.234375 -12.015625 11.0625 -12.554688 9.65625 -13.140625 C 8.6875 -13.523438 7.765625 -13.960938 6.890625 -14.453125 C 6.015625 -14.941406 5.238281 -15.519531 4.5625 -16.1875 C 3.882812 -16.863281 3.347656 -17.65625 2.953125 -18.5625 C 2.554688 -19.476562 2.359375 -20.554688 2.359375 -21.796875 C 2.359375 -23.453125 2.753906 -24.867188 3.546875 -26.046875 C 4.347656 -27.222656 5.472656 -28.125 6.921875 -28.75 C 8.367188 -29.375 10.054688 -29.6875 11.984375 -29.6875 C 13.523438 -29.6875 14.972656 -29.523438 16.328125 -29.203125 C 17.679688 -28.890625 19.007812 -28.4375 20.3125 -27.84375 L 18.796875 -23.984375 C 17.597656 -24.472656 16.429688 -24.863281 15.296875 -25.15625 C 14.171875 -25.457031 13.023438 -25.609375 11.859375 -25.609375 C 10.835938 -25.609375 9.972656 -25.453125 9.265625 -25.140625 C 8.554688 -24.835938 8.019531 -24.40625 7.65625 -23.84375 C 7.289062 -23.289062 7.109375 -22.632812 7.109375 -21.875 C 7.109375 -21.019531 7.316406 -20.300781 7.734375 -19.71875 C 8.160156 -19.144531 8.816406 -18.617188 9.703125 -18.140625 C 10.585938 -17.660156 11.734375 -17.125 13.140625 -16.53125 C 14.753906 -15.863281 16.125 -15.160156 17.25 -14.421875 C 18.375 -13.691406 19.234375 -12.816406 19.828125 -11.796875 C 20.429688 -10.773438 20.734375 -9.5 20.734375 -7.96875 Z M 20.734375 -7.96875 "/></g></g></g><g fill="#0874aa" fill-opacity="1"><g transform="translate(175.186404, 237.42687)"><g><path d="M 11.609375 -3.40625 C 12.222656 -3.40625 12.828125 -3.460938 13.421875 -3.578125 C 14.023438 -3.691406 14.578125 -3.828125 15.078125 -3.984375 L 15.078125 -0.421875 C 14.554688 -0.191406 13.878906 0 13.046875 0.15625 C 12.222656 0.320312 11.363281 0.40625 10.46875 0.40625 C 9.21875 0.40625 8.085938 0.195312 7.078125 -0.21875 C 6.078125 -0.644531 5.285156 -1.367188 4.703125 -2.390625 C 4.117188 -3.421875 3.828125 -4.847656 3.828125 -6.671875 L 3.828125 -18.578125 L 0.796875 -18.578125 L 0.796875 -20.6875 L 4.046875 -22.34375 L 5.578125 -27.09375 L 8.546875 -27.09375 L 8.546875 -22.15625 L 14.890625 -22.15625 L 14.890625 -18.578125 L 8.546875 -18.578125 L 8.546875 -6.734375 C 8.546875 -5.609375 8.828125 -4.769531 9.390625 -4.21875 C 9.953125 -3.675781 10.691406 -3.40625 11.609375 -3.40625 Z M 11.609375 -3.40625 "/></g></g></g><g fill="#0874aa" fill-opacity="1"><g transform="translate(190.046147, 237.42687)"><g><path d="M 22.6875 -22.15625 L 22.6875 0 L 18.984375 0 L 18.34375 -2.984375 L 18.078125 -2.984375 C 17.609375 -2.222656 17.015625 -1.59375 16.296875 -1.09375 C 15.578125 -0.59375 14.773438 -0.21875 13.890625 0.03125 C 13.015625 0.28125 12.085938 0.40625 11.109375 0.40625 C 9.441406 0.40625 8.015625 0.125 6.828125 -0.4375 C 5.648438 -1.007812 4.75 -1.890625 4.125 -3.078125 C 3.5 -4.265625 3.1875 -5.800781 3.1875 -7.6875 L 3.1875 -22.15625 L 7.90625 -22.15625 L 7.90625 -8.5625 C 7.90625 -6.84375 8.253906 -5.554688 8.953125 -4.703125 C 9.660156 -3.847656 10.753906 -3.421875 12.234375 -3.421875 C 13.660156 -3.421875 14.789062 -3.710938 15.625 -4.296875 C 16.46875 -4.890625 17.066406 -5.757812 17.421875 -6.90625 C 17.773438 -8.050781 17.953125 -9.457031 17.953125 -11.125 L 17.953125 -22.15625 Z M 22.6875 -22.15625 "/></g></g></g><g fill="#0874aa" fill-opacity="1"><g transform="translate(214.733609, 237.42687)"><g><path d="M 10.8125 0.40625 C 8.164062 0.40625 6.046875 -0.554688 4.453125 -2.484375 C 2.859375 -4.421875 2.0625 -7.269531 2.0625 -11.03125 C 2.0625 -14.832031 2.867188 -17.707031 4.484375 -19.65625 C 6.109375 -21.601562 8.25 -22.578125 10.90625 -22.578125 C 12.03125 -22.578125 13.007812 -22.425781 13.84375 -22.125 C 14.6875 -21.832031 15.410156 -21.429688 16.015625 -20.921875 C 16.628906 -20.410156 17.148438 -19.84375 17.578125 -19.21875 L 17.796875 -19.21875 C 17.734375 -19.632812 17.65625 -20.234375 17.5625 -21.015625 C 17.476562 -21.796875 17.4375 -22.519531 17.4375 -23.1875 L 17.4375 -31.15625 L 22.15625 -31.15625 L 22.15625 0 L 18.484375 0 L 17.640625 -3.015625 L 17.4375 -3.015625 C 17.039062 -2.378906 16.535156 -1.800781 15.921875 -1.28125 C 15.316406 -0.769531 14.597656 -0.359375 13.765625 -0.046875 C 12.929688 0.253906 11.945312 0.40625 10.8125 0.40625 Z M 12.125 -3.421875 C 14.144531 -3.421875 15.566406 -4 16.390625 -5.15625 C 17.222656 -6.320312 17.648438 -8.066406 17.671875 -10.390625 L 17.671875 -11.015625 C 17.671875 -13.492188 17.269531 -15.394531 16.46875 -16.71875 C 15.675781 -18.050781 14.21875 -18.71875 12.09375 -18.71875 C 10.394531 -18.71875 9.101562 -18.03125 8.21875 -16.65625 C 7.332031 -15.289062 6.890625 -13.390625 6.890625 -10.953125 C 6.890625 -8.503906 7.332031 -6.632812 8.21875 -5.34375 C 9.101562 -4.0625 10.40625 -3.421875 12.125 -3.421875 Z M 12.125 -3.421875 "/></g></g></g><g fill="#0874aa" fill-opacity="1"><g transform="translate(238.900657, 237.42687)"><g><path d="M 8.0625 -22.15625 L 8.0625 0 L 3.359375 0 L 3.359375 -22.15625 Z M 5.75 -30.65625 C 6.46875 -30.65625 7.085938 -30.457031 7.609375 -30.0625 C 8.140625 -29.675781 8.40625 -29.007812 8.40625 -28.0625 C 8.40625 -27.132812 8.140625 -26.472656 7.609375 -26.078125 C 7.085938 -25.679688 6.46875 -25.484375 5.75 -25.484375 C 5 -25.484375 4.363281 -25.679688 3.84375 -26.078125 C 3.332031 -26.472656 3.078125 -27.132812 3.078125 -28.0625 C 3.078125 -29.007812 3.332031 -29.675781 3.84375 -30.0625 C 4.363281 -30.457031 5 -30.65625 5.75 -30.65625 Z M 5.75 -30.65625 "/></g></g></g><g fill="#0874aa" fill-opacity="1"><g transform="translate(248.976642, 237.42687)"><g><path d="M 22.984375 -11.125 C 22.984375 -9.289062 22.742188 -7.65625 22.265625 -6.21875 C 21.785156 -4.789062 21.082031 -3.585938 20.15625 -2.609375 C 19.238281 -1.628906 18.128906 -0.878906 16.828125 -0.359375 C 15.535156 0.148438 14.078125 0.40625 12.453125 0.40625 C 10.929688 0.40625 9.535156 0.148438 8.265625 -0.359375 C 6.992188 -0.878906 5.894531 -1.628906 4.96875 -2.609375 C 4.039062 -3.585938 3.320312 -4.789062 2.8125 -6.21875 C 2.3125 -7.65625 2.0625 -9.289062 2.0625 -11.125 C 2.0625 -13.570312 2.484375 -15.644531 3.328125 -17.34375 C 4.179688 -19.050781 5.394531 -20.347656 6.96875 -21.234375 C 8.539062 -22.128906 10.414062 -22.578125 12.59375 -22.578125 C 14.632812 -22.578125 16.4375 -22.128906 18 -21.234375 C 19.5625 -20.347656 20.78125 -19.050781 21.65625 -17.34375 C 22.539062 -15.632812 22.984375 -13.5625 22.984375 -11.125 Z M 6.90625 -11.125 C 6.90625 -9.507812 7.101562 -8.128906 7.5 -6.984375 C 7.894531 -5.835938 8.503906 -4.957031 9.328125 -4.34375 C 10.160156 -3.738281 11.226562 -3.4375 12.53125 -3.4375 C 13.84375 -3.4375 14.910156 -3.738281 15.734375 -4.34375 C 16.566406 -4.957031 17.175781 -5.835938 17.5625 -6.984375 C 17.945312 -8.128906 18.140625 -9.507812 18.140625 -11.125 C 18.140625 -12.738281 17.945312 -14.109375 17.5625 -15.234375 C 17.175781 -16.367188 16.566406 -17.234375 15.734375 -17.828125 C 14.910156 -18.421875 13.835938 -18.71875 12.515625 -18.71875 C 10.566406 -18.71875 9.144531 -18.0625 8.25 -16.75 C 7.351562 -15.445312 6.90625 -13.570312 6.90625 -11.125 Z M 6.90625 -11.125 "/></g></g></g><g clip-path="url(#9e8dd94ad6)"><g clip-path="url(#e99774d039)"><g clip-path="url(#9367cc18d4)"><g clip-path="url(#255767630f)"><path fill="#0874aa" d="M 356.605469 110.183594 C 352.371094 116.402344 348.140625 122.625 343.90625 128.84375 C 344.011719 128.917969 344.117188 128.996094 344.222656 129.070312 C 349.339844 122.21875 353.949219 114.976562 359.542969 108.464844 C 358.515625 111.972656 356.085938 114.730469 354.554688 117.957031 C 354.859375 118.234375 355.15625 118.070312 355.335938 117.835938 C 356.25 116.652344 357.238281 115.507812 357.988281 114.222656 C 358.46875 113.402344 359.621094 112.96875 359.4375 111.730469 C 359.402344 111.464844 359.816406 111.375 360.171875 111.441406 C 360.996094 111.597656 361.90625 111.875 362.058594 110.527344 C 362.085938 110.285156 362.457031 110.242188 362.707031 110.363281 C 362.917969 110.46875 362.960938 110.683594 362.828125 110.867188 C 362.167969 111.765625 362.195312 113.15625 360.851562 113.570312 C 360.480469 113.6875 360.058594 113.882812 360.046875 114.375 C 360.03125 114.914062 359.59375 115.628906 360.089844 115.945312 C 360.722656 116.351562 360.972656 115.511719 361.3125 115.160156 C 362.359375 114.066406 362.578125 112.441406 363.695312 111.371094 C 364.035156 111.050781 364.203125 110.226562 364.746094 110.578125 C 365.273438 110.917969 364.546875 111.328125 364.351562 111.671875 C 363.707031 112.8125 363.085938 113.945312 363.023438 115.382812 C 364.054688 114.675781 364.664062 113.738281 365.238281 112.789062 C 365.871094 111.742188 366.257812 110.453125 367.984375 110.976562 C 368.453125 111.117188 369.050781 110.84375 369.765625 110.734375 C 368.636719 109.261719 369.117188 108.238281 370.386719 107.261719 C 371.058594 106.746094 371.5 105.921875 372.355469 105.417969 C 371.859375 106.390625 371.414062 107.394531 370.851562 108.324219 C 370.40625 109.058594 369.664062 109.554688 371 110.292969 C 371.753906 110.710938 370.902344 111.539062 370.613281 112.113281 C 370.292969 112.757812 369.449219 113.113281 369.558594 114.160156 C 370.355469 113.773438 370.398438 112.792969 371.28125 112.296875 C 371.457031 113.75 370.320312 114.53125 370.003906 115.597656 C 369.914062 115.914062 369.601562 116.167969 369.367188 116.433594 C 367.023438 119.121094 365.933594 122.574219 363.859375 125.445312 C 361.460938 128.773438 359.179688 132.191406 357.015625 135.675781 C 355.964844 137.371094 354.601562 138.882812 353.707031 140.566406 C 353.046875 141.800781 351.957031 142.796875 351.570312 144.226562 C 351.285156 145.269531 350.785156 146.328125 349.796875 146.976562 C 349.390625 147.238281 349.34375 147.621094 349.3125 148.023438 C 349.25 148.777344 348.890625 149.386719 348.3125 149.828125 C 347.53125 150.421875 346.851562 151.046875 346.625 152.0625 C 346.535156 152.472656 346.234375 152.75 345.761719 152.800781 C 345.59375 152.816406 345.4375 152.957031 345.277344 153.042969 C 346.316406 154.929688 344.507812 155.628906 343.65625 156.613281 C 342.902344 157.480469 342.601562 158.578125 342.117188 159.507812 C 341.539062 160.613281 341.066406 161.367188 339.851562 161.667969 C 339.46875 161.761719 339.628906 162.265625 339.574219 162.605469 C 339.332031 164.132812 339.101562 165.550781 337.652344 166.660156 C 336.957031 167.195312 336.679688 168.527344 336.132812 169.460938 C 335.476562 170.582031 334.949219 171.808594 333.675781 172.414062 C 333.484375 172.503906 333.332031 172.585938 333.347656 172.835938 C 333.457031 174.671875 332.601562 175.804688 330.835938 176.28125 C 330.742188 176.308594 330.605469 176.566406 330.628906 176.589844 C 331.324219 177.363281 330.609375 177.898438 330.28125 178.4375 C 328.09375 182.03125 325.933594 185.652344 323.613281 189.148438 C 319.453125 195.40625 315.648438 201.882812 311.59375 208.203125 C 307.097656 215.21875 302.53125 222.195312 298.070312 229.238281 C 296.667969 231.457031 295.078125 233.558594 293.535156 235.6875 C 292.8125 236.683594 292 237.511719 290.546875 237.394531 C 289.570312 237.316406 289.046875 238.105469 288.707031 238.949219 C 287.875 241.023438 285.855469 241.644531 283.933594 240.425781 C 283.027344 239.847656 282.277344 239.097656 281.585938 238.292969 C 280.828125 237.410156 280.105469 236.5 279.332031 235.632812 C 276.542969 232.507812 276.234375 229.292969 278.394531 225.75 C 282.449219 219.101562 286.542969 212.476562 290.550781 205.804688 C 298.386719 192.753906 306.46875 179.855469 314.882812 167.175781 C 318.257812 162.097656 321.730469 157.066406 325.136719 152.011719 C 329.40625 145.679688 333.875 139.511719 338.46875 133.429688 C 341.164062 129.859375 343.53125 126.0625 346.3125 122.570312 C 349.097656 119.066406 351.703125 115.429688 354.359375 111.832031 C 354.886719 111.117188 355.648438 110.574219 356.300781 109.953125 C 356.402344 110.03125 356.503906 110.105469 356.605469 110.183594 " fill-opacity="1" fill-rule="nonzero"/></g></g></g></g><g clip-path="url(#95dd1e41b7)"><g clip-path="url(#b29c4a7322)"><g clip-path="url(#d65c3a8450)"><path fill="#0874aa" d="M 349.996094 216.832031 C 349.03125 215.609375 348.066406 214.386719 347.105469 213.160156 C 347.015625 213.046875 346.917969 212.929688 346.851562 212.804688 C 345.730469 210.683594 344.289062 208.769531 342.925781 206.8125 C 338.808594 200.882812 334.644531 194.984375 330.511719 189.066406 C 328.445312 186.105469 326.398438 183.136719 324.355469 180.15625 C 323.640625 179.113281 322.972656 178.042969 322.371094 176.921875 C 321.757812 175.761719 320.90625 174.730469 320.238281 173.597656 C 318.707031 170.988281 316.898438 168.558594 315.339844 165.972656 C 314.234375 164.132812 312.992188 162.382812 311.914062 160.53125 C 310.710938 158.460938 309.292969 156.539062 308.015625 154.523438 C 307.15625 153.160156 306.40625 151.71875 305.414062 150.464844 C 303.195312 147.675781 301.261719 144.683594 299.238281 141.757812 C 297.71875 139.558594 296.324219 137.265625 295.503906 134.683594 C 295.386719 134.320312 295.144531 133.996094 294.925781 133.675781 C 293.878906 132.144531 292.820312 130.625 291.765625 129.101562 C 291.542969 128.78125 291.316406 128.460938 291.132812 128.121094 C 290.941406 127.761719 290.90625 127.378906 291.066406 126.992188 C 291.15625 126.769531 291.449219 126.597656 291.664062 126.710938 C 291.957031 126.867188 292.226562 127.074219 292.515625 127.242188 C 292.585938 127.28125 292.695312 127.25 292.785156 127.25 C 292.785156 127.167969 292.816406 127.0625 292.777344 127.007812 C 292.175781 126.117188 291.582031 125.222656 290.957031 124.355469 C 290.695312 123.988281 290.488281 123.625 290.417969 123.175781 C 290.34375 122.695312 290.203125 122.226562 290.109375 121.75 C 290.0625 121.511719 290.015625 121.265625 290.027344 121.03125 C 290.0625 120.371094 290.570312 119.976562 291.222656 120.0625 C 291.730469 120.128906 292.128906 120.386719 292.453125 120.777344 C 292.824219 121.226562 293.210938 121.664062 293.601562 122.101562 C 293.808594 122.332031 294.050781 122.398438 294.382812 122.359375 C 294.703125 122.320312 295.042969 122.433594 295.378906 122.464844 C 295.425781 122.46875 295.535156 122.367188 295.523438 122.339844 C 295.484375 122.203125 295.40625 122.078125 295.351562 121.941406 C 295.160156 121.484375 295.007812 121 295.226562 120.527344 C 295.421875 120.101562 295.265625 119.800781 295.066406 119.445312 C 294.710938 118.8125 294.382812 118.15625 294.070312 117.5 C 293.964844 117.28125 293.921875 117.03125 293.894531 116.792969 C 293.847656 116.269531 294.042969 115.835938 294.476562 115.527344 C 294.921875 115.210938 295.398438 115.246094 295.863281 115.476562 C 296.304688 115.703125 296.65625 116.046875 296.875 116.5 C 297.722656 118.273438 299.007812 119.761719 300.082031 121.382812 C 300.230469 121.617188 300.472656 121.867188 300.71875 121.941406 C 301.289062 122.117188 301.582031 122.546875 301.882812 122.988281 C 302.707031 124.199219 303.523438 125.414062 304.351562 126.621094 C 305.792969 128.707031 307.242188 130.789062 308.683594 132.878906 C 308.96875 133.285156 308.972656 133.285156 309.511719 132.972656 C 309.90625 132.746094 310.308594 132.753906 310.578125 133.046875 C 310.808594 133.296875 311.007812 133.578125 311.203125 133.855469 C 312.476562 135.703125 313.746094 137.550781 315.019531 139.398438 C 316.34375 141.328125 317.65625 143.261719 318.859375 145.273438 C 319.730469 146.738281 320.753906 148.113281 321.714844 149.523438 C 322.617188 150.855469 323.605469 152.140625 324.425781 153.519531 C 327.621094 158.894531 331.386719 163.878906 334.921875 169.019531 C 337.65625 173 340.441406 176.949219 343.226562 180.894531 C 344.515625 182.722656 345.898438 184.492188 347.167969 186.339844 C 348.492188 188.265625 349.722656 190.257812 351.015625 192.207031 C 351.878906 193.507812 352.789062 194.761719 353.84375 195.925781 C 355.082031 197.300781 356.175781 198.800781 357.332031 200.246094 C 358.03125 201.121094 358.730469 201.996094 359.433594 202.867188 C 359.804688 203.332031 360.117188 203.824219 360.148438 204.4375 C 360.164062 204.851562 360.363281 205.179688 360.601562 205.492188 C 361.34375 206.457031 362.097656 207.410156 362.828125 208.386719 C 363.621094 209.441406 364.375 210.519531 365.167969 211.570312 C 365.929688 212.582031 366.75 213.550781 367.492188 214.574219 C 368.722656 216.273438 369.921875 217.996094 371.101562 219.726562 C 371.402344 220.164062 371.605469 220.671875 371.828125 221.160156 C 372.132812 221.839844 372.023438 222.316406 371.460938 222.863281 C 371.390625 222.929688 371.296875 222.96875 371.222656 223.035156 C 370.925781 223.304688 370.886719 223.484375 371.097656 223.773438 C 371.578125 224.449219 372.074219 225.113281 372.5625 225.785156 C 372.761719 226.0625 372.96875 226.335938 373.132812 226.632812 C 373.644531 227.550781 373.316406 228.453125 372.335938 228.890625 C 372.15625 228.96875 371.90625 228.988281 371.8125 229.121094 C 371.4375 229.648438 370.925781 229.835938 370.320312 229.917969 C 370.125 229.945312 369.957031 230.199219 369.785156 230.355469 C 369.21875 230.863281 368.515625 230.949219 367.925781 230.503906 C 367.308594 230.035156 366.730469 229.511719 366.144531 229.007812 C 365.820312 228.730469 365.835938 228.734375 365.546875 229.195312 C 365.484375 229.289062 365.300781 229.355469 365.179688 229.347656 C 365.050781 229.335938 364.929688 229.222656 364.808594 229.148438 C 364.59375 229.019531 364.558594 228.574219 364.152344 228.773438 C 364.28125 229.023438 364.378906 229.296875 364.546875 229.519531 C 365.320312 230.523438 366.144531 231.484375 366.882812 232.511719 C 367.476562 233.34375 367.183594 234.25 366.273438 234.707031 C 365.945312 234.867188 365.605469 234.90625 365.285156 234.757812 C 364.980469 234.617188 364.675781 234.4375 364.433594 234.210938 C 362.714844 232.558594 360.984375 230.925781 359.402344 229.132812 C 357.433594 226.902344 355.597656 224.574219 353.855469 222.160156 C 352.574219 220.386719 351.21875 218.65625 349.898438 216.910156 C 349.929688 216.886719 349.960938 216.859375 349.996094 216.832031 Z M 349.996094 216.832031 " fill-opacity="1" fill-rule="nonzero"/></g></g></g><g fill="#05415f" fill-opacity="1"><g transform="translate(30.396667, 280.617769)"><g><path d="M 4.484375 -5.703125 L 7.515625 -11.421875 L 8.953125 -11.421875 L 5.140625 -4.4375 L 5.140625 0 L 3.8125 0 L 3.8125 -4.375 L 0 -11.421875 L 1.453125 -11.421875 Z M 4.484375 -5.703125 "/></g></g></g><g fill="#05415f" fill-opacity="1"><g transform="translate(39.339801, 280.617769)"><g><path d="M 8.75 -4.296875 C 8.75 -3.597656 8.65625 -2.972656 8.46875 -2.421875 C 8.289062 -1.867188 8.03125 -1.398438 7.6875 -1.015625 C 7.34375 -0.640625 6.925781 -0.347656 6.4375 -0.140625 C 5.957031 0.0546875 5.410156 0.15625 4.796875 0.15625 C 4.222656 0.15625 3.695312 0.0546875 3.21875 -0.140625 C 2.738281 -0.347656 2.328125 -0.640625 1.984375 -1.015625 C 1.640625 -1.398438 1.367188 -1.867188 1.171875 -2.421875 C 0.984375 -2.972656 0.890625 -3.597656 0.890625 -4.296875 C 0.890625 -5.234375 1.046875 -6.03125 1.359375 -6.6875 C 1.679688 -7.351562 2.140625 -7.859375 2.734375 -8.203125 C 3.328125 -8.546875 4.03125 -8.71875 4.84375 -8.71875 C 5.625 -8.71875 6.304688 -8.539062 6.890625 -8.1875 C 7.484375 -7.84375 7.941406 -7.34375 8.265625 -6.6875 C 8.585938 -6.03125 8.75 -5.234375 8.75 -4.296875 Z M 2.234375 -4.296875 C 2.234375 -3.609375 2.320312 -3.007812 2.5 -2.5 C 2.6875 -2 2.96875 -1.609375 3.34375 -1.328125 C 3.726562 -1.054688 4.222656 -0.921875 4.828125 -0.921875 C 5.421875 -0.921875 5.90625 -1.054688 6.28125 -1.328125 C 6.664062 -1.609375 6.945312 -2 7.125 -2.5 C 7.3125 -3.007812 7.40625 -3.609375 7.40625 -4.296875 C 7.40625 -4.984375 7.3125 -5.570312 7.125 -6.0625 C 6.945312 -6.5625 6.664062 -6.945312 6.28125 -7.21875 C 5.90625 -7.488281 5.414062 -7.625 4.8125 -7.625 C 3.925781 -7.625 3.273438 -7.328125 2.859375 -6.734375 C 2.441406 -6.148438 2.234375 -5.335938 2.234375 -4.296875 Z M 2.234375 -4.296875 "/></g></g></g><g fill="#05415f" fill-opacity="1"><g transform="translate(48.96245, 280.617769)"><g><path d="M 8.4375 -8.5625 L 8.4375 0 L 7.375 0 L 7.1875 -1.203125 L 7.125 -1.203125 C 6.945312 -0.910156 6.71875 -0.660156 6.4375 -0.453125 C 6.15625 -0.253906 5.835938 -0.101562 5.484375 0 C 5.128906 0.101562 4.753906 0.15625 4.359375 0.15625 C 3.679688 0.15625 3.113281 0.046875 2.65625 -0.171875 C 2.195312 -0.390625 1.851562 -0.726562 1.625 -1.1875 C 1.394531 -1.644531 1.28125 -2.234375 1.28125 -2.953125 L 1.28125 -8.5625 L 2.59375 -8.5625 L 2.59375 -3.046875 C 2.59375 -2.335938 2.753906 -1.804688 3.078125 -1.453125 C 3.398438 -1.097656 3.890625 -0.921875 4.546875 -0.921875 C 5.179688 -0.921875 5.6875 -1.039062 6.0625 -1.28125 C 6.445312 -1.519531 6.722656 -1.875 6.890625 -2.34375 C 7.054688 -2.8125 7.140625 -3.382812 7.140625 -4.0625 L 7.140625 -8.5625 Z M 8.4375 -8.5625 "/></g></g></g><g fill="#05415f" fill-opacity="1"><g transform="translate(58.772554, 280.617769)"><g><path d="M 5.265625 -8.71875 C 5.429688 -8.71875 5.609375 -8.707031 5.796875 -8.6875 C 5.984375 -8.675781 6.148438 -8.65625 6.296875 -8.625 L 6.140625 -7.421875 C 5.992188 -7.453125 5.832031 -7.476562 5.65625 -7.5 C 5.488281 -7.519531 5.332031 -7.53125 5.1875 -7.53125 C 4.84375 -7.53125 4.515625 -7.460938 4.203125 -7.328125 C 3.898438 -7.191406 3.632812 -6.992188 3.40625 -6.734375 C 3.175781 -6.472656 2.992188 -6.160156 2.859375 -5.796875 C 2.734375 -5.441406 2.671875 -5.039062 2.671875 -4.59375 L 2.671875 0 L 1.375 0 L 1.375 -8.5625 L 2.453125 -8.5625 L 2.59375 -6.984375 L 2.640625 -6.984375 C 2.816406 -7.304688 3.03125 -7.597656 3.28125 -7.859375 C 3.53125 -8.117188 3.820312 -8.328125 4.15625 -8.484375 C 4.488281 -8.640625 4.859375 -8.71875 5.265625 -8.71875 Z M 5.265625 -8.71875 "/></g></g></g><g fill="#05415f" fill-opacity="1"><g transform="translate(65.310025, 280.617769)"><g/></g></g><g fill="#05415f" fill-opacity="1"><g transform="translate(69.46526, 280.617769)"><g><path d="M 10.5 0 L 8.96875 0 L 2.734375 -9.59375 L 2.671875 -9.59375 C 2.691406 -9.34375 2.710938 -9.050781 2.734375 -8.71875 C 2.753906 -8.394531 2.769531 -8.050781 2.78125 -7.6875 C 2.789062 -7.320312 2.796875 -6.945312 2.796875 -6.5625 L 2.796875 0 L 1.5625 0 L 1.5625 -11.421875 L 3.09375 -11.421875 L 9.296875 -1.859375 L 9.34375 -1.859375 C 9.332031 -2.046875 9.316406 -2.304688 9.296875 -2.640625 C 9.285156 -2.972656 9.273438 -3.332031 9.265625 -3.71875 C 9.253906 -4.113281 9.25 -4.476562 9.25 -4.8125 L 9.25 -11.421875 L 10.5 -11.421875 Z M 10.5 0 "/></g></g></g><g fill="#05415f" fill-opacity="1"><g transform="translate(81.509193, 280.617769)"><g><path d="M 4.671875 -8.71875 C 5.398438 -8.71875 6.023438 -8.554688 6.546875 -8.234375 C 7.066406 -7.910156 7.460938 -7.457031 7.734375 -6.875 C 8.015625 -6.300781 8.15625 -5.625 8.15625 -4.84375 L 8.15625 -4.046875 L 2.234375 -4.046875 C 2.253906 -3.035156 2.503906 -2.265625 2.984375 -1.734375 C 3.472656 -1.210938 4.15625 -0.953125 5.03125 -0.953125 C 5.570312 -0.953125 6.050781 -1 6.46875 -1.09375 C 6.882812 -1.195312 7.316406 -1.347656 7.765625 -1.546875 L 7.765625 -0.40625 C 7.335938 -0.207031 6.910156 -0.0664062 6.484375 0.015625 C 6.054688 0.109375 5.554688 0.15625 4.984375 0.15625 C 4.160156 0.15625 3.441406 -0.0078125 2.828125 -0.34375 C 2.210938 -0.6875 1.734375 -1.179688 1.390625 -1.828125 C 1.054688 -2.484375 0.890625 -3.28125 0.890625 -4.21875 C 0.890625 -5.144531 1.046875 -5.941406 1.359375 -6.609375 C 1.671875 -7.285156 2.109375 -7.804688 2.671875 -8.171875 C 3.234375 -8.535156 3.898438 -8.71875 4.671875 -8.71875 Z M 4.65625 -7.65625 C 3.957031 -7.65625 3.398438 -7.425781 2.984375 -6.96875 C 2.578125 -6.519531 2.335938 -5.890625 2.265625 -5.078125 L 6.796875 -5.078125 C 6.785156 -5.585938 6.703125 -6.035156 6.546875 -6.421875 C 6.398438 -6.816406 6.171875 -7.117188 5.859375 -7.328125 C 5.546875 -7.546875 5.144531 -7.65625 4.65625 -7.65625 Z M 4.65625 -7.65625 "/></g></g></g><g fill="#05415f" fill-opacity="1"><g transform="translate(90.491374, 280.617769)"><g><path d="M 3.40625 -4.390625 L 0.453125 -8.5625 L 1.9375 -8.5625 L 4.1875 -5.265625 L 6.4375 -8.5625 L 7.90625 -8.5625 L 4.953125 -4.390625 L 8.078125 0 L 6.59375 0 L 4.1875 -3.5 L 1.78125 0 L 0.3125 0 Z M 3.40625 -4.390625 "/></g></g></g><g fill="#05415f" fill-opacity="1"><g transform="translate(98.864329, 280.617769)"><g><path d="M 4.140625 -0.90625 C 4.347656 -0.90625 4.5625 -0.921875 4.78125 -0.953125 C 5.007812 -0.992188 5.195312 -1.039062 5.34375 -1.09375 L 5.34375 -0.09375 C 5.1875 -0.0195312 4.972656 0.0351562 4.703125 0.078125 C 4.441406 0.128906 4.179688 0.15625 3.921875 0.15625 C 3.472656 0.15625 3.0625 0.078125 2.6875 -0.078125 C 2.320312 -0.242188 2.023438 -0.515625 1.796875 -0.890625 C 1.578125 -1.273438 1.46875 -1.800781 1.46875 -2.46875 L 1.46875 -7.546875 L 0.25 -7.546875 L 0.25 -8.1875 L 1.484375 -8.6875 L 2 -10.546875 L 2.78125 -10.546875 L 2.78125 -8.5625 L 5.28125 -8.5625 L 5.28125 -7.546875 L 2.78125 -7.546875 L 2.78125 -2.515625 C 2.78125 -1.972656 2.898438 -1.566406 3.140625 -1.296875 C 3.390625 -1.035156 3.722656 -0.90625 4.140625 -0.90625 Z M 4.140625 -0.90625 "/></g></g></g><g fill="#05415f" fill-opacity="1"><g transform="translate(104.566061, 280.617769)"><g><path d="M 0.640625 -3.71875 L 0.640625 -4.875 L 4.515625 -4.875 L 4.515625 -3.71875 Z M 0.640625 -3.71875 "/></g></g></g><g fill="#05415f" fill-opacity="1"><g transform="translate(109.713247, 280.617769)"><g><path d="M 6.453125 -5.984375 L 10.4375 -5.984375 L 10.4375 -0.453125 C 9.84375 -0.242188 9.226562 -0.09375 8.59375 0 C 7.957031 0.101562 7.25 0.15625 6.46875 0.15625 C 5.28125 0.15625 4.28125 -0.078125 3.46875 -0.546875 C 2.65625 -1.023438 2.035156 -1.703125 1.609375 -2.578125 C 1.191406 -3.460938 0.984375 -4.507812 0.984375 -5.71875 C 0.984375 -6.894531 1.210938 -7.921875 1.671875 -8.796875 C 2.140625 -9.679688 2.816406 -10.367188 3.703125 -10.859375 C 4.585938 -11.347656 5.648438 -11.59375 6.890625 -11.59375 C 7.523438 -11.59375 8.125 -11.53125 8.6875 -11.40625 C 9.257812 -11.289062 9.789062 -11.128906 10.28125 -10.921875 L 9.78125 -9.765625 C 9.351562 -9.941406 8.882812 -10.09375 8.375 -10.21875 C 7.875 -10.351562 7.351562 -10.421875 6.8125 -10.421875 C 5.875 -10.421875 5.070312 -10.226562 4.40625 -9.84375 C 3.75 -9.457031 3.242188 -8.910156 2.890625 -8.203125 C 2.535156 -7.503906 2.359375 -6.675781 2.359375 -5.71875 C 2.359375 -4.757812 2.507812 -3.925781 2.8125 -3.21875 C 3.125 -2.519531 3.601562 -1.972656 4.25 -1.578125 C 4.90625 -1.191406 5.75 -1 6.78125 -1 C 7.289062 -1 7.726562 -1.023438 8.09375 -1.078125 C 8.46875 -1.140625 8.804688 -1.210938 9.109375 -1.296875 L 9.109375 -4.796875 L 6.453125 -4.796875 Z M 6.453125 -5.984375 "/></g></g></g><g fill="#05415f" fill-opacity="1"><g transform="translate(121.343225, 280.617769)"><g><path d="M 4.671875 -8.71875 C 5.398438 -8.71875 6.023438 -8.554688 6.546875 -8.234375 C 7.066406 -7.910156 7.460938 -7.457031 7.734375 -6.875 C 8.015625 -6.300781 8.15625 -5.625 8.15625 -4.84375 L 8.15625 -4.046875 L 2.234375 -4.046875 C 2.253906 -3.035156 2.503906 -2.265625 2.984375 -1.734375 C 3.472656 -1.210938 4.15625 -0.953125 5.03125 -0.953125 C 5.570312 -0.953125 6.050781 -1 6.46875 -1.09375 C 6.882812 -1.195312 7.316406 -1.347656 7.765625 -1.546875 L 7.765625 -0.40625 C 7.335938 -0.207031 6.910156 -0.0664062 6.484375 0.015625 C 6.054688 0.109375 5.554688 0.15625 4.984375 0.15625 C 4.160156 0.15625 3.441406 -0.0078125 2.828125 -0.34375 C 2.210938 -0.6875 1.734375 -1.179688 1.390625 -1.828125 C 1.054688 -2.484375 0.890625 -3.28125 0.890625 -4.21875 C 0.890625 -5.144531 1.046875 -5.941406 1.359375 -6.609375 C 1.671875 -7.285156 2.109375 -7.804688 2.671875 -8.171875 C 3.234375 -8.535156 3.898438 -8.71875 4.671875 -8.71875 Z M 4.65625 -7.65625 C 3.957031 -7.65625 3.398438 -7.425781 2.984375 -6.96875 C 2.578125 -6.519531 2.335938 -5.890625 2.265625 -5.078125 L 6.796875 -5.078125 C 6.785156 -5.585938 6.703125 -6.035156 6.546875 -6.421875 C 6.398438 -6.816406 6.171875 -7.117188 5.859375 -7.328125 C 5.546875 -7.546875 5.144531 -7.65625 4.65625 -7.65625 Z M 4.65625 -7.65625 "/></g></g></g><g fill="#05415f" fill-opacity="1"><g transform="translate(130.325406, 280.617769)"><g><path d="M 5.421875 -8.71875 C 6.441406 -8.71875 7.210938 -8.46875 7.734375 -7.96875 C 8.253906 -7.476562 8.515625 -6.679688 8.515625 -5.578125 L 8.515625 0 L 7.234375 0 L 7.234375 -5.5 C 7.234375 -6.207031 7.066406 -6.738281 6.734375 -7.09375 C 6.410156 -7.445312 5.914062 -7.625 5.25 -7.625 C 4.300781 -7.625 3.632812 -7.351562 3.25 -6.8125 C 2.863281 -6.28125 2.671875 -5.503906 2.671875 -4.484375 L 2.671875 0 L 1.375 0 L 1.375 -8.5625 L 2.421875 -8.5625 L 2.609375 -7.328125 L 2.6875 -7.328125 C 2.863281 -7.628906 3.09375 -7.882812 3.375 -8.09375 C 3.65625 -8.300781 3.96875 -8.457031 4.3125 -8.5625 C 4.664062 -8.664062 5.035156 -8.71875 5.421875 -8.71875 Z M 5.421875 -8.71875 "/></g></g></g><g fill="#05415f" fill-opacity="1"><g transform="translate(140.135509, 280.617769)"><g/></g></g><g fill="#05415f" fill-opacity="1"><g transform="translate(144.290744, 280.617769)"><g><path d="M 8.015625 -3.046875 C 8.015625 -2.367188 7.84375 -1.789062 7.5 -1.3125 C 7.164062 -0.832031 6.695312 -0.46875 6.09375 -0.21875 C 5.488281 0.03125 4.78125 0.15625 3.96875 0.15625 C 3.53125 0.15625 3.117188 0.132812 2.734375 0.09375 C 2.347656 0.0507812 1.992188 -0.00390625 1.671875 -0.078125 C 1.347656 -0.160156 1.066406 -0.257812 0.828125 -0.375 L 0.828125 -1.65625 C 1.210938 -1.488281 1.6875 -1.335938 2.25 -1.203125 C 2.8125 -1.066406 3.398438 -1 4.015625 -1 C 4.585938 -1 5.070312 -1.070312 5.46875 -1.21875 C 5.863281 -1.375 6.164062 -1.597656 6.375 -1.890625 C 6.582031 -2.179688 6.6875 -2.53125 6.6875 -2.9375 C 6.6875 -3.320312 6.597656 -3.644531 6.421875 -3.90625 C 6.253906 -4.175781 5.96875 -4.414062 5.5625 -4.625 C 5.164062 -4.84375 4.625 -5.078125 3.9375 -5.328125 C 3.457031 -5.492188 3.03125 -5.679688 2.65625 -5.890625 C 2.289062 -6.097656 1.984375 -6.332031 1.734375 -6.59375 C 1.484375 -6.851562 1.289062 -7.15625 1.15625 -7.5 C 1.03125 -7.84375 0.96875 -8.234375 0.96875 -8.671875 C 0.96875 -9.285156 1.125 -9.804688 1.4375 -10.234375 C 1.75 -10.671875 2.175781 -11.003906 2.71875 -11.234375 C 3.269531 -11.472656 3.90625 -11.59375 4.625 -11.59375 C 5.226562 -11.59375 5.789062 -11.535156 6.3125 -11.421875 C 6.832031 -11.304688 7.304688 -11.148438 7.734375 -10.953125 L 7.328125 -9.8125 C 6.910156 -9.988281 6.472656 -10.132812 6.015625 -10.25 C 5.554688 -10.363281 5.082031 -10.421875 4.59375 -10.421875 C 4.101562 -10.421875 3.6875 -10.347656 3.34375 -10.203125 C 3.007812 -10.054688 2.753906 -9.851562 2.578125 -9.59375 C 2.398438 -9.332031 2.3125 -9.023438 2.3125 -8.671875 C 2.3125 -8.265625 2.394531 -7.925781 2.5625 -7.65625 C 2.738281 -7.394531 3.007812 -7.160156 3.375 -6.953125 C 3.75 -6.753906 4.242188 -6.539062 4.859375 -6.3125 C 5.535156 -6.070312 6.109375 -5.8125 6.578125 -5.53125 C 7.046875 -5.257812 7.398438 -4.925781 7.640625 -4.53125 C 7.890625 -4.144531 8.015625 -3.648438 8.015625 -3.046875 Z M 8.015625 -3.046875 "/></g></g></g><g fill="#05415f" fill-opacity="1"><g transform="translate(153.062045, 280.617769)"><g><path d="M 8.75 -4.296875 C 8.75 -3.597656 8.65625 -2.972656 8.46875 -2.421875 C 8.289062 -1.867188 8.03125 -1.398438 7.6875 -1.015625 C 7.34375 -0.640625 6.925781 -0.347656 6.4375 -0.140625 C 5.957031 0.0546875 5.410156 0.15625 4.796875 0.15625 C 4.222656 0.15625 3.695312 0.0546875 3.21875 -0.140625 C 2.738281 -0.347656 2.328125 -0.640625 1.984375 -1.015625 C 1.640625 -1.398438 1.367188 -1.867188 1.171875 -2.421875 C 0.984375 -2.972656 0.890625 -3.597656 0.890625 -4.296875 C 0.890625 -5.234375 1.046875 -6.03125 1.359375 -6.6875 C 1.679688 -7.351562 2.140625 -7.859375 2.734375 -8.203125 C 3.328125 -8.546875 4.03125 -8.71875 4.84375 -8.71875 C 5.625 -8.71875 6.304688 -8.539062 6.890625 -8.1875 C 7.484375 -7.84375 7.941406 -7.34375 8.265625 -6.6875 C 8.585938 -6.03125 8.75 -5.234375 8.75 -4.296875 Z M 2.234375 -4.296875 C 2.234375 -3.609375 2.320312 -3.007812 2.5 -2.5 C 2.6875 -2 2.96875 -1.609375 3.34375 -1.328125 C 3.726562 -1.054688 4.222656 -0.921875 4.828125 -0.921875 C 5.421875 -0.921875 5.90625 -1.054688 6.28125 -1.328125 C 6.664062 -1.609375 6.945312 -2 7.125 -2.5 C 7.3125 -3.007812 7.40625 -3.609375 7.40625 -4.296875 C 7.40625 -4.984375 7.3125 -5.570312 7.125 -6.0625 C 6.945312 -6.5625 6.664062 -6.945312 6.28125 -7.21875 C 5.90625 -7.488281 5.414062 -7.625 4.8125 -7.625 C 3.925781 -7.625 3.273438 -7.328125 2.859375 -6.734375 C 2.441406 -6.148438 2.234375 -5.335938 2.234375 -4.296875 Z M 2.234375 -4.296875 "/></g></g></g><g fill="#05415f" fill-opacity="1"><g transform="translate(162.684695, 280.617769)"><g><path d="M 2.671875 0 L 1.375 0 L 1.375 -12.15625 L 2.671875 -12.15625 Z M 2.671875 0 "/></g></g></g><g fill="#05415f" fill-opacity="1"><g transform="translate(166.722776, 280.617769)"><g><path d="M 8.4375 -8.5625 L 8.4375 0 L 7.375 0 L 7.1875 -1.203125 L 7.125 -1.203125 C 6.945312 -0.910156 6.71875 -0.660156 6.4375 -0.453125 C 6.15625 -0.253906 5.835938 -0.101562 5.484375 0 C 5.128906 0.101562 4.753906 0.15625 4.359375 0.15625 C 3.679688 0.15625 3.113281 0.046875 2.65625 -0.171875 C 2.195312 -0.390625 1.851562 -0.726562 1.625 -1.1875 C 1.394531 -1.644531 1.28125 -2.234375 1.28125 -2.953125 L 1.28125 -8.5625 L 2.59375 -8.5625 L 2.59375 -3.046875 C 2.59375 -2.335938 2.753906 -1.804688 3.078125 -1.453125 C 3.398438 -1.097656 3.890625 -0.921875 4.546875 -0.921875 C 5.179688 -0.921875 5.6875 -1.039062 6.0625 -1.28125 C 6.445312 -1.519531 6.722656 -1.875 6.890625 -2.34375 C 7.054688 -2.8125 7.140625 -3.382812 7.140625 -4.0625 L 7.140625 -8.5625 Z M 8.4375 -8.5625 "/></g></g></g><g fill="#05415f" fill-opacity="1"><g transform="translate(176.53288, 280.617769)"><g><path d="M 4.140625 -0.90625 C 4.347656 -0.90625 4.5625 -0.921875 4.78125 -0.953125 C 5.007812 -0.992188 5.195312 -1.039062 5.34375 -1.09375 L 5.34375 -0.09375 C 5.1875 -0.0195312 4.972656 0.0351562 4.703125 0.078125 C 4.441406 0.128906 4.179688 0.15625 3.921875 0.15625 C 3.472656 0.15625 3.0625 0.078125 2.6875 -0.078125 C 2.320312 -0.242188 2.023438 -0.515625 1.796875 -0.890625 C 1.578125 -1.273438 1.46875 -1.800781 1.46875 -2.46875 L 1.46875 -7.546875 L 0.25 -7.546875 L 0.25 -8.1875 L 1.484375 -8.6875 L 2 -10.546875 L 2.78125 -10.546875 L 2.78125 -8.5625 L 5.28125 -8.5625 L 5.28125 -7.546875 L 2.78125 -7.546875 L 2.78125 -2.515625 C 2.78125 -1.972656 2.898438 -1.566406 3.140625 -1.296875 C 3.390625 -1.035156 3.722656 -0.90625 4.140625 -0.90625 Z M 4.140625 -0.90625 "/></g></g></g><g fill="#05415f" fill-opacity="1"><g transform="translate(182.234613, 280.617769)"><g><path d="M 2.671875 -8.5625 L 2.671875 0 L 1.375 0 L 1.375 -8.5625 Z M 2.03125 -11.765625 C 2.25 -11.765625 2.429688 -11.695312 2.578125 -11.5625 C 2.734375 -11.425781 2.8125 -11.210938 2.8125 -10.921875 C 2.8125 -10.628906 2.734375 -10.410156 2.578125 -10.265625 C 2.429688 -10.128906 2.25 -10.0625 2.03125 -10.0625 C 1.8125 -10.0625 1.625 -10.128906 1.46875 -10.265625 C 1.320312 -10.410156 1.25 -10.628906 1.25 -10.921875 C 1.25 -11.210938 1.320312 -11.425781 1.46875 -11.5625 C 1.625 -11.695312 1.8125 -11.765625 2.03125 -11.765625 Z M 2.03125 -11.765625 "/></g></g></g><g fill="#05415f" fill-opacity="1"><g transform="translate(186.272694, 280.617769)"><g><path d="M 8.75 -4.296875 C 8.75 -3.597656 8.65625 -2.972656 8.46875 -2.421875 C 8.289062 -1.867188 8.03125 -1.398438 7.6875 -1.015625 C 7.34375 -0.640625 6.925781 -0.347656 6.4375 -0.140625 C 5.957031 0.0546875 5.410156 0.15625 4.796875 0.15625 C 4.222656 0.15625 3.695312 0.0546875 3.21875 -0.140625 C 2.738281 -0.347656 2.328125 -0.640625 1.984375 -1.015625 C 1.640625 -1.398438 1.367188 -1.867188 1.171875 -2.421875 C 0.984375 -2.972656 0.890625 -3.597656 0.890625 -4.296875 C 0.890625 -5.234375 1.046875 -6.03125 1.359375 -6.6875 C 1.679688 -7.351562 2.140625 -7.859375 2.734375 -8.203125 C 3.328125 -8.546875 4.03125 -8.71875 4.84375 -8.71875 C 5.625 -8.71875 6.304688 -8.539062 6.890625 -8.1875 C 7.484375 -7.84375 7.941406 -7.34375 8.265625 -6.6875 C 8.585938 -6.03125 8.75 -5.234375 8.75 -4.296875 Z M 2.234375 -4.296875 C 2.234375 -3.609375 2.320312 -3.007812 2.5 -2.5 C 2.6875 -2 2.96875 -1.609375 3.34375 -1.328125 C 3.726562 -1.054688 4.222656 -0.921875 4.828125 -0.921875 C 5.421875 -0.921875 5.90625 -1.054688 6.28125 -1.328125 C 6.664062 -1.609375 6.945312 -2 7.125 -2.5 C 7.3125 -3.007812 7.40625 -3.609375 7.40625 -4.296875 C 7.40625 -4.984375 7.3125 -5.570312 7.125 -6.0625 C 6.945312 -6.5625 6.664062 -6.945312 6.28125 -7.21875 C 5.90625 -7.488281 5.414062 -7.625 4.8125 -7.625 C 3.925781 -7.625 3.273438 -7.328125 2.859375 -6.734375 C 2.441406 -6.148438 2.234375 -5.335938 2.234375 -4.296875 Z M 2.234375 -4.296875 "/></g></g></g><g fill="#05415f" fill-opacity="1"><g transform="translate(195.895344, 280.617769)"><g><path d="M 5.421875 -8.71875 C 6.441406 -8.71875 7.210938 -8.46875 7.734375 -7.96875 C 8.253906 -7.476562 8.515625 -6.679688 8.515625 -5.578125 L 8.515625 0 L 7.234375 0 L 7.234375 -5.5 C 7.234375 -6.207031 7.066406 -6.738281 6.734375 -7.09375 C 6.410156 -7.445312 5.914062 -7.625 5.25 -7.625 C 4.300781 -7.625 3.632812 -7.351562 3.25 -6.8125 C 2.863281 -6.28125 2.671875 -5.503906 2.671875 -4.484375 L 2.671875 0 L 1.375 0 L 1.375 -8.5625 L 2.421875 -8.5625 L 2.609375 -7.328125 L 2.6875 -7.328125 C 2.863281 -7.628906 3.09375 -7.882812 3.375 -8.09375 C 3.65625 -8.300781 3.96875 -8.457031 4.3125 -8.5625 C 4.664062 -8.664062 5.035156 -8.71875 5.421875 -8.71875 Z M 5.421875 -8.71875 "/></g></g></g><g fill="#05415f" fill-opacity="1"><g transform="translate(205.705448, 280.617769)"><g/></g></g><g fill="#05415f" fill-opacity="1"><g transform="translate(209.860683, 280.617769)"><g><path d="M 5.1875 -7.546875 L 3.046875 -7.546875 L 3.046875 0 L 1.75 0 L 1.75 -7.546875 L 0.234375 -7.546875 L 0.234375 -8.171875 L 1.75 -8.609375 L 1.75 -9.171875 C 1.75 -9.890625 1.851562 -10.472656 2.0625 -10.921875 C 2.28125 -11.378906 2.59375 -11.710938 3 -11.921875 C 3.40625 -12.140625 3.898438 -12.25 4.484375 -12.25 C 4.816406 -12.25 5.117188 -12.21875 5.390625 -12.15625 C 5.660156 -12.101562 5.898438 -12.039062 6.109375 -11.96875 L 5.78125 -10.9375 C 5.601562 -11 5.398438 -11.050781 5.171875 -11.09375 C 4.953125 -11.144531 4.726562 -11.171875 4.5 -11.171875 C 4.007812 -11.171875 3.644531 -11.007812 3.40625 -10.6875 C 3.164062 -10.375 3.046875 -9.875 3.046875 -9.1875 L 3.046875 -8.5625 L 5.1875 -8.5625 Z M 5.1875 -7.546875 "/></g></g></g><g fill="#05415f" fill-opacity="1"><g transform="translate(215.242186, 280.617769)"><g><path d="M 8.75 -4.296875 C 8.75 -3.597656 8.65625 -2.972656 8.46875 -2.421875 C 8.289062 -1.867188 8.03125 -1.398438 7.6875 -1.015625 C 7.34375 -0.640625 6.925781 -0.347656 6.4375 -0.140625 C 5.957031 0.0546875 5.410156 0.15625 4.796875 0.15625 C 4.222656 0.15625 3.695312 0.0546875 3.21875 -0.140625 C 2.738281 -0.347656 2.328125 -0.640625 1.984375 -1.015625 C 1.640625 -1.398438 1.367188 -1.867188 1.171875 -2.421875 C 0.984375 -2.972656 0.890625 -3.597656 0.890625 -4.296875 C 0.890625 -5.234375 1.046875 -6.03125 1.359375 -6.6875 C 1.679688 -7.351562 2.140625 -7.859375 2.734375 -8.203125 C 3.328125 -8.546875 4.03125 -8.71875 4.84375 -8.71875 C 5.625 -8.71875 6.304688 -8.539062 6.890625 -8.1875 C 7.484375 -7.84375 7.941406 -7.34375 8.265625 -6.6875 C 8.585938 -6.03125 8.75 -5.234375 8.75 -4.296875 Z M 2.234375 -4.296875 C 2.234375 -3.609375 2.320312 -3.007812 2.5 -2.5 C 2.6875 -2 2.96875 -1.609375 3.34375 -1.328125 C 3.726562 -1.054688 4.222656 -0.921875 4.828125 -0.921875 C 5.421875 -0.921875 5.90625 -1.054688 6.28125 -1.328125 C 6.664062 -1.609375 6.945312 -2 7.125 -2.5 C 7.3125 -3.007812 7.40625 -3.609375 7.40625 -4.296875 C 7.40625 -4.984375 7.3125 -5.570312 7.125 -6.0625 C 6.945312 -6.5625 6.664062 -6.945312 6.28125 -7.21875 C 5.90625 -7.488281 5.414062 -7.625 4.8125 -7.625 C 3.925781 -7.625 3.273438 -7.328125 2.859375 -6.734375 C 2.441406 -6.148438 2.234375 -5.335938 2.234375 -4.296875 Z M 2.234375 -4.296875 "/></g></g></g><g fill="#05415f" fill-opacity="1"><g transform="translate(224.864824, 280.617769)"><g><path d="M 5.265625 -8.71875 C 5.429688 -8.71875 5.609375 -8.707031 5.796875 -8.6875 C 5.984375 -8.675781 6.148438 -8.65625 6.296875 -8.625 L 6.140625 -7.421875 C 5.992188 -7.453125 5.832031 -7.476562 5.65625 -7.5 C 5.488281 -7.519531 5.332031 -7.53125 5.1875 -7.53125 C 4.84375 -7.53125 4.515625 -7.460938 4.203125 -7.328125 C 3.898438 -7.191406 3.632812 -6.992188 3.40625 -6.734375 C 3.175781 -6.472656 2.992188 -6.160156 2.859375 -5.796875 C 2.734375 -5.441406 2.671875 -5.039062 2.671875 -4.59375 L 2.671875 0 L 1.375 0 L 1.375 -8.5625 L 2.453125 -8.5625 L 2.59375 -6.984375 L 2.640625 -6.984375 C 2.816406 -7.304688 3.03125 -7.597656 3.28125 -7.859375 C 3.53125 -8.117188 3.820312 -8.328125 4.15625 -8.484375 C 4.488281 -8.640625 4.859375 -8.71875 5.265625 -8.71875 Z M 5.265625 -8.71875 "/></g></g></g><g fill="#05415f" fill-opacity="1"><g transform="translate(231.402284, 280.617769)"><g/></g></g><g fill="#05415f" fill-opacity="1"><g transform="translate(235.557519, 280.617769)"><g><path d="M 8.734375 0 L 7.328125 -3.625 L 2.75 -3.625 L 1.34375 0 L 0 0 L 4.46875 -11.46875 L 5.671875 -11.46875 L 10.109375 0 Z M 6.921875 -4.8125 L 5.59375 -8.40625 C 5.5625 -8.5 5.507812 -8.648438 5.4375 -8.859375 C 5.363281 -9.078125 5.289062 -9.300781 5.21875 -9.53125 C 5.144531 -9.757812 5.085938 -9.945312 5.046875 -10.09375 C 4.992188 -9.875 4.9375 -9.660156 4.875 -9.453125 C 4.8125 -9.242188 4.75 -9.046875 4.6875 -8.859375 C 4.632812 -8.679688 4.585938 -8.53125 4.546875 -8.40625 L 3.1875 -4.8125 Z M 6.921875 -4.8125 "/></g></g></g><g fill="#05415f" fill-opacity="1"><g transform="translate(245.672242, 280.617769)"><g><path d="M 4.421875 0.15625 C 3.335938 0.15625 2.476562 -0.210938 1.84375 -0.953125 C 1.207031 -1.691406 0.890625 -2.789062 0.890625 -4.25 C 0.890625 -5.726562 1.210938 -6.84375 1.859375 -7.59375 C 2.503906 -8.34375 3.363281 -8.71875 4.4375 -8.71875 C 4.894531 -8.71875 5.289062 -8.65625 5.625 -8.53125 C 5.96875 -8.414062 6.257812 -8.257812 6.5 -8.0625 C 6.75 -7.863281 6.957031 -7.632812 7.125 -7.375 L 7.21875 -7.375 C 7.195312 -7.539062 7.175781 -7.765625 7.15625 -8.046875 C 7.132812 -8.328125 7.125 -8.554688 7.125 -8.734375 L 7.125 -12.15625 L 8.421875 -12.15625 L 8.421875 0 L 7.375 0 L 7.171875 -1.21875 L 7.125 -1.21875 C 6.957031 -0.96875 6.75 -0.738281 6.5 -0.53125 C 6.257812 -0.320312 5.96875 -0.15625 5.625 -0.03125 C 5.28125 0.09375 4.878906 0.15625 4.421875 0.15625 Z M 4.625 -0.921875 C 5.539062 -0.921875 6.1875 -1.179688 6.5625 -1.703125 C 6.945312 -2.222656 7.140625 -3 7.140625 -4.03125 L 7.140625 -4.265625 C 7.140625 -5.347656 6.957031 -6.179688 6.59375 -6.765625 C 6.226562 -7.347656 5.570312 -7.640625 4.625 -7.640625 C 3.820312 -7.640625 3.222656 -7.332031 2.828125 -6.71875 C 2.429688 -6.113281 2.234375 -5.28125 2.234375 -4.21875 C 2.234375 -3.164062 2.429688 -2.351562 2.828125 -1.78125 C 3.222656 -1.207031 3.820312 -0.921875 4.625 -0.921875 Z M 4.625 -0.921875 "/></g></g></g><g fill="#05415f" fill-opacity="1"><g transform="translate(255.458908, 280.617769)"><g><path d="M 3.25 0 L 0 -8.5625 L 1.390625 -8.5625 L 3.28125 -3.390625 C 3.40625 -3.035156 3.535156 -2.644531 3.671875 -2.21875 C 3.804688 -1.789062 3.898438 -1.445312 3.953125 -1.1875 L 4.015625 -1.1875 C 4.078125 -1.445312 4.179688 -1.789062 4.328125 -2.21875 C 4.472656 -2.644531 4.601562 -3.035156 4.71875 -3.390625 L 6.609375 -8.5625 L 8 -8.5625 L 4.734375 0 Z M 3.25 0 "/></g></g></g><g fill="#05415f" fill-opacity="1"><g transform="translate(263.44915, 280.617769)"><g><path d="M 4.578125 -8.703125 C 5.597656 -8.703125 6.351562 -8.472656 6.84375 -8.015625 C 7.34375 -7.554688 7.59375 -6.828125 7.59375 -5.828125 L 7.59375 0 L 6.640625 0 L 6.390625 -1.265625 L 6.328125 -1.265625 C 6.085938 -0.953125 5.835938 -0.691406 5.578125 -0.484375 C 5.316406 -0.273438 5.015625 -0.113281 4.671875 0 C 4.335938 0.101562 3.921875 0.15625 3.421875 0.15625 C 2.898438 0.15625 2.4375 0.0664062 2.03125 -0.109375 C 1.632812 -0.296875 1.316406 -0.570312 1.078125 -0.9375 C 0.847656 -1.3125 0.734375 -1.785156 0.734375 -2.359375 C 0.734375 -3.210938 1.070312 -3.867188 1.75 -4.328125 C 2.425781 -4.785156 3.457031 -5.035156 4.84375 -5.078125 L 6.328125 -5.140625 L 6.328125 -5.65625 C 6.328125 -6.394531 6.164062 -6.910156 5.84375 -7.203125 C 5.53125 -7.503906 5.082031 -7.65625 4.5 -7.65625 C 4.050781 -7.65625 3.625 -7.585938 3.21875 -7.453125 C 2.8125 -7.328125 2.425781 -7.175781 2.0625 -7 L 1.671875 -7.984375 C 2.054688 -8.179688 2.5 -8.347656 3 -8.484375 C 3.5 -8.628906 4.023438 -8.703125 4.578125 -8.703125 Z M 6.3125 -4.21875 L 5 -4.171875 C 3.9375 -4.128906 3.1875 -3.953125 2.75 -3.640625 C 2.3125 -3.335938 2.09375 -2.90625 2.09375 -2.34375 C 2.09375 -1.851562 2.238281 -1.488281 2.53125 -1.25 C 2.832031 -1.019531 3.226562 -0.90625 3.71875 -0.90625 C 4.476562 -0.90625 5.097656 -1.113281 5.578125 -1.53125 C 6.066406 -1.957031 6.3125 -2.59375 6.3125 -3.4375 Z M 6.3125 -4.21875 "/></g></g></g><g fill="#05415f" fill-opacity="1"><g transform="translate(272.337615, 280.617769)"><g><path d="M 5.421875 -8.71875 C 6.441406 -8.71875 7.210938 -8.46875 7.734375 -7.96875 C 8.253906 -7.476562 8.515625 -6.679688 8.515625 -5.578125 L 8.515625 0 L 7.234375 0 L 7.234375 -5.5 C 7.234375 -6.207031 7.066406 -6.738281 6.734375 -7.09375 C 6.410156 -7.445312 5.914062 -7.625 5.25 -7.625 C 4.300781 -7.625 3.632812 -7.351562 3.25 -6.8125 C 2.863281 -6.28125 2.671875 -5.503906 2.671875 -4.484375 L 2.671875 0 L 1.375 0 L 1.375 -8.5625 L 2.421875 -8.5625 L 2.609375 -7.328125 L 2.6875 -7.328125 C 2.863281 -7.628906 3.09375 -7.882812 3.375 -8.09375 C 3.65625 -8.300781 3.96875 -8.457031 4.3125 -8.5625 C 4.664062 -8.664062 5.035156 -8.71875 5.421875 -8.71875 Z M 5.421875 -8.71875 "/></g></g></g><g fill="#05415f" fill-opacity="1"><g transform="translate(282.147719, 280.617769)"><g><path d="M 4.796875 0.15625 C 4.023438 0.15625 3.34375 0 2.75 -0.3125 C 2.164062 -0.632812 1.707031 -1.117188 1.375 -1.765625 C 1.050781 -2.421875 0.890625 -3.242188 0.890625 -4.234375 C 0.890625 -5.273438 1.0625 -6.125 1.40625 -6.78125 C 1.757812 -7.4375 2.238281 -7.921875 2.84375 -8.234375 C 3.457031 -8.554688 4.148438 -8.71875 4.921875 -8.71875 C 5.347656 -8.71875 5.757812 -8.675781 6.15625 -8.59375 C 6.5625 -8.507812 6.890625 -8.398438 7.140625 -8.265625 L 6.75 -7.1875 C 6.488281 -7.289062 6.1875 -7.382812 5.84375 -7.46875 C 5.507812 -7.550781 5.191406 -7.59375 4.890625 -7.59375 C 4.296875 -7.59375 3.800781 -7.460938 3.40625 -7.203125 C 3.019531 -6.953125 2.726562 -6.578125 2.53125 -6.078125 C 2.332031 -5.585938 2.234375 -4.976562 2.234375 -4.25 C 2.234375 -3.5625 2.328125 -2.972656 2.515625 -2.484375 C 2.710938 -1.992188 3 -1.617188 3.375 -1.359375 C 3.75 -1.097656 4.222656 -0.96875 4.796875 -0.96875 C 5.242188 -0.96875 5.648438 -1.015625 6.015625 -1.109375 C 6.378906 -1.210938 6.710938 -1.328125 7.015625 -1.453125 L 7.015625 -0.296875 C 6.722656 -0.148438 6.398438 -0.0390625 6.046875 0.03125 C 5.703125 0.113281 5.285156 0.15625 4.796875 0.15625 Z M 4.796875 0.15625 "/></g></g></g><g fill="#05415f" fill-opacity="1"><g transform="translate(289.809904, 280.617769)"><g><path d="M 4.671875 -8.71875 C 5.398438 -8.71875 6.023438 -8.554688 6.546875 -8.234375 C 7.066406 -7.910156 7.460938 -7.457031 7.734375 -6.875 C 8.015625 -6.300781 8.15625 -5.625 8.15625 -4.84375 L 8.15625 -4.046875 L 2.234375 -4.046875 C 2.253906 -3.035156 2.503906 -2.265625 2.984375 -1.734375 C 3.472656 -1.210938 4.15625 -0.953125 5.03125 -0.953125 C 5.570312 -0.953125 6.050781 -1 6.46875 -1.09375 C 6.882812 -1.195312 7.316406 -1.347656 7.765625 -1.546875 L 7.765625 -0.40625 C 7.335938 -0.207031 6.910156 -0.0664062 6.484375 0.015625 C 6.054688 0.109375 5.554688 0.15625 4.984375 0.15625 C 4.160156 0.15625 3.441406 -0.0078125 2.828125 -0.34375 C 2.210938 -0.6875 1.734375 -1.179688 1.390625 -1.828125 C 1.054688 -2.484375 0.890625 -3.28125 0.890625 -4.21875 C 0.890625 -5.144531 1.046875 -5.941406 1.359375 -6.609375 C 1.671875 -7.285156 2.109375 -7.804688 2.671875 -8.171875 C 3.234375 -8.535156 3.898438 -8.71875 4.671875 -8.71875 Z M 4.65625 -7.65625 C 3.957031 -7.65625 3.398438 -7.425781 2.984375 -6.96875 C 2.578125 -6.519531 2.335938 -5.890625 2.265625 -5.078125 L 6.796875 -5.078125 C 6.785156 -5.585938 6.703125 -6.035156 6.546875 -6.421875 C 6.398438 -6.816406 6.171875 -7.117188 5.859375 -7.328125 C 5.546875 -7.546875 5.144531 -7.65625 4.65625 -7.65625 Z M 4.65625 -7.65625 "/></g></g></g><g fill="#05415f" fill-opacity="1"><g transform="translate(298.792096, 280.617769)"><g><path d="M 4.421875 0.15625 C 3.335938 0.15625 2.476562 -0.210938 1.84375 -0.953125 C 1.207031 -1.691406 0.890625 -2.789062 0.890625 -4.25 C 0.890625 -5.726562 1.210938 -6.84375 1.859375 -7.59375 C 2.503906 -8.34375 3.363281 -8.71875 4.4375 -8.71875 C 4.894531 -8.71875 5.289062 -8.65625 5.625 -8.53125 C 5.96875 -8.414062 6.257812 -8.257812 6.5 -8.0625 C 6.75 -7.863281 6.957031 -7.632812 7.125 -7.375 L 7.21875 -7.375 C 7.195312 -7.539062 7.175781 -7.765625 7.15625 -8.046875 C 7.132812 -8.328125 7.125 -8.554688 7.125 -8.734375 L 7.125 -12.15625 L 8.421875 -12.15625 L 8.421875 0 L 7.375 0 L 7.171875 -1.21875 L 7.125 -1.21875 C 6.957031 -0.96875 6.75 -0.738281 6.5 -0.53125 C 6.257812 -0.320312 5.96875 -0.15625 5.625 -0.03125 C 5.28125 0.09375 4.878906 0.15625 4.421875 0.15625 Z M 4.625 -0.921875 C 5.539062 -0.921875 6.1875 -1.179688 6.5625 -1.703125 C 6.945312 -2.222656 7.140625 -3 7.140625 -4.03125 L 7.140625 -4.265625 C 7.140625 -5.347656 6.957031 -6.179688 6.59375 -6.765625 C 6.226562 -7.347656 5.570312 -7.640625 4.625 -7.640625 C 3.820312 -7.640625 3.222656 -7.332031 2.828125 -6.71875 C 2.429688 -6.113281 2.234375 -5.28125 2.234375 -4.21875 C 2.234375 -3.164062 2.429688 -2.351562 2.828125 -1.78125 C 3.222656 -1.207031 3.820312 -0.921875 4.625 -0.921875 Z M 4.625 -0.921875 "/></g></g></g><g fill="#05415f" fill-opacity="1"><g transform="translate(308.578762, 280.617769)"><g/></g></g><g fill="#05415f" fill-opacity="1"><g transform="translate(312.733997, 280.617769)"><g><path d="M 8.734375 0 L 7.328125 -3.625 L 2.75 -3.625 L 1.34375 0 L 0 0 L 4.46875 -11.46875 L 5.671875 -11.46875 L 10.109375 0 Z M 6.921875 -4.8125 L 5.59375 -8.40625 C 5.5625 -8.5 5.507812 -8.648438 5.4375 -8.859375 C 5.363281 -9.078125 5.289062 -9.300781 5.21875 -9.53125 C 5.144531 -9.757812 5.085938 -9.945312 5.046875 -10.09375 C 4.992188 -9.875 4.9375 -9.660156 4.875 -9.453125 C 4.8125 -9.242188 4.75 -9.046875 4.6875 -8.859375 C 4.632812 -8.679688 4.585938 -8.53125 4.546875 -8.40625 L 3.1875 -4.8125 Z M 6.921875 -4.8125 "/></g></g></g><g fill="#05415f" fill-opacity="1"><g transform="translate(322.84872, 280.617769)"><g><path d="M 1.5625 0 L 1.5625 -11.421875 L 2.890625 -11.421875 L 2.890625 -1.1875 L 7.96875 -1.1875 L 7.96875 0 Z M 1.5625 0 "/></g></g></g><g fill="#05415f" fill-opacity="1"><g transform="translate(331.198237, 280.617769)"><g><path d="M 6.59375 0 L 2.75 -10.109375 L 2.6875 -10.109375 C 2.707031 -9.898438 2.722656 -9.640625 2.734375 -9.328125 C 2.753906 -9.023438 2.769531 -8.691406 2.78125 -8.328125 C 2.789062 -7.960938 2.796875 -7.59375 2.796875 -7.21875 L 2.796875 0 L 1.5625 0 L 1.5625 -11.421875 L 3.53125 -11.421875 L 7.15625 -1.921875 L 7.203125 -1.921875 L 10.875 -11.421875 L 12.828125 -11.421875 L 12.828125 0 L 11.515625 0 L 11.515625 -7.3125 C 11.515625 -7.65625 11.519531 -7.992188 11.53125 -8.328125 C 11.539062 -8.671875 11.550781 -8.992188 11.5625 -9.296875 C 11.582031 -9.609375 11.601562 -9.875 11.625 -10.09375 L 11.5625 -10.09375 L 7.671875 0 Z M 6.59375 0 "/></g></g></g></svg>