<svg xmlns="http://www.w3.org/2000/svg" xmlns:xlink="http://www.w3.org/1999/xlink" width="546" zoomAndPan="magnify" viewBox="0 0 409.5 221.249992" height="295" preserveAspectRatio="xMidYMid meet" version="1.0"><defs><g/><clipPath id="0427edb147"><path d="M 0.441406 0 L 408.558594 0 L 408.558594 220.503906 L 0.441406 220.503906 Z M 0.441406 0 " clip-rule="nonzero"/></clipPath><clipPath id="233d805dc3"><path d="M 308 37 L 404 37 L 404 173 L 308 173 Z M 308 37 " clip-rule="nonzero"/></clipPath><clipPath id="55396e3d2c"><path d="M 303.6875 164.460938 L 391.433594 28.933594 L 407.746094 39.496094 L 320.003906 175.023438 Z M 303.6875 164.460938 " clip-rule="nonzero"/></clipPath><clipPath id="7ce09807c3"><path d="M 303.6875 164.460938 L 391.433594 28.933594 L 407.746094 39.496094 L 320.003906 175.023438 Z M 303.6875 164.460938 " clip-rule="nonzero"/></clipPath><clipPath id="d730bfc85c"><path d="M 303.941406 164.074219 L 391.351562 29.058594 L 407.855469 39.742188 L 320.445312 174.753906 Z M 303.941406 164.074219 " clip-rule="nonzero"/></clipPath><clipPath id="d1ee0252e6"><path d="M 303.941406 164.074219 L 391.351562 29.058594 L 407.8125 39.714844 L 320.402344 174.730469 Z M 303.941406 164.074219 " clip-rule="nonzero"/></clipPath><clipPath id="41835f0b74"><path d="M 321 46 L 405 46 L 405 167 L 321 167 Z M 321 46 " clip-rule="nonzero"/></clipPath><clipPath id="4481fb8637"><path d="M 394.839844 168.039062 L 315.941406 54.472656 L 329.449219 45.089844 L 408.34375 158.65625 Z M 394.839844 168.039062 " clip-rule="nonzero"/></clipPath><clipPath id="7381b92e8e"><path d="M 394.839844 168.039062 L 315.941406 54.472656 L 329.449219 45.089844 L 408.34375 158.65625 Z M 394.839844 168.039062 " clip-rule="nonzero"/></clipPath></defs><g clip-path="url(#0427edb147)"><path fill="#ffffff" d="M 0.441406 0 L 408.558594 0 L 408.558594 220.503906 L 0.441406 220.503906 Z M 0.441406 0 " fill-opacity="1" fill-rule="nonzero"/></g><g fill="#05415f" fill-opacity="1"><g transform="translate(30.995037, 134.938142)"><g><path d="M 40.640625 0 L 22.828125 -58.046875 L 22.375 -58.046875 C 23.007812 -46.234375 23.328125 -38.351562 23.328125 -34.40625 L 23.328125 0 L 9.3125 0 L 9.3125 -73.984375 L 30.671875 -73.984375 L 48.171875 -17.40625 L 48.484375 -17.40625 L 67.046875 -73.984375 L 88.40625 -73.984375 L 88.40625 0 L 73.78125 0 L 73.78125 -35.015625 C 73.78125 -36.671875 73.804688 -38.578125 73.859375 -40.734375 C 73.910156 -42.890625 74.140625 -48.625 74.546875 -57.9375 L 74.09375 -57.9375 L 55.015625 0 Z M 40.640625 0 "/></g></g></g><g fill="#05415f" fill-opacity="1"><g transform="translate(123.532558, 134.938142)"><g><path d="M 54.609375 0 L 49.234375 -17.609375 L 22.265625 -17.609375 L 16.90625 0 L 0 0 L 26.109375 -74.296875 L 45.296875 -74.296875 L 71.5 0 Z M 45.5 -30.765625 C 40.539062 -46.722656 37.75 -55.75 37.125 -57.84375 C 36.5 -59.9375 36.050781 -61.585938 35.78125 -62.796875 C 34.664062 -58.484375 31.476562 -47.804688 26.21875 -30.765625 Z M 45.5 -30.765625 "/></g></g></g><g fill="#05415f" fill-opacity="1"><g transform="translate(189.856231, 134.938142)"><g><path d="M 52.984375 -20.546875 C 52.984375 -13.867188 50.578125 -8.601562 45.765625 -4.75 C 40.960938 -0.90625 34.273438 1.015625 25.703125 1.015625 C 17.804688 1.015625 10.820312 -0.46875 4.75 -3.4375 L 4.75 -18.015625 C 9.75 -15.785156 13.976562 -14.210938 17.4375 -13.296875 C 20.894531 -12.390625 24.054688 -11.9375 26.921875 -11.9375 C 30.359375 -11.9375 32.992188 -12.59375 34.828125 -13.90625 C 36.671875 -15.226562 37.59375 -17.1875 37.59375 -19.78125 C 37.59375 -21.238281 37.1875 -22.53125 36.375 -23.65625 C 35.570312 -24.789062 34.382812 -25.878906 32.8125 -26.921875 C 31.25 -27.960938 28.054688 -29.632812 23.234375 -31.9375 C 18.710938 -34.0625 15.320312 -36.097656 13.0625 -38.046875 C 10.800781 -40.003906 8.992188 -42.28125 7.640625 -44.875 C 6.296875 -47.476562 5.625 -50.519531 5.625 -54 C 5.625 -60.539062 7.835938 -65.679688 12.265625 -69.421875 C 16.703125 -73.171875 22.835938 -75.046875 30.671875 -75.046875 C 34.515625 -75.046875 38.179688 -74.585938 41.671875 -73.671875 C 45.160156 -72.765625 48.8125 -71.488281 52.625 -69.84375 L 47.5625 -57.640625 C 43.625 -59.253906 40.363281 -60.378906 37.78125 -61.015625 C 35.195312 -61.660156 32.65625 -61.984375 30.15625 -61.984375 C 27.1875 -61.984375 24.910156 -61.289062 23.328125 -59.90625 C 21.742188 -58.53125 20.953125 -56.726562 20.953125 -54.5 C 20.953125 -53.113281 21.269531 -51.90625 21.90625 -50.875 C 22.550781 -49.851562 23.570312 -48.859375 24.96875 -47.890625 C 26.375 -46.929688 29.691406 -45.207031 34.921875 -42.71875 C 41.835938 -39.40625 46.578125 -36.085938 49.140625 -32.765625 C 51.703125 -29.441406 52.984375 -25.367188 52.984375 -20.546875 Z M 52.984375 -20.546875 "/></g></g></g><g fill="#05415f" fill-opacity="1"><g transform="translate(241.757226, 134.938142)"><g><path d="M 37.859375 0 L 22.171875 0 L 22.171875 -60.921875 L 2.078125 -60.921875 L 2.078125 -73.984375 L 57.9375 -73.984375 L 57.9375 -60.921875 L 37.859375 -60.921875 Z M 37.859375 0 "/></g></g></g><g fill="#05415f" fill-opacity="1"><g transform="translate(296.593363, 134.938142)"><g><path d="M 9.3125 0 L 9.3125 -73.984375 L 25 -73.984375 L 25 0 Z M 9.3125 0 "/></g></g></g><g fill="#00a79d" fill-opacity="1"><g transform="translate(91.043396, 168.605343)"><g><path d="M 21.53125 0 L 19.40625 -6.9375 L 8.78125 -6.9375 L 6.65625 0 L 0 0 L 10.296875 -29.28125 L 17.859375 -29.28125 L 28.1875 0 Z M 17.9375 -12.125 L 15.828125 -18.90625 C 15.691406 -19.363281 15.515625 -19.945312 15.296875 -20.65625 C 15.078125 -21.363281 14.859375 -22.085938 14.640625 -22.828125 C 14.421875 -23.566406 14.242188 -24.210938 14.109375 -24.765625 C 13.972656 -24.210938 13.785156 -23.535156 13.546875 -22.734375 C 13.316406 -21.929688 13.09375 -21.171875 12.875 -20.453125 C 12.664062 -19.734375 12.515625 -19.21875 12.421875 -18.90625 L 10.328125 -12.125 Z M 17.9375 -12.125 "/></g></g></g><g fill="#00a79d" fill-opacity="1"><g transform="translate(117.881638, 168.605343)"><g><path d="M 3.671875 0 L 3.671875 -29.171875 L 9.859375 -29.171875 L 9.859375 -5.109375 L 21.6875 -5.109375 L 21.6875 0 Z M 3.671875 0 "/></g></g></g><g fill="#00a79d" fill-opacity="1"><g transform="translate(139.613168, 168.605343)"><g><path d="M 16.015625 0 L 9 -22.890625 L 8.8125 -22.890625 C 8.84375 -22.335938 8.882812 -21.515625 8.9375 -20.421875 C 9 -19.328125 9.054688 -18.160156 9.109375 -16.921875 C 9.171875 -15.679688 9.203125 -14.5625 9.203125 -13.5625 L 9.203125 0 L 3.671875 0 L 3.671875 -29.171875 L 12.09375 -29.171875 L 19 -6.859375 L 19.109375 -6.859375 L 26.4375 -29.171875 L 34.859375 -29.171875 L 34.859375 0 L 29.09375 0 L 29.09375 -13.8125 C 29.09375 -14.726562 29.109375 -15.785156 29.140625 -16.984375 C 29.171875 -18.179688 29.210938 -19.320312 29.265625 -20.40625 C 29.316406 -21.488281 29.359375 -22.300781 29.390625 -22.84375 L 29.203125 -22.84375 L 21.6875 0 Z M 16.015625 0 "/></g></g></g><g fill="#ffffff" fill-opacity="1"><g transform="translate(176.79178, 168.605343)"><g/></g></g><g fill="#0874aa" fill-opacity="1"><g transform="translate(186.065032, 168.605343)"><g><path d="M 20.671875 -7.9375 C 20.671875 -6.207031 20.25 -4.71875 19.40625 -3.46875 C 18.5625 -2.21875 17.347656 -1.257812 15.765625 -0.59375 C 14.191406 0.0703125 12.316406 0.40625 10.140625 0.40625 C 9.066406 0.40625 8.046875 0.34375 7.078125 0.21875 C 6.109375 0.101562 5.191406 -0.0664062 4.328125 -0.296875 C 3.472656 -0.535156 2.695312 -0.820312 2 -1.15625 L 2 -5.671875 C 3.175781 -5.148438 4.492188 -4.675781 5.953125 -4.25 C 7.421875 -3.832031 8.914062 -3.625 10.4375 -3.625 C 11.675781 -3.625 12.703125 -3.785156 13.515625 -4.109375 C 14.335938 -4.441406 14.945312 -4.910156 15.34375 -5.515625 C 15.738281 -6.117188 15.9375 -6.828125 15.9375 -7.640625 C 15.9375 -8.503906 15.703125 -9.234375 15.234375 -9.828125 C 14.773438 -10.429688 14.078125 -10.984375 13.140625 -11.484375 C 12.203125 -11.984375 11.023438 -12.519531 9.609375 -13.09375 C 8.660156 -13.476562 7.75 -13.914062 6.875 -14.40625 C 6 -14.894531 5.222656 -15.472656 4.546875 -16.140625 C 3.867188 -16.804688 3.332031 -17.59375 2.9375 -18.5 C 2.550781 -19.414062 2.359375 -20.488281 2.359375 -21.71875 C 2.359375 -23.375 2.753906 -24.785156 3.546875 -25.953125 C 4.335938 -27.128906 5.453125 -28.03125 6.890625 -28.65625 C 8.335938 -29.28125 10.023438 -29.59375 11.953125 -29.59375 C 13.484375 -29.59375 14.921875 -29.429688 16.265625 -29.109375 C 17.617188 -28.785156 18.945312 -28.332031 20.25 -27.75 L 18.734375 -23.90625 C 17.535156 -24.394531 16.375 -24.785156 15.25 -25.078125 C 14.125 -25.367188 12.976562 -25.515625 11.8125 -25.515625 C 10.800781 -25.515625 9.941406 -25.359375 9.234375 -25.046875 C 8.535156 -24.742188 8 -24.316406 7.625 -23.765625 C 7.257812 -23.210938 7.078125 -22.5625 7.078125 -21.8125 C 7.078125 -20.957031 7.285156 -20.238281 7.703125 -19.65625 C 8.128906 -19.082031 8.785156 -18.554688 9.671875 -18.078125 C 10.554688 -17.597656 11.695312 -17.066406 13.09375 -16.484375 C 14.695312 -15.816406 16.0625 -15.113281 17.1875 -14.375 C 18.3125 -13.644531 19.171875 -12.769531 19.765625 -11.75 C 20.367188 -10.738281 20.671875 -9.46875 20.671875 -7.9375 Z M 20.671875 -7.9375 "/></g></g></g><g fill="#0874aa" fill-opacity="1"><g transform="translate(207.178171, 168.605343)"><g><path d="M 11.578125 -3.390625 C 12.179688 -3.390625 12.78125 -3.445312 13.375 -3.5625 C 13.976562 -3.675781 14.523438 -3.8125 15.015625 -3.96875 L 15.015625 -0.421875 C 14.503906 -0.191406 13.832031 0 13 0.15625 C 12.175781 0.320312 11.320312 0.40625 10.4375 0.40625 C 9.1875 0.40625 8.0625 0.195312 7.0625 -0.21875 C 6.0625 -0.644531 5.269531 -1.367188 4.6875 -2.390625 C 4.101562 -3.421875 3.8125 -4.835938 3.8125 -6.640625 L 3.8125 -18.515625 L 0.796875 -18.515625 L 0.796875 -20.609375 L 4.03125 -22.265625 L 5.5625 -27 L 8.515625 -27 L 8.515625 -22.078125 L 14.84375 -22.078125 L 14.84375 -18.515625 L 8.515625 -18.515625 L 8.515625 -6.703125 C 8.515625 -5.585938 8.789062 -4.753906 9.34375 -4.203125 C 9.90625 -3.660156 10.648438 -3.390625 11.578125 -3.390625 Z M 11.578125 -3.390625 "/></g></g></g><g fill="#0874aa" fill-opacity="1"><g transform="translate(221.987712, 168.605343)"><g><path d="M 22.609375 -22.078125 L 22.609375 0 L 18.90625 0 L 18.28125 -2.96875 L 18.015625 -2.96875 C 17.546875 -2.207031 16.953125 -1.578125 16.234375 -1.078125 C 15.515625 -0.585938 14.71875 -0.21875 13.84375 0.03125 C 12.96875 0.28125 12.046875 0.40625 11.078125 0.40625 C 9.410156 0.40625 7.988281 0.125 6.8125 -0.4375 C 5.632812 -1.007812 4.734375 -1.882812 4.109375 -3.0625 C 3.484375 -4.25 3.171875 -5.78125 3.171875 -7.65625 L 3.171875 -22.078125 L 7.875 -22.078125 L 7.875 -8.53125 C 7.875 -6.820312 8.222656 -5.539062 8.921875 -4.6875 C 9.617188 -3.832031 10.707031 -3.40625 12.1875 -3.40625 C 13.613281 -3.40625 14.742188 -3.695312 15.578125 -4.28125 C 16.421875 -4.875 17.015625 -5.738281 17.359375 -6.875 C 17.710938 -8.019531 17.890625 -9.425781 17.890625 -11.09375 L 17.890625 -22.078125 Z M 22.609375 -22.078125 "/></g></g></g><g fill="#0874aa" fill-opacity="1"><g transform="translate(246.59177, 168.605343)"><g><path d="M 10.78125 0.40625 C 8.144531 0.40625 6.03125 -0.550781 4.4375 -2.46875 C 2.851562 -4.394531 2.0625 -7.238281 2.0625 -11 C 2.0625 -14.78125 2.867188 -17.640625 4.484375 -19.578125 C 6.097656 -21.523438 8.226562 -22.5 10.875 -22.5 C 11.988281 -22.5 12.960938 -22.347656 13.796875 -22.046875 C 14.640625 -21.753906 15.363281 -21.351562 15.96875 -20.84375 C 16.570312 -20.34375 17.085938 -19.78125 17.515625 -19.15625 L 17.734375 -19.15625 C 17.671875 -19.5625 17.59375 -20.15625 17.5 -20.9375 C 17.414062 -21.71875 17.375 -22.441406 17.375 -23.109375 L 17.375 -31.046875 L 22.078125 -31.046875 L 22.078125 0 L 18.421875 0 L 17.578125 -3.015625 L 17.375 -3.015625 C 16.976562 -2.378906 16.476562 -1.800781 15.875 -1.28125 C 15.269531 -0.769531 14.550781 -0.359375 13.71875 -0.046875 C 12.882812 0.253906 11.90625 0.40625 10.78125 0.40625 Z M 12.09375 -3.40625 C 14.101562 -3.40625 15.519531 -3.984375 16.34375 -5.140625 C 17.164062 -6.304688 17.585938 -8.046875 17.609375 -10.359375 L 17.609375 -10.96875 C 17.609375 -13.445312 17.207031 -15.347656 16.40625 -16.671875 C 15.613281 -17.992188 14.160156 -18.65625 12.046875 -18.65625 C 10.359375 -18.65625 9.070312 -17.972656 8.1875 -16.609375 C 7.300781 -15.242188 6.859375 -13.34375 6.859375 -10.90625 C 6.859375 -8.476562 7.300781 -6.617188 8.1875 -5.328125 C 9.070312 -4.046875 10.375 -3.40625 12.09375 -3.40625 Z M 12.09375 -3.40625 "/></g></g></g><g fill="#0874aa" fill-opacity="1"><g transform="translate(270.677172, 168.605343)"><g><path d="M 8.046875 -22.078125 L 8.046875 0 L 3.359375 0 L 3.359375 -22.078125 Z M 5.71875 -30.546875 C 6.4375 -30.546875 7.054688 -30.351562 7.578125 -29.96875 C 8.109375 -29.582031 8.375 -28.914062 8.375 -27.96875 C 8.375 -27.039062 8.109375 -26.378906 7.578125 -25.984375 C 7.054688 -25.585938 6.4375 -25.390625 5.71875 -25.390625 C 4.976562 -25.390625 4.351562 -25.585938 3.84375 -25.984375 C 3.332031 -26.378906 3.078125 -27.039062 3.078125 -27.96875 C 3.078125 -28.914062 3.332031 -29.582031 3.84375 -29.96875 C 4.351562 -30.351562 4.976562 -30.546875 5.71875 -30.546875 Z M 5.71875 -30.546875 "/></g></g></g><g fill="#0874aa" fill-opacity="1"><g transform="translate(280.719116, 168.605343)"><g><path d="M 22.90625 -11.09375 C 22.90625 -9.257812 22.664062 -7.628906 22.1875 -6.203125 C 21.707031 -4.773438 21.007812 -3.570312 20.09375 -2.59375 C 19.175781 -1.625 18.070312 -0.878906 16.78125 -0.359375 C 15.488281 0.148438 14.03125 0.40625 12.40625 0.40625 C 10.894531 0.40625 9.503906 0.148438 8.234375 -0.359375 C 6.972656 -0.878906 5.878906 -1.625 4.953125 -2.59375 C 4.035156 -3.570312 3.320312 -4.773438 2.8125 -6.203125 C 2.3125 -7.628906 2.0625 -9.257812 2.0625 -11.09375 C 2.0625 -13.53125 2.484375 -15.59375 3.328125 -17.28125 C 4.171875 -18.976562 5.375 -20.269531 6.9375 -21.15625 C 8.507812 -22.050781 10.378906 -22.5 12.546875 -22.5 C 14.585938 -22.5 16.382812 -22.050781 17.9375 -21.15625 C 19.488281 -20.269531 20.703125 -18.972656 21.578125 -17.265625 C 22.460938 -15.566406 22.90625 -13.507812 22.90625 -11.09375 Z M 6.890625 -11.09375 C 6.890625 -9.476562 7.082031 -8.097656 7.46875 -6.953125 C 7.863281 -5.816406 8.472656 -4.945312 9.296875 -4.34375 C 10.117188 -3.738281 11.179688 -3.4375 12.484375 -3.4375 C 13.785156 -3.4375 14.847656 -3.738281 15.671875 -4.34375 C 16.503906 -4.945312 17.113281 -5.816406 17.5 -6.953125 C 17.882812 -8.097656 18.078125 -9.476562 18.078125 -11.09375 C 18.078125 -12.695312 17.882812 -14.0625 17.5 -15.1875 C 17.113281 -16.3125 16.503906 -17.171875 15.671875 -17.765625 C 14.847656 -18.359375 13.78125 -18.65625 12.46875 -18.65625 C 10.53125 -18.65625 9.113281 -18.003906 8.21875 -16.703125 C 7.332031 -15.398438 6.890625 -13.53125 6.890625 -11.09375 Z M 6.890625 -11.09375 "/></g></g></g><g clip-path="url(#233d805dc3)"><g clip-path="url(#55396e3d2c)"><g clip-path="url(#7ce09807c3)"><g clip-path="url(#d730bfc85c)"><g clip-path="url(#d1ee0252e6)"><path fill="#0874aa" d="M 387.984375 41.792969 C 383.765625 47.992188 379.546875 54.191406 375.328125 60.386719 C 375.433594 60.464844 375.539062 60.539062 375.644531 60.617188 C 380.742188 53.785156 385.335938 46.570312 390.914062 40.078125 C 389.886719 43.578125 387.46875 46.320312 385.941406 49.539062 C 386.246094 49.816406 386.539062 49.652344 386.71875 49.421875 C 387.628906 48.238281 388.613281 47.097656 389.363281 45.816406 C 389.839844 45 390.992188 44.570312 390.808594 43.332031 C 390.769531 43.066406 391.1875 42.976562 391.539062 43.042969 C 392.363281 43.199219 393.269531 43.476562 393.417969 42.136719 C 393.445312 41.894531 393.816406 41.847656 394.066406 41.972656 C 394.277344 42.078125 394.320312 42.292969 394.1875 42.472656 C 393.53125 43.371094 393.554688 44.753906 392.214844 45.167969 C 391.847656 45.28125 391.425781 45.480469 391.414062 45.96875 C 391.398438 46.503906 390.964844 47.21875 391.457031 47.535156 C 392.085938 47.941406 392.339844 47.101562 392.675781 46.75 C 393.71875 45.660156 393.9375 44.042969 395.050781 42.976562 C 395.390625 42.65625 395.558594 41.835938 396.097656 42.183594 C 396.621094 42.523438 395.898438 42.929688 395.703125 43.277344 C 395.0625 44.410156 394.441406 45.539062 394.378906 46.972656 C 395.410156 46.265625 396.015625 45.332031 396.585938 44.390625 C 397.21875 43.34375 397.605469 42.058594 399.324219 42.582031 C 399.792969 42.722656 400.390625 42.449219 401.101562 42.34375 C 399.976562 40.875 400.457031 39.855469 401.71875 38.882812 C 402.390625 38.363281 402.828125 37.542969 403.679688 37.039062 C 403.1875 38.011719 402.746094 39.011719 402.183594 39.9375 C 401.742188 40.667969 401 41.164062 402.332031 41.902344 C 403.082031 42.316406 402.230469 43.144531 401.945312 43.714844 C 401.625 44.355469 400.78125 44.710938 400.890625 45.753906 C 401.6875 45.371094 401.730469 44.394531 402.613281 43.894531 C 402.785156 45.347656 401.652344 46.125 401.339844 47.1875 C 401.246094 47.5 400.9375 47.757812 400.703125 48.023438 C 398.367188 50.699219 397.28125 54.140625 395.214844 57 C 392.824219 60.316406 390.550781 63.726562 388.394531 67.199219 C 387.347656 68.886719 385.988281 70.394531 385.09375 72.074219 C 384.4375 73.304688 383.351562 74.296875 382.964844 75.71875 C 382.683594 76.761719 382.183594 77.816406 381.195312 78.460938 C 380.792969 78.722656 380.75 79.105469 380.714844 79.503906 C 380.652344 80.257812 380.296875 80.863281 379.71875 81.300781 C 378.9375 81.890625 378.261719 82.515625 378.039062 83.53125 C 377.949219 83.9375 377.648438 84.214844 377.175781 84.261719 C 377.007812 84.28125 376.855469 84.421875 376.691406 84.503906 C 377.730469 86.386719 375.925781 87.085938 375.078125 88.0625 C 374.324219 88.929688 374.027344 90.023438 373.542969 90.949219 C 372.96875 92.050781 372.496094 92.804688 371.289062 93.101562 C 370.90625 93.195312 371.0625 93.699219 371.011719 94.035156 C 370.769531 95.558594 370.539062 96.972656 369.097656 98.078125 C 368.402344 98.609375 368.125 99.9375 367.582031 100.867188 C 366.925781 101.984375 366.402344 103.210938 365.132812 103.8125 C 364.941406 103.902344 364.789062 103.984375 364.804688 104.234375 C 364.914062 106.0625 364.0625 107.191406 362.304688 107.667969 C 362.207031 107.695312 362.074219 107.949219 362.09375 107.976562 C 362.789062 108.746094 362.074219 109.277344 361.746094 109.816406 C 359.566406 113.394531 357.417969 117.007812 355.101562 120.488281 C 350.957031 126.726562 347.164062 133.179688 343.125 139.480469 C 338.644531 146.472656 334.09375 153.425781 329.648438 160.445312 C 328.25 162.652344 326.664062 164.75 325.125 166.871094 C 324.40625 167.863281 323.597656 168.6875 322.148438 168.574219 C 321.175781 168.496094 320.652344 169.28125 320.316406 170.121094 C 319.488281 172.1875 317.472656 172.808594 315.558594 171.59375 C 314.652344 171.019531 313.910156 170.273438 313.21875 169.46875 C 312.460938 168.589844 311.742188 167.679688 310.972656 166.816406 C 308.195312 163.703125 307.882812 160.5 310.039062 156.964844 C 314.078125 150.34375 318.15625 143.738281 322.152344 137.089844 C 329.964844 124.085938 338.015625 111.230469 346.402344 98.59375 C 349.765625 93.53125 353.226562 88.519531 356.625 83.476562 C 360.875 77.167969 365.332031 71.019531 369.90625 64.960938 C 372.59375 61.402344 374.953125 57.617188 377.726562 54.136719 C 380.503906 50.644531 383.097656 47.019531 385.746094 43.433594 C 386.273438 42.722656 387.027344 42.183594 387.679688 41.5625 C 387.78125 41.640625 387.882812 41.714844 387.984375 41.792969 " fill-opacity="1" fill-rule="nonzero"/></g></g></g></g></g><g clip-path="url(#41835f0b74)"><g clip-path="url(#4481fb8637)"><g clip-path="url(#7381b92e8e)"><path fill="#0874aa" d="M 381.394531 148.082031 C 380.4375 146.859375 379.472656 145.644531 378.515625 144.417969 C 378.425781 144.304688 378.332031 144.191406 378.261719 144.066406 C 377.144531 141.953125 375.707031 140.046875 374.351562 138.09375 C 370.246094 132.183594 366.097656 126.304688 361.980469 120.410156 C 359.917969 117.457031 357.878906 114.496094 355.84375 111.53125 C 355.128906 110.488281 354.464844 109.421875 353.867188 108.304688 C 353.253906 107.148438 352.40625 106.121094 351.742188 104.992188 C 350.214844 102.390625 348.414062 99.96875 346.859375 97.394531 C 345.753906 95.5625 344.515625 93.8125 343.445312 91.96875 C 342.246094 89.90625 340.832031 87.988281 339.558594 85.980469 C 338.703125 84.625 337.957031 83.183594 336.964844 81.9375 C 334.753906 79.15625 332.828125 76.175781 330.8125 73.261719 C 329.296875 71.070312 327.90625 68.785156 327.085938 66.207031 C 326.972656 65.847656 326.734375 65.523438 326.515625 65.203125 C 325.46875 63.679688 324.414062 62.164062 323.367188 60.644531 C 323.144531 60.324219 322.914062 60.007812 322.730469 59.667969 C 322.542969 59.3125 322.507812 58.929688 322.667969 58.542969 C 322.757812 58.324219 323.050781 58.152344 323.261719 58.261719 C 323.554688 58.417969 323.820312 58.625 324.113281 58.792969 C 324.179688 58.832031 324.289062 58.800781 324.378906 58.800781 C 324.378906 58.71875 324.410156 58.613281 324.371094 58.558594 C 323.773438 57.671875 323.183594 56.78125 322.554688 55.914062 C 322.296875 55.550781 322.089844 55.1875 322.019531 54.738281 C 321.945312 54.261719 321.808594 53.792969 321.710938 53.316406 C 321.664062 53.082031 321.621094 52.839844 321.632812 52.601562 C 321.667969 51.945312 322.171875 51.550781 322.820312 51.636719 C 323.332031 51.703125 323.722656 51.960938 324.046875 52.351562 C 324.421875 52.796875 324.804688 53.234375 325.191406 53.667969 C 325.398438 53.898438 325.640625 53.964844 325.972656 53.925781 C 326.292969 53.890625 326.628906 54 326.960938 54.03125 C 327.011719 54.039062 327.121094 53.933594 327.109375 53.910156 C 327.070312 53.769531 326.992188 53.644531 326.9375 53.511719 C 326.746094 53.054688 326.597656 52.570312 326.8125 52.101562 C 327.007812 51.675781 326.851562 51.375 326.652344 51.023438 C 326.296875 50.390625 325.972656 49.738281 325.660156 49.082031 C 325.558594 48.867188 325.511719 48.617188 325.484375 48.378906 C 325.4375 47.855469 325.632812 47.425781 326.0625 47.117188 C 326.507812 46.804688 326.984375 46.835938 327.445312 47.070312 C 327.886719 47.292969 328.238281 47.632812 328.453125 48.089844 C 329.300781 49.855469 330.582031 51.335938 331.652344 52.953125 C 331.800781 53.183594 332.039062 53.433594 332.285156 53.511719 C 332.855469 53.683594 333.148438 54.113281 333.449219 54.554688 C 334.269531 55.761719 335.082031 56.972656 335.90625 58.171875 C 337.34375 60.253906 338.785156 62.328125 340.226562 64.410156 C 340.507812 64.816406 340.511719 64.8125 341.050781 64.503906 C 341.445312 64.277344 341.84375 64.289062 342.113281 64.578125 C 342.34375 64.828125 342.542969 65.109375 342.734375 65.386719 C 344.003906 67.222656 345.269531 69.066406 346.539062 70.910156 C 347.859375 72.828125 349.167969 74.757812 350.363281 76.765625 C 351.234375 78.222656 352.253906 79.59375 353.210938 81 C 354.113281 82.328125 355.09375 83.605469 355.910156 84.984375 C 359.097656 90.339844 362.851562 95.304688 366.375 100.429688 C 369.101562 104.398438 371.875 108.332031 374.648438 112.261719 C 375.933594 114.085938 377.3125 115.851562 378.578125 117.691406 C 379.898438 119.609375 381.125 121.597656 382.414062 123.539062 C 383.273438 124.832031 384.183594 126.082031 385.230469 127.246094 C 386.464844 128.613281 387.554688 130.109375 388.707031 131.550781 C 389.40625 132.421875 390.101562 133.292969 390.804688 134.164062 C 391.175781 134.625 391.484375 135.117188 391.515625 135.726562 C 391.53125 136.140625 391.730469 136.46875 391.96875 136.777344 C 392.707031 137.742188 393.460938 138.691406 394.1875 139.664062 C 394.976562 140.714844 395.726562 141.789062 396.519531 142.835938 C 397.277344 143.847656 398.09375 144.808594 398.835938 145.832031 C 400.058594 147.523438 401.253906 149.238281 402.433594 150.964844 C 402.730469 151.402344 402.933594 151.90625 403.152344 152.394531 C 403.457031 153.070312 403.347656 153.546875 402.789062 154.089844 C 402.71875 154.160156 402.625 154.195312 402.554688 154.261719 C 402.257812 154.53125 402.21875 154.710938 402.425781 155 C 402.90625 155.671875 403.402344 156.332031 403.886719 157.003906 C 404.085938 157.277344 404.292969 157.554688 404.457031 157.847656 C 404.964844 158.761719 404.636719 159.664062 403.660156 160.097656 C 403.484375 160.175781 403.234375 160.195312 403.136719 160.328125 C 402.765625 160.855469 402.257812 161.039062 401.652344 161.121094 C 401.457031 161.152344 401.289062 161.402344 401.117188 161.558594 C 400.554688 162.066406 399.851562 162.148438 399.265625 161.703125 C 398.652344 161.238281 398.078125 160.71875 397.492188 160.214844 C 397.167969 159.941406 397.183594 159.941406 396.894531 160.402344 C 396.835938 160.496094 396.648438 160.5625 396.53125 160.550781 C 396.402344 160.542969 396.28125 160.429688 396.160156 160.355469 C 395.945312 160.226562 395.910156 159.78125 395.503906 159.980469 C 395.636719 160.230469 395.730469 160.503906 395.898438 160.722656 C 396.667969 161.726562 397.492188 162.683594 398.226562 163.707031 C 398.820312 164.535156 398.527344 165.441406 397.617188 165.894531 C 397.292969 166.054688 396.953125 166.09375 396.632812 165.945312 C 396.332031 165.804688 396.027344 165.628906 395.789062 165.398438 C 394.074219 163.753906 392.347656 162.125 390.769531 160.339844 C 388.808594 158.117188 386.980469 155.792969 385.246094 153.390625 C 383.964844 151.621094 382.617188 149.898438 381.300781 148.15625 C 381.328125 148.132812 381.363281 148.109375 381.394531 148.082031 Z M 381.394531 148.082031 " fill-opacity="1" fill-rule="nonzero"/></g></g></g><g fill="#05415f" fill-opacity="1"><g transform="translate(98.300479, 189.973793)"><g><path d="M 4.796875 -11.375 C 6.265625 -11.375 7.335938 -11.070312 8.015625 -10.46875 C 8.691406 -9.875 9.03125 -9.035156 9.03125 -7.953125 C 9.03125 -7.453125 8.953125 -6.976562 8.796875 -6.53125 C 8.640625 -6.09375 8.390625 -5.703125 8.046875 -5.359375 C 7.703125 -5.023438 7.242188 -4.757812 6.671875 -4.5625 C 6.109375 -4.363281 5.410156 -4.265625 4.578125 -4.265625 L 3.359375 -4.265625 L 3.359375 0 L 1.5 0 L 1.5 -11.375 Z M 4.671875 -9.828125 L 3.359375 -9.828125 L 3.359375 -5.828125 L 4.375 -5.828125 C 4.96875 -5.828125 5.46875 -5.894531 5.875 -6.03125 C 6.28125 -6.164062 6.585938 -6.382812 6.796875 -6.6875 C 7.015625 -6.988281 7.125 -7.382812 7.125 -7.875 C 7.125 -8.53125 6.925781 -9.019531 6.53125 -9.34375 C 6.132812 -9.664062 5.515625 -9.828125 4.671875 -9.828125 Z M 4.671875 -9.828125 "/></g></g></g><g fill="#05415f" fill-opacity="1"><g transform="translate(108.100799, 189.973793)"><g><path d="M 8.9375 -4.328125 C 8.9375 -3.609375 8.84375 -2.972656 8.65625 -2.421875 C 8.46875 -1.867188 8.191406 -1.398438 7.828125 -1.015625 C 7.472656 -0.628906 7.046875 -0.335938 6.546875 -0.140625 C 6.046875 0.0546875 5.476562 0.15625 4.84375 0.15625 C 4.25 0.15625 3.703125 0.0546875 3.203125 -0.140625 C 2.710938 -0.335938 2.285156 -0.628906 1.921875 -1.015625 C 1.566406 -1.398438 1.289062 -1.867188 1.09375 -2.421875 C 0.894531 -2.972656 0.796875 -3.609375 0.796875 -4.328125 C 0.796875 -5.273438 0.960938 -6.078125 1.296875 -6.734375 C 1.628906 -7.398438 2.097656 -7.90625 2.703125 -8.25 C 3.316406 -8.601562 4.046875 -8.78125 4.890625 -8.78125 C 5.679688 -8.78125 6.378906 -8.601562 6.984375 -8.25 C 7.597656 -7.90625 8.078125 -7.398438 8.421875 -6.734375 C 8.765625 -6.078125 8.9375 -5.273438 8.9375 -4.328125 Z M 2.6875 -4.328125 C 2.6875 -3.703125 2.757812 -3.164062 2.90625 -2.71875 C 3.0625 -2.269531 3.300781 -1.925781 3.625 -1.6875 C 3.945312 -1.457031 4.363281 -1.34375 4.875 -1.34375 C 5.382812 -1.34375 5.796875 -1.457031 6.109375 -1.6875 C 6.429688 -1.925781 6.664062 -2.269531 6.8125 -2.71875 C 6.96875 -3.164062 7.046875 -3.703125 7.046875 -4.328125 C 7.046875 -4.953125 6.96875 -5.484375 6.8125 -5.921875 C 6.664062 -6.359375 6.429688 -6.691406 6.109375 -6.921875 C 5.796875 -7.160156 5.378906 -7.28125 4.859375 -7.28125 C 4.109375 -7.28125 3.554688 -7.023438 3.203125 -6.515625 C 2.859375 -6.003906 2.6875 -5.273438 2.6875 -4.328125 Z M 2.6875 -4.328125 "/></g></g></g><g fill="#05415f" fill-opacity="1"><g transform="translate(117.831055, 189.973793)"><g><path d="M 8.34375 0 L 7.265625 -4.015625 C 7.210938 -4.210938 7.148438 -4.453125 7.078125 -4.734375 C 7.003906 -5.015625 6.929688 -5.300781 6.859375 -5.59375 C 6.785156 -5.894531 6.71875 -6.171875 6.65625 -6.421875 C 6.59375 -6.679688 6.546875 -6.878906 6.515625 -7.015625 L 6.453125 -7.015625 C 6.429688 -6.878906 6.390625 -6.679688 6.328125 -6.421875 C 6.273438 -6.171875 6.210938 -5.894531 6.140625 -5.59375 C 6.066406 -5.289062 5.992188 -4.992188 5.921875 -4.703125 C 5.859375 -4.421875 5.796875 -4.179688 5.734375 -3.984375 L 4.59375 0 L 2.578125 0 L 0.171875 -8.625 L 2.015625 -8.625 L 3.140625 -4.34375 C 3.210938 -4.050781 3.285156 -3.734375 3.359375 -3.390625 C 3.429688 -3.054688 3.492188 -2.738281 3.546875 -2.4375 C 3.597656 -2.132812 3.632812 -1.882812 3.65625 -1.6875 L 3.71875 -1.6875 C 3.738281 -1.820312 3.765625 -1.992188 3.796875 -2.203125 C 3.835938 -2.421875 3.878906 -2.648438 3.921875 -2.890625 C 3.972656 -3.128906 4.019531 -3.351562 4.0625 -3.5625 C 4.113281 -3.769531 4.160156 -3.9375 4.203125 -4.0625 L 5.53125 -8.625 L 7.53125 -8.625 L 8.796875 -4.0625 C 8.847656 -3.875 8.90625 -3.628906 8.96875 -3.328125 C 9.039062 -3.023438 9.101562 -2.722656 9.15625 -2.421875 C 9.21875 -2.128906 9.253906 -1.882812 9.265625 -1.6875 L 9.328125 -1.6875 C 9.347656 -1.863281 9.382812 -2.101562 9.4375 -2.40625 C 9.5 -2.707031 9.566406 -3.03125 9.640625 -3.375 C 9.710938 -3.726562 9.785156 -4.050781 9.859375 -4.34375 L 11 -8.625 L 12.828125 -8.625 L 10.390625 0 Z M 8.34375 0 "/></g></g></g><g fill="#05415f" fill-opacity="1"><g transform="translate(130.830677, 189.973793)"><g><path d="M 4.734375 -8.78125 C 5.503906 -8.78125 6.164062 -8.617188 6.71875 -8.296875 C 7.269531 -7.984375 7.691406 -7.535156 7.984375 -6.953125 C 8.273438 -6.367188 8.421875 -5.675781 8.421875 -4.875 L 8.421875 -3.890625 L 2.671875 -3.890625 C 2.691406 -3.054688 2.914062 -2.410156 3.34375 -1.953125 C 3.769531 -1.503906 4.375 -1.28125 5.15625 -1.28125 C 5.707031 -1.28125 6.203125 -1.332031 6.640625 -1.4375 C 7.078125 -1.550781 7.523438 -1.710938 7.984375 -1.921875 L 7.984375 -0.421875 C 7.554688 -0.222656 7.117188 -0.078125 6.671875 0.015625 C 6.222656 0.109375 5.691406 0.15625 5.078125 0.15625 C 4.234375 0.15625 3.488281 -0.00390625 2.84375 -0.328125 C 2.207031 -0.660156 1.707031 -1.15625 1.34375 -1.8125 C 0.976562 -2.46875 0.796875 -3.28125 0.796875 -4.25 C 0.796875 -5.21875 0.957031 -6.035156 1.28125 -6.703125 C 1.613281 -7.378906 2.078125 -7.894531 2.671875 -8.25 C 3.265625 -8.601562 3.953125 -8.78125 4.734375 -8.78125 Z M 4.734375 -7.40625 C 4.160156 -7.40625 3.695312 -7.21875 3.34375 -6.84375 C 2.988281 -6.46875 2.78125 -5.921875 2.71875 -5.203125 L 6.640625 -5.203125 C 6.628906 -5.628906 6.554688 -6.007812 6.421875 -6.34375 C 6.285156 -6.675781 6.078125 -6.9375 5.796875 -7.125 C 5.523438 -7.3125 5.171875 -7.40625 4.734375 -7.40625 Z M 4.734375 -7.40625 "/></g></g></g><g fill="#05415f" fill-opacity="1"><g transform="translate(140.016039, 189.973793)"><g><path d="M 5.671875 -8.78125 C 5.816406 -8.78125 5.972656 -8.769531 6.140625 -8.75 C 6.316406 -8.738281 6.46875 -8.71875 6.59375 -8.6875 L 6.421875 -6.984375 C 6.304688 -7.015625 6.171875 -7.035156 6.015625 -7.046875 C 5.859375 -7.066406 5.71875 -7.078125 5.59375 -7.078125 C 5.269531 -7.078125 4.957031 -7.019531 4.65625 -6.90625 C 4.363281 -6.800781 4.101562 -6.640625 3.875 -6.421875 C 3.644531 -6.210938 3.460938 -5.945312 3.328125 -5.625 C 3.203125 -5.300781 3.140625 -4.925781 3.140625 -4.5 L 3.140625 0 L 1.3125 0 L 1.3125 -8.609375 L 2.734375 -8.609375 L 2.984375 -7.09375 L 3.078125 -7.09375 C 3.242188 -7.40625 3.453125 -7.6875 3.703125 -7.9375 C 3.960938 -8.1875 4.253906 -8.390625 4.578125 -8.546875 C 4.910156 -8.703125 5.273438 -8.78125 5.671875 -8.78125 Z M 5.671875 -8.78125 "/></g></g></g><g fill="#05415f" fill-opacity="1"><g transform="translate(146.897276, 189.973793)"><g><path d="M 5.609375 -7.21875 L 3.515625 -7.21875 L 3.515625 0 L 1.6875 0 L 1.6875 -7.21875 L 0.28125 -7.21875 L 0.28125 -8.09375 L 1.6875 -8.640625 L 1.6875 -9.234375 C 1.6875 -9.960938 1.800781 -10.539062 2.03125 -10.96875 C 2.257812 -11.40625 2.59375 -11.71875 3.03125 -11.90625 C 3.46875 -12.09375 3.984375 -12.1875 4.578125 -12.1875 C 4.972656 -12.1875 5.332031 -12.15625 5.65625 -12.09375 C 5.988281 -12.03125 6.265625 -11.957031 6.484375 -11.875 L 6.015625 -10.484375 C 5.835938 -10.546875 5.640625 -10.597656 5.421875 -10.640625 C 5.203125 -10.691406 4.96875 -10.71875 4.71875 -10.71875 C 4.300781 -10.71875 3.992188 -10.585938 3.796875 -10.328125 C 3.609375 -10.078125 3.515625 -9.703125 3.515625 -9.203125 L 3.515625 -8.609375 L 5.609375 -8.609375 Z M 5.609375 -7.21875 "/></g></g></g><g fill="#05415f" fill-opacity="1"><g transform="translate(152.665378, 189.973793)"><g><path d="M 8.8125 -8.609375 L 8.8125 0 L 7.375 0 L 7.125 -1.15625 L 7.03125 -1.15625 C 6.84375 -0.863281 6.609375 -0.617188 6.328125 -0.421875 C 6.054688 -0.222656 5.75 -0.078125 5.40625 0.015625 C 5.0625 0.109375 4.695312 0.15625 4.3125 0.15625 C 3.664062 0.15625 3.113281 0.046875 2.65625 -0.171875 C 2.195312 -0.390625 1.84375 -0.726562 1.59375 -1.1875 C 1.351562 -1.65625 1.234375 -2.253906 1.234375 -2.984375 L 1.234375 -8.609375 L 3.078125 -8.609375 L 3.078125 -3.328125 C 3.078125 -2.660156 3.210938 -2.160156 3.484375 -1.828125 C 3.753906 -1.492188 4.175781 -1.328125 4.75 -1.328125 C 5.3125 -1.328125 5.753906 -1.441406 6.078125 -1.671875 C 6.398438 -1.898438 6.628906 -2.238281 6.765625 -2.6875 C 6.910156 -3.132812 6.984375 -3.679688 6.984375 -4.328125 L 6.984375 -8.609375 Z M 8.8125 -8.609375 "/></g></g></g><g fill="#05415f" fill-opacity="1"><g transform="translate(162.792634, 189.973793)"><g><path d="M 3.140625 0 L 1.3125 0 L 1.3125 -12.109375 L 3.140625 -12.109375 Z M 3.140625 0 "/></g></g></g><g fill="#05415f" fill-opacity="1"><g transform="translate(167.237421, 189.973793)"><g><path d="M 1.046875 -0.96875 C 1.046875 -1.394531 1.15625 -1.691406 1.375 -1.859375 C 1.59375 -2.035156 1.859375 -2.125 2.171875 -2.125 C 2.492188 -2.125 2.765625 -2.035156 2.984375 -1.859375 C 3.210938 -1.691406 3.328125 -1.394531 3.328125 -0.96875 C 3.328125 -0.550781 3.210938 -0.25 2.984375 -0.0625 C 2.765625 0.113281 2.492188 0.203125 2.171875 0.203125 C 1.859375 0.203125 1.59375 0.113281 1.375 -0.0625 C 1.15625 -0.25 1.046875 -0.550781 1.046875 -0.96875 Z M 1.046875 -0.96875 "/></g></g></g><g fill="#05415f" fill-opacity="1"><g transform="translate(171.604365, 189.973793)"><g/></g></g><g fill="#05415f" fill-opacity="1"><g transform="translate(175.745562, 189.973793)"><g><path d="M 8.0625 -3.09375 C 8.0625 -2.414062 7.894531 -1.832031 7.5625 -1.34375 C 7.238281 -0.863281 6.769531 -0.492188 6.15625 -0.234375 C 5.539062 0.0234375 4.804688 0.15625 3.953125 0.15625 C 3.535156 0.15625 3.132812 0.128906 2.75 0.078125 C 2.375 0.0351562 2.019531 -0.0234375 1.6875 -0.109375 C 1.351562 -0.203125 1.050781 -0.316406 0.78125 -0.453125 L 0.78125 -2.203125 C 1.238281 -2.003906 1.753906 -1.820312 2.328125 -1.65625 C 2.898438 -1.5 3.476562 -1.421875 4.0625 -1.421875 C 4.550781 -1.421875 4.953125 -1.484375 5.265625 -1.609375 C 5.585938 -1.734375 5.828125 -1.910156 5.984375 -2.140625 C 6.140625 -2.378906 6.21875 -2.660156 6.21875 -2.984375 C 6.21875 -3.316406 6.125 -3.597656 5.9375 -3.828125 C 5.757812 -4.066406 5.488281 -4.28125 5.125 -4.46875 C 4.757812 -4.664062 4.300781 -4.878906 3.75 -5.109375 C 3.375 -5.253906 3.015625 -5.421875 2.671875 -5.609375 C 2.335938 -5.804688 2.035156 -6.035156 1.765625 -6.296875 C 1.503906 -6.554688 1.296875 -6.863281 1.140625 -7.21875 C 0.992188 -7.570312 0.921875 -7.988281 0.921875 -8.46875 C 0.921875 -9.113281 1.070312 -9.664062 1.375 -10.125 C 1.6875 -10.582031 2.125 -10.929688 2.6875 -11.171875 C 3.25 -11.421875 3.90625 -11.546875 4.65625 -11.546875 C 5.257812 -11.546875 5.820312 -11.484375 6.34375 -11.359375 C 6.875 -11.234375 7.394531 -11.054688 7.90625 -10.828125 L 7.3125 -9.328125 C 6.84375 -9.515625 6.390625 -9.664062 5.953125 -9.78125 C 5.515625 -9.894531 5.066406 -9.953125 4.609375 -9.953125 C 4.210938 -9.953125 3.875 -9.890625 3.59375 -9.765625 C 3.320312 -9.648438 3.113281 -9.484375 2.96875 -9.265625 C 2.832031 -9.054688 2.765625 -8.800781 2.765625 -8.5 C 2.765625 -8.164062 2.84375 -7.882812 3 -7.65625 C 3.164062 -7.4375 3.421875 -7.234375 3.765625 -7.046875 C 4.109375 -6.859375 4.554688 -6.648438 5.109375 -6.421875 C 5.734375 -6.160156 6.265625 -5.890625 6.703125 -5.609375 C 7.140625 -5.328125 7.472656 -4.984375 7.703125 -4.578125 C 7.941406 -4.179688 8.0625 -3.6875 8.0625 -3.09375 Z M 8.0625 -3.09375 "/></g></g></g><g fill="#05415f" fill-opacity="1"><g transform="translate(184.510577, 189.973793)"><g><path d="M 4.734375 -8.78125 C 5.503906 -8.78125 6.164062 -8.617188 6.71875 -8.296875 C 7.269531 -7.984375 7.691406 -7.535156 7.984375 -6.953125 C 8.273438 -6.367188 8.421875 -5.675781 8.421875 -4.875 L 8.421875 -3.890625 L 2.671875 -3.890625 C 2.691406 -3.054688 2.914062 -2.410156 3.34375 -1.953125 C 3.769531 -1.503906 4.375 -1.28125 5.15625 -1.28125 C 5.707031 -1.28125 6.203125 -1.332031 6.640625 -1.4375 C 7.078125 -1.550781 7.523438 -1.710938 7.984375 -1.921875 L 7.984375 -0.421875 C 7.554688 -0.222656 7.117188 -0.078125 6.671875 0.015625 C 6.222656 0.109375 5.691406 0.15625 5.078125 0.15625 C 4.234375 0.15625 3.488281 -0.00390625 2.84375 -0.328125 C 2.207031 -0.660156 1.707031 -1.15625 1.34375 -1.8125 C 0.976562 -2.46875 0.796875 -3.28125 0.796875 -4.25 C 0.796875 -5.21875 0.957031 -6.035156 1.28125 -6.703125 C 1.613281 -7.378906 2.078125 -7.894531 2.671875 -8.25 C 3.265625 -8.601562 3.953125 -8.78125 4.734375 -8.78125 Z M 4.734375 -7.40625 C 4.160156 -7.40625 3.695312 -7.21875 3.34375 -6.84375 C 2.988281 -6.46875 2.78125 -5.921875 2.71875 -5.203125 L 6.640625 -5.203125 C 6.628906 -5.628906 6.554688 -6.007812 6.421875 -6.34375 C 6.285156 -6.675781 6.078125 -6.9375 5.796875 -7.125 C 5.523438 -7.3125 5.171875 -7.40625 4.734375 -7.40625 Z M 4.734375 -7.40625 "/></g></g></g><g fill="#05415f" fill-opacity="1"><g transform="translate(193.695939, 189.973793)"><g><path d="M 4.6875 -8.78125 C 5.769531 -8.78125 6.585938 -8.535156 7.140625 -8.046875 C 7.703125 -7.566406 7.984375 -6.816406 7.984375 -5.796875 L 7.984375 0 L 6.6875 0 L 6.34375 -1.21875 L 6.28125 -1.21875 C 6.039062 -0.90625 5.789062 -0.644531 5.53125 -0.4375 C 5.269531 -0.238281 4.96875 -0.09375 4.625 0 C 4.28125 0.101562 3.867188 0.15625 3.390625 0.15625 C 2.867188 0.15625 2.40625 0.0625 2 -0.125 C 1.601562 -0.3125 1.285156 -0.597656 1.046875 -0.984375 C 0.816406 -1.378906 0.703125 -1.875 0.703125 -2.46875 C 0.703125 -3.363281 1.03125 -4.03125 1.6875 -4.46875 C 2.351562 -4.914062 3.351562 -5.164062 4.6875 -5.21875 L 6.1875 -5.265625 L 6.1875 -5.71875 C 6.1875 -6.3125 6.046875 -6.734375 5.765625 -6.984375 C 5.492188 -7.242188 5.101562 -7.375 4.59375 -7.375 C 4.164062 -7.375 3.75 -7.3125 3.34375 -7.1875 C 2.9375 -7.0625 2.539062 -6.910156 2.15625 -6.734375 L 1.578125 -8.015625 C 1.992188 -8.242188 2.46875 -8.425781 3 -8.5625 C 3.539062 -8.707031 4.101562 -8.78125 4.6875 -8.78125 Z M 6.171875 -4.109375 L 5.0625 -4.078125 C 4.15625 -4.046875 3.515625 -3.890625 3.140625 -3.609375 C 2.773438 -3.328125 2.59375 -2.941406 2.59375 -2.453125 C 2.59375 -2.035156 2.71875 -1.726562 2.96875 -1.53125 C 3.226562 -1.332031 3.566406 -1.234375 3.984375 -1.234375 C 4.609375 -1.234375 5.128906 -1.410156 5.546875 -1.765625 C 5.960938 -2.128906 6.171875 -2.664062 6.171875 -3.375 Z M 6.171875 -4.109375 "/></g></g></g><g fill="#05415f" fill-opacity="1"><g transform="translate(202.943574, 189.973793)"><g><path d="M 11.046875 -8.78125 C 12.003906 -8.78125 12.726562 -8.53125 13.21875 -8.03125 C 13.707031 -7.53125 13.953125 -6.734375 13.953125 -5.640625 L 13.953125 0 L 12.125 0 L 12.125 -5.3125 C 12.125 -5.957031 12 -6.445312 11.75 -6.78125 C 11.5 -7.113281 11.113281 -7.28125 10.59375 -7.28125 C 9.863281 -7.28125 9.335938 -7.046875 9.015625 -6.578125 C 8.703125 -6.117188 8.546875 -5.445312 8.546875 -4.5625 L 8.546875 0 L 6.71875 0 L 6.71875 -5.3125 C 6.71875 -5.75 6.660156 -6.113281 6.546875 -6.40625 C 6.429688 -6.695312 6.257812 -6.914062 6.03125 -7.0625 C 5.8125 -7.207031 5.523438 -7.28125 5.171875 -7.28125 C 4.671875 -7.28125 4.269531 -7.164062 3.96875 -6.9375 C 3.675781 -6.707031 3.460938 -6.367188 3.328125 -5.921875 C 3.203125 -5.484375 3.140625 -4.941406 3.140625 -4.296875 L 3.140625 0 L 1.3125 0 L 1.3125 -8.609375 L 2.734375 -8.609375 L 2.984375 -7.453125 L 3.09375 -7.453125 C 3.269531 -7.753906 3.488281 -8 3.75 -8.1875 C 4.007812 -8.382812 4.300781 -8.53125 4.625 -8.625 C 4.945312 -8.726562 5.28125 -8.78125 5.625 -8.78125 C 6.269531 -8.78125 6.8125 -8.664062 7.25 -8.4375 C 7.695312 -8.207031 8.023438 -7.863281 8.234375 -7.40625 L 8.375 -7.40625 C 8.644531 -7.875 9.019531 -8.21875 9.5 -8.4375 C 9.988281 -8.664062 10.503906 -8.78125 11.046875 -8.78125 Z M 11.046875 -8.78125 "/></g></g></g><g fill="#05415f" fill-opacity="1"><g transform="translate(218.15391, 189.973793)"><g><path d="M 3.140625 0 L 1.3125 0 L 1.3125 -12.109375 L 3.140625 -12.109375 Z M 3.140625 0 "/></g></g></g><g fill="#05415f" fill-opacity="1"><g transform="translate(222.598697, 189.973793)"><g><path d="M 4.734375 -8.78125 C 5.503906 -8.78125 6.164062 -8.617188 6.71875 -8.296875 C 7.269531 -7.984375 7.691406 -7.535156 7.984375 -6.953125 C 8.273438 -6.367188 8.421875 -5.675781 8.421875 -4.875 L 8.421875 -3.890625 L 2.671875 -3.890625 C 2.691406 -3.054688 2.914062 -2.410156 3.34375 -1.953125 C 3.769531 -1.503906 4.375 -1.28125 5.15625 -1.28125 C 5.707031 -1.28125 6.203125 -1.332031 6.640625 -1.4375 C 7.078125 -1.550781 7.523438 -1.710938 7.984375 -1.921875 L 7.984375 -0.421875 C 7.554688 -0.222656 7.117188 -0.078125 6.671875 0.015625 C 6.222656 0.109375 5.691406 0.15625 5.078125 0.15625 C 4.234375 0.15625 3.488281 -0.00390625 2.84375 -0.328125 C 2.207031 -0.660156 1.707031 -1.15625 1.34375 -1.8125 C 0.976562 -2.46875 0.796875 -3.28125 0.796875 -4.25 C 0.796875 -5.21875 0.957031 -6.035156 1.28125 -6.703125 C 1.613281 -7.378906 2.078125 -7.894531 2.671875 -8.25 C 3.265625 -8.601562 3.953125 -8.78125 4.734375 -8.78125 Z M 4.734375 -7.40625 C 4.160156 -7.40625 3.695312 -7.21875 3.34375 -6.84375 C 2.988281 -6.46875 2.78125 -5.921875 2.71875 -5.203125 L 6.640625 -5.203125 C 6.628906 -5.628906 6.554688 -6.007812 6.421875 -6.34375 C 6.285156 -6.675781 6.078125 -6.9375 5.796875 -7.125 C 5.523438 -7.3125 5.171875 -7.40625 4.734375 -7.40625 Z M 4.734375 -7.40625 "/></g></g></g><g fill="#05415f" fill-opacity="1"><g transform="translate(231.784059, 189.973793)"><g><path d="M 7.09375 -2.453125 C 7.09375 -1.890625 6.953125 -1.410156 6.671875 -1.015625 C 6.398438 -0.628906 6 -0.335938 5.46875 -0.140625 C 4.945312 0.0546875 4.304688 0.15625 3.546875 0.15625 C 2.941406 0.15625 2.421875 0.113281 1.984375 0.03125 C 1.554688 -0.0507812 1.148438 -0.179688 0.765625 -0.359375 L 0.765625 -1.953125 C 1.179688 -1.753906 1.644531 -1.582031 2.15625 -1.4375 C 2.664062 -1.300781 3.148438 -1.234375 3.609375 -1.234375 C 4.203125 -1.234375 4.628906 -1.328125 4.890625 -1.515625 C 5.160156 -1.710938 5.296875 -1.96875 5.296875 -2.28125 C 5.296875 -2.46875 5.242188 -2.632812 5.140625 -2.78125 C 5.035156 -2.925781 4.835938 -3.078125 4.546875 -3.234375 C 4.253906 -3.398438 3.832031 -3.59375 3.28125 -3.8125 C 2.738281 -4.03125 2.28125 -4.25 1.90625 -4.46875 C 1.53125 -4.6875 1.242188 -4.945312 1.046875 -5.25 C 0.859375 -5.5625 0.765625 -5.957031 0.765625 -6.4375 C 0.765625 -7.207031 1.066406 -7.789062 1.671875 -8.1875 C 2.273438 -8.582031 3.078125 -8.78125 4.078125 -8.78125 C 4.609375 -8.78125 5.109375 -8.722656 5.578125 -8.609375 C 6.046875 -8.503906 6.503906 -8.351562 6.953125 -8.15625 L 6.375 -6.78125 C 5.988281 -6.945312 5.597656 -7.085938 5.203125 -7.203125 C 4.816406 -7.316406 4.421875 -7.375 4.015625 -7.375 C 3.546875 -7.375 3.1875 -7.300781 2.9375 -7.15625 C 2.6875 -7.007812 2.5625 -6.800781 2.5625 -6.53125 C 2.5625 -6.320312 2.617188 -6.148438 2.734375 -6.015625 C 2.859375 -5.878906 3.066406 -5.738281 3.359375 -5.59375 C 3.660156 -5.457031 4.070312 -5.285156 4.59375 -5.078125 C 5.101562 -4.878906 5.546875 -4.671875 5.921875 -4.453125 C 6.296875 -4.234375 6.582031 -3.96875 6.78125 -3.65625 C 6.988281 -3.351562 7.09375 -2.953125 7.09375 -2.453125 Z M 7.09375 -2.453125 "/></g></g></g><g fill="#05415f" fill-opacity="1"><g transform="translate(239.544917, 189.973793)"><g><path d="M 7.09375 -2.453125 C 7.09375 -1.890625 6.953125 -1.410156 6.671875 -1.015625 C 6.398438 -0.628906 6 -0.335938 5.46875 -0.140625 C 4.945312 0.0546875 4.304688 0.15625 3.546875 0.15625 C 2.941406 0.15625 2.421875 0.113281 1.984375 0.03125 C 1.554688 -0.0507812 1.148438 -0.179688 0.765625 -0.359375 L 0.765625 -1.953125 C 1.179688 -1.753906 1.644531 -1.582031 2.15625 -1.4375 C 2.664062 -1.300781 3.148438 -1.234375 3.609375 -1.234375 C 4.203125 -1.234375 4.628906 -1.328125 4.890625 -1.515625 C 5.160156 -1.710938 5.296875 -1.96875 5.296875 -2.28125 C 5.296875 -2.46875 5.242188 -2.632812 5.140625 -2.78125 C 5.035156 -2.925781 4.835938 -3.078125 4.546875 -3.234375 C 4.253906 -3.398438 3.832031 -3.59375 3.28125 -3.8125 C 2.738281 -4.03125 2.28125 -4.25 1.90625 -4.46875 C 1.53125 -4.6875 1.242188 -4.945312 1.046875 -5.25 C 0.859375 -5.5625 0.765625 -5.957031 0.765625 -6.4375 C 0.765625 -7.207031 1.066406 -7.789062 1.671875 -8.1875 C 2.273438 -8.582031 3.078125 -8.78125 4.078125 -8.78125 C 4.609375 -8.78125 5.109375 -8.722656 5.578125 -8.609375 C 6.046875 -8.503906 6.503906 -8.351562 6.953125 -8.15625 L 6.375 -6.78125 C 5.988281 -6.945312 5.597656 -7.085938 5.203125 -7.203125 C 4.816406 -7.316406 4.421875 -7.375 4.015625 -7.375 C 3.546875 -7.375 3.1875 -7.300781 2.9375 -7.15625 C 2.6875 -7.007812 2.5625 -6.800781 2.5625 -6.53125 C 2.5625 -6.320312 2.617188 -6.148438 2.734375 -6.015625 C 2.859375 -5.878906 3.066406 -5.738281 3.359375 -5.59375 C 3.660156 -5.457031 4.070312 -5.285156 4.59375 -5.078125 C 5.101562 -4.878906 5.546875 -4.671875 5.921875 -4.453125 C 6.296875 -4.234375 6.582031 -3.96875 6.78125 -3.65625 C 6.988281 -3.351562 7.09375 -2.953125 7.09375 -2.453125 Z M 7.09375 -2.453125 "/></g></g></g><g fill="#05415f" fill-opacity="1"><g transform="translate(247.305775, 189.973793)"><g><path d="M 1.046875 -0.96875 C 1.046875 -1.394531 1.15625 -1.691406 1.375 -1.859375 C 1.59375 -2.035156 1.859375 -2.125 2.171875 -2.125 C 2.492188 -2.125 2.765625 -2.035156 2.984375 -1.859375 C 3.210938 -1.691406 3.328125 -1.394531 3.328125 -0.96875 C 3.328125 -0.550781 3.210938 -0.25 2.984375 -0.0625 C 2.765625 0.113281 2.492188 0.203125 2.171875 0.203125 C 1.859375 0.203125 1.59375 0.113281 1.375 -0.0625 C 1.15625 -0.25 1.046875 -0.550781 1.046875 -0.96875 Z M 1.046875 -0.96875 "/></g></g></g><g fill="#05415f" fill-opacity="1"><g transform="translate(251.672719, 189.973793)"><g/></g></g><g fill="#05415f" fill-opacity="1"><g transform="translate(255.813916, 189.973793)"><g><path d="M 8.546875 0 L 7.4375 -3.15625 L 3.078125 -3.15625 L 1.96875 0 L 0 0 L 4.234375 -11.421875 L 6.296875 -11.421875 L 10.53125 0 Z M 6.953125 -4.765625 L 5.875 -7.875 C 5.832031 -8.007812 5.769531 -8.195312 5.6875 -8.4375 C 5.613281 -8.6875 5.535156 -8.941406 5.453125 -9.203125 C 5.378906 -9.460938 5.316406 -9.679688 5.265625 -9.859375 C 5.210938 -9.640625 5.144531 -9.398438 5.0625 -9.140625 C 4.988281 -8.878906 4.914062 -8.632812 4.84375 -8.40625 C 4.78125 -8.175781 4.726562 -8 4.6875 -7.875 L 3.609375 -4.765625 Z M 6.953125 -4.765625 "/></g></g></g><g fill="#05415f" fill-opacity="1"><g transform="translate(266.35373, 189.973793)"><g><path d="M 4.203125 0.15625 C 3.171875 0.15625 2.34375 -0.21875 1.71875 -0.96875 C 1.101562 -1.71875 0.796875 -2.820312 0.796875 -4.28125 C 0.796875 -5.757812 1.109375 -6.878906 1.734375 -7.640625 C 2.367188 -8.398438 3.203125 -8.78125 4.234375 -8.78125 C 4.671875 -8.78125 5.050781 -8.71875 5.375 -8.59375 C 5.707031 -8.476562 5.988281 -8.320312 6.21875 -8.125 C 6.457031 -7.9375 6.660156 -7.71875 6.828125 -7.46875 L 6.921875 -7.46875 C 6.890625 -7.632812 6.859375 -7.867188 6.828125 -8.171875 C 6.796875 -8.472656 6.78125 -8.753906 6.78125 -9.015625 L 6.78125 -12.109375 L 8.609375 -12.109375 L 8.609375 0 L 7.1875 0 L 6.859375 -1.171875 L 6.78125 -1.171875 C 6.625 -0.921875 6.425781 -0.695312 6.1875 -0.5 C 5.957031 -0.300781 5.675781 -0.140625 5.34375 -0.015625 C 5.019531 0.0976562 4.640625 0.15625 4.203125 0.15625 Z M 4.71875 -1.328125 C 5.5 -1.328125 6.050781 -1.550781 6.375 -2 C 6.695312 -2.457031 6.863281 -3.132812 6.875 -4.03125 L 6.875 -4.28125 C 6.875 -5.25 6.71875 -5.988281 6.40625 -6.5 C 6.09375 -7.019531 5.523438 -7.28125 4.703125 -7.28125 C 4.046875 -7.28125 3.539062 -7.015625 3.1875 -6.484375 C 2.84375 -5.953125 2.671875 -5.207031 2.671875 -4.25 C 2.671875 -3.300781 2.84375 -2.578125 3.1875 -2.078125 C 3.539062 -1.578125 4.050781 -1.328125 4.71875 -1.328125 Z M 4.71875 -1.328125 "/></g></g></g><g fill="#05415f" fill-opacity="1"><g transform="translate(276.278597, 189.973793)"><g><path d="M 4.6875 -8.78125 C 5.769531 -8.78125 6.585938 -8.535156 7.140625 -8.046875 C 7.703125 -7.566406 7.984375 -6.816406 7.984375 -5.796875 L 7.984375 0 L 6.6875 0 L 6.34375 -1.21875 L 6.28125 -1.21875 C 6.039062 -0.90625 5.789062 -0.644531 5.53125 -0.4375 C 5.269531 -0.238281 4.96875 -0.09375 4.625 0 C 4.28125 0.101562 3.867188 0.15625 3.390625 0.15625 C 2.867188 0.15625 2.40625 0.0625 2 -0.125 C 1.601562 -0.3125 1.285156 -0.597656 1.046875 -0.984375 C 0.816406 -1.378906 0.703125 -1.875 0.703125 -2.46875 C 0.703125 -3.363281 1.03125 -4.03125 1.6875 -4.46875 C 2.351562 -4.914062 3.351562 -5.164062 4.6875 -5.21875 L 6.1875 -5.265625 L 6.1875 -5.71875 C 6.1875 -6.3125 6.046875 -6.734375 5.765625 -6.984375 C 5.492188 -7.242188 5.101562 -7.375 4.59375 -7.375 C 4.164062 -7.375 3.75 -7.3125 3.34375 -7.1875 C 2.9375 -7.0625 2.539062 -6.910156 2.15625 -6.734375 L 1.578125 -8.015625 C 1.992188 -8.242188 2.46875 -8.425781 3 -8.5625 C 3.539062 -8.707031 4.101562 -8.78125 4.6875 -8.78125 Z M 6.171875 -4.109375 L 5.0625 -4.078125 C 4.15625 -4.046875 3.515625 -3.890625 3.140625 -3.609375 C 2.773438 -3.328125 2.59375 -2.941406 2.59375 -2.453125 C 2.59375 -2.035156 2.71875 -1.726562 2.96875 -1.53125 C 3.226562 -1.332031 3.566406 -1.234375 3.984375 -1.234375 C 4.609375 -1.234375 5.128906 -1.410156 5.546875 -1.765625 C 5.960938 -2.128906 6.171875 -2.664062 6.171875 -3.375 Z M 6.171875 -4.109375 "/></g></g></g><g fill="#05415f" fill-opacity="1"><g transform="translate(285.526232, 189.973793)"><g><path d="M 5.734375 -8.78125 C 6.753906 -8.78125 7.570312 -8.40625 8.1875 -7.65625 C 8.8125 -6.90625 9.125 -5.796875 9.125 -4.328125 C 9.125 -3.347656 8.976562 -2.523438 8.6875 -1.859375 C 8.394531 -1.191406 7.988281 -0.6875 7.46875 -0.34375 C 6.957031 -0.0078125 6.363281 0.15625 5.6875 0.15625 C 5.25 0.15625 4.867188 0.0976562 4.546875 -0.015625 C 4.222656 -0.128906 3.945312 -0.273438 3.71875 -0.453125 C 3.488281 -0.640625 3.296875 -0.84375 3.140625 -1.0625 L 3.03125 -1.0625 C 3.0625 -0.851562 3.085938 -0.625 3.109375 -0.375 C 3.128906 -0.125 3.140625 0.101562 3.140625 0.3125 L 3.140625 3.828125 L 1.3125 3.828125 L 1.3125 -8.609375 L 2.796875 -8.609375 L 3.0625 -7.421875 L 3.140625 -7.421875 C 3.304688 -7.671875 3.503906 -7.894531 3.734375 -8.09375 C 3.960938 -8.300781 4.238281 -8.46875 4.5625 -8.59375 C 4.894531 -8.71875 5.285156 -8.78125 5.734375 -8.78125 Z M 5.234375 -7.28125 C 4.734375 -7.28125 4.332031 -7.179688 4.03125 -6.984375 C 3.726562 -6.785156 3.503906 -6.484375 3.359375 -6.078125 C 3.222656 -5.679688 3.148438 -5.179688 3.140625 -4.578125 L 3.140625 -4.328125 C 3.140625 -3.691406 3.207031 -3.148438 3.34375 -2.703125 C 3.476562 -2.253906 3.695312 -1.914062 4 -1.6875 C 4.3125 -1.457031 4.734375 -1.34375 5.265625 -1.34375 C 5.710938 -1.34375 6.082031 -1.460938 6.375 -1.703125 C 6.664062 -1.953125 6.882812 -2.300781 7.03125 -2.75 C 7.175781 -3.207031 7.25 -3.738281 7.25 -4.34375 C 7.25 -5.28125 7.082031 -6.003906 6.75 -6.515625 C 6.414062 -7.023438 5.910156 -7.28125 5.234375 -7.28125 Z M 5.234375 -7.28125 "/></g></g></g><g fill="#05415f" fill-opacity="1"><g transform="translate(295.451111, 189.973793)"><g><path d="M 4.515625 -1.328125 C 4.753906 -1.328125 4.988281 -1.347656 5.21875 -1.390625 C 5.457031 -1.429688 5.671875 -1.484375 5.859375 -1.546875 L 5.859375 -0.15625 C 5.660156 -0.0703125 5.398438 0 5.078125 0.0625 C 4.753906 0.125 4.414062 0.15625 4.0625 0.15625 C 3.582031 0.15625 3.144531 0.078125 2.75 -0.078125 C 2.363281 -0.242188 2.054688 -0.523438 1.828125 -0.921875 C 1.597656 -1.328125 1.484375 -1.882812 1.484375 -2.59375 L 1.484375 -7.21875 L 0.3125 -7.21875 L 0.3125 -8.03125 L 1.578125 -8.6875 L 2.171875 -10.53125 L 3.328125 -10.53125 L 3.328125 -8.609375 L 5.796875 -8.609375 L 5.796875 -7.21875 L 3.328125 -7.21875 L 3.328125 -2.609375 C 3.328125 -2.179688 3.4375 -1.859375 3.65625 -1.640625 C 3.875 -1.429688 4.160156 -1.328125 4.515625 -1.328125 Z M 4.515625 -1.328125 "/></g></g></g><g fill="#05415f" fill-opacity="1"><g transform="translate(301.756305, 189.973793)"><g><path d="M 3.140625 -8.609375 L 3.140625 0 L 1.3125 0 L 1.3125 -8.609375 Z M 2.234375 -11.921875 C 2.515625 -11.921875 2.753906 -11.84375 2.953125 -11.6875 C 3.160156 -11.539062 3.265625 -11.28125 3.265625 -10.90625 C 3.265625 -10.539062 3.160156 -10.28125 2.953125 -10.125 C 2.753906 -9.976562 2.515625 -9.90625 2.234375 -9.90625 C 1.941406 -9.90625 1.695312 -9.976562 1.5 -10.125 C 1.300781 -10.28125 1.203125 -10.539062 1.203125 -10.90625 C 1.203125 -11.28125 1.300781 -11.539062 1.5 -11.6875 C 1.695312 -11.84375 1.941406 -11.921875 2.234375 -11.921875 Z M 2.234375 -11.921875 "/></g></g></g><g fill="#05415f" fill-opacity="1"><g transform="translate(306.201092, 189.973793)"><g><path d="M 3.28125 0 L 0 -8.609375 L 1.9375 -8.609375 L 3.71875 -3.5625 C 3.832031 -3.238281 3.929688 -2.890625 4.015625 -2.515625 C 4.109375 -2.140625 4.175781 -1.828125 4.21875 -1.578125 L 4.28125 -1.578125 C 4.3125 -1.835938 4.378906 -2.148438 4.484375 -2.515625 C 4.585938 -2.890625 4.695312 -3.238281 4.8125 -3.5625 L 6.578125 -8.609375 L 8.515625 -8.609375 L 5.234375 0 Z M 3.28125 0 "/></g></g></g><g fill="#05415f" fill-opacity="1"><g transform="translate(314.717024, 189.973793)"><g><path d="M 4.734375 -8.78125 C 5.503906 -8.78125 6.164062 -8.617188 6.71875 -8.296875 C 7.269531 -7.984375 7.691406 -7.535156 7.984375 -6.953125 C 8.273438 -6.367188 8.421875 -5.675781 8.421875 -4.875 L 8.421875 -3.890625 L 2.671875 -3.890625 C 2.691406 -3.054688 2.914062 -2.410156 3.34375 -1.953125 C 3.769531 -1.503906 4.375 -1.28125 5.15625 -1.28125 C 5.707031 -1.28125 6.203125 -1.332031 6.640625 -1.4375 C 7.078125 -1.550781 7.523438 -1.710938 7.984375 -1.921875 L 7.984375 -0.421875 C 7.554688 -0.222656 7.117188 -0.078125 6.671875 0.015625 C 6.222656 0.109375 5.691406 0.15625 5.078125 0.15625 C 4.234375 0.15625 3.488281 -0.00390625 2.84375 -0.328125 C 2.207031 -0.660156 1.707031 -1.15625 1.34375 -1.8125 C 0.976562 -2.46875 0.796875 -3.28125 0.796875 -4.25 C 0.796875 -5.21875 0.957031 -6.035156 1.28125 -6.703125 C 1.613281 -7.378906 2.078125 -7.894531 2.671875 -8.25 C 3.265625 -8.601562 3.953125 -8.78125 4.734375 -8.78125 Z M 4.734375 -7.40625 C 4.160156 -7.40625 3.695312 -7.21875 3.34375 -6.84375 C 2.988281 -6.46875 2.78125 -5.921875 2.71875 -5.203125 L 6.640625 -5.203125 C 6.628906 -5.628906 6.554688 -6.007812 6.421875 -6.34375 C 6.285156 -6.675781 6.078125 -6.9375 5.796875 -7.125 C 5.523438 -7.3125 5.171875 -7.40625 4.734375 -7.40625 Z M 4.734375 -7.40625 "/></g></g></g><g fill="#05415f" fill-opacity="1"><g transform="translate(323.902385, 189.973793)"><g><path d="M 1.046875 -0.96875 C 1.046875 -1.394531 1.15625 -1.691406 1.375 -1.859375 C 1.59375 -2.035156 1.859375 -2.125 2.171875 -2.125 C 2.492188 -2.125 2.765625 -2.035156 2.984375 -1.859375 C 3.210938 -1.691406 3.328125 -1.394531 3.328125 -0.96875 C 3.328125 -0.550781 3.210938 -0.25 2.984375 -0.0625 C 2.765625 0.113281 2.492188 0.203125 2.171875 0.203125 C 1.859375 0.203125 1.59375 0.113281 1.375 -0.0625 C 1.15625 -0.25 1.046875 -0.550781 1.046875 -0.96875 Z M 1.046875 -0.96875 "/></g></g></g><g fill="#05415f" fill-opacity="1"><g transform="translate(328.274794, 189.973793)"><g/></g></g><g fill="#05415f" fill-opacity="1"><g transform="translate(87.88267, 211.650312)"><g><path d="M 7.890625 0 L 1.5625 0 L 1.5625 -11.375 L 7.890625 -11.375 L 7.890625 -10.203125 L 2.875 -10.203125 L 2.875 -6.53125 L 7.609375 -6.53125 L 7.609375 -5.375 L 2.875 -5.375 L 2.875 -1.171875 L 7.890625 -1.171875 Z M 7.890625 0 "/></g></g></g><g fill="#05415f" fill-opacity="1"><g transform="translate(96.741095, 211.650312)"><g><path d="M 3.390625 -4.359375 L 0.4375 -8.53125 L 1.921875 -8.53125 L 4.171875 -5.25 L 6.40625 -8.53125 L 7.875 -8.53125 L 4.921875 -4.359375 L 8.03125 0 L 6.5625 0 L 4.171875 -3.484375 L 1.765625 0 L 0.296875 0 Z M 3.390625 -4.359375 "/></g></g></g><g fill="#05415f" fill-opacity="1"><g transform="translate(105.085763, 211.650312)"><g><path d="M 5.375 -8.6875 C 6.4375 -8.6875 7.28125 -8.316406 7.90625 -7.578125 C 8.539062 -6.847656 8.859375 -5.75 8.859375 -4.28125 C 8.859375 -3.3125 8.710938 -2.5 8.421875 -1.84375 C 8.128906 -1.1875 7.71875 -0.6875 7.1875 -0.34375 C 6.664062 -0.0078125 6.050781 0.15625 5.34375 0.15625 C 4.882812 0.15625 4.484375 0.0976562 4.140625 -0.015625 C 3.804688 -0.140625 3.515625 -0.300781 3.265625 -0.5 C 3.023438 -0.707031 2.820312 -0.929688 2.65625 -1.171875 L 2.5625 -1.171875 C 2.582031 -0.960938 2.601562 -0.710938 2.625 -0.421875 C 2.644531 -0.140625 2.65625 0.101562 2.65625 0.3125 L 2.65625 3.8125 L 1.359375 3.8125 L 1.359375 -8.53125 L 2.421875 -8.53125 L 2.59375 -7.265625 L 2.65625 -7.265625 C 2.820312 -7.523438 3.023438 -7.757812 3.265625 -7.96875 C 3.503906 -8.1875 3.796875 -8.359375 4.140625 -8.484375 C 4.484375 -8.617188 4.894531 -8.6875 5.375 -8.6875 Z M 5.140625 -7.59375 C 4.546875 -7.59375 4.066406 -7.476562 3.703125 -7.25 C 3.347656 -7.019531 3.085938 -6.675781 2.921875 -6.21875 C 2.753906 -5.769531 2.664062 -5.203125 2.65625 -4.515625 L 2.65625 -4.265625 C 2.65625 -3.546875 2.734375 -2.9375 2.890625 -2.4375 C 3.054688 -1.945312 3.320312 -1.570312 3.6875 -1.3125 C 4.050781 -1.050781 4.539062 -0.921875 5.15625 -0.921875 C 5.6875 -0.921875 6.128906 -1.0625 6.484375 -1.34375 C 6.835938 -1.632812 7.097656 -2.035156 7.265625 -2.546875 C 7.441406 -3.054688 7.53125 -3.640625 7.53125 -4.296875 C 7.53125 -5.304688 7.332031 -6.109375 6.9375 -6.703125 C 6.550781 -7.296875 5.953125 -7.59375 5.140625 -7.59375 Z M 5.140625 -7.59375 "/></g></g></g><g fill="#05415f" fill-opacity="1"><g transform="translate(114.839377, 211.650312)"><g><path d="M 4.640625 -8.6875 C 5.367188 -8.6875 5.992188 -8.523438 6.515625 -8.203125 C 7.035156 -7.878906 7.429688 -7.425781 7.703125 -6.84375 C 7.972656 -6.269531 8.109375 -5.597656 8.109375 -4.828125 L 8.109375 -4.015625 L 2.21875 -4.015625 C 2.238281 -3.015625 2.488281 -2.253906 2.96875 -1.734375 C 3.457031 -1.210938 4.140625 -0.953125 5.015625 -0.953125 C 5.554688 -0.953125 6.03125 -1 6.4375 -1.09375 C 6.851562 -1.195312 7.285156 -1.34375 7.734375 -1.53125 L 7.734375 -0.390625 C 7.304688 -0.203125 6.878906 -0.0664062 6.453125 0.015625 C 6.035156 0.109375 5.535156 0.15625 4.953125 0.15625 C 4.140625 0.15625 3.425781 -0.0078125 2.8125 -0.34375 C 2.207031 -0.675781 1.734375 -1.164062 1.390625 -1.8125 C 1.054688 -2.46875 0.890625 -3.265625 0.890625 -4.203125 C 0.890625 -5.117188 1.039062 -5.910156 1.34375 -6.578125 C 1.65625 -7.253906 2.09375 -7.773438 2.65625 -8.140625 C 3.21875 -8.503906 3.878906 -8.6875 4.640625 -8.6875 Z M 4.625 -7.625 C 3.9375 -7.625 3.382812 -7.394531 2.96875 -6.9375 C 2.5625 -6.488281 2.320312 -5.863281 2.25 -5.0625 L 6.765625 -5.0625 C 6.753906 -5.570312 6.671875 -6.019531 6.515625 -6.40625 C 6.367188 -6.789062 6.140625 -7.085938 5.828125 -7.296875 C 5.515625 -7.515625 5.113281 -7.625 4.625 -7.625 Z M 4.625 -7.625 "/></g></g></g><g fill="#05415f" fill-opacity="1"><g transform="translate(123.791213, 211.650312)"><g><path d="M 5.234375 -8.6875 C 5.410156 -8.6875 5.585938 -8.675781 5.765625 -8.65625 C 5.953125 -8.632812 6.117188 -8.609375 6.265625 -8.578125 L 6.109375 -7.390625 C 5.972656 -7.421875 5.816406 -7.445312 5.640625 -7.46875 C 5.472656 -7.488281 5.3125 -7.5 5.15625 -7.5 C 4.8125 -7.5 4.488281 -7.429688 4.1875 -7.296875 C 3.882812 -7.160156 3.617188 -6.960938 3.390625 -6.703125 C 3.160156 -6.441406 2.976562 -6.128906 2.84375 -5.765625 C 2.71875 -5.410156 2.65625 -5.015625 2.65625 -4.578125 L 2.65625 0 L 1.359375 0 L 1.359375 -8.53125 L 2.4375 -8.53125 L 2.578125 -6.953125 L 2.625 -6.953125 C 2.800781 -7.273438 3.015625 -7.566406 3.265625 -7.828125 C 3.515625 -8.085938 3.800781 -8.296875 4.125 -8.453125 C 4.457031 -8.609375 4.828125 -8.6875 5.234375 -8.6875 Z M 5.234375 -8.6875 "/></g></g></g><g fill="#05415f" fill-opacity="1"><g transform="translate(130.306598, 211.650312)"><g><path d="M 2.65625 -8.53125 L 2.65625 0 L 1.359375 0 L 1.359375 -8.53125 Z M 2.015625 -11.71875 C 2.234375 -11.71875 2.414062 -11.648438 2.5625 -11.515625 C 2.71875 -11.378906 2.796875 -11.164062 2.796875 -10.875 C 2.796875 -10.582031 2.71875 -10.363281 2.5625 -10.21875 C 2.414062 -10.082031 2.234375 -10.015625 2.015625 -10.015625 C 1.796875 -10.015625 1.613281 -10.082031 1.46875 -10.21875 C 1.320312 -10.363281 1.25 -10.582031 1.25 -10.875 C 1.25 -11.164062 1.320312 -11.378906 1.46875 -11.515625 C 1.613281 -11.648438 1.796875 -11.71875 2.015625 -11.71875 Z M 2.015625 -11.71875 "/></g></g></g><g fill="#05415f" fill-opacity="1"><g transform="translate(134.331037, 211.650312)"><g><path d="M 4.640625 -8.6875 C 5.367188 -8.6875 5.992188 -8.523438 6.515625 -8.203125 C 7.035156 -7.878906 7.429688 -7.425781 7.703125 -6.84375 C 7.972656 -6.269531 8.109375 -5.597656 8.109375 -4.828125 L 8.109375 -4.015625 L 2.21875 -4.015625 C 2.238281 -3.015625 2.488281 -2.253906 2.96875 -1.734375 C 3.457031 -1.210938 4.140625 -0.953125 5.015625 -0.953125 C 5.554688 -0.953125 6.03125 -1 6.4375 -1.09375 C 6.851562 -1.195312 7.285156 -1.34375 7.734375 -1.53125 L 7.734375 -0.390625 C 7.304688 -0.203125 6.878906 -0.0664062 6.453125 0.015625 C 6.035156 0.109375 5.535156 0.15625 4.953125 0.15625 C 4.140625 0.15625 3.425781 -0.0078125 2.8125 -0.34375 C 2.207031 -0.675781 1.734375 -1.164062 1.390625 -1.8125 C 1.054688 -2.46875 0.890625 -3.265625 0.890625 -4.203125 C 0.890625 -5.117188 1.039062 -5.910156 1.34375 -6.578125 C 1.65625 -7.253906 2.09375 -7.773438 2.65625 -8.140625 C 3.21875 -8.503906 3.878906 -8.6875 4.640625 -8.6875 Z M 4.625 -7.625 C 3.9375 -7.625 3.382812 -7.394531 2.96875 -6.9375 C 2.5625 -6.488281 2.320312 -5.863281 2.25 -5.0625 L 6.765625 -5.0625 C 6.753906 -5.570312 6.671875 -6.019531 6.515625 -6.40625 C 6.367188 -6.789062 6.140625 -7.085938 5.828125 -7.296875 C 5.515625 -7.515625 5.113281 -7.625 4.625 -7.625 Z M 4.625 -7.625 "/></g></g></g><g fill="#05415f" fill-opacity="1"><g transform="translate(143.282873, 211.650312)"><g><path d="M 5.40625 -8.6875 C 6.414062 -8.6875 7.175781 -8.4375 7.6875 -7.9375 C 8.207031 -7.445312 8.46875 -6.65625 8.46875 -5.5625 L 8.46875 0 L 7.203125 0 L 7.203125 -5.46875 C 7.203125 -6.175781 7.035156 -6.707031 6.703125 -7.0625 C 6.378906 -7.414062 5.882812 -7.59375 5.21875 -7.59375 C 4.28125 -7.59375 3.617188 -7.320312 3.234375 -6.78125 C 2.847656 -6.25 2.65625 -5.476562 2.65625 -4.46875 L 2.65625 0 L 1.359375 0 L 1.359375 -8.53125 L 2.40625 -8.53125 L 2.59375 -7.296875 L 2.671875 -7.296875 C 2.847656 -7.597656 3.078125 -7.847656 3.359375 -8.046875 C 3.640625 -8.253906 3.953125 -8.410156 4.296875 -8.515625 C 4.648438 -8.628906 5.019531 -8.6875 5.40625 -8.6875 Z M 5.40625 -8.6875 "/></g></g></g><g fill="#05415f" fill-opacity="1"><g transform="translate(153.059835, 211.650312)"><g><path d="M 4.78125 0.15625 C 4.007812 0.15625 3.332031 0 2.75 -0.3125 C 2.164062 -0.632812 1.707031 -1.117188 1.375 -1.765625 C 1.050781 -2.410156 0.890625 -3.226562 0.890625 -4.21875 C 0.890625 -5.25 1.0625 -6.09375 1.40625 -6.75 C 1.75 -7.40625 2.222656 -7.890625 2.828125 -8.203125 C 3.441406 -8.523438 4.132812 -8.6875 4.90625 -8.6875 C 5.332031 -8.6875 5.742188 -8.640625 6.140625 -8.546875 C 6.535156 -8.460938 6.859375 -8.359375 7.109375 -8.234375 L 6.71875 -7.15625 C 6.457031 -7.257812 6.15625 -7.351562 5.8125 -7.4375 C 5.476562 -7.519531 5.164062 -7.5625 4.875 -7.5625 C 4.28125 -7.5625 3.785156 -7.429688 3.390625 -7.171875 C 3.003906 -6.921875 2.710938 -6.546875 2.515625 -6.046875 C 2.316406 -5.554688 2.21875 -4.953125 2.21875 -4.234375 C 2.21875 -3.546875 2.3125 -2.957031 2.5 -2.46875 C 2.695312 -1.976562 2.984375 -1.601562 3.359375 -1.34375 C 3.734375 -1.09375 4.203125 -0.96875 4.765625 -0.96875 C 5.222656 -0.96875 5.628906 -1.015625 5.984375 -1.109375 C 6.347656 -1.203125 6.679688 -1.316406 6.984375 -1.453125 L 6.984375 -0.296875 C 6.691406 -0.148438 6.367188 -0.0390625 6.015625 0.03125 C 5.671875 0.113281 5.257812 0.15625 4.78125 0.15625 Z M 4.78125 0.15625 "/></g></g></g><g fill="#05415f" fill-opacity="1"><g transform="translate(160.696145, 211.650312)"><g><path d="M 4.640625 -8.6875 C 5.367188 -8.6875 5.992188 -8.523438 6.515625 -8.203125 C 7.035156 -7.878906 7.429688 -7.425781 7.703125 -6.84375 C 7.972656 -6.269531 8.109375 -5.597656 8.109375 -4.828125 L 8.109375 -4.015625 L 2.21875 -4.015625 C 2.238281 -3.015625 2.488281 -2.253906 2.96875 -1.734375 C 3.457031 -1.210938 4.140625 -0.953125 5.015625 -0.953125 C 5.554688 -0.953125 6.03125 -1 6.4375 -1.09375 C 6.851562 -1.195312 7.285156 -1.34375 7.734375 -1.53125 L 7.734375 -0.390625 C 7.304688 -0.203125 6.878906 -0.0664062 6.453125 0.015625 C 6.035156 0.109375 5.535156 0.15625 4.953125 0.15625 C 4.140625 0.15625 3.425781 -0.0078125 2.8125 -0.34375 C 2.207031 -0.675781 1.734375 -1.164062 1.390625 -1.8125 C 1.054688 -2.46875 0.890625 -3.265625 0.890625 -4.203125 C 0.890625 -5.117188 1.039062 -5.910156 1.34375 -6.578125 C 1.65625 -7.253906 2.09375 -7.773438 2.65625 -8.140625 C 3.21875 -8.503906 3.878906 -8.6875 4.640625 -8.6875 Z M 4.625 -7.625 C 3.9375 -7.625 3.382812 -7.394531 2.96875 -6.9375 C 2.5625 -6.488281 2.320312 -5.863281 2.25 -5.0625 L 6.765625 -5.0625 C 6.753906 -5.570312 6.671875 -6.019531 6.515625 -6.40625 C 6.367188 -6.789062 6.140625 -7.085938 5.828125 -7.296875 C 5.515625 -7.515625 5.113281 -7.625 4.625 -7.625 Z M 4.625 -7.625 "/></g></g></g><g fill="#05415f" fill-opacity="1"><g transform="translate(169.647981, 211.650312)"><g/></g></g><g fill="#05415f" fill-opacity="1"><g transform="translate(173.789178, 211.650312)"><g><path d="M 10.453125 0 L 8.921875 0 L 2.71875 -9.5625 L 2.65625 -9.5625 C 2.675781 -9.300781 2.695312 -9.007812 2.71875 -8.6875 C 2.738281 -8.363281 2.753906 -8.019531 2.765625 -7.65625 C 2.773438 -7.289062 2.78125 -6.914062 2.78125 -6.53125 L 2.78125 0 L 1.5625 0 L 1.5625 -11.375 L 3.078125 -11.375 L 9.25 -1.859375 L 9.3125 -1.859375 C 9.300781 -2.035156 9.285156 -2.289062 9.265625 -2.625 C 9.253906 -2.957031 9.238281 -3.316406 9.21875 -3.703125 C 9.207031 -4.085938 9.203125 -4.445312 9.203125 -4.78125 L 9.203125 -11.375 L 10.453125 -11.375 Z M 10.453125 0 "/></g></g></g><g fill="#05415f" fill-opacity="1"><g transform="translate(185.792422, 211.650312)"><g><path d="M 4.640625 -8.6875 C 5.367188 -8.6875 5.992188 -8.523438 6.515625 -8.203125 C 7.035156 -7.878906 7.429688 -7.425781 7.703125 -6.84375 C 7.972656 -6.269531 8.109375 -5.597656 8.109375 -4.828125 L 8.109375 -4.015625 L 2.21875 -4.015625 C 2.238281 -3.015625 2.488281 -2.253906 2.96875 -1.734375 C 3.457031 -1.210938 4.140625 -0.953125 5.015625 -0.953125 C 5.554688 -0.953125 6.03125 -1 6.4375 -1.09375 C 6.851562 -1.195312 7.285156 -1.34375 7.734375 -1.53125 L 7.734375 -0.390625 C 7.304688 -0.203125 6.878906 -0.0664062 6.453125 0.015625 C 6.035156 0.109375 5.535156 0.15625 4.953125 0.15625 C 4.140625 0.15625 3.425781 -0.0078125 2.8125 -0.34375 C 2.207031 -0.675781 1.734375 -1.164062 1.390625 -1.8125 C 1.054688 -2.46875 0.890625 -3.265625 0.890625 -4.203125 C 0.890625 -5.117188 1.039062 -5.910156 1.34375 -6.578125 C 1.65625 -7.253906 2.09375 -7.773438 2.65625 -8.140625 C 3.21875 -8.503906 3.878906 -8.6875 4.640625 -8.6875 Z M 4.625 -7.625 C 3.9375 -7.625 3.382812 -7.394531 2.96875 -6.9375 C 2.5625 -6.488281 2.320312 -5.863281 2.25 -5.0625 L 6.765625 -5.0625 C 6.753906 -5.570312 6.671875 -6.019531 6.515625 -6.40625 C 6.367188 -6.789062 6.140625 -7.085938 5.828125 -7.296875 C 5.515625 -7.515625 5.113281 -7.625 4.625 -7.625 Z M 4.625 -7.625 "/></g></g></g><g fill="#05415f" fill-opacity="1"><g transform="translate(194.744258, 211.650312)"><g><path d="M 3.390625 -4.359375 L 0.4375 -8.53125 L 1.921875 -8.53125 L 4.171875 -5.25 L 6.40625 -8.53125 L 7.875 -8.53125 L 4.921875 -4.359375 L 8.03125 0 L 6.5625 0 L 4.171875 -3.484375 L 1.765625 0 L 0.296875 0 Z M 3.390625 -4.359375 "/></g></g></g><g fill="#05415f" fill-opacity="1"><g transform="translate(203.088925, 211.650312)"><g><path d="M 4.109375 -0.90625 C 4.328125 -0.90625 4.546875 -0.921875 4.765625 -0.953125 C 4.992188 -0.992188 5.175781 -1.039062 5.3125 -1.09375 L 5.3125 -0.078125 C 5.164062 -0.015625 4.957031 0.0351562 4.6875 0.078125 C 4.414062 0.128906 4.15625 0.15625 3.90625 0.15625 C 3.457031 0.15625 3.046875 0.078125 2.671875 -0.078125 C 2.304688 -0.234375 2.015625 -0.5 1.796875 -0.875 C 1.578125 -1.257812 1.46875 -1.785156 1.46875 -2.453125 L 1.46875 -7.515625 L 0.25 -7.515625 L 0.25 -8.140625 L 1.46875 -8.65625 L 1.984375 -10.5 L 2.765625 -10.5 L 2.765625 -8.53125 L 5.265625 -8.53125 L 5.265625 -7.515625 L 2.765625 -7.515625 L 2.765625 -2.5 C 2.765625 -1.96875 2.882812 -1.566406 3.125 -1.296875 C 3.375 -1.035156 3.703125 -0.90625 4.109375 -0.90625 Z M 4.109375 -0.90625 "/></g></g></g><g fill="#05415f" fill-opacity="1"><g transform="translate(208.771395, 211.650312)"><g><path d="M 0.640625 -3.703125 L 0.640625 -4.859375 L 4.5 -4.859375 L 4.5 -3.703125 Z M 0.640625 -3.703125 "/></g></g></g><g fill="#05415f" fill-opacity="1"><g transform="translate(213.901192, 211.650312)"><g><path d="M 6.421875 -5.96875 L 10.390625 -5.96875 L 10.390625 -0.4375 C 9.796875 -0.238281 9.179688 -0.09375 8.546875 0 C 7.921875 0.101562 7.21875 0.15625 6.4375 0.15625 C 5.257812 0.15625 4.265625 -0.078125 3.453125 -0.546875 C 2.640625 -1.023438 2.019531 -1.703125 1.59375 -2.578125 C 1.175781 -3.453125 0.96875 -4.488281 0.96875 -5.6875 C 0.96875 -6.863281 1.195312 -7.890625 1.65625 -8.765625 C 2.125 -9.640625 2.796875 -10.320312 3.671875 -10.8125 C 4.554688 -11.300781 5.617188 -11.546875 6.859375 -11.546875 C 7.492188 -11.546875 8.09375 -11.484375 8.65625 -11.359375 C 9.226562 -11.242188 9.753906 -11.082031 10.234375 -10.875 L 9.734375 -9.71875 C 9.316406 -9.894531 8.851562 -10.046875 8.34375 -10.171875 C 7.84375 -10.304688 7.320312 -10.375 6.78125 -10.375 C 5.851562 -10.375 5.054688 -10.179688 4.390625 -9.796875 C 3.734375 -9.421875 3.226562 -8.878906 2.875 -8.171875 C 2.519531 -7.472656 2.34375 -6.644531 2.34375 -5.6875 C 2.34375 -4.738281 2.492188 -3.910156 2.796875 -3.203125 C 3.109375 -2.503906 3.585938 -1.957031 4.234375 -1.5625 C 4.890625 -1.175781 5.726562 -0.984375 6.75 -0.984375 C 7.257812 -0.984375 7.695312 -1.015625 8.0625 -1.078125 C 8.4375 -1.140625 8.773438 -1.210938 9.078125 -1.296875 L 9.078125 -4.78125 L 6.421875 -4.78125 Z M 6.421875 -5.96875 "/></g></g></g><g fill="#05415f" fill-opacity="1"><g transform="translate(225.491878, 211.650312)"><g><path d="M 4.640625 -8.6875 C 5.367188 -8.6875 5.992188 -8.523438 6.515625 -8.203125 C 7.035156 -7.878906 7.429688 -7.425781 7.703125 -6.84375 C 7.972656 -6.269531 8.109375 -5.597656 8.109375 -4.828125 L 8.109375 -4.015625 L 2.21875 -4.015625 C 2.238281 -3.015625 2.488281 -2.253906 2.96875 -1.734375 C 3.457031 -1.210938 4.140625 -0.953125 5.015625 -0.953125 C 5.554688 -0.953125 6.03125 -1 6.4375 -1.09375 C 6.851562 -1.195312 7.285156 -1.34375 7.734375 -1.53125 L 7.734375 -0.390625 C 7.304688 -0.203125 6.878906 -0.0664062 6.453125 0.015625 C 6.035156 0.109375 5.535156 0.15625 4.953125 0.15625 C 4.140625 0.15625 3.425781 -0.0078125 2.8125 -0.34375 C 2.207031 -0.675781 1.734375 -1.164062 1.390625 -1.8125 C 1.054688 -2.46875 0.890625 -3.265625 0.890625 -4.203125 C 0.890625 -5.117188 1.039062 -5.910156 1.34375 -6.578125 C 1.65625 -7.253906 2.09375 -7.773438 2.65625 -8.140625 C 3.21875 -8.503906 3.878906 -8.6875 4.640625 -8.6875 Z M 4.625 -7.625 C 3.9375 -7.625 3.382812 -7.394531 2.96875 -6.9375 C 2.5625 -6.488281 2.320312 -5.863281 2.25 -5.0625 L 6.765625 -5.0625 C 6.753906 -5.570312 6.671875 -6.019531 6.515625 -6.40625 C 6.367188 -6.789062 6.140625 -7.085938 5.828125 -7.296875 C 5.515625 -7.515625 5.113281 -7.625 4.625 -7.625 Z M 4.625 -7.625 "/></g></g></g><g fill="#05415f" fill-opacity="1"><g transform="translate(234.443714, 211.650312)"><g><path d="M 5.40625 -8.6875 C 6.414062 -8.6875 7.175781 -8.4375 7.6875 -7.9375 C 8.207031 -7.445312 8.46875 -6.65625 8.46875 -5.5625 L 8.46875 0 L 7.203125 0 L 7.203125 -5.46875 C 7.203125 -6.175781 7.035156 -6.707031 6.703125 -7.0625 C 6.378906 -7.414062 5.882812 -7.59375 5.21875 -7.59375 C 4.28125 -7.59375 3.617188 -7.320312 3.234375 -6.78125 C 2.847656 -6.25 2.65625 -5.476562 2.65625 -4.46875 L 2.65625 0 L 1.359375 0 L 1.359375 -8.53125 L 2.40625 -8.53125 L 2.59375 -7.296875 L 2.671875 -7.296875 C 2.847656 -7.597656 3.078125 -7.847656 3.359375 -8.046875 C 3.640625 -8.253906 3.953125 -8.410156 4.296875 -8.515625 C 4.648438 -8.628906 5.019531 -8.6875 5.40625 -8.6875 Z M 5.40625 -8.6875 "/></g></g></g><g fill="#05415f" fill-opacity="1"><g transform="translate(244.220675, 211.650312)"><g><path d="M 4.640625 -8.6875 C 5.367188 -8.6875 5.992188 -8.523438 6.515625 -8.203125 C 7.035156 -7.878906 7.429688 -7.425781 7.703125 -6.84375 C 7.972656 -6.269531 8.109375 -5.597656 8.109375 -4.828125 L 8.109375 -4.015625 L 2.21875 -4.015625 C 2.238281 -3.015625 2.488281 -2.253906 2.96875 -1.734375 C 3.457031 -1.210938 4.140625 -0.953125 5.015625 -0.953125 C 5.554688 -0.953125 6.03125 -1 6.4375 -1.09375 C 6.851562 -1.195312 7.285156 -1.34375 7.734375 -1.53125 L 7.734375 -0.390625 C 7.304688 -0.203125 6.878906 -0.0664062 6.453125 0.015625 C 6.035156 0.109375 5.535156 0.15625 4.953125 0.15625 C 4.140625 0.15625 3.425781 -0.0078125 2.8125 -0.34375 C 2.207031 -0.675781 1.734375 -1.164062 1.390625 -1.8125 C 1.054688 -2.46875 0.890625 -3.265625 0.890625 -4.203125 C 0.890625 -5.117188 1.039062 -5.910156 1.34375 -6.578125 C 1.65625 -7.253906 2.09375 -7.773438 2.65625 -8.140625 C 3.21875 -8.503906 3.878906 -8.6875 4.640625 -8.6875 Z M 4.625 -7.625 C 3.9375 -7.625 3.382812 -7.394531 2.96875 -6.9375 C 2.5625 -6.488281 2.320312 -5.863281 2.25 -5.0625 L 6.765625 -5.0625 C 6.753906 -5.570312 6.671875 -6.019531 6.515625 -6.40625 C 6.367188 -6.789062 6.140625 -7.085938 5.828125 -7.296875 C 5.515625 -7.515625 5.113281 -7.625 4.625 -7.625 Z M 4.625 -7.625 "/></g></g></g><g fill="#05415f" fill-opacity="1"><g transform="translate(253.172511, 211.650312)"><g><path d="M 5.234375 -8.6875 C 5.410156 -8.6875 5.585938 -8.675781 5.765625 -8.65625 C 5.953125 -8.632812 6.117188 -8.609375 6.265625 -8.578125 L 6.109375 -7.390625 C 5.972656 -7.421875 5.816406 -7.445312 5.640625 -7.46875 C 5.472656 -7.488281 5.3125 -7.5 5.15625 -7.5 C 4.8125 -7.5 4.488281 -7.429688 4.1875 -7.296875 C 3.882812 -7.160156 3.617188 -6.960938 3.390625 -6.703125 C 3.160156 -6.441406 2.976562 -6.128906 2.84375 -5.765625 C 2.71875 -5.410156 2.65625 -5.015625 2.65625 -4.578125 L 2.65625 0 L 1.359375 0 L 1.359375 -8.53125 L 2.4375 -8.53125 L 2.578125 -6.953125 L 2.625 -6.953125 C 2.800781 -7.273438 3.015625 -7.566406 3.265625 -7.828125 C 3.515625 -8.085938 3.800781 -8.296875 4.125 -8.453125 C 4.457031 -8.609375 4.828125 -8.6875 5.234375 -8.6875 Z M 5.234375 -8.6875 "/></g></g></g><g fill="#05415f" fill-opacity="1"><g transform="translate(259.687896, 211.650312)"><g><path d="M 4.546875 -8.671875 C 5.566406 -8.671875 6.320312 -8.441406 6.8125 -7.984375 C 7.3125 -7.523438 7.5625 -6.796875 7.5625 -5.796875 L 7.5625 0 L 6.609375 0 L 6.359375 -1.265625 L 6.296875 -1.265625 C 6.066406 -0.953125 5.820312 -0.6875 5.5625 -0.46875 C 5.300781 -0.257812 5 -0.101562 4.65625 0 C 4.3125 0.101562 3.894531 0.15625 3.40625 0.15625 C 2.882812 0.15625 2.421875 0.0664062 2.015625 -0.109375 C 1.617188 -0.296875 1.304688 -0.570312 1.078125 -0.9375 C 0.847656 -1.3125 0.734375 -1.78125 0.734375 -2.34375 C 0.734375 -3.195312 1.066406 -3.847656 1.734375 -4.296875 C 2.410156 -4.753906 3.441406 -5.003906 4.828125 -5.046875 L 6.296875 -5.109375 L 6.296875 -5.640625 C 6.296875 -6.367188 6.132812 -6.878906 5.8125 -7.171875 C 5.5 -7.472656 5.054688 -7.625 4.484375 -7.625 C 4.035156 -7.625 3.609375 -7.554688 3.203125 -7.421875 C 2.796875 -7.296875 2.410156 -7.144531 2.046875 -6.96875 L 1.65625 -7.953125 C 2.039062 -8.148438 2.484375 -8.316406 2.984375 -8.453125 C 3.484375 -8.597656 4.003906 -8.671875 4.546875 -8.671875 Z M 6.28125 -4.203125 L 4.984375 -4.140625 C 3.921875 -4.097656 3.171875 -3.925781 2.734375 -3.625 C 2.296875 -3.320312 2.078125 -2.890625 2.078125 -2.328125 C 2.078125 -1.835938 2.222656 -1.472656 2.515625 -1.234375 C 2.816406 -1.003906 3.210938 -0.890625 3.703125 -0.890625 C 4.453125 -0.890625 5.066406 -1.097656 5.546875 -1.515625 C 6.035156 -1.941406 6.28125 -2.578125 6.28125 -3.421875 Z M 6.28125 -4.203125 "/></g></g></g><g fill="#05415f" fill-opacity="1"><g transform="translate(268.546321, 211.650312)"><g><path d="M 4.109375 -0.90625 C 4.328125 -0.90625 4.546875 -0.921875 4.765625 -0.953125 C 4.992188 -0.992188 5.175781 -1.039062 5.3125 -1.09375 L 5.3125 -0.078125 C 5.164062 -0.015625 4.957031 0.0351562 4.6875 0.078125 C 4.414062 0.128906 4.15625 0.15625 3.90625 0.15625 C 3.457031 0.15625 3.046875 0.078125 2.671875 -0.078125 C 2.304688 -0.234375 2.015625 -0.5 1.796875 -0.875 C 1.578125 -1.257812 1.46875 -1.785156 1.46875 -2.453125 L 1.46875 -7.515625 L 0.25 -7.515625 L 0.25 -8.140625 L 1.46875 -8.65625 L 1.984375 -10.5 L 2.765625 -10.5 L 2.765625 -8.53125 L 5.265625 -8.53125 L 5.265625 -7.515625 L 2.765625 -7.515625 L 2.765625 -2.5 C 2.765625 -1.96875 2.882812 -1.566406 3.125 -1.296875 C 3.375 -1.035156 3.703125 -0.90625 4.109375 -0.90625 Z M 4.109375 -0.90625 "/></g></g></g><g fill="#05415f" fill-opacity="1"><g transform="translate(274.228791, 211.650312)"><g><path d="M 2.65625 -8.53125 L 2.65625 0 L 1.359375 0 L 1.359375 -8.53125 Z M 2.015625 -11.71875 C 2.234375 -11.71875 2.414062 -11.648438 2.5625 -11.515625 C 2.71875 -11.378906 2.796875 -11.164062 2.796875 -10.875 C 2.796875 -10.582031 2.71875 -10.363281 2.5625 -10.21875 C 2.414062 -10.082031 2.234375 -10.015625 2.015625 -10.015625 C 1.796875 -10.015625 1.613281 -10.082031 1.46875 -10.21875 C 1.320312 -10.363281 1.25 -10.582031 1.25 -10.875 C 1.25 -11.164062 1.320312 -11.378906 1.46875 -11.515625 C 1.613281 -11.648438 1.796875 -11.71875 2.015625 -11.71875 Z M 2.015625 -11.71875 "/></g></g></g><g fill="#05415f" fill-opacity="1"><g transform="translate(278.253231, 211.650312)"><g><path d="M 8.71875 -4.28125 C 8.71875 -3.582031 8.625 -2.957031 8.4375 -2.40625 C 8.257812 -1.851562 8 -1.382812 7.65625 -1 C 7.3125 -0.625 6.894531 -0.335938 6.40625 -0.140625 C 5.925781 0.0546875 5.378906 0.15625 4.765625 0.15625 C 4.203125 0.15625 3.679688 0.0546875 3.203125 -0.140625 C 2.722656 -0.335938 2.3125 -0.625 1.96875 -1 C 1.625 -1.382812 1.359375 -1.851562 1.171875 -2.40625 C 0.984375 -2.957031 0.890625 -3.582031 0.890625 -4.28125 C 0.890625 -5.21875 1.046875 -6.015625 1.359375 -6.671875 C 1.679688 -7.328125 2.132812 -7.828125 2.71875 -8.171875 C 3.3125 -8.515625 4.015625 -8.6875 4.828125 -8.6875 C 5.597656 -8.6875 6.273438 -8.507812 6.859375 -8.15625 C 7.453125 -7.8125 7.910156 -7.3125 8.234375 -6.65625 C 8.554688 -6 8.71875 -5.207031 8.71875 -4.28125 Z M 2.21875 -4.28125 C 2.21875 -3.59375 2.304688 -3 2.484375 -2.5 C 2.671875 -2 2.953125 -1.609375 3.328125 -1.328125 C 3.710938 -1.054688 4.203125 -0.921875 4.796875 -0.921875 C 5.390625 -0.921875 5.875 -1.054688 6.25 -1.328125 C 6.632812 -1.609375 6.914062 -2 7.09375 -2.5 C 7.28125 -3 7.375 -3.59375 7.375 -4.28125 C 7.375 -4.957031 7.28125 -5.539062 7.09375 -6.03125 C 6.914062 -6.53125 6.640625 -6.914062 6.265625 -7.1875 C 5.890625 -7.457031 5.398438 -7.59375 4.796875 -7.59375 C 3.910156 -7.59375 3.257812 -7.300781 2.84375 -6.71875 C 2.425781 -6.132812 2.21875 -5.320312 2.21875 -4.28125 Z M 2.21875 -4.28125 "/></g></g></g><g fill="#05415f" fill-opacity="1"><g transform="translate(287.843371, 211.650312)"><g><path d="M 5.40625 -8.6875 C 6.414062 -8.6875 7.175781 -8.4375 7.6875 -7.9375 C 8.207031 -7.445312 8.46875 -6.65625 8.46875 -5.5625 L 8.46875 0 L 7.203125 0 L 7.203125 -5.46875 C 7.203125 -6.175781 7.035156 -6.707031 6.703125 -7.0625 C 6.378906 -7.414062 5.882812 -7.59375 5.21875 -7.59375 C 4.28125 -7.59375 3.617188 -7.320312 3.234375 -6.78125 C 2.847656 -6.25 2.65625 -5.476562 2.65625 -4.46875 L 2.65625 0 L 1.359375 0 L 1.359375 -8.53125 L 2.40625 -8.53125 L 2.59375 -7.296875 L 2.671875 -7.296875 C 2.847656 -7.597656 3.078125 -7.847656 3.359375 -8.046875 C 3.640625 -8.253906 3.953125 -8.410156 4.296875 -8.515625 C 4.648438 -8.628906 5.019531 -8.6875 5.40625 -8.6875 Z M 5.40625 -8.6875 "/></g></g></g><g fill="#05415f" fill-opacity="1"><g transform="translate(297.620333, 211.650312)"><g/></g></g><g fill="#05415f" fill-opacity="1"><g transform="translate(301.76153, 211.650312)"><g><path d="M 8.6875 0 L 7.296875 -3.609375 L 2.734375 -3.609375 L 1.34375 0 L 0 0 L 4.453125 -11.421875 L 5.640625 -11.421875 L 10.0625 0 Z M 6.890625 -4.78125 L 5.5625 -8.375 C 5.53125 -8.46875 5.476562 -8.617188 5.40625 -8.828125 C 5.34375 -9.046875 5.273438 -9.269531 5.203125 -9.5 C 5.128906 -9.726562 5.066406 -9.910156 5.015625 -10.046875 C 4.960938 -9.835938 4.90625 -9.625 4.84375 -9.40625 C 4.789062 -9.195312 4.734375 -9.003906 4.671875 -8.828125 C 4.617188 -8.648438 4.570312 -8.5 4.53125 -8.375 L 3.171875 -4.78125 Z M 6.890625 -4.78125 "/></g></g></g><g fill="#05415f" fill-opacity="1"><g transform="translate(311.842081, 211.650312)"><g><path d="M 1.5625 0 L 1.5625 -11.375 L 2.875 -11.375 L 2.875 -1.1875 L 7.9375 -1.1875 L 7.9375 0 Z M 1.5625 0 "/></g></g></g><g fill="#05415f" fill-opacity="1"><g transform="translate(320.16339, 211.650312)"><g><path d="M 6.5625 0 L 2.734375 -10.0625 L 2.671875 -10.0625 C 2.691406 -9.851562 2.707031 -9.59375 2.71875 -9.28125 C 2.738281 -8.976562 2.753906 -8.644531 2.765625 -8.28125 C 2.773438 -7.925781 2.78125 -7.5625 2.78125 -7.1875 L 2.78125 0 L 1.5625 0 L 1.5625 -11.375 L 3.515625 -11.375 L 7.125 -1.921875 L 7.171875 -1.921875 L 10.828125 -11.375 L 12.78125 -11.375 L 12.78125 0 L 11.46875 0 L 11.46875 -7.28125 C 11.46875 -7.625 11.472656 -7.960938 11.484375 -8.296875 C 11.492188 -8.640625 11.503906 -8.960938 11.515625 -9.265625 C 11.535156 -9.566406 11.554688 -9.828125 11.578125 -10.046875 L 11.515625 -10.046875 L 7.640625 0 Z M 6.5625 0 "/></g></g></g><g fill="#05415f" fill-opacity="1"><g transform="translate(334.501884, 211.650312)"><g><path d="M 1.171875 -0.8125 C 1.171875 -1.175781 1.257812 -1.429688 1.4375 -1.578125 C 1.613281 -1.734375 1.828125 -1.8125 2.078125 -1.8125 C 2.335938 -1.8125 2.554688 -1.734375 2.734375 -1.578125 C 2.921875 -1.429688 3.015625 -1.175781 3.015625 -0.8125 C 3.015625 -0.445312 2.921875 -0.179688 2.734375 -0.015625 C 2.554688 0.140625 2.335938 0.21875 2.078125 0.21875 C 1.828125 0.21875 1.613281 0.140625 1.4375 -0.015625 C 1.257812 -0.179688 1.171875 -0.445312 1.171875 -0.8125 Z M 1.171875 -0.8125 "/></g></g></g></svg>