<svg xmlns="http://www.w3.org/2000/svg" xmlns:xlink="http://www.w3.org/1999/xlink" width="571" zoomAndPan="magnify" viewBox="0 0 428.25 253.499997" height="338" preserveAspectRatio="xMidYMid meet" version="1.0"><defs><g/><clipPath id="61036cad19"><path d="M 0.046875 0 L 427.453125 0 L 427.453125 253 L 0.046875 253 Z M 0.046875 0 " clip-rule="nonzero"/></clipPath></defs><g clip-path="url(#61036cad19)"><path fill="#ffffff" d="M 0.046875 0 L 427.453125 0 L 427.453125 253 L 0.046875 253 Z M 0.046875 0 " fill-opacity="1" fill-rule="nonzero"/></g><g fill="#05415f" fill-opacity="1"><g transform="translate(29.229895, 141.801699)"><g><path d="M 39.546875 0 L 22.203125 -56.484375 L 21.765625 -56.484375 C 22.390625 -44.992188 22.703125 -37.328125 22.703125 -33.484375 L 22.703125 0 L 9.0625 0 L 9.0625 -71.984375 L 29.84375 -71.984375 L 46.875 -16.9375 L 47.171875 -16.9375 L 65.25 -71.984375 L 86.015625 -71.984375 L 86.015625 0 L 71.796875 0 L 71.796875 -34.078125 C 71.796875 -35.679688 71.816406 -37.535156 71.859375 -39.640625 C 71.910156 -41.742188 72.132812 -47.320312 72.53125 -56.375 L 72.09375 -56.375 L 53.53125 0 Z M 39.546875 0 "/></g></g></g><g fill="#05415f" fill-opacity="1"><g transform="translate(119.271909, 141.801699)"><g><path d="M 53.125 0 L 47.90625 -17.140625 L 21.671875 -17.140625 L 16.453125 0 L 0 0 L 25.40625 -72.28125 L 44.0625 -72.28125 L 69.578125 0 Z M 44.265625 -29.9375 C 39.441406 -45.46875 36.722656 -54.25 36.109375 -56.28125 C 35.503906 -58.3125 35.070312 -59.921875 34.8125 -61.109375 C 33.726562 -56.898438 30.625 -46.507812 25.5 -29.9375 Z M 44.265625 -29.9375 "/></g></g></g><g fill="#05415f" fill-opacity="1"><g transform="translate(183.807028, 141.801699)"><g><path d="M 51.546875 -19.984375 C 51.546875 -13.484375 49.207031 -8.363281 44.53125 -4.625 C 39.851562 -0.882812 33.347656 0.984375 25.015625 0.984375 C 17.328125 0.984375 10.53125 -0.457031 4.625 -3.34375 L 4.625 -17.53125 C 9.488281 -15.363281 13.601562 -13.835938 16.96875 -12.953125 C 20.332031 -12.066406 23.410156 -11.625 26.203125 -11.625 C 29.546875 -11.625 32.109375 -12.265625 33.890625 -13.546875 C 35.679688 -14.828125 36.578125 -16.726562 36.578125 -19.25 C 36.578125 -20.664062 36.179688 -21.921875 35.390625 -23.015625 C 34.609375 -24.117188 33.453125 -25.175781 31.921875 -26.1875 C 30.398438 -27.207031 27.289062 -28.835938 22.59375 -31.078125 C 18.195312 -33.140625 14.898438 -35.125 12.703125 -37.03125 C 10.503906 -38.9375 8.75 -41.148438 7.4375 -43.671875 C 6.125 -46.203125 5.46875 -49.160156 5.46875 -52.546875 C 5.46875 -58.910156 7.625 -63.910156 11.9375 -67.546875 C 16.257812 -71.191406 22.226562 -73.015625 29.84375 -73.015625 C 33.582031 -73.015625 37.148438 -72.570312 40.546875 -71.6875 C 43.941406 -70.800781 47.492188 -69.554688 51.203125 -67.953125 L 46.28125 -56.078125 C 42.445312 -57.660156 39.269531 -58.757812 36.75 -59.375 C 34.238281 -60 31.769531 -60.3125 29.34375 -60.3125 C 26.457031 -60.3125 24.242188 -59.640625 22.703125 -58.296875 C 21.160156 -56.953125 20.390625 -55.195312 20.390625 -53.03125 C 20.390625 -51.6875 20.695312 -50.515625 21.3125 -49.515625 C 21.9375 -48.515625 22.929688 -47.546875 24.296875 -46.609375 C 25.660156 -45.671875 28.882812 -43.988281 33.96875 -41.5625 C 40.695312 -38.34375 45.304688 -35.113281 47.796875 -31.875 C 50.296875 -28.644531 51.546875 -24.679688 51.546875 -19.984375 Z M 51.546875 -19.984375 "/></g></g></g><g fill="#05415f" fill-opacity="1"><g transform="translate(234.308428, 141.801699)"><g><path d="M 36.828125 0 L 21.5625 0 L 21.5625 -59.28125 L 2.015625 -59.28125 L 2.015625 -71.984375 L 56.375 -71.984375 L 56.375 -59.28125 L 36.828125 -59.28125 Z M 36.828125 0 "/></g></g></g><g fill="#05415f" fill-opacity="1"><g transform="translate(287.665803, 141.801699)"><g><path d="M 9.0625 0 L 9.0625 -71.984375 L 24.328125 -71.984375 L 24.328125 0 Z M 9.0625 0 "/></g></g></g><g fill="#05415f" fill-opacity="1"><g transform="translate(220.285885, 170.659825)"><g><path d="M 16.5 -6.34375 C 16.5 -4.957031 16.160156 -3.765625 15.484375 -2.765625 C 14.804688 -1.773438 13.835938 -1.015625 12.578125 -0.484375 C 11.328125 0.046875 9.832031 0.3125 8.09375 0.3125 C 7.238281 0.3125 6.421875 0.265625 5.640625 0.171875 C 4.867188 0.078125 4.140625 -0.0625 3.453125 -0.25 C 2.773438 -0.4375 2.15625 -0.660156 1.59375 -0.921875 L 1.59375 -4.515625 C 2.539062 -4.109375 3.597656 -3.734375 4.765625 -3.390625 C 5.929688 -3.054688 7.117188 -2.890625 8.328125 -2.890625 C 9.316406 -2.890625 10.132812 -3.019531 10.78125 -3.28125 C 11.4375 -3.539062 11.921875 -3.910156 12.234375 -4.390625 C 12.554688 -4.878906 12.71875 -5.445312 12.71875 -6.09375 C 12.71875 -6.789062 12.53125 -7.375 12.15625 -7.84375 C 11.789062 -8.320312 11.234375 -8.757812 10.484375 -9.15625 C 9.734375 -9.5625 8.796875 -9.988281 7.671875 -10.4375 C 6.910156 -10.75 6.179688 -11.097656 5.484375 -11.484375 C 4.785156 -11.878906 4.164062 -12.34375 3.625 -12.875 C 3.082031 -13.40625 2.65625 -14.035156 2.34375 -14.765625 C 2.03125 -15.492188 1.875 -16.351562 1.875 -17.34375 C 1.875 -18.65625 2.191406 -19.773438 2.828125 -20.703125 C 3.460938 -21.640625 4.351562 -22.359375 5.5 -22.859375 C 6.65625 -23.359375 8 -23.609375 9.53125 -23.609375 C 10.757812 -23.609375 11.910156 -23.476562 12.984375 -23.21875 C 14.054688 -22.96875 15.113281 -22.609375 16.15625 -22.140625 L 14.953125 -19.078125 C 13.992188 -19.472656 13.066406 -19.785156 12.171875 -20.015625 C 11.273438 -20.242188 10.359375 -20.359375 9.421875 -20.359375 C 8.617188 -20.359375 7.9375 -20.234375 7.375 -19.984375 C 6.8125 -19.742188 6.382812 -19.40625 6.09375 -18.96875 C 5.800781 -18.53125 5.65625 -18.007812 5.65625 -17.40625 C 5.65625 -16.726562 5.820312 -16.15625 6.15625 -15.6875 C 6.488281 -15.226562 7.003906 -14.804688 7.703125 -14.421875 C 8.410156 -14.046875 9.320312 -13.625 10.4375 -13.15625 C 11.726562 -12.625 12.820312 -12.066406 13.71875 -11.484375 C 14.613281 -10.898438 15.300781 -10.203125 15.78125 -9.390625 C 16.257812 -8.578125 16.5 -7.5625 16.5 -6.34375 Z M 16.5 -6.34375 "/></g></g></g><g fill="#05415f" fill-opacity="1"><g transform="translate(236.218018, 170.659825)"><g><path d="M 9.234375 -2.703125 C 9.722656 -2.703125 10.207031 -2.75 10.6875 -2.84375 C 11.164062 -2.9375 11.597656 -3.046875 11.984375 -3.171875 L 11.984375 -0.328125 C 11.578125 -0.148438 11.039062 0 10.375 0.125 C 9.71875 0.25 9.035156 0.3125 8.328125 0.3125 C 7.328125 0.3125 6.425781 0.144531 5.625 -0.1875 C 4.832031 -0.519531 4.203125 -1.09375 3.734375 -1.90625 C 3.273438 -2.726562 3.046875 -3.859375 3.046875 -5.296875 L 3.046875 -14.78125 L 0.640625 -14.78125 L 0.640625 -16.453125 L 3.21875 -17.765625 L 4.4375 -21.546875 L 6.796875 -21.546875 L 6.796875 -17.625 L 11.84375 -17.625 L 11.84375 -14.78125 L 6.796875 -14.78125 L 6.796875 -5.34375 C 6.796875 -4.457031 7.019531 -3.796875 7.46875 -3.359375 C 7.914062 -2.921875 8.503906 -2.703125 9.234375 -2.703125 Z M 9.234375 -2.703125 "/></g></g></g><g fill="#05415f" fill-opacity="1"><g transform="translate(247.120711, 170.659825)"><g><path d="M 18.046875 -17.625 L 18.046875 0 L 15.09375 0 L 14.578125 -2.375 L 14.375 -2.375 C 14.007812 -1.769531 13.535156 -1.265625 12.953125 -0.859375 C 12.378906 -0.460938 11.742188 -0.171875 11.046875 0.015625 C 10.347656 0.210938 9.613281 0.3125 8.84375 0.3125 C 7.507812 0.3125 6.375 0.0859375 5.4375 -0.359375 C 4.5 -0.804688 3.78125 -1.503906 3.28125 -2.453125 C 2.78125 -3.398438 2.53125 -4.617188 2.53125 -6.109375 L 2.53125 -17.625 L 6.296875 -17.625 L 6.296875 -6.8125 C 6.296875 -5.445312 6.570312 -4.421875 7.125 -3.734375 C 7.6875 -3.054688 8.554688 -2.71875 9.734375 -2.71875 C 10.867188 -2.71875 11.769531 -2.953125 12.4375 -3.421875 C 13.101562 -3.890625 13.578125 -4.578125 13.859375 -5.484375 C 14.140625 -6.398438 14.28125 -7.523438 14.28125 -8.859375 L 14.28125 -17.625 Z M 18.046875 -17.625 "/></g></g></g><g fill="#05415f" fill-opacity="1"><g transform="translate(265.83814, 170.659825)"><g><path d="M 8.59375 0.3125 C 6.5 0.3125 4.816406 -0.453125 3.546875 -1.984375 C 2.273438 -3.515625 1.640625 -5.773438 1.640625 -8.765625 C 1.640625 -11.796875 2.285156 -14.082031 3.578125 -15.625 C 4.867188 -17.175781 6.566406 -17.953125 8.671875 -17.953125 C 9.566406 -17.953125 10.347656 -17.832031 11.015625 -17.59375 C 11.679688 -17.363281 12.253906 -17.046875 12.734375 -16.640625 C 13.222656 -16.234375 13.640625 -15.78125 13.984375 -15.28125 L 14.15625 -15.28125 C 14.101562 -15.613281 14.039062 -16.085938 13.96875 -16.703125 C 13.90625 -17.328125 13.875 -17.90625 13.875 -18.4375 L 13.875 -24.78125 L 17.625 -24.78125 L 17.625 0 L 14.703125 0 L 14.03125 -2.40625 L 13.875 -2.40625 C 13.550781 -1.894531 13.144531 -1.429688 12.65625 -1.015625 C 12.175781 -0.609375 11.601562 -0.285156 10.9375 -0.046875 C 10.28125 0.191406 9.5 0.3125 8.59375 0.3125 Z M 9.65625 -2.71875 C 11.25 -2.71875 12.375 -3.179688 13.03125 -4.109375 C 13.695312 -5.035156 14.039062 -6.421875 14.0625 -8.265625 L 14.0625 -8.75 C 14.0625 -10.726562 13.742188 -12.242188 13.109375 -13.296875 C 12.472656 -14.359375 11.3125 -14.890625 9.625 -14.890625 C 8.269531 -14.890625 7.238281 -14.34375 6.53125 -13.25 C 5.832031 -12.164062 5.484375 -10.648438 5.484375 -8.703125 C 5.484375 -6.765625 5.832031 -5.28125 6.53125 -4.25 C 7.238281 -3.226562 8.28125 -2.71875 9.65625 -2.71875 Z M 9.65625 -2.71875 "/></g></g></g><g fill="#05415f" fill-opacity="1"><g transform="translate(284.141755, 170.659825)"><g><path d="M 6.421875 -17.625 L 6.421875 0 L 2.671875 0 L 2.671875 -17.625 Z M 4.5625 -24.375 C 5.132812 -24.375 5.628906 -24.21875 6.046875 -23.90625 C 6.472656 -23.601562 6.6875 -23.078125 6.6875 -22.328125 C 6.6875 -21.578125 6.472656 -21.046875 6.046875 -20.734375 C 5.628906 -20.421875 5.132812 -20.265625 4.5625 -20.265625 C 3.96875 -20.265625 3.46875 -20.421875 3.0625 -20.734375 C 2.65625 -21.046875 2.453125 -21.578125 2.453125 -22.328125 C 2.453125 -23.078125 2.65625 -23.601562 3.0625 -23.90625 C 3.46875 -24.21875 3.96875 -24.375 4.5625 -24.375 Z M 4.5625 -24.375 "/></g></g></g><g fill="#05415f" fill-opacity="1"><g transform="translate(291.240543, 170.659825)"><g><path d="M 18.28125 -8.859375 C 18.28125 -7.390625 18.085938 -6.085938 17.703125 -4.953125 C 17.316406 -3.816406 16.757812 -2.859375 16.03125 -2.078125 C 15.300781 -1.296875 14.421875 -0.703125 13.390625 -0.296875 C 12.359375 0.109375 11.195312 0.3125 9.90625 0.3125 C 8.695312 0.3125 7.585938 0.109375 6.578125 -0.296875 C 5.566406 -0.703125 4.691406 -1.296875 3.953125 -2.078125 C 3.210938 -2.859375 2.640625 -3.816406 2.234375 -4.953125 C 1.835938 -6.085938 1.640625 -7.390625 1.640625 -8.859375 C 1.640625 -10.796875 1.972656 -12.441406 2.640625 -13.796875 C 3.316406 -15.148438 4.28125 -16.179688 5.53125 -16.890625 C 6.789062 -17.597656 8.285156 -17.953125 10.015625 -17.953125 C 11.640625 -17.953125 13.070312 -17.597656 14.3125 -16.890625 C 15.550781 -16.179688 16.519531 -15.144531 17.21875 -13.78125 C 17.925781 -12.425781 18.28125 -10.785156 18.28125 -8.859375 Z M 5.5 -8.859375 C 5.5 -7.566406 5.65625 -6.460938 5.96875 -5.546875 C 6.28125 -4.640625 6.765625 -3.941406 7.421875 -3.453125 C 8.078125 -2.972656 8.925781 -2.734375 9.96875 -2.734375 C 11.007812 -2.734375 11.859375 -2.972656 12.515625 -3.453125 C 13.171875 -3.941406 13.648438 -4.640625 13.953125 -5.546875 C 14.265625 -6.460938 14.421875 -7.566406 14.421875 -8.859375 C 14.421875 -10.140625 14.265625 -11.226562 13.953125 -12.125 C 13.648438 -13.019531 13.171875 -13.703125 12.515625 -14.171875 C 11.859375 -14.648438 11.003906 -14.890625 9.953125 -14.890625 C 8.398438 -14.890625 7.269531 -14.367188 6.5625 -13.328125 C 5.851562 -12.285156 5.5 -10.796875 5.5 -8.859375 Z M 5.5 -8.859375 "/></g></g></g><g fill="#0874aa" fill-opacity="1"><g transform="translate(310.398049, 173.825186)"><g><path d="M 79.234375 -105.125 C 79.429688 -105.019531 79.550781 -104.738281 79.59375 -104.28125 C 79.644531 -103.820312 79.609375 -103.273438 79.484375 -102.640625 C 79.367188 -102.003906 79.203125 -101.359375 78.984375 -100.703125 C 78.765625 -100.046875 78.507812 -99.523438 78.21875 -99.140625 C 77.976562 -98.847656 76.984375 -97.472656 75.234375 -95.015625 C 73.484375 -92.566406 71.207031 -89.410156 68.40625 -85.546875 C 65.613281 -81.679688 62.421875 -77.28125 58.828125 -72.34375 C 55.234375 -67.414062 51.492188 -62.300781 47.609375 -57 C 49.597656 -53.363281 51.660156 -49.707031 53.796875 -46.03125 C 55.929688 -42.363281 58.019531 -38.84375 60.0625 -35.46875 C 62.101562 -32.09375 64.0625 -28.921875 65.9375 -25.953125 C 67.8125 -22.984375 69.476562 -20.359375 70.9375 -18.078125 C 72.394531 -15.796875 73.570312 -13.9375 74.46875 -12.5 C 75.363281 -11.070312 75.910156 -10.1875 76.109375 -9.84375 C 76.347656 -9.5 76.46875 -9.21875 76.46875 -9 C 76.46875 -8.78125 76.40625 -8.585938 76.28125 -8.421875 C 76.164062 -8.253906 76.046875 -8.097656 75.921875 -7.953125 C 75.796875 -7.804688 75.710938 -7.632812 75.671875 -7.4375 C 75.566406 -7.050781 75.515625 -6.757812 75.515625 -6.5625 C 75.515625 -6.363281 75.320312 -6.316406 74.9375 -6.421875 C 74.789062 -6.515625 74.460938 -6.5625 73.953125 -6.5625 C 73.441406 -6.5625 73.019531 -6.515625 72.6875 -6.421875 C 71.851562 -6.273438 71.609375 -5.929688 71.953125 -5.390625 C 72.242188 -5.097656 72.425781 -4.914062 72.5 -4.84375 C 72.570312 -4.769531 72.535156 -4.640625 72.390625 -4.453125 C 72.335938 -4.304688 72.21875 -4.179688 72.03125 -4.078125 C 71.6875 -3.835938 71.222656 -3.71875 70.640625 -3.71875 C 70.109375 -4.007812 69.679688 -4.210938 69.359375 -4.328125 C 69.046875 -4.453125 68.789062 -4.539062 68.59375 -4.59375 C 68.40625 -4.644531 68.238281 -4.644531 68.09375 -4.59375 C 67.800781 -4.351562 67.628906 -4.109375 67.578125 -3.859375 C 67.523438 -3.617188 67.644531 -3.378906 67.9375 -3.140625 C 68.039062 -3.140625 68.140625 -3.085938 68.234375 -2.984375 C 68.328125 -2.890625 68.421875 -2.789062 68.515625 -2.6875 C 68.617188 -2.59375 68.71875 -2.453125 68.8125 -2.265625 C 68.71875 -1.722656 68.570312 -1.304688 68.375 -1.015625 C 68.1875 -0.722656 67.96875 -0.503906 67.71875 -0.359375 C 67.476562 -0.171875 67.210938 -0.0507812 66.921875 0 C 66.679688 0.0507812 66.425781 -0.0664062 66.15625 -0.359375 C 65.882812 -0.648438 65.601562 -1.023438 65.3125 -1.484375 C 65.019531 -1.953125 64.703125 -2.476562 64.359375 -3.0625 C 64.023438 -3.644531 63.664062 -4.226562 63.28125 -4.8125 C 62.84375 -5.445312 62.113281 -6.550781 61.09375 -8.125 C 60.070312 -9.707031 58.867188 -11.578125 57.484375 -13.734375 C 56.097656 -15.898438 54.585938 -18.296875 52.953125 -20.921875 C 51.328125 -23.546875 49.664062 -26.207031 47.96875 -28.90625 C 46.269531 -31.601562 44.601562 -34.273438 42.96875 -36.921875 C 41.34375 -39.566406 39.847656 -42.035156 38.484375 -44.328125 C 35.960938 -40.828125 33.484375 -37.421875 31.046875 -34.109375 C 28.617188 -30.804688 26.3125 -27.671875 24.125 -24.703125 C 21.9375 -21.742188 19.921875 -19 18.078125 -16.46875 C 16.234375 -13.945312 14.617188 -11.75 13.234375 -9.875 C 11.847656 -8.007812 10.738281 -6.53125 9.90625 -5.4375 C 9.082031 -4.34375 8.625 -3.722656 8.53125 -3.578125 C 8.332031 -3.378906 8.113281 -3.179688 7.875 -2.984375 C 7.632812 -2.796875 7.378906 -2.539062 7.109375 -2.21875 C 6.835938 -1.90625 6.507812 -1.554688 6.125 -1.171875 C 5.59375 -1.265625 5.15625 -1.332031 4.8125 -1.375 C 4.46875 -1.425781 4.175781 -1.476562 3.9375 -1.53125 C 3.695312 -1.582031 3.476562 -1.628906 3.28125 -1.671875 C 2.894531 -1.773438 2.554688 -1.992188 2.265625 -2.328125 C 1.972656 -2.671875 1.828125 -3.132812 1.828125 -3.71875 C 1.828125 -4.25 1.773438 -4.757812 1.671875 -5.25 C 1.578125 -5.738281 1.578125 -6.175781 1.671875 -6.5625 C 1.722656 -6.945312 2.171875 -7.832031 3.015625 -9.21875 C 3.867188 -10.601562 5.023438 -12.375 6.484375 -14.53125 C 7.941406 -16.695312 9.664062 -19.191406 11.65625 -22.015625 C 13.65625 -24.835938 15.820312 -27.882812 18.15625 -31.15625 C 20.488281 -34.4375 22.96875 -37.875 25.59375 -41.46875 C 28.21875 -45.070312 30.890625 -48.722656 33.609375 -52.421875 C 32.535156 -54.210938 31.1875 -56.515625 29.5625 -59.328125 C 27.9375 -62.148438 26.1875 -65.164062 24.3125 -68.375 C 22.4375 -71.582031 20.550781 -74.835938 18.65625 -78.140625 C 16.757812 -81.453125 15 -84.503906 13.375 -87.296875 C 11.75 -90.085938 10.351562 -92.476562 9.1875 -94.46875 C 8.019531 -96.46875 7.242188 -97.78125 6.859375 -98.40625 C 6.609375 -98.75 6.4375 -99.148438 6.34375 -99.609375 C 6.25 -100.078125 6.203125 -100.503906 6.203125 -100.890625 C 6.203125 -101.273438 6.273438 -101.585938 6.421875 -101.828125 C 6.566406 -102.078125 6.757812 -102.175781 7 -102.125 C 7.488281 -102.082031 8 -102.0625 8.53125 -102.0625 C 8.96875 -102.007812 9.460938 -101.984375 10.015625 -101.984375 C 10.578125 -101.984375 11.175781 -101.9375 11.8125 -101.84375 C 11.03125 -102.28125 10.640625 -102.628906 10.640625 -102.890625 C 10.640625 -103.160156 10.785156 -103.394531 11.078125 -103.59375 C 11.421875 -103.78125 11.90625 -103.925781 12.53125 -104.03125 C 13.113281 -104.070312 13.550781 -104.082031 13.84375 -104.0625 C 14.132812 -104.039062 14.363281 -104.015625 14.53125 -103.984375 C 14.707031 -103.960938 14.84375 -103.9375 14.9375 -103.90625 C 15.039062 -103.882812 15.140625 -103.925781 15.234375 -104.03125 C 15.429688 -104.125 15.566406 -104.289062 15.640625 -104.53125 C 15.710938 -104.78125 15.832031 -105.015625 16 -105.234375 C 16.164062 -105.453125 16.429688 -105.617188 16.796875 -105.734375 C 17.160156 -105.859375 17.734375 -105.847656 18.515625 -105.703125 C 18.953125 -105.609375 19.703125 -104.84375 20.765625 -103.40625 C 21.835938 -101.96875 23.101562 -100.09375 24.5625 -97.78125 C 26.019531 -95.476562 27.613281 -92.867188 29.34375 -89.953125 C 31.070312 -87.035156 32.785156 -84.09375 34.484375 -81.125 C 36.179688 -78.164062 37.796875 -75.289062 39.328125 -72.5 C 40.859375 -69.707031 42.179688 -67.289062 43.296875 -65.25 C 46.503906 -69.519531 49.625 -73.644531 52.65625 -77.625 C 55.695312 -81.613281 58.519531 -85.273438 61.125 -88.609375 C 63.726562 -91.941406 66.035156 -94.859375 68.046875 -97.359375 C 70.066406 -99.859375 71.660156 -101.738281 72.828125 -103 C 73.554688 -103.832031 74.1875 -104.441406 74.71875 -104.828125 C 75.25 -105.210938 75.707031 -105.453125 76.09375 -105.546875 C 76.488281 -105.648438 76.832031 -105.648438 77.125 -105.546875 C 77.414062 -105.453125 77.679688 -105.3125 77.921875 -105.125 C 78.066406 -104.976562 78.257812 -104.941406 78.5 -105.015625 C 78.75 -105.085938 78.992188 -105.125 79.234375 -105.125 Z M 79.234375 -105.125 "/></g></g></g><g fill="#05415f" fill-opacity="1"><g transform="translate(52.081331, 199.993295)"><g><path d="M 4.8125 -11.40625 C 6.28125 -11.40625 7.351562 -11.101562 8.03125 -10.5 C 8.707031 -9.894531 9.046875 -9.050781 9.046875 -7.96875 C 9.046875 -7.46875 8.96875 -6.992188 8.8125 -6.546875 C 8.65625 -6.109375 8.40625 -5.71875 8.0625 -5.375 C 7.71875 -5.03125 7.257812 -4.757812 6.6875 -4.5625 C 6.113281 -4.363281 5.410156 -4.265625 4.578125 -4.265625 L 3.375 -4.265625 L 3.375 0 L 1.5 0 L 1.5 -11.40625 Z M 4.6875 -9.84375 L 3.375 -9.84375 L 3.375 -5.828125 L 4.390625 -5.828125 C 4.972656 -5.828125 5.46875 -5.894531 5.875 -6.03125 C 6.289062 -6.175781 6.601562 -6.398438 6.8125 -6.703125 C 7.03125 -7.003906 7.140625 -7.398438 7.140625 -7.890625 C 7.140625 -8.546875 6.941406 -9.035156 6.546875 -9.359375 C 6.148438 -9.679688 5.53125 -9.84375 4.6875 -9.84375 Z M 4.6875 -9.84375 "/></g></g></g><g fill="#05415f" fill-opacity="1"><g transform="translate(61.895515, 199.993295)"><g><path d="M 8.953125 -4.328125 C 8.953125 -3.617188 8.859375 -2.984375 8.671875 -2.421875 C 8.484375 -1.867188 8.207031 -1.398438 7.84375 -1.015625 C 7.488281 -0.628906 7.054688 -0.335938 6.546875 -0.140625 C 6.046875 0.0546875 5.476562 0.15625 4.84375 0.15625 C 4.257812 0.15625 3.71875 0.0546875 3.21875 -0.140625 C 2.726562 -0.335938 2.300781 -0.628906 1.9375 -1.015625 C 1.570312 -1.398438 1.289062 -1.867188 1.09375 -2.421875 C 0.894531 -2.984375 0.796875 -3.617188 0.796875 -4.328125 C 0.796875 -5.285156 0.960938 -6.09375 1.296875 -6.75 C 1.628906 -7.414062 2.101562 -7.921875 2.71875 -8.265625 C 3.332031 -8.617188 4.0625 -8.796875 4.90625 -8.796875 C 5.695312 -8.796875 6.394531 -8.617188 7 -8.265625 C 7.613281 -7.921875 8.09375 -7.414062 8.4375 -6.75 C 8.78125 -6.082031 8.953125 -5.273438 8.953125 -4.328125 Z M 2.6875 -4.328125 C 2.6875 -3.703125 2.765625 -3.164062 2.921875 -2.71875 C 3.078125 -2.269531 3.3125 -1.925781 3.625 -1.6875 C 3.945312 -1.457031 4.363281 -1.34375 4.875 -1.34375 C 5.382812 -1.34375 5.800781 -1.457031 6.125 -1.6875 C 6.445312 -1.925781 6.679688 -2.269531 6.828125 -2.71875 C 6.984375 -3.164062 7.0625 -3.703125 7.0625 -4.328125 C 7.0625 -4.960938 6.984375 -5.5 6.828125 -5.9375 C 6.679688 -6.375 6.445312 -6.707031 6.125 -6.9375 C 5.800781 -7.175781 5.382812 -7.296875 4.875 -7.296875 C 4.113281 -7.296875 3.554688 -7.039062 3.203125 -6.53125 C 2.859375 -6.019531 2.6875 -5.285156 2.6875 -4.328125 Z M 2.6875 -4.328125 "/></g></g></g><g fill="#05415f" fill-opacity="1"><g transform="translate(71.639536, 199.993295)"><g><path d="M 8.359375 0 L 7.28125 -4.015625 C 7.226562 -4.210938 7.164062 -4.453125 7.09375 -4.734375 C 7.019531 -5.015625 6.945312 -5.304688 6.875 -5.609375 C 6.800781 -5.910156 6.734375 -6.1875 6.671875 -6.4375 C 6.609375 -6.695312 6.5625 -6.894531 6.53125 -7.03125 L 6.46875 -7.03125 C 6.445312 -6.894531 6.40625 -6.695312 6.34375 -6.4375 C 6.289062 -6.1875 6.226562 -5.910156 6.15625 -5.609375 C 6.082031 -5.304688 6.007812 -5.007812 5.9375 -4.71875 C 5.863281 -4.4375 5.800781 -4.195312 5.75 -4 L 4.59375 0 L 2.59375 0 L 0.171875 -8.640625 L 2.03125 -8.640625 L 3.15625 -4.34375 C 3.226562 -4.0625 3.296875 -3.75 3.359375 -3.40625 C 3.429688 -3.070312 3.492188 -2.75 3.546875 -2.4375 C 3.597656 -2.132812 3.640625 -1.882812 3.671875 -1.6875 L 3.734375 -1.6875 C 3.753906 -1.820312 3.78125 -2 3.8125 -2.21875 C 3.851562 -2.4375 3.894531 -2.660156 3.9375 -2.890625 C 3.976562 -3.128906 4.019531 -3.351562 4.0625 -3.5625 C 4.113281 -3.78125 4.160156 -3.953125 4.203125 -4.078125 L 5.53125 -8.640625 L 7.546875 -8.640625 L 8.8125 -4.078125 C 8.863281 -3.878906 8.921875 -3.628906 8.984375 -3.328125 C 9.054688 -3.035156 9.117188 -2.738281 9.171875 -2.4375 C 9.234375 -2.132812 9.269531 -1.882812 9.28125 -1.6875 L 9.34375 -1.6875 C 9.363281 -1.863281 9.398438 -2.101562 9.453125 -2.40625 C 9.515625 -2.71875 9.582031 -3.046875 9.65625 -3.390625 C 9.726562 -3.734375 9.800781 -4.050781 9.875 -4.34375 L 11.03125 -8.640625 L 12.84375 -8.640625 L 10.421875 0 Z M 8.359375 0 "/></g></g></g><g fill="#05415f" fill-opacity="1"><g transform="translate(84.657549, 199.993295)"><g><path d="M 4.75 -8.796875 C 5.519531 -8.796875 6.179688 -8.632812 6.734375 -8.3125 C 7.285156 -8 7.707031 -7.550781 8 -6.96875 C 8.289062 -6.382812 8.4375 -5.6875 8.4375 -4.875 L 8.4375 -3.90625 L 2.6875 -3.90625 C 2.707031 -3.0625 2.929688 -2.410156 3.359375 -1.953125 C 3.785156 -1.503906 4.382812 -1.28125 5.15625 -1.28125 C 5.707031 -1.28125 6.203125 -1.332031 6.640625 -1.4375 C 7.085938 -1.550781 7.539062 -1.710938 8 -1.921875 L 8 -0.421875 C 7.570312 -0.222656 7.132812 -0.078125 6.6875 0.015625 C 6.238281 0.109375 5.703125 0.15625 5.078125 0.15625 C 4.234375 0.15625 3.488281 -0.00390625 2.84375 -0.328125 C 2.207031 -0.660156 1.707031 -1.15625 1.34375 -1.8125 C 0.976562 -2.46875 0.796875 -3.28125 0.796875 -4.25 C 0.796875 -5.21875 0.957031 -6.039062 1.28125 -6.71875 C 1.613281 -7.394531 2.078125 -7.910156 2.671875 -8.265625 C 3.265625 -8.617188 3.957031 -8.796875 4.75 -8.796875 Z M 4.75 -7.421875 C 4.175781 -7.421875 3.707031 -7.234375 3.34375 -6.859375 C 2.988281 -6.484375 2.78125 -5.929688 2.71875 -5.203125 L 6.65625 -5.203125 C 6.644531 -5.640625 6.570312 -6.023438 6.4375 -6.359375 C 6.300781 -6.691406 6.09375 -6.953125 5.8125 -7.140625 C 5.53125 -7.328125 5.175781 -7.421875 4.75 -7.421875 Z M 4.75 -7.421875 "/></g></g></g><g fill="#05415f" fill-opacity="1"><g transform="translate(93.855905, 199.993295)"><g><path d="M 5.6875 -8.796875 C 5.832031 -8.796875 5.988281 -8.785156 6.15625 -8.765625 C 6.332031 -8.753906 6.484375 -8.734375 6.609375 -8.703125 L 6.4375 -7 C 6.320312 -7.03125 6.1875 -7.050781 6.03125 -7.0625 C 5.875 -7.082031 5.734375 -7.09375 5.609375 -7.09375 C 5.273438 -7.09375 4.957031 -7.035156 4.65625 -6.921875 C 4.363281 -6.816406 4.101562 -6.65625 3.875 -6.4375 C 3.65625 -6.226562 3.476562 -5.960938 3.34375 -5.640625 C 3.21875 -5.316406 3.15625 -4.941406 3.15625 -4.515625 L 3.15625 0 L 1.3125 0 L 1.3125 -8.625 L 2.75 -8.625 L 3 -7.109375 L 3.078125 -7.109375 C 3.253906 -7.421875 3.46875 -7.703125 3.71875 -7.953125 C 3.96875 -8.203125 4.257812 -8.40625 4.59375 -8.5625 C 4.925781 -8.71875 5.289062 -8.796875 5.6875 -8.796875 Z M 5.6875 -8.796875 "/></g></g></g><g fill="#05415f" fill-opacity="1"><g transform="translate(100.746877, 199.993295)"><g><path d="M 5.625 -7.234375 L 3.53125 -7.234375 L 3.53125 0 L 1.6875 0 L 1.6875 -7.234375 L 0.28125 -7.234375 L 0.28125 -8.109375 L 1.6875 -8.65625 L 1.6875 -9.25 C 1.6875 -9.988281 1.800781 -10.570312 2.03125 -11 C 2.269531 -11.4375 2.601562 -11.75 3.03125 -11.9375 C 3.46875 -12.125 3.988281 -12.21875 4.59375 -12.21875 C 4.988281 -12.21875 5.347656 -12.179688 5.671875 -12.109375 C 6.003906 -12.046875 6.28125 -11.976562 6.5 -11.90625 L 6.03125 -10.515625 C 5.851562 -10.566406 5.65625 -10.617188 5.4375 -10.671875 C 5.21875 -10.722656 4.984375 -10.75 4.734375 -10.75 C 4.316406 -10.75 4.007812 -10.617188 3.8125 -10.359375 C 3.625 -10.097656 3.53125 -9.71875 3.53125 -9.21875 L 3.53125 -8.625 L 5.625 -8.625 Z M 5.625 -7.234375 "/></g></g></g><g fill="#05415f" fill-opacity="1"><g transform="translate(106.523138, 199.993295)"><g><path d="M 8.828125 -8.625 L 8.828125 0 L 7.390625 0 L 7.140625 -1.15625 L 7.046875 -1.15625 C 6.859375 -0.863281 6.625 -0.617188 6.34375 -0.421875 C 6.0625 -0.222656 5.75 -0.078125 5.40625 0.015625 C 5.0625 0.109375 4.703125 0.15625 4.328125 0.15625 C 3.679688 0.15625 3.125 0.046875 2.65625 -0.171875 C 2.195312 -0.390625 1.84375 -0.726562 1.59375 -1.1875 C 1.351562 -1.65625 1.234375 -2.257812 1.234375 -3 L 1.234375 -8.625 L 3.078125 -8.625 L 3.078125 -3.34375 C 3.078125 -2.664062 3.210938 -2.160156 3.484375 -1.828125 C 3.765625 -1.492188 4.191406 -1.328125 4.765625 -1.328125 C 5.316406 -1.328125 5.753906 -1.441406 6.078125 -1.671875 C 6.410156 -1.898438 6.644531 -2.238281 6.78125 -2.6875 C 6.925781 -3.132812 7 -3.679688 7 -4.328125 L 7 -8.625 Z M 8.828125 -8.625 "/></g></g></g><g fill="#05415f" fill-opacity="1"><g transform="translate(116.664721, 199.993295)"><g><path d="M 3.15625 0 L 1.3125 0 L 1.3125 -12.125 L 3.15625 -12.125 Z M 3.15625 0 "/></g></g></g><g fill="#05415f" fill-opacity="1"><g transform="translate(121.115796, 199.993295)"><g><path d="M 1.046875 -0.96875 C 1.046875 -1.394531 1.15625 -1.691406 1.375 -1.859375 C 1.59375 -2.035156 1.863281 -2.125 2.1875 -2.125 C 2.5 -2.125 2.769531 -2.035156 3 -1.859375 C 3.226562 -1.691406 3.34375 -1.394531 3.34375 -0.96875 C 3.34375 -0.550781 3.226562 -0.25 3 -0.0625 C 2.769531 0.113281 2.5 0.203125 2.1875 0.203125 C 1.863281 0.203125 1.59375 0.113281 1.375 -0.0625 C 1.15625 -0.25 1.046875 -0.550781 1.046875 -0.96875 Z M 1.046875 -0.96875 "/></g></g></g><g fill="#05415f" fill-opacity="1"><g transform="translate(125.488918, 199.993295)"><g/></g></g><g fill="#05415f" fill-opacity="1"><g transform="translate(129.635974, 199.993295)"><g><path d="M 5.453125 0 L 3.578125 0 L 3.578125 -9.8125 L 0.234375 -9.8125 L 0.234375 -11.40625 L 8.78125 -11.40625 L 8.78125 -9.8125 L 5.453125 -9.8125 Z M 5.453125 0 "/></g></g></g><g fill="#05415f" fill-opacity="1"><g transform="translate(138.655046, 199.993295)"><g><path d="M 5.6875 -8.796875 C 5.832031 -8.796875 5.988281 -8.785156 6.15625 -8.765625 C 6.332031 -8.753906 6.484375 -8.734375 6.609375 -8.703125 L 6.4375 -7 C 6.320312 -7.03125 6.1875 -7.050781 6.03125 -7.0625 C 5.875 -7.082031 5.734375 -7.09375 5.609375 -7.09375 C 5.273438 -7.09375 4.957031 -7.035156 4.65625 -6.921875 C 4.363281 -6.816406 4.101562 -6.65625 3.875 -6.4375 C 3.65625 -6.226562 3.476562 -5.960938 3.34375 -5.640625 C 3.21875 -5.316406 3.15625 -4.941406 3.15625 -4.515625 L 3.15625 0 L 1.3125 0 L 1.3125 -8.625 L 2.75 -8.625 L 3 -7.109375 L 3.078125 -7.109375 C 3.253906 -7.421875 3.46875 -7.703125 3.71875 -7.953125 C 3.96875 -8.203125 4.257812 -8.40625 4.59375 -8.5625 C 4.925781 -8.71875 5.289062 -8.796875 5.6875 -8.796875 Z M 5.6875 -8.796875 "/></g></g></g><g fill="#05415f" fill-opacity="1"><g transform="translate(145.546018, 199.993295)"><g><path d="M 4.6875 -8.796875 C 5.78125 -8.796875 6.601562 -8.550781 7.15625 -8.0625 C 7.71875 -7.582031 8 -6.832031 8 -5.8125 L 8 0 L 6.703125 0 L 6.359375 -1.21875 L 6.296875 -1.21875 C 6.046875 -0.90625 5.789062 -0.644531 5.53125 -0.4375 C 5.269531 -0.238281 4.96875 -0.09375 4.625 0 C 4.289062 0.101562 3.878906 0.15625 3.390625 0.15625 C 2.878906 0.15625 2.421875 0.0625 2.015625 -0.125 C 1.609375 -0.3125 1.285156 -0.597656 1.046875 -0.984375 C 0.816406 -1.378906 0.703125 -1.878906 0.703125 -2.484375 C 0.703125 -3.367188 1.03125 -4.035156 1.6875 -4.484375 C 2.351562 -4.929688 3.359375 -5.175781 4.703125 -5.21875 L 6.203125 -5.28125 L 6.203125 -5.734375 C 6.203125 -6.328125 6.0625 -6.75 5.78125 -7 C 5.5 -7.257812 5.109375 -7.390625 4.609375 -7.390625 C 4.179688 -7.390625 3.765625 -7.328125 3.359375 -7.203125 C 2.953125 -7.078125 2.554688 -6.925781 2.171875 -6.75 L 1.578125 -8.03125 C 1.992188 -8.257812 2.472656 -8.441406 3.015625 -8.578125 C 3.554688 -8.722656 4.113281 -8.796875 4.6875 -8.796875 Z M 6.1875 -4.125 L 5.078125 -4.078125 C 4.160156 -4.046875 3.515625 -3.890625 3.140625 -3.609375 C 2.773438 -3.335938 2.59375 -2.957031 2.59375 -2.46875 C 2.59375 -2.039062 2.71875 -1.726562 2.96875 -1.53125 C 3.226562 -1.332031 3.566406 -1.234375 3.984375 -1.234375 C 4.617188 -1.234375 5.144531 -1.414062 5.5625 -1.78125 C 5.976562 -2.144531 6.1875 -2.675781 6.1875 -3.375 Z M 6.1875 -4.125 "/></g></g></g><g fill="#05415f" fill-opacity="1"><g transform="translate(154.806736, 199.993295)"><g><path d="M 5.8125 -8.796875 C 6.78125 -8.796875 7.535156 -8.546875 8.078125 -8.046875 C 8.617188 -7.546875 8.890625 -6.738281 8.890625 -5.625 L 8.890625 0 L 7.0625 0 L 7.0625 -5.28125 C 7.0625 -5.957031 6.921875 -6.460938 6.640625 -6.796875 C 6.367188 -7.128906 5.945312 -7.296875 5.375 -7.296875 C 4.53125 -7.296875 3.945312 -7.035156 3.625 -6.515625 C 3.300781 -6.003906 3.140625 -5.257812 3.140625 -4.28125 L 3.140625 0 L 1.3125 0 L 1.3125 -8.625 L 2.734375 -8.625 L 3 -7.46875 L 3.09375 -7.46875 C 3.28125 -7.769531 3.507812 -8.015625 3.78125 -8.203125 C 4.0625 -8.398438 4.375 -8.546875 4.71875 -8.640625 C 5.070312 -8.742188 5.4375 -8.796875 5.8125 -8.796875 Z M 5.8125 -8.796875 "/></g></g></g><g fill="#05415f" fill-opacity="1"><g transform="translate(164.948319, 199.993295)"><g><path d="M 7.109375 -2.46875 C 7.109375 -1.894531 6.96875 -1.410156 6.6875 -1.015625 C 6.414062 -0.628906 6.015625 -0.335938 5.484375 -0.140625 C 4.960938 0.0546875 4.320312 0.15625 3.5625 0.15625 C 2.957031 0.15625 2.4375 0.113281 2 0.03125 C 1.5625 -0.0507812 1.148438 -0.179688 0.765625 -0.359375 L 0.765625 -1.953125 C 1.179688 -1.753906 1.644531 -1.582031 2.15625 -1.4375 C 2.664062 -1.300781 3.148438 -1.234375 3.609375 -1.234375 C 4.210938 -1.234375 4.644531 -1.328125 4.90625 -1.515625 C 5.175781 -1.710938 5.3125 -1.96875 5.3125 -2.28125 C 5.3125 -2.46875 5.253906 -2.632812 5.140625 -2.78125 C 5.035156 -2.9375 4.835938 -3.09375 4.546875 -3.25 C 4.265625 -3.40625 3.847656 -3.597656 3.296875 -3.828125 C 2.742188 -4.035156 2.28125 -4.25 1.90625 -4.46875 C 1.53125 -4.6875 1.242188 -4.953125 1.046875 -5.265625 C 0.859375 -5.578125 0.765625 -5.972656 0.765625 -6.453125 C 0.765625 -7.222656 1.066406 -7.804688 1.671875 -8.203125 C 2.285156 -8.597656 3.085938 -8.796875 4.078125 -8.796875 C 4.609375 -8.796875 5.109375 -8.738281 5.578125 -8.625 C 6.054688 -8.519531 6.519531 -8.367188 6.96875 -8.171875 L 6.390625 -6.796875 C 6.003906 -6.960938 5.613281 -7.101562 5.21875 -7.21875 C 4.820312 -7.332031 4.421875 -7.390625 4.015625 -7.390625 C 3.546875 -7.390625 3.1875 -7.316406 2.9375 -7.171875 C 2.695312 -7.023438 2.578125 -6.816406 2.578125 -6.546875 C 2.578125 -6.335938 2.632812 -6.160156 2.75 -6.015625 C 2.875 -5.878906 3.082031 -5.738281 3.375 -5.59375 C 3.664062 -5.457031 4.070312 -5.285156 4.59375 -5.078125 C 5.113281 -4.878906 5.5625 -4.671875 5.9375 -4.453125 C 6.3125 -4.242188 6.597656 -3.984375 6.796875 -3.671875 C 7.003906 -3.359375 7.109375 -2.957031 7.109375 -2.46875 Z M 7.109375 -2.46875 "/></g></g></g><g fill="#05415f" fill-opacity="1"><g transform="translate(172.720156, 199.993295)"><g><path d="M 5.734375 -8.796875 C 6.765625 -8.796875 7.585938 -8.421875 8.203125 -7.671875 C 8.828125 -6.921875 9.140625 -5.804688 9.140625 -4.328125 C 9.140625 -3.359375 8.992188 -2.535156 8.703125 -1.859375 C 8.410156 -1.191406 8.003906 -0.6875 7.484375 -0.34375 C 6.972656 -0.0078125 6.375 0.15625 5.6875 0.15625 C 5.25 0.15625 4.867188 0.0976562 4.546875 -0.015625 C 4.222656 -0.128906 3.945312 -0.273438 3.71875 -0.453125 C 3.5 -0.640625 3.3125 -0.84375 3.15625 -1.0625 L 3.046875 -1.0625 C 3.066406 -0.851562 3.085938 -0.625 3.109375 -0.375 C 3.140625 -0.125 3.15625 0.101562 3.15625 0.3125 L 3.15625 3.828125 L 1.3125 3.828125 L 1.3125 -8.625 L 2.8125 -8.625 L 3.0625 -7.4375 L 3.15625 -7.4375 C 3.3125 -7.6875 3.503906 -7.910156 3.734375 -8.109375 C 3.960938 -8.316406 4.242188 -8.484375 4.578125 -8.609375 C 4.910156 -8.734375 5.296875 -8.796875 5.734375 -8.796875 Z M 5.25 -7.296875 C 4.738281 -7.296875 4.332031 -7.195312 4.03125 -7 C 3.726562 -6.800781 3.507812 -6.5 3.375 -6.09375 C 3.238281 -5.695312 3.164062 -5.195312 3.15625 -4.59375 L 3.15625 -4.328125 C 3.15625 -3.691406 3.21875 -3.148438 3.34375 -2.703125 C 3.476562 -2.265625 3.695312 -1.925781 4 -1.6875 C 4.3125 -1.457031 4.734375 -1.34375 5.265625 -1.34375 C 5.710938 -1.34375 6.082031 -1.460938 6.375 -1.703125 C 6.675781 -1.953125 6.898438 -2.300781 7.046875 -2.75 C 7.191406 -3.207031 7.265625 -3.742188 7.265625 -4.359375 C 7.265625 -5.285156 7.097656 -6.003906 6.765625 -6.515625 C 6.429688 -7.035156 5.925781 -7.296875 5.25 -7.296875 Z M 5.25 -7.296875 "/></g></g></g><g fill="#05415f" fill-opacity="1"><g transform="translate(182.659063, 199.993295)"><g><path d="M 4.6875 -8.796875 C 5.78125 -8.796875 6.601562 -8.550781 7.15625 -8.0625 C 7.71875 -7.582031 8 -6.832031 8 -5.8125 L 8 0 L 6.703125 0 L 6.359375 -1.21875 L 6.296875 -1.21875 C 6.046875 -0.90625 5.789062 -0.644531 5.53125 -0.4375 C 5.269531 -0.238281 4.96875 -0.09375 4.625 0 C 4.289062 0.101562 3.878906 0.15625 3.390625 0.15625 C 2.878906 0.15625 2.421875 0.0625 2.015625 -0.125 C 1.609375 -0.3125 1.285156 -0.597656 1.046875 -0.984375 C 0.816406 -1.378906 0.703125 -1.878906 0.703125 -2.484375 C 0.703125 -3.367188 1.03125 -4.035156 1.6875 -4.484375 C 2.351562 -4.929688 3.359375 -5.175781 4.703125 -5.21875 L 6.203125 -5.28125 L 6.203125 -5.734375 C 6.203125 -6.328125 6.0625 -6.75 5.78125 -7 C 5.5 -7.257812 5.109375 -7.390625 4.609375 -7.390625 C 4.179688 -7.390625 3.765625 -7.328125 3.359375 -7.203125 C 2.953125 -7.078125 2.554688 -6.925781 2.171875 -6.75 L 1.578125 -8.03125 C 1.992188 -8.257812 2.472656 -8.441406 3.015625 -8.578125 C 3.554688 -8.722656 4.113281 -8.796875 4.6875 -8.796875 Z M 6.1875 -4.125 L 5.078125 -4.078125 C 4.160156 -4.046875 3.515625 -3.890625 3.140625 -3.609375 C 2.773438 -3.335938 2.59375 -2.957031 2.59375 -2.46875 C 2.59375 -2.039062 2.71875 -1.726562 2.96875 -1.53125 C 3.226562 -1.332031 3.566406 -1.234375 3.984375 -1.234375 C 4.617188 -1.234375 5.144531 -1.414062 5.5625 -1.78125 C 5.976562 -2.144531 6.1875 -2.675781 6.1875 -3.375 Z M 6.1875 -4.125 "/></g></g></g><g fill="#05415f" fill-opacity="1"><g transform="translate(191.919781, 199.993295)"><g><path d="M 5.6875 -8.796875 C 5.832031 -8.796875 5.988281 -8.785156 6.15625 -8.765625 C 6.332031 -8.753906 6.484375 -8.734375 6.609375 -8.703125 L 6.4375 -7 C 6.320312 -7.03125 6.1875 -7.050781 6.03125 -7.0625 C 5.875 -7.082031 5.734375 -7.09375 5.609375 -7.09375 C 5.273438 -7.09375 4.957031 -7.035156 4.65625 -6.921875 C 4.363281 -6.816406 4.101562 -6.65625 3.875 -6.4375 C 3.65625 -6.226562 3.476562 -5.960938 3.34375 -5.640625 C 3.21875 -5.316406 3.15625 -4.941406 3.15625 -4.515625 L 3.15625 0 L 1.3125 0 L 1.3125 -8.625 L 2.75 -8.625 L 3 -7.109375 L 3.078125 -7.109375 C 3.253906 -7.421875 3.46875 -7.703125 3.71875 -7.953125 C 3.96875 -8.203125 4.257812 -8.40625 4.59375 -8.5625 C 4.925781 -8.71875 5.289062 -8.796875 5.6875 -8.796875 Z M 5.6875 -8.796875 "/></g></g></g><g fill="#05415f" fill-opacity="1"><g transform="translate(198.810753, 199.993295)"><g><path d="M 4.75 -8.796875 C 5.519531 -8.796875 6.179688 -8.632812 6.734375 -8.3125 C 7.285156 -8 7.707031 -7.550781 8 -6.96875 C 8.289062 -6.382812 8.4375 -5.6875 8.4375 -4.875 L 8.4375 -3.90625 L 2.6875 -3.90625 C 2.707031 -3.0625 2.929688 -2.410156 3.359375 -1.953125 C 3.785156 -1.503906 4.382812 -1.28125 5.15625 -1.28125 C 5.707031 -1.28125 6.203125 -1.332031 6.640625 -1.4375 C 7.085938 -1.550781 7.539062 -1.710938 8 -1.921875 L 8 -0.421875 C 7.570312 -0.222656 7.132812 -0.078125 6.6875 0.015625 C 6.238281 0.109375 5.703125 0.15625 5.078125 0.15625 C 4.234375 0.15625 3.488281 -0.00390625 2.84375 -0.328125 C 2.207031 -0.660156 1.707031 -1.15625 1.34375 -1.8125 C 0.976562 -2.46875 0.796875 -3.28125 0.796875 -4.25 C 0.796875 -5.21875 0.957031 -6.039062 1.28125 -6.71875 C 1.613281 -7.394531 2.078125 -7.910156 2.671875 -8.265625 C 3.265625 -8.617188 3.957031 -8.796875 4.75 -8.796875 Z M 4.75 -7.421875 C 4.175781 -7.421875 3.707031 -7.234375 3.34375 -6.859375 C 2.988281 -6.484375 2.78125 -5.929688 2.71875 -5.203125 L 6.65625 -5.203125 C 6.644531 -5.640625 6.570312 -6.023438 6.4375 -6.359375 C 6.300781 -6.691406 6.09375 -6.953125 5.8125 -7.140625 C 5.53125 -7.328125 5.175781 -7.421875 4.75 -7.421875 Z M 4.75 -7.421875 "/></g></g></g><g fill="#05415f" fill-opacity="1"><g transform="translate(208.009109, 199.993295)"><g><path d="M 5.8125 -8.796875 C 6.78125 -8.796875 7.535156 -8.546875 8.078125 -8.046875 C 8.617188 -7.546875 8.890625 -6.738281 8.890625 -5.625 L 8.890625 0 L 7.0625 0 L 7.0625 -5.28125 C 7.0625 -5.957031 6.921875 -6.460938 6.640625 -6.796875 C 6.367188 -7.128906 5.945312 -7.296875 5.375 -7.296875 C 4.53125 -7.296875 3.945312 -7.035156 3.625 -6.515625 C 3.300781 -6.003906 3.140625 -5.257812 3.140625 -4.28125 L 3.140625 0 L 1.3125 0 L 1.3125 -8.625 L 2.734375 -8.625 L 3 -7.46875 L 3.09375 -7.46875 C 3.28125 -7.769531 3.507812 -8.015625 3.78125 -8.203125 C 4.0625 -8.398438 4.375 -8.546875 4.71875 -8.640625 C 5.070312 -8.742188 5.4375 -8.796875 5.8125 -8.796875 Z M 5.8125 -8.796875 "/></g></g></g><g fill="#05415f" fill-opacity="1"><g transform="translate(218.150692, 199.993295)"><g><path d="M 4.515625 -1.328125 C 4.753906 -1.328125 4.988281 -1.347656 5.21875 -1.390625 C 5.457031 -1.429688 5.675781 -1.484375 5.875 -1.546875 L 5.875 -0.15625 C 5.664062 -0.0703125 5.398438 0 5.078125 0.0625 C 4.753906 0.125 4.421875 0.15625 4.078125 0.15625 C 3.585938 0.15625 3.144531 0.078125 2.75 -0.078125 C 2.363281 -0.242188 2.054688 -0.523438 1.828125 -0.921875 C 1.597656 -1.328125 1.484375 -1.882812 1.484375 -2.59375 L 1.484375 -7.234375 L 0.3125 -7.234375 L 0.3125 -8.046875 L 1.578125 -8.703125 L 2.171875 -10.546875 L 3.328125 -10.546875 L 3.328125 -8.625 L 5.796875 -8.625 L 5.796875 -7.234375 L 3.328125 -7.234375 L 3.328125 -2.625 C 3.328125 -2.1875 3.4375 -1.859375 3.65625 -1.640625 C 3.875 -1.429688 4.160156 -1.328125 4.515625 -1.328125 Z M 4.515625 -1.328125 "/></g></g></g><g fill="#05415f" fill-opacity="1"><g transform="translate(224.464818, 199.993295)"><g><path d="M 1.046875 -0.96875 C 1.046875 -1.394531 1.15625 -1.691406 1.375 -1.859375 C 1.59375 -2.035156 1.863281 -2.125 2.1875 -2.125 C 2.5 -2.125 2.769531 -2.035156 3 -1.859375 C 3.226562 -1.691406 3.34375 -1.394531 3.34375 -0.96875 C 3.34375 -0.550781 3.226562 -0.25 3 -0.0625 C 2.769531 0.113281 2.5 0.203125 2.1875 0.203125 C 1.863281 0.203125 1.59375 0.113281 1.375 -0.0625 C 1.15625 -0.25 1.046875 -0.550781 1.046875 -0.96875 Z M 1.046875 -0.96875 "/></g></g></g><g fill="#05415f" fill-opacity="1"><g transform="translate(228.837941, 199.993295)"><g/></g></g><g fill="#05415f" fill-opacity="1"><g transform="translate(232.984996, 199.993295)"><g><path d="M 5.453125 0 L 3.578125 0 L 3.578125 -9.8125 L 0.234375 -9.8125 L 0.234375 -11.40625 L 8.78125 -11.40625 L 8.78125 -9.8125 L 5.453125 -9.8125 Z M 5.453125 0 "/></g></g></g><g fill="#05415f" fill-opacity="1"><g transform="translate(242.004068, 199.993295)"><g><path d="M 5.6875 -8.796875 C 5.832031 -8.796875 5.988281 -8.785156 6.15625 -8.765625 C 6.332031 -8.753906 6.484375 -8.734375 6.609375 -8.703125 L 6.4375 -7 C 6.320312 -7.03125 6.1875 -7.050781 6.03125 -7.0625 C 5.875 -7.082031 5.734375 -7.09375 5.609375 -7.09375 C 5.273438 -7.09375 4.957031 -7.035156 4.65625 -6.921875 C 4.363281 -6.816406 4.101562 -6.65625 3.875 -6.4375 C 3.65625 -6.226562 3.476562 -5.960938 3.34375 -5.640625 C 3.21875 -5.316406 3.15625 -4.941406 3.15625 -4.515625 L 3.15625 0 L 1.3125 0 L 1.3125 -8.625 L 2.75 -8.625 L 3 -7.109375 L 3.078125 -7.109375 C 3.253906 -7.421875 3.46875 -7.703125 3.71875 -7.953125 C 3.96875 -8.203125 4.257812 -8.40625 4.59375 -8.5625 C 4.925781 -8.71875 5.289062 -8.796875 5.6875 -8.796875 Z M 5.6875 -8.796875 "/></g></g></g><g fill="#05415f" fill-opacity="1"><g transform="translate(248.89504, 199.993295)"><g><path d="M 4.6875 -8.796875 C 5.78125 -8.796875 6.601562 -8.550781 7.15625 -8.0625 C 7.71875 -7.582031 8 -6.832031 8 -5.8125 L 8 0 L 6.703125 0 L 6.359375 -1.21875 L 6.296875 -1.21875 C 6.046875 -0.90625 5.789062 -0.644531 5.53125 -0.4375 C 5.269531 -0.238281 4.96875 -0.09375 4.625 0 C 4.289062 0.101562 3.878906 0.15625 3.390625 0.15625 C 2.878906 0.15625 2.421875 0.0625 2.015625 -0.125 C 1.609375 -0.3125 1.285156 -0.597656 1.046875 -0.984375 C 0.816406 -1.378906 0.703125 -1.878906 0.703125 -2.484375 C 0.703125 -3.367188 1.03125 -4.035156 1.6875 -4.484375 C 2.351562 -4.929688 3.359375 -5.175781 4.703125 -5.21875 L 6.203125 -5.28125 L 6.203125 -5.734375 C 6.203125 -6.328125 6.0625 -6.75 5.78125 -7 C 5.5 -7.257812 5.109375 -7.390625 4.609375 -7.390625 C 4.179688 -7.390625 3.765625 -7.328125 3.359375 -7.203125 C 2.953125 -7.078125 2.554688 -6.925781 2.171875 -6.75 L 1.578125 -8.03125 C 1.992188 -8.257812 2.472656 -8.441406 3.015625 -8.578125 C 3.554688 -8.722656 4.113281 -8.796875 4.6875 -8.796875 Z M 6.1875 -4.125 L 5.078125 -4.078125 C 4.160156 -4.046875 3.515625 -3.890625 3.140625 -3.609375 C 2.773438 -3.335938 2.59375 -2.957031 2.59375 -2.46875 C 2.59375 -2.039062 2.71875 -1.726562 2.96875 -1.53125 C 3.226562 -1.332031 3.566406 -1.234375 3.984375 -1.234375 C 4.617188 -1.234375 5.144531 -1.414062 5.5625 -1.78125 C 5.976562 -2.144531 6.1875 -2.675781 6.1875 -3.375 Z M 6.1875 -4.125 "/></g></g></g><g fill="#05415f" fill-opacity="1"><g transform="translate(258.155758, 199.993295)"><g><path d="M 5.8125 -8.796875 C 6.78125 -8.796875 7.535156 -8.546875 8.078125 -8.046875 C 8.617188 -7.546875 8.890625 -6.738281 8.890625 -5.625 L 8.890625 0 L 7.0625 0 L 7.0625 -5.28125 C 7.0625 -5.957031 6.921875 -6.460938 6.640625 -6.796875 C 6.367188 -7.128906 5.945312 -7.296875 5.375 -7.296875 C 4.53125 -7.296875 3.945312 -7.035156 3.625 -6.515625 C 3.300781 -6.003906 3.140625 -5.257812 3.140625 -4.28125 L 3.140625 0 L 1.3125 0 L 1.3125 -8.625 L 2.734375 -8.625 L 3 -7.46875 L 3.09375 -7.46875 C 3.28125 -7.769531 3.507812 -8.015625 3.78125 -8.203125 C 4.0625 -8.398438 4.375 -8.546875 4.71875 -8.640625 C 5.070312 -8.742188 5.4375 -8.796875 5.8125 -8.796875 Z M 5.8125 -8.796875 "/></g></g></g><g fill="#05415f" fill-opacity="1"><g transform="translate(268.297329, 199.993295)"><g><path d="M 7.109375 -2.46875 C 7.109375 -1.894531 6.96875 -1.410156 6.6875 -1.015625 C 6.414062 -0.628906 6.015625 -0.335938 5.484375 -0.140625 C 4.960938 0.0546875 4.320312 0.15625 3.5625 0.15625 C 2.957031 0.15625 2.4375 0.113281 2 0.03125 C 1.5625 -0.0507812 1.148438 -0.179688 0.765625 -0.359375 L 0.765625 -1.953125 C 1.179688 -1.753906 1.644531 -1.582031 2.15625 -1.4375 C 2.664062 -1.300781 3.148438 -1.234375 3.609375 -1.234375 C 4.210938 -1.234375 4.644531 -1.328125 4.90625 -1.515625 C 5.175781 -1.710938 5.3125 -1.96875 5.3125 -2.28125 C 5.3125 -2.46875 5.253906 -2.632812 5.140625 -2.78125 C 5.035156 -2.9375 4.835938 -3.09375 4.546875 -3.25 C 4.265625 -3.40625 3.847656 -3.597656 3.296875 -3.828125 C 2.742188 -4.035156 2.28125 -4.25 1.90625 -4.46875 C 1.53125 -4.6875 1.242188 -4.953125 1.046875 -5.265625 C 0.859375 -5.578125 0.765625 -5.972656 0.765625 -6.453125 C 0.765625 -7.222656 1.066406 -7.804688 1.671875 -8.203125 C 2.285156 -8.597656 3.085938 -8.796875 4.078125 -8.796875 C 4.609375 -8.796875 5.109375 -8.738281 5.578125 -8.625 C 6.054688 -8.519531 6.519531 -8.367188 6.96875 -8.171875 L 6.390625 -6.796875 C 6.003906 -6.960938 5.613281 -7.101562 5.21875 -7.21875 C 4.820312 -7.332031 4.421875 -7.390625 4.015625 -7.390625 C 3.546875 -7.390625 3.1875 -7.316406 2.9375 -7.171875 C 2.695312 -7.023438 2.578125 -6.816406 2.578125 -6.546875 C 2.578125 -6.335938 2.632812 -6.160156 2.75 -6.015625 C 2.875 -5.878906 3.082031 -5.738281 3.375 -5.59375 C 3.664062 -5.457031 4.070312 -5.285156 4.59375 -5.078125 C 5.113281 -4.878906 5.5625 -4.671875 5.9375 -4.453125 C 6.3125 -4.242188 6.597656 -3.984375 6.796875 -3.671875 C 7.003906 -3.359375 7.109375 -2.957031 7.109375 -2.46875 Z M 7.109375 -2.46875 "/></g></g></g><g fill="#05415f" fill-opacity="1"><g transform="translate(276.069155, 199.993295)"><g><path d="M 5.625 -7.234375 L 3.53125 -7.234375 L 3.53125 0 L 1.6875 0 L 1.6875 -7.234375 L 0.28125 -7.234375 L 0.28125 -8.109375 L 1.6875 -8.65625 L 1.6875 -9.25 C 1.6875 -9.988281 1.800781 -10.570312 2.03125 -11 C 2.269531 -11.4375 2.601562 -11.75 3.03125 -11.9375 C 3.46875 -12.125 3.988281 -12.21875 4.59375 -12.21875 C 4.988281 -12.21875 5.347656 -12.179688 5.671875 -12.109375 C 6.003906 -12.046875 6.28125 -11.976562 6.5 -11.90625 L 6.03125 -10.515625 C 5.851562 -10.566406 5.65625 -10.617188 5.4375 -10.671875 C 5.21875 -10.722656 4.984375 -10.75 4.734375 -10.75 C 4.316406 -10.75 4.007812 -10.617188 3.8125 -10.359375 C 3.625 -10.097656 3.53125 -9.71875 3.53125 -9.21875 L 3.53125 -8.625 L 5.625 -8.625 Z M 5.625 -7.234375 "/></g></g></g><g fill="#05415f" fill-opacity="1"><g transform="translate(281.845405, 199.993295)"><g><path d="M 8.953125 -4.328125 C 8.953125 -3.617188 8.859375 -2.984375 8.671875 -2.421875 C 8.484375 -1.867188 8.207031 -1.398438 7.84375 -1.015625 C 7.488281 -0.628906 7.054688 -0.335938 6.546875 -0.140625 C 6.046875 0.0546875 5.476562 0.15625 4.84375 0.15625 C 4.257812 0.15625 3.71875 0.0546875 3.21875 -0.140625 C 2.726562 -0.335938 2.300781 -0.628906 1.9375 -1.015625 C 1.570312 -1.398438 1.289062 -1.867188 1.09375 -2.421875 C 0.894531 -2.984375 0.796875 -3.617188 0.796875 -4.328125 C 0.796875 -5.285156 0.960938 -6.09375 1.296875 -6.75 C 1.628906 -7.414062 2.101562 -7.921875 2.71875 -8.265625 C 3.332031 -8.617188 4.0625 -8.796875 4.90625 -8.796875 C 5.695312 -8.796875 6.394531 -8.617188 7 -8.265625 C 7.613281 -7.921875 8.09375 -7.414062 8.4375 -6.75 C 8.78125 -6.082031 8.953125 -5.273438 8.953125 -4.328125 Z M 2.6875 -4.328125 C 2.6875 -3.703125 2.765625 -3.164062 2.921875 -2.71875 C 3.078125 -2.269531 3.3125 -1.925781 3.625 -1.6875 C 3.945312 -1.457031 4.363281 -1.34375 4.875 -1.34375 C 5.382812 -1.34375 5.800781 -1.457031 6.125 -1.6875 C 6.445312 -1.925781 6.679688 -2.269531 6.828125 -2.71875 C 6.984375 -3.164062 7.0625 -3.703125 7.0625 -4.328125 C 7.0625 -4.960938 6.984375 -5.5 6.828125 -5.9375 C 6.679688 -6.375 6.445312 -6.707031 6.125 -6.9375 C 5.800781 -7.175781 5.382812 -7.296875 4.875 -7.296875 C 4.113281 -7.296875 3.554688 -7.039062 3.203125 -6.53125 C 2.859375 -6.019531 2.6875 -5.285156 2.6875 -4.328125 Z M 2.6875 -4.328125 "/></g></g></g><g fill="#05415f" fill-opacity="1"><g transform="translate(291.589415, 199.993295)"><g><path d="M 5.6875 -8.796875 C 5.832031 -8.796875 5.988281 -8.785156 6.15625 -8.765625 C 6.332031 -8.753906 6.484375 -8.734375 6.609375 -8.703125 L 6.4375 -7 C 6.320312 -7.03125 6.1875 -7.050781 6.03125 -7.0625 C 5.875 -7.082031 5.734375 -7.09375 5.609375 -7.09375 C 5.273438 -7.09375 4.957031 -7.035156 4.65625 -6.921875 C 4.363281 -6.816406 4.101562 -6.65625 3.875 -6.4375 C 3.65625 -6.226562 3.476562 -5.960938 3.34375 -5.640625 C 3.21875 -5.316406 3.15625 -4.941406 3.15625 -4.515625 L 3.15625 0 L 1.3125 0 L 1.3125 -8.625 L 2.75 -8.625 L 3 -7.109375 L 3.078125 -7.109375 C 3.253906 -7.421875 3.46875 -7.703125 3.71875 -7.953125 C 3.96875 -8.203125 4.257812 -8.40625 4.59375 -8.5625 C 4.925781 -8.71875 5.289062 -8.796875 5.6875 -8.796875 Z M 5.6875 -8.796875 "/></g></g></g><g fill="#05415f" fill-opacity="1"><g transform="translate(298.480387, 199.993295)"><g><path d="M 11.0625 -8.796875 C 12.03125 -8.796875 12.757812 -8.546875 13.25 -8.046875 C 13.738281 -7.546875 13.984375 -6.742188 13.984375 -5.640625 L 13.984375 0 L 12.15625 0 L 12.15625 -5.3125 C 12.15625 -5.96875 12.023438 -6.460938 11.765625 -6.796875 C 11.515625 -7.128906 11.128906 -7.296875 10.609375 -7.296875 C 9.878906 -7.296875 9.351562 -7.0625 9.03125 -6.59375 C 8.71875 -6.132812 8.5625 -5.460938 8.5625 -4.578125 L 8.5625 0 L 6.734375 0 L 6.734375 -5.3125 C 6.734375 -5.75 6.675781 -6.113281 6.5625 -6.40625 C 6.445312 -6.707031 6.273438 -6.929688 6.046875 -7.078125 C 5.816406 -7.222656 5.53125 -7.296875 5.1875 -7.296875 C 4.675781 -7.296875 4.269531 -7.179688 3.96875 -6.953125 C 3.675781 -6.722656 3.460938 -6.382812 3.328125 -5.9375 C 3.203125 -5.5 3.140625 -4.957031 3.140625 -4.3125 L 3.140625 0 L 1.3125 0 L 1.3125 -8.625 L 2.734375 -8.625 L 3 -7.46875 L 3.09375 -7.46875 C 3.269531 -7.769531 3.488281 -8.015625 3.75 -8.203125 C 4.007812 -8.398438 4.300781 -8.546875 4.625 -8.640625 C 4.945312 -8.742188 5.285156 -8.796875 5.640625 -8.796875 C 6.285156 -8.796875 6.828125 -8.679688 7.265625 -8.453125 C 7.710938 -8.222656 8.039062 -7.878906 8.25 -7.421875 L 8.390625 -7.421875 C 8.660156 -7.890625 9.035156 -8.234375 9.515625 -8.453125 C 10.003906 -8.679688 10.519531 -8.796875 11.0625 -8.796875 Z M 11.0625 -8.796875 "/></g></g></g><g fill="#05415f" fill-opacity="1"><g transform="translate(313.712253, 199.993295)"><g><path d="M 4.6875 -8.796875 C 5.78125 -8.796875 6.601562 -8.550781 7.15625 -8.0625 C 7.71875 -7.582031 8 -6.832031 8 -5.8125 L 8 0 L 6.703125 0 L 6.359375 -1.21875 L 6.296875 -1.21875 C 6.046875 -0.90625 5.789062 -0.644531 5.53125 -0.4375 C 5.269531 -0.238281 4.96875 -0.09375 4.625 0 C 4.289062 0.101562 3.878906 0.15625 3.390625 0.15625 C 2.878906 0.15625 2.421875 0.0625 2.015625 -0.125 C 1.609375 -0.3125 1.285156 -0.597656 1.046875 -0.984375 C 0.816406 -1.378906 0.703125 -1.878906 0.703125 -2.484375 C 0.703125 -3.367188 1.03125 -4.035156 1.6875 -4.484375 C 2.351562 -4.929688 3.359375 -5.175781 4.703125 -5.21875 L 6.203125 -5.28125 L 6.203125 -5.734375 C 6.203125 -6.328125 6.0625 -6.75 5.78125 -7 C 5.5 -7.257812 5.109375 -7.390625 4.609375 -7.390625 C 4.179688 -7.390625 3.765625 -7.328125 3.359375 -7.203125 C 2.953125 -7.078125 2.554688 -6.925781 2.171875 -6.75 L 1.578125 -8.03125 C 1.992188 -8.257812 2.472656 -8.441406 3.015625 -8.578125 C 3.554688 -8.722656 4.113281 -8.796875 4.6875 -8.796875 Z M 6.1875 -4.125 L 5.078125 -4.078125 C 4.160156 -4.046875 3.515625 -3.890625 3.140625 -3.609375 C 2.773438 -3.335938 2.59375 -2.957031 2.59375 -2.46875 C 2.59375 -2.039062 2.71875 -1.726562 2.96875 -1.53125 C 3.226562 -1.332031 3.566406 -1.234375 3.984375 -1.234375 C 4.617188 -1.234375 5.144531 -1.414062 5.5625 -1.78125 C 5.976562 -2.144531 6.1875 -2.675781 6.1875 -3.375 Z M 6.1875 -4.125 "/></g></g></g><g fill="#05415f" fill-opacity="1"><g transform="translate(322.972971, 199.993295)"><g><path d="M 4.515625 -1.328125 C 4.753906 -1.328125 4.988281 -1.347656 5.21875 -1.390625 C 5.457031 -1.429688 5.675781 -1.484375 5.875 -1.546875 L 5.875 -0.15625 C 5.664062 -0.0703125 5.398438 0 5.078125 0.0625 C 4.753906 0.125 4.421875 0.15625 4.078125 0.15625 C 3.585938 0.15625 3.144531 0.078125 2.75 -0.078125 C 2.363281 -0.242188 2.054688 -0.523438 1.828125 -0.921875 C 1.597656 -1.328125 1.484375 -1.882812 1.484375 -2.59375 L 1.484375 -7.234375 L 0.3125 -7.234375 L 0.3125 -8.046875 L 1.578125 -8.703125 L 2.171875 -10.546875 L 3.328125 -10.546875 L 3.328125 -8.625 L 5.796875 -8.625 L 5.796875 -7.234375 L 3.328125 -7.234375 L 3.328125 -2.625 C 3.328125 -2.1875 3.4375 -1.859375 3.65625 -1.640625 C 3.875 -1.429688 4.160156 -1.328125 4.515625 -1.328125 Z M 4.515625 -1.328125 "/></g></g></g><g fill="#05415f" fill-opacity="1"><g transform="translate(329.287108, 199.993295)"><g><path d="M 3.140625 -8.625 L 3.140625 0 L 1.3125 0 L 1.3125 -8.625 Z M 2.234375 -11.9375 C 2.515625 -11.9375 2.757812 -11.859375 2.96875 -11.703125 C 3.175781 -11.554688 3.28125 -11.300781 3.28125 -10.9375 C 3.28125 -10.570312 3.175781 -10.3125 2.96875 -10.15625 C 2.757812 -10 2.515625 -9.921875 2.234375 -9.921875 C 1.941406 -9.921875 1.695312 -10 1.5 -10.15625 C 1.300781 -10.3125 1.203125 -10.570312 1.203125 -10.9375 C 1.203125 -11.300781 1.300781 -11.554688 1.5 -11.703125 C 1.695312 -11.859375 1.941406 -11.9375 2.234375 -11.9375 Z M 2.234375 -11.9375 "/></g></g></g><g fill="#05415f" fill-opacity="1"><g transform="translate(333.738183, 199.993295)"><g><path d="M 3.28125 0 L 0 -8.625 L 1.9375 -8.625 L 3.71875 -3.5625 C 3.832031 -3.238281 3.9375 -2.890625 4.03125 -2.515625 C 4.125 -2.140625 4.1875 -1.828125 4.21875 -1.578125 L 4.28125 -1.578125 C 4.320312 -1.835938 4.394531 -2.15625 4.5 -2.53125 C 4.601562 -2.90625 4.707031 -3.25 4.8125 -3.5625 L 6.59375 -8.625 L 8.53125 -8.625 L 5.25 0 Z M 3.28125 0 "/></g></g></g><g fill="#05415f" fill-opacity="1"><g transform="translate(342.266161, 199.993295)"><g><path d="M 4.75 -8.796875 C 5.519531 -8.796875 6.179688 -8.632812 6.734375 -8.3125 C 7.285156 -8 7.707031 -7.550781 8 -6.96875 C 8.289062 -6.382812 8.4375 -5.6875 8.4375 -4.875 L 8.4375 -3.90625 L 2.6875 -3.90625 C 2.707031 -3.0625 2.929688 -2.410156 3.359375 -1.953125 C 3.785156 -1.503906 4.382812 -1.28125 5.15625 -1.28125 C 5.707031 -1.28125 6.203125 -1.332031 6.640625 -1.4375 C 7.085938 -1.550781 7.539062 -1.710938 8 -1.921875 L 8 -0.421875 C 7.570312 -0.222656 7.132812 -0.078125 6.6875 0.015625 C 6.238281 0.109375 5.703125 0.15625 5.078125 0.15625 C 4.234375 0.15625 3.488281 -0.00390625 2.84375 -0.328125 C 2.207031 -0.660156 1.707031 -1.15625 1.34375 -1.8125 C 0.976562 -2.46875 0.796875 -3.28125 0.796875 -4.25 C 0.796875 -5.21875 0.957031 -6.039062 1.28125 -6.71875 C 1.613281 -7.394531 2.078125 -7.910156 2.671875 -8.265625 C 3.265625 -8.617188 3.957031 -8.796875 4.75 -8.796875 Z M 4.75 -7.421875 C 4.175781 -7.421875 3.707031 -7.234375 3.34375 -6.859375 C 2.988281 -6.484375 2.78125 -5.929688 2.71875 -5.203125 L 6.65625 -5.203125 C 6.644531 -5.640625 6.570312 -6.023438 6.4375 -6.359375 C 6.300781 -6.691406 6.09375 -6.953125 5.8125 -7.140625 C 5.53125 -7.328125 5.175781 -7.421875 4.75 -7.421875 Z M 4.75 -7.421875 "/></g></g></g><g fill="#05415f" fill-opacity="1"><g transform="translate(351.464518, 199.993295)"><g><path d="M 1.046875 -0.96875 C 1.046875 -1.394531 1.15625 -1.691406 1.375 -1.859375 C 1.59375 -2.035156 1.863281 -2.125 2.1875 -2.125 C 2.5 -2.125 2.769531 -2.035156 3 -1.859375 C 3.226562 -1.691406 3.34375 -1.394531 3.34375 -0.96875 C 3.34375 -0.550781 3.226562 -0.25 3 -0.0625 C 2.769531 0.113281 2.5 0.203125 2.1875 0.203125 C 1.863281 0.203125 1.59375 0.113281 1.375 -0.0625 C 1.15625 -0.25 1.046875 -0.550781 1.046875 -0.96875 Z M 1.046875 -0.96875 "/></g></g></g><g fill="#05415f" fill-opacity="1"><g transform="translate(40.806695, 221.700479)"><g><path d="M 7.90625 0 L 1.5625 0 L 1.5625 -11.40625 L 7.90625 -11.40625 L 7.90625 -10.234375 L 2.890625 -10.234375 L 2.890625 -6.546875 L 7.625 -6.546875 L 7.625 -5.390625 L 2.890625 -5.390625 L 2.890625 -1.171875 L 7.90625 -1.171875 Z M 7.90625 0 "/></g></g></g><g fill="#05415f" fill-opacity="1"><g transform="translate(49.677652, 221.700479)"><g><path d="M 3.40625 -4.375 L 0.4375 -8.546875 L 1.921875 -8.546875 L 4.171875 -5.25 L 6.421875 -8.546875 L 7.890625 -8.546875 L 4.9375 -4.375 L 8.046875 0 L 6.578125 0 L 4.171875 -3.484375 L 1.765625 0 L 0.296875 0 Z M 3.40625 -4.375 "/></g></g></g><g fill="#05415f" fill-opacity="1"><g transform="translate(58.034124, 221.700479)"><g><path d="M 5.375 -8.703125 C 6.445312 -8.703125 7.296875 -8.332031 7.921875 -7.59375 C 8.554688 -6.863281 8.875 -5.765625 8.875 -4.296875 C 8.875 -3.328125 8.726562 -2.507812 8.4375 -1.84375 C 8.144531 -1.1875 7.734375 -0.6875 7.203125 -0.34375 C 6.679688 -0.0078125 6.0625 0.15625 5.34375 0.15625 C 4.894531 0.15625 4.5 0.0976562 4.15625 -0.015625 C 3.8125 -0.140625 3.515625 -0.300781 3.265625 -0.5 C 3.023438 -0.707031 2.828125 -0.929688 2.671875 -1.171875 L 2.578125 -1.171875 C 2.585938 -0.960938 2.601562 -0.710938 2.625 -0.421875 C 2.65625 -0.140625 2.671875 0.101562 2.671875 0.3125 L 2.671875 3.828125 L 1.359375 3.828125 L 1.359375 -8.546875 L 2.4375 -8.546875 L 2.609375 -7.28125 L 2.671875 -7.28125 C 2.835938 -7.539062 3.039062 -7.773438 3.28125 -7.984375 C 3.519531 -8.203125 3.8125 -8.375 4.15625 -8.5 C 4.5 -8.632812 4.90625 -8.703125 5.375 -8.703125 Z M 5.15625 -7.609375 C 4.5625 -7.609375 4.082031 -7.492188 3.71875 -7.265625 C 3.363281 -7.035156 3.101562 -6.691406 2.9375 -6.234375 C 2.769531 -5.785156 2.679688 -5.21875 2.671875 -4.53125 L 2.671875 -4.28125 C 2.671875 -3.5625 2.75 -2.953125 2.90625 -2.453125 C 3.0625 -1.953125 3.320312 -1.570312 3.6875 -1.3125 C 4.050781 -1.050781 4.546875 -0.921875 5.171875 -0.921875 C 5.703125 -0.921875 6.144531 -1.0625 6.5 -1.34375 C 6.851562 -1.632812 7.113281 -2.035156 7.28125 -2.546875 C 7.457031 -3.054688 7.546875 -3.644531 7.546875 -4.3125 C 7.546875 -5.320312 7.347656 -6.125 6.953125 -6.71875 C 6.566406 -7.3125 5.96875 -7.609375 5.15625 -7.609375 Z M 5.15625 -7.609375 "/></g></g></g><g fill="#05415f" fill-opacity="1"><g transform="translate(67.801537, 221.700479)"><g><path d="M 4.65625 -8.703125 C 5.382812 -8.703125 6.007812 -8.539062 6.53125 -8.21875 C 7.050781 -7.894531 7.445312 -7.441406 7.71875 -6.859375 C 7.988281 -6.285156 8.125 -5.609375 8.125 -4.828125 L 8.125 -4.03125 L 2.234375 -4.03125 C 2.242188 -3.03125 2.488281 -2.265625 2.96875 -1.734375 C 3.457031 -1.210938 4.140625 -0.953125 5.015625 -0.953125 C 5.554688 -0.953125 6.035156 -1 6.453125 -1.09375 C 6.867188 -1.195312 7.300781 -1.34375 7.75 -1.53125 L 7.75 -0.390625 C 7.320312 -0.203125 6.894531 -0.0664062 6.46875 0.015625 C 6.039062 0.109375 5.539062 0.15625 4.96875 0.15625 C 4.144531 0.15625 3.425781 -0.0078125 2.8125 -0.34375 C 2.207031 -0.675781 1.734375 -1.164062 1.390625 -1.8125 C 1.054688 -2.46875 0.890625 -3.265625 0.890625 -4.203125 C 0.890625 -5.128906 1.039062 -5.925781 1.34375 -6.59375 C 1.65625 -7.269531 2.09375 -7.789062 2.65625 -8.15625 C 3.226562 -8.519531 3.894531 -8.703125 4.65625 -8.703125 Z M 4.640625 -7.640625 C 3.953125 -7.640625 3.398438 -7.410156 2.984375 -6.953125 C 2.578125 -6.503906 2.332031 -5.875 2.25 -5.0625 L 6.78125 -5.0625 C 6.769531 -5.570312 6.6875 -6.019531 6.53125 -6.40625 C 6.382812 -6.800781 6.15625 -7.101562 5.84375 -7.3125 C 5.53125 -7.53125 5.128906 -7.640625 4.640625 -7.640625 Z M 4.640625 -7.640625 "/></g></g></g><g fill="#05415f" fill-opacity="1"><g transform="translate(76.766037, 221.700479)"><g><path d="M 5.25 -8.703125 C 5.414062 -8.703125 5.59375 -8.691406 5.78125 -8.671875 C 5.96875 -8.648438 6.132812 -8.625 6.28125 -8.59375 L 6.125 -7.40625 C 5.976562 -7.4375 5.816406 -7.460938 5.640625 -7.484375 C 5.472656 -7.503906 5.316406 -7.515625 5.171875 -7.515625 C 4.828125 -7.515625 4.503906 -7.445312 4.203125 -7.3125 C 3.898438 -7.175781 3.632812 -6.976562 3.40625 -6.71875 C 3.175781 -6.457031 2.992188 -6.144531 2.859375 -5.78125 C 2.734375 -5.425781 2.671875 -5.023438 2.671875 -4.578125 L 2.671875 0 L 1.359375 0 L 1.359375 -8.546875 L 2.4375 -8.546875 L 2.578125 -6.96875 L 2.640625 -6.96875 C 2.816406 -7.289062 3.03125 -7.582031 3.28125 -7.84375 C 3.53125 -8.101562 3.816406 -8.3125 4.140625 -8.46875 C 4.472656 -8.625 4.84375 -8.703125 5.25 -8.703125 Z M 5.25 -8.703125 "/></g></g></g><g fill="#05415f" fill-opacity="1"><g transform="translate(83.290639, 221.700479)"><g><path d="M 2.65625 -8.546875 L 2.65625 0 L 1.359375 0 L 1.359375 -8.546875 Z M 2.03125 -11.75 C 2.238281 -11.75 2.421875 -11.675781 2.578125 -11.53125 C 2.734375 -11.394531 2.8125 -11.179688 2.8125 -10.890625 C 2.8125 -10.609375 2.734375 -10.394531 2.578125 -10.25 C 2.421875 -10.113281 2.238281 -10.046875 2.03125 -10.046875 C 1.800781 -10.046875 1.613281 -10.113281 1.46875 -10.25 C 1.320312 -10.394531 1.25 -10.609375 1.25 -10.890625 C 1.25 -11.179688 1.320312 -11.394531 1.46875 -11.53125 C 1.613281 -11.675781 1.800781 -11.75 2.03125 -11.75 Z M 2.03125 -11.75 "/></g></g></g><g fill="#05415f" fill-opacity="1"><g transform="translate(87.320772, 221.700479)"><g><path d="M 4.65625 -8.703125 C 5.382812 -8.703125 6.007812 -8.539062 6.53125 -8.21875 C 7.050781 -7.894531 7.445312 -7.441406 7.71875 -6.859375 C 7.988281 -6.285156 8.125 -5.609375 8.125 -4.828125 L 8.125 -4.03125 L 2.234375 -4.03125 C 2.242188 -3.03125 2.488281 -2.265625 2.96875 -1.734375 C 3.457031 -1.210938 4.140625 -0.953125 5.015625 -0.953125 C 5.554688 -0.953125 6.035156 -1 6.453125 -1.09375 C 6.867188 -1.195312 7.300781 -1.34375 7.75 -1.53125 L 7.75 -0.390625 C 7.320312 -0.203125 6.894531 -0.0664062 6.46875 0.015625 C 6.039062 0.109375 5.539062 0.15625 4.96875 0.15625 C 4.144531 0.15625 3.425781 -0.0078125 2.8125 -0.34375 C 2.207031 -0.675781 1.734375 -1.164062 1.390625 -1.8125 C 1.054688 -2.46875 0.890625 -3.265625 0.890625 -4.203125 C 0.890625 -5.128906 1.039062 -5.925781 1.34375 -6.59375 C 1.65625 -7.269531 2.09375 -7.789062 2.65625 -8.15625 C 3.226562 -8.519531 3.894531 -8.703125 4.65625 -8.703125 Z M 4.640625 -7.640625 C 3.953125 -7.640625 3.398438 -7.410156 2.984375 -6.953125 C 2.578125 -6.503906 2.332031 -5.875 2.25 -5.0625 L 6.78125 -5.0625 C 6.769531 -5.570312 6.6875 -6.019531 6.53125 -6.40625 C 6.382812 -6.800781 6.15625 -7.101562 5.84375 -7.3125 C 5.53125 -7.53125 5.128906 -7.640625 4.640625 -7.640625 Z M 4.640625 -7.640625 "/></g></g></g><g fill="#05415f" fill-opacity="1"><g transform="translate(96.285272, 221.700479)"><g><path d="M 5.40625 -8.703125 C 6.425781 -8.703125 7.191406 -8.453125 7.703125 -7.953125 C 8.222656 -7.460938 8.484375 -6.664062 8.484375 -5.5625 L 8.484375 0 L 7.21875 0 L 7.21875 -5.484375 C 7.21875 -6.191406 7.050781 -6.722656 6.71875 -7.078125 C 6.394531 -7.429688 5.898438 -7.609375 5.234375 -7.609375 C 4.285156 -7.609375 3.617188 -7.335938 3.234375 -6.796875 C 2.847656 -6.265625 2.65625 -5.488281 2.65625 -4.46875 L 2.65625 0 L 1.359375 0 L 1.359375 -8.546875 L 2.40625 -8.546875 L 2.609375 -7.3125 L 2.671875 -7.3125 C 2.859375 -7.613281 3.09375 -7.863281 3.375 -8.0625 C 3.65625 -8.269531 3.96875 -8.425781 4.3125 -8.53125 C 4.65625 -8.644531 5.019531 -8.703125 5.40625 -8.703125 Z M 5.40625 -8.703125 "/></g></g></g><g fill="#05415f" fill-opacity="1"><g transform="translate(106.076064, 221.700479)"><g><path d="M 4.78125 0.15625 C 4.019531 0.15625 3.34375 0 2.75 -0.3125 C 2.164062 -0.632812 1.707031 -1.117188 1.375 -1.765625 C 1.050781 -2.421875 0.890625 -3.238281 0.890625 -4.21875 C 0.890625 -5.257812 1.0625 -6.109375 1.40625 -6.765625 C 1.75 -7.421875 2.222656 -7.90625 2.828125 -8.21875 C 3.441406 -8.539062 4.132812 -8.703125 4.90625 -8.703125 C 5.332031 -8.703125 5.742188 -8.65625 6.140625 -8.5625 C 6.546875 -8.476562 6.875 -8.375 7.125 -8.25 L 6.734375 -7.171875 C 6.472656 -7.273438 6.171875 -7.367188 5.828125 -7.453125 C 5.492188 -7.535156 5.175781 -7.578125 4.875 -7.578125 C 4.289062 -7.578125 3.800781 -7.445312 3.40625 -7.1875 C 3.007812 -6.9375 2.710938 -6.5625 2.515625 -6.0625 C 2.328125 -5.570312 2.234375 -4.960938 2.234375 -4.234375 C 2.234375 -3.546875 2.328125 -2.957031 2.515625 -2.46875 C 2.703125 -1.976562 2.984375 -1.601562 3.359375 -1.34375 C 3.742188 -1.09375 4.21875 -0.96875 4.78125 -0.96875 C 5.226562 -0.96875 5.632812 -1.015625 6 -1.109375 C 6.363281 -1.203125 6.695312 -1.316406 7 -1.453125 L 7 -0.296875 C 6.707031 -0.148438 6.382812 -0.0390625 6.03125 0.03125 C 5.6875 0.113281 5.269531 0.15625 4.78125 0.15625 Z M 4.78125 0.15625 "/></g></g></g><g fill="#05415f" fill-opacity="1"><g transform="translate(113.723178, 221.700479)"><g><path d="M 4.65625 -8.703125 C 5.382812 -8.703125 6.007812 -8.539062 6.53125 -8.21875 C 7.050781 -7.894531 7.445312 -7.441406 7.71875 -6.859375 C 7.988281 -6.285156 8.125 -5.609375 8.125 -4.828125 L 8.125 -4.03125 L 2.234375 -4.03125 C 2.242188 -3.03125 2.488281 -2.265625 2.96875 -1.734375 C 3.457031 -1.210938 4.140625 -0.953125 5.015625 -0.953125 C 5.554688 -0.953125 6.035156 -1 6.453125 -1.09375 C 6.867188 -1.195312 7.300781 -1.34375 7.75 -1.53125 L 7.75 -0.390625 C 7.320312 -0.203125 6.894531 -0.0664062 6.46875 0.015625 C 6.039062 0.109375 5.539062 0.15625 4.96875 0.15625 C 4.144531 0.15625 3.425781 -0.0078125 2.8125 -0.34375 C 2.207031 -0.675781 1.734375 -1.164062 1.390625 -1.8125 C 1.054688 -2.46875 0.890625 -3.265625 0.890625 -4.203125 C 0.890625 -5.128906 1.039062 -5.925781 1.34375 -6.59375 C 1.65625 -7.269531 2.09375 -7.789062 2.65625 -8.15625 C 3.226562 -8.519531 3.894531 -8.703125 4.65625 -8.703125 Z M 4.640625 -7.640625 C 3.953125 -7.640625 3.398438 -7.410156 2.984375 -6.953125 C 2.578125 -6.503906 2.332031 -5.875 2.25 -5.0625 L 6.78125 -5.0625 C 6.769531 -5.570312 6.6875 -6.019531 6.53125 -6.40625 C 6.382812 -6.800781 6.15625 -7.101562 5.84375 -7.3125 C 5.53125 -7.53125 5.128906 -7.640625 4.640625 -7.640625 Z M 4.640625 -7.640625 "/></g></g></g><g fill="#05415f" fill-opacity="1"><g transform="translate(122.687678, 221.700479)"><g/></g></g><g fill="#05415f" fill-opacity="1"><g transform="translate(126.834733, 221.700479)"><g><path d="M 4.125 -0.90625 C 4.332031 -0.90625 4.546875 -0.921875 4.765625 -0.953125 C 4.992188 -0.992188 5.179688 -1.039062 5.328125 -1.09375 L 5.328125 -0.078125 C 5.171875 -0.015625 4.957031 0.0351562 4.6875 0.078125 C 4.425781 0.128906 4.171875 0.15625 3.921875 0.15625 C 3.460938 0.15625 3.046875 0.078125 2.671875 -0.078125 C 2.304688 -0.234375 2.015625 -0.5 1.796875 -0.875 C 1.578125 -1.257812 1.46875 -1.789062 1.46875 -2.46875 L 1.46875 -7.53125 L 0.25 -7.53125 L 0.25 -8.15625 L 1.46875 -8.671875 L 1.984375 -10.53125 L 2.765625 -10.53125 L 2.765625 -8.546875 L 5.265625 -8.546875 L 5.265625 -7.53125 L 2.765625 -7.53125 L 2.765625 -2.5 C 2.765625 -1.96875 2.890625 -1.566406 3.140625 -1.296875 C 3.390625 -1.035156 3.71875 -0.90625 4.125 -0.90625 Z M 4.125 -0.90625 "/></g></g></g><g fill="#05415f" fill-opacity="1"><g transform="translate(132.525241, 221.700479)"><g><path d="M 2.65625 -12.125 L 2.65625 -8.5 C 2.65625 -8.289062 2.648438 -8.082031 2.640625 -7.875 C 2.628906 -7.664062 2.613281 -7.472656 2.59375 -7.296875 L 2.671875 -7.296875 C 2.847656 -7.597656 3.070312 -7.847656 3.34375 -8.046875 C 3.625 -8.253906 3.9375 -8.410156 4.28125 -8.515625 C 4.625 -8.628906 4.992188 -8.6875 5.390625 -8.6875 C 6.078125 -8.6875 6.648438 -8.578125 7.109375 -8.359375 C 7.566406 -8.140625 7.910156 -7.800781 8.140625 -7.34375 C 8.367188 -6.882812 8.484375 -6.289062 8.484375 -5.5625 L 8.484375 0 L 7.21875 0 L 7.21875 -5.484375 C 7.21875 -6.191406 7.050781 -6.722656 6.71875 -7.078125 C 6.394531 -7.429688 5.898438 -7.609375 5.234375 -7.609375 C 4.597656 -7.609375 4.09375 -7.488281 3.71875 -7.25 C 3.34375 -7.007812 3.070312 -6.65625 2.90625 -6.1875 C 2.738281 -5.71875 2.65625 -5.144531 2.65625 -4.46875 L 2.65625 0 L 1.359375 0 L 1.359375 -12.125 Z M 2.65625 -12.125 "/></g></g></g><g fill="#05415f" fill-opacity="1"><g transform="translate(142.316034, 221.700479)"><g><path d="M 4.65625 -8.703125 C 5.382812 -8.703125 6.007812 -8.539062 6.53125 -8.21875 C 7.050781 -7.894531 7.445312 -7.441406 7.71875 -6.859375 C 7.988281 -6.285156 8.125 -5.609375 8.125 -4.828125 L 8.125 -4.03125 L 2.234375 -4.03125 C 2.242188 -3.03125 2.488281 -2.265625 2.96875 -1.734375 C 3.457031 -1.210938 4.140625 -0.953125 5.015625 -0.953125 C 5.554688 -0.953125 6.035156 -1 6.453125 -1.09375 C 6.867188 -1.195312 7.300781 -1.34375 7.75 -1.53125 L 7.75 -0.390625 C 7.320312 -0.203125 6.894531 -0.0664062 6.46875 0.015625 C 6.039062 0.109375 5.539062 0.15625 4.96875 0.15625 C 4.144531 0.15625 3.425781 -0.0078125 2.8125 -0.34375 C 2.207031 -0.675781 1.734375 -1.164062 1.390625 -1.8125 C 1.054688 -2.46875 0.890625 -3.265625 0.890625 -4.203125 C 0.890625 -5.128906 1.039062 -5.925781 1.34375 -6.59375 C 1.65625 -7.269531 2.09375 -7.789062 2.65625 -8.15625 C 3.226562 -8.519531 3.894531 -8.703125 4.65625 -8.703125 Z M 4.640625 -7.640625 C 3.953125 -7.640625 3.398438 -7.410156 2.984375 -6.953125 C 2.578125 -6.503906 2.332031 -5.875 2.25 -5.0625 L 6.78125 -5.0625 C 6.769531 -5.570312 6.6875 -6.019531 6.53125 -6.40625 C 6.382812 -6.800781 6.15625 -7.101562 5.84375 -7.3125 C 5.53125 -7.53125 5.128906 -7.640625 4.640625 -7.640625 Z M 4.640625 -7.640625 "/></g></g></g><g fill="#05415f" fill-opacity="1"><g transform="translate(151.280534, 221.700479)"><g/></g></g><g fill="#05415f" fill-opacity="1"><g transform="translate(155.427589, 221.700479)"><g><path d="M 2.890625 0 L 1.5625 0 L 1.5625 -11.40625 L 7.90625 -11.40625 L 7.90625 -10.234375 L 2.890625 -10.234375 L 2.890625 -6.046875 L 7.609375 -6.046875 L 7.609375 -4.890625 L 2.890625 -4.890625 Z M 2.890625 0 "/></g></g></g><g fill="#05415f" fill-opacity="1"><g transform="translate(163.667139, 221.700479)"><g><path d="M 8.421875 -8.546875 L 8.421875 0 L 7.359375 0 L 7.171875 -1.203125 L 7.109375 -1.203125 C 6.929688 -0.898438 6.703125 -0.644531 6.421875 -0.4375 C 6.140625 -0.238281 5.820312 -0.09375 5.46875 0 C 5.113281 0.101562 4.738281 0.15625 4.34375 0.15625 C 3.675781 0.15625 3.113281 0.046875 2.65625 -0.171875 C 2.195312 -0.390625 1.847656 -0.726562 1.609375 -1.1875 C 1.378906 -1.644531 1.265625 -2.234375 1.265625 -2.953125 L 1.265625 -8.546875 L 2.578125 -8.546875 L 2.578125 -3.046875 C 2.578125 -2.328125 2.738281 -1.789062 3.0625 -1.4375 C 3.382812 -1.09375 3.875 -0.921875 4.53125 -0.921875 C 5.164062 -0.921875 5.671875 -1.039062 6.046875 -1.28125 C 6.429688 -1.519531 6.707031 -1.867188 6.875 -2.328125 C 7.039062 -2.796875 7.125 -3.367188 7.125 -4.046875 L 7.125 -8.546875 Z M 8.421875 -8.546875 "/></g></g></g><g fill="#05415f" fill-opacity="1"><g transform="translate(173.457932, 221.700479)"><g><path d="M 4.125 -0.90625 C 4.332031 -0.90625 4.546875 -0.921875 4.765625 -0.953125 C 4.992188 -0.992188 5.179688 -1.039062 5.328125 -1.09375 L 5.328125 -0.078125 C 5.171875 -0.015625 4.957031 0.0351562 4.6875 0.078125 C 4.425781 0.128906 4.171875 0.15625 3.921875 0.15625 C 3.460938 0.15625 3.046875 0.078125 2.671875 -0.078125 C 2.304688 -0.234375 2.015625 -0.5 1.796875 -0.875 C 1.578125 -1.257812 1.46875 -1.789062 1.46875 -2.46875 L 1.46875 -7.53125 L 0.25 -7.53125 L 0.25 -8.15625 L 1.46875 -8.671875 L 1.984375 -10.53125 L 2.765625 -10.53125 L 2.765625 -8.546875 L 5.265625 -8.546875 L 5.265625 -7.53125 L 2.765625 -7.53125 L 2.765625 -2.5 C 2.765625 -1.96875 2.890625 -1.566406 3.140625 -1.296875 C 3.390625 -1.035156 3.71875 -0.90625 4.125 -0.90625 Z M 4.125 -0.90625 "/></g></g></g><g fill="#05415f" fill-opacity="1"><g transform="translate(179.14844, 221.700479)"><g><path d="M 8.421875 -8.546875 L 8.421875 0 L 7.359375 0 L 7.171875 -1.203125 L 7.109375 -1.203125 C 6.929688 -0.898438 6.703125 -0.644531 6.421875 -0.4375 C 6.140625 -0.238281 5.820312 -0.09375 5.46875 0 C 5.113281 0.101562 4.738281 0.15625 4.34375 0.15625 C 3.675781 0.15625 3.113281 0.046875 2.65625 -0.171875 C 2.195312 -0.390625 1.847656 -0.726562 1.609375 -1.1875 C 1.378906 -1.644531 1.265625 -2.234375 1.265625 -2.953125 L 1.265625 -8.546875 L 2.578125 -8.546875 L 2.578125 -3.046875 C 2.578125 -2.328125 2.738281 -1.789062 3.0625 -1.4375 C 3.382812 -1.09375 3.875 -0.921875 4.53125 -0.921875 C 5.164062 -0.921875 5.671875 -1.039062 6.046875 -1.28125 C 6.429688 -1.519531 6.707031 -1.867188 6.875 -2.328125 C 7.039062 -2.796875 7.125 -3.367188 7.125 -4.046875 L 7.125 -8.546875 Z M 8.421875 -8.546875 "/></g></g></g><g fill="#05415f" fill-opacity="1"><g transform="translate(188.939233, 221.700479)"><g><path d="M 5.25 -8.703125 C 5.414062 -8.703125 5.59375 -8.691406 5.78125 -8.671875 C 5.96875 -8.648438 6.132812 -8.625 6.28125 -8.59375 L 6.125 -7.40625 C 5.976562 -7.4375 5.816406 -7.460938 5.640625 -7.484375 C 5.472656 -7.503906 5.316406 -7.515625 5.171875 -7.515625 C 4.828125 -7.515625 4.503906 -7.445312 4.203125 -7.3125 C 3.898438 -7.175781 3.632812 -6.976562 3.40625 -6.71875 C 3.175781 -6.457031 2.992188 -6.144531 2.859375 -5.78125 C 2.734375 -5.425781 2.671875 -5.023438 2.671875 -4.578125 L 2.671875 0 L 1.359375 0 L 1.359375 -8.546875 L 2.4375 -8.546875 L 2.578125 -6.96875 L 2.640625 -6.96875 C 2.816406 -7.289062 3.03125 -7.582031 3.28125 -7.84375 C 3.53125 -8.101562 3.816406 -8.3125 4.140625 -8.46875 C 4.472656 -8.625 4.84375 -8.703125 5.25 -8.703125 Z M 5.25 -8.703125 "/></g></g></g><g fill="#05415f" fill-opacity="1"><g transform="translate(195.463835, 221.700479)"><g><path d="M 4.65625 -8.703125 C 5.382812 -8.703125 6.007812 -8.539062 6.53125 -8.21875 C 7.050781 -7.894531 7.445312 -7.441406 7.71875 -6.859375 C 7.988281 -6.285156 8.125 -5.609375 8.125 -4.828125 L 8.125 -4.03125 L 2.234375 -4.03125 C 2.242188 -3.03125 2.488281 -2.265625 2.96875 -1.734375 C 3.457031 -1.210938 4.140625 -0.953125 5.015625 -0.953125 C 5.554688 -0.953125 6.035156 -1 6.453125 -1.09375 C 6.867188 -1.195312 7.300781 -1.34375 7.75 -1.53125 L 7.75 -0.390625 C 7.320312 -0.203125 6.894531 -0.0664062 6.46875 0.015625 C 6.039062 0.109375 5.539062 0.15625 4.96875 0.15625 C 4.144531 0.15625 3.425781 -0.0078125 2.8125 -0.34375 C 2.207031 -0.675781 1.734375 -1.164062 1.390625 -1.8125 C 1.054688 -2.46875 0.890625 -3.265625 0.890625 -4.203125 C 0.890625 -5.128906 1.039062 -5.925781 1.34375 -6.59375 C 1.65625 -7.269531 2.09375 -7.789062 2.65625 -8.15625 C 3.226562 -8.519531 3.894531 -8.703125 4.65625 -8.703125 Z M 4.640625 -7.640625 C 3.953125 -7.640625 3.398438 -7.410156 2.984375 -6.953125 C 2.578125 -6.503906 2.332031 -5.875 2.25 -5.0625 L 6.78125 -5.0625 C 6.769531 -5.570312 6.6875 -6.019531 6.53125 -6.40625 C 6.382812 -6.800781 6.15625 -7.101562 5.84375 -7.3125 C 5.53125 -7.53125 5.128906 -7.640625 4.640625 -7.640625 Z M 4.640625 -7.640625 "/></g></g></g><g fill="#05415f" fill-opacity="1"><g transform="translate(204.428335, 221.700479)"><g/></g></g><g fill="#05415f" fill-opacity="1"><g transform="translate(208.575391, 221.700479)"><g><path d="M 8.734375 -4.28125 C 8.734375 -3.582031 8.640625 -2.957031 8.453125 -2.40625 C 8.273438 -1.851562 8.015625 -1.382812 7.671875 -1 C 7.328125 -0.625 6.910156 -0.335938 6.421875 -0.140625 C 5.941406 0.0546875 5.394531 0.15625 4.78125 0.15625 C 4.207031 0.15625 3.679688 0.0546875 3.203125 -0.140625 C 2.734375 -0.335938 2.320312 -0.625 1.96875 -1 C 1.625 -1.382812 1.359375 -1.851562 1.171875 -2.40625 C 0.984375 -2.957031 0.890625 -3.582031 0.890625 -4.28125 C 0.890625 -5.21875 1.046875 -6.015625 1.359375 -6.671875 C 1.679688 -7.335938 2.132812 -7.84375 2.71875 -8.1875 C 3.3125 -8.53125 4.015625 -8.703125 4.828125 -8.703125 C 5.609375 -8.703125 6.289062 -8.523438 6.875 -8.171875 C 7.46875 -7.828125 7.925781 -7.328125 8.25 -6.671875 C 8.570312 -6.015625 8.734375 -5.21875 8.734375 -4.28125 Z M 2.234375 -4.28125 C 2.234375 -3.601562 2.320312 -3.007812 2.5 -2.5 C 2.6875 -2 2.96875 -1.609375 3.34375 -1.328125 C 3.726562 -1.054688 4.21875 -0.921875 4.8125 -0.921875 C 5.40625 -0.921875 5.890625 -1.054688 6.265625 -1.328125 C 6.648438 -1.609375 6.929688 -2 7.109375 -2.5 C 7.296875 -3.007812 7.390625 -3.601562 7.390625 -4.28125 C 7.390625 -4.96875 7.296875 -5.554688 7.109375 -6.046875 C 6.929688 -6.546875 6.648438 -6.929688 6.265625 -7.203125 C 5.890625 -7.472656 5.398438 -7.609375 4.796875 -7.609375 C 3.910156 -7.609375 3.257812 -7.3125 2.84375 -6.71875 C 2.4375 -6.132812 2.234375 -5.320312 2.234375 -4.28125 Z M 2.234375 -4.28125 "/></g></g></g><g fill="#05415f" fill-opacity="1"><g transform="translate(218.179098, 221.700479)"><g><path d="M 5.171875 -7.53125 L 3.046875 -7.53125 L 3.046875 0 L 1.75 0 L 1.75 -7.53125 L 0.234375 -7.53125 L 0.234375 -8.15625 L 1.75 -8.578125 L 1.75 -9.15625 C 1.75 -9.875 1.851562 -10.457031 2.0625 -10.90625 C 2.28125 -11.351562 2.59375 -11.679688 3 -11.890625 C 3.40625 -12.109375 3.894531 -12.21875 4.46875 -12.21875 C 4.800781 -12.21875 5.101562 -12.1875 5.375 -12.125 C 5.644531 -12.070312 5.882812 -12.007812 6.09375 -11.9375 L 5.765625 -10.921875 C 5.585938 -10.972656 5.382812 -11.023438 5.15625 -11.078125 C 4.9375 -11.128906 4.710938 -11.15625 4.484375 -11.15625 C 3.992188 -11.15625 3.628906 -10.992188 3.390625 -10.671875 C 3.160156 -10.347656 3.046875 -9.847656 3.046875 -9.171875 L 3.046875 -8.546875 L 5.171875 -8.546875 Z M 5.171875 -7.53125 "/></g></g></g><g fill="#05415f" fill-opacity="1"><g transform="translate(223.550008, 221.700479)"><g/></g></g><g fill="#05415f" fill-opacity="1"><g transform="translate(227.697064, 221.700479)"><g><path d="M 2.890625 0 L 1.5625 0 L 1.5625 -11.40625 L 7.90625 -11.40625 L 7.90625 -10.234375 L 2.890625 -10.234375 L 2.890625 -6.046875 L 7.609375 -6.046875 L 7.609375 -4.890625 L 2.890625 -4.890625 Z M 2.890625 0 "/></g></g></g><g fill="#05415f" fill-opacity="1"><g transform="translate(235.936614, 221.700479)"><g><path d="M 2.65625 -8.546875 L 2.65625 0 L 1.359375 0 L 1.359375 -8.546875 Z M 2.03125 -11.75 C 2.238281 -11.75 2.421875 -11.675781 2.578125 -11.53125 C 2.734375 -11.394531 2.8125 -11.179688 2.8125 -10.890625 C 2.8125 -10.609375 2.734375 -10.394531 2.578125 -10.25 C 2.421875 -10.113281 2.238281 -10.046875 2.03125 -10.046875 C 1.800781 -10.046875 1.613281 -10.113281 1.46875 -10.25 C 1.320312 -10.394531 1.25 -10.609375 1.25 -10.890625 C 1.25 -11.179688 1.320312 -11.394531 1.46875 -11.53125 C 1.613281 -11.675781 1.800781 -11.75 2.03125 -11.75 Z M 2.03125 -11.75 "/></g></g></g><g fill="#05415f" fill-opacity="1"><g transform="translate(239.966735, 221.700479)"><g><path d="M 5.40625 -8.703125 C 6.425781 -8.703125 7.191406 -8.453125 7.703125 -7.953125 C 8.222656 -7.460938 8.484375 -6.664062 8.484375 -5.5625 L 8.484375 0 L 7.21875 0 L 7.21875 -5.484375 C 7.21875 -6.191406 7.050781 -6.722656 6.71875 -7.078125 C 6.394531 -7.429688 5.898438 -7.609375 5.234375 -7.609375 C 4.285156 -7.609375 3.617188 -7.335938 3.234375 -6.796875 C 2.847656 -6.265625 2.65625 -5.488281 2.65625 -4.46875 L 2.65625 0 L 1.359375 0 L 1.359375 -8.546875 L 2.40625 -8.546875 L 2.609375 -7.3125 L 2.671875 -7.3125 C 2.859375 -7.613281 3.09375 -7.863281 3.375 -8.0625 C 3.65625 -8.269531 3.96875 -8.425781 4.3125 -8.53125 C 4.65625 -8.644531 5.019531 -8.703125 5.40625 -8.703125 Z M 5.40625 -8.703125 "/></g></g></g><g fill="#05415f" fill-opacity="1"><g transform="translate(249.757528, 221.700479)"><g><path d="M 4.5625 -8.6875 C 5.582031 -8.6875 6.335938 -8.457031 6.828125 -8 C 7.328125 -7.539062 7.578125 -6.8125 7.578125 -5.8125 L 7.578125 0 L 6.625 0 L 6.375 -1.265625 L 6.3125 -1.265625 C 6.070312 -0.953125 5.820312 -0.6875 5.5625 -0.46875 C 5.300781 -0.257812 5 -0.101562 4.65625 0 C 4.320312 0.101562 3.910156 0.15625 3.421875 0.15625 C 2.898438 0.15625 2.4375 0.0664062 2.03125 -0.109375 C 1.625 -0.296875 1.304688 -0.570312 1.078125 -0.9375 C 0.847656 -1.3125 0.734375 -1.78125 0.734375 -2.34375 C 0.734375 -3.195312 1.070312 -3.851562 1.75 -4.3125 C 2.425781 -4.769531 3.453125 -5.019531 4.828125 -5.0625 L 6.3125 -5.125 L 6.3125 -5.640625 C 6.3125 -6.378906 6.148438 -6.894531 5.828125 -7.1875 C 5.515625 -7.488281 5.066406 -7.640625 4.484375 -7.640625 C 4.046875 -7.640625 3.625 -7.570312 3.21875 -7.4375 C 2.8125 -7.3125 2.425781 -7.160156 2.0625 -6.984375 L 1.65625 -7.96875 C 2.039062 -8.164062 2.484375 -8.332031 2.984375 -8.46875 C 3.484375 -8.613281 4.007812 -8.6875 4.5625 -8.6875 Z M 6.296875 -4.203125 L 4.984375 -4.15625 C 3.921875 -4.113281 3.171875 -3.9375 2.734375 -3.625 C 2.296875 -3.320312 2.078125 -2.890625 2.078125 -2.328125 C 2.078125 -1.835938 2.222656 -1.472656 2.515625 -1.234375 C 2.816406 -1.003906 3.210938 -0.890625 3.703125 -0.890625 C 4.460938 -0.890625 5.082031 -1.097656 5.5625 -1.515625 C 6.050781 -1.941406 6.296875 -2.578125 6.296875 -3.421875 Z M 6.296875 -4.203125 "/></g></g></g><g fill="#05415f" fill-opacity="1"><g transform="translate(258.628474, 221.700479)"><g><path d="M 5.40625 -8.703125 C 6.425781 -8.703125 7.191406 -8.453125 7.703125 -7.953125 C 8.222656 -7.460938 8.484375 -6.664062 8.484375 -5.5625 L 8.484375 0 L 7.21875 0 L 7.21875 -5.484375 C 7.21875 -6.191406 7.050781 -6.722656 6.71875 -7.078125 C 6.394531 -7.429688 5.898438 -7.609375 5.234375 -7.609375 C 4.285156 -7.609375 3.617188 -7.335938 3.234375 -6.796875 C 2.847656 -6.265625 2.65625 -5.488281 2.65625 -4.46875 L 2.65625 0 L 1.359375 0 L 1.359375 -8.546875 L 2.40625 -8.546875 L 2.609375 -7.3125 L 2.671875 -7.3125 C 2.859375 -7.613281 3.09375 -7.863281 3.375 -8.0625 C 3.65625 -8.269531 3.96875 -8.425781 4.3125 -8.53125 C 4.65625 -8.644531 5.019531 -8.703125 5.40625 -8.703125 Z M 5.40625 -8.703125 "/></g></g></g><g fill="#05415f" fill-opacity="1"><g transform="translate(268.419266, 221.700479)"><g><path d="M 4.78125 0.15625 C 4.019531 0.15625 3.34375 0 2.75 -0.3125 C 2.164062 -0.632812 1.707031 -1.117188 1.375 -1.765625 C 1.050781 -2.421875 0.890625 -3.238281 0.890625 -4.21875 C 0.890625 -5.257812 1.0625 -6.109375 1.40625 -6.765625 C 1.75 -7.421875 2.222656 -7.90625 2.828125 -8.21875 C 3.441406 -8.539062 4.132812 -8.703125 4.90625 -8.703125 C 5.332031 -8.703125 5.742188 -8.65625 6.140625 -8.5625 C 6.546875 -8.476562 6.875 -8.375 7.125 -8.25 L 6.734375 -7.171875 C 6.472656 -7.273438 6.171875 -7.367188 5.828125 -7.453125 C 5.492188 -7.535156 5.175781 -7.578125 4.875 -7.578125 C 4.289062 -7.578125 3.800781 -7.445312 3.40625 -7.1875 C 3.007812 -6.9375 2.710938 -6.5625 2.515625 -6.0625 C 2.328125 -5.570312 2.234375 -4.960938 2.234375 -4.234375 C 2.234375 -3.546875 2.328125 -2.957031 2.515625 -2.46875 C 2.703125 -1.976562 2.984375 -1.601562 3.359375 -1.34375 C 3.742188 -1.09375 4.21875 -0.96875 4.78125 -0.96875 C 5.226562 -0.96875 5.632812 -1.015625 6 -1.109375 C 6.363281 -1.203125 6.695312 -1.316406 7 -1.453125 L 7 -0.296875 C 6.707031 -0.148438 6.382812 -0.0390625 6.03125 0.03125 C 5.6875 0.113281 5.269531 0.15625 4.78125 0.15625 Z M 4.78125 0.15625 "/></g></g></g><g fill="#05415f" fill-opacity="1"><g transform="translate(276.066368, 221.700479)"><g><path d="M 2.65625 -8.546875 L 2.65625 0 L 1.359375 0 L 1.359375 -8.546875 Z M 2.03125 -11.75 C 2.238281 -11.75 2.421875 -11.675781 2.578125 -11.53125 C 2.734375 -11.394531 2.8125 -11.179688 2.8125 -10.890625 C 2.8125 -10.609375 2.734375 -10.394531 2.578125 -10.25 C 2.421875 -10.113281 2.238281 -10.046875 2.03125 -10.046875 C 1.800781 -10.046875 1.613281 -10.113281 1.46875 -10.25 C 1.320312 -10.394531 1.25 -10.609375 1.25 -10.890625 C 1.25 -11.179688 1.320312 -11.394531 1.46875 -11.53125 C 1.613281 -11.675781 1.800781 -11.75 2.03125 -11.75 Z M 2.03125 -11.75 "/></g></g></g><g fill="#05415f" fill-opacity="1"><g transform="translate(280.09649, 221.700479)"><g><path d="M 4.5625 -8.6875 C 5.582031 -8.6875 6.335938 -8.457031 6.828125 -8 C 7.328125 -7.539062 7.578125 -6.8125 7.578125 -5.8125 L 7.578125 0 L 6.625 0 L 6.375 -1.265625 L 6.3125 -1.265625 C 6.070312 -0.953125 5.820312 -0.6875 5.5625 -0.46875 C 5.300781 -0.257812 5 -0.101562 4.65625 0 C 4.320312 0.101562 3.910156 0.15625 3.421875 0.15625 C 2.898438 0.15625 2.4375 0.0664062 2.03125 -0.109375 C 1.625 -0.296875 1.304688 -0.570312 1.078125 -0.9375 C 0.847656 -1.3125 0.734375 -1.78125 0.734375 -2.34375 C 0.734375 -3.195312 1.070312 -3.851562 1.75 -4.3125 C 2.425781 -4.769531 3.453125 -5.019531 4.828125 -5.0625 L 6.3125 -5.125 L 6.3125 -5.640625 C 6.3125 -6.378906 6.148438 -6.894531 5.828125 -7.1875 C 5.515625 -7.488281 5.066406 -7.640625 4.484375 -7.640625 C 4.046875 -7.640625 3.625 -7.570312 3.21875 -7.4375 C 2.8125 -7.3125 2.425781 -7.160156 2.0625 -6.984375 L 1.65625 -7.96875 C 2.039062 -8.164062 2.484375 -8.332031 2.984375 -8.46875 C 3.484375 -8.613281 4.007812 -8.6875 4.5625 -8.6875 Z M 6.296875 -4.203125 L 4.984375 -4.15625 C 3.921875 -4.113281 3.171875 -3.9375 2.734375 -3.625 C 2.296875 -3.320312 2.078125 -2.890625 2.078125 -2.328125 C 2.078125 -1.835938 2.222656 -1.472656 2.515625 -1.234375 C 2.816406 -1.003906 3.210938 -0.890625 3.703125 -0.890625 C 4.460938 -0.890625 5.082031 -1.097656 5.5625 -1.515625 C 6.050781 -1.941406 6.296875 -2.578125 6.296875 -3.421875 Z M 6.296875 -4.203125 "/></g></g></g><g fill="#05415f" fill-opacity="1"><g transform="translate(288.967436, 221.700479)"><g><path d="M 2.671875 0 L 1.359375 0 L 1.359375 -12.125 L 2.671875 -12.125 Z M 2.671875 0 "/></g></g></g><g fill="#05415f" fill-opacity="1"><g transform="translate(292.997557, 221.700479)"><g/></g></g><g fill="#05415f" fill-opacity="1"><g transform="translate(297.144612, 221.700479)"><g><path d="M 8.703125 0 L 7.3125 -3.625 L 2.734375 -3.625 L 1.34375 0 L 0 0 L 4.453125 -11.453125 L 5.65625 -11.453125 L 10.078125 0 Z M 6.90625 -4.796875 L 5.578125 -8.390625 C 5.546875 -8.484375 5.492188 -8.632812 5.421875 -8.84375 C 5.347656 -9.0625 5.273438 -9.285156 5.203125 -9.515625 C 5.128906 -9.742188 5.070312 -9.925781 5.03125 -10.0625 C 4.976562 -9.851562 4.921875 -9.640625 4.859375 -9.421875 C 4.796875 -9.210938 4.734375 -9.019531 4.671875 -8.84375 C 4.617188 -8.664062 4.570312 -8.515625 4.53125 -8.390625 L 3.1875 -4.796875 Z M 6.90625 -4.796875 "/></g></g></g><g fill="#05415f" fill-opacity="1"><g transform="translate(307.239424, 221.700479)"><g><path d="M 5.40625 -8.703125 C 6.425781 -8.703125 7.191406 -8.453125 7.703125 -7.953125 C 8.222656 -7.460938 8.484375 -6.664062 8.484375 -5.5625 L 8.484375 0 L 7.21875 0 L 7.21875 -5.484375 C 7.21875 -6.191406 7.050781 -6.722656 6.71875 -7.078125 C 6.394531 -7.429688 5.898438 -7.609375 5.234375 -7.609375 C 4.285156 -7.609375 3.617188 -7.335938 3.234375 -6.796875 C 2.847656 -6.265625 2.65625 -5.488281 2.65625 -4.46875 L 2.65625 0 L 1.359375 0 L 1.359375 -8.546875 L 2.40625 -8.546875 L 2.609375 -7.3125 L 2.671875 -7.3125 C 2.859375 -7.613281 3.09375 -7.863281 3.375 -8.0625 C 3.65625 -8.269531 3.96875 -8.425781 4.3125 -8.53125 C 4.65625 -8.644531 5.019531 -8.703125 5.40625 -8.703125 Z M 5.40625 -8.703125 "/></g></g></g><g fill="#05415f" fill-opacity="1"><g transform="translate(317.030217, 221.700479)"><g><path d="M 4.5625 -8.6875 C 5.582031 -8.6875 6.335938 -8.457031 6.828125 -8 C 7.328125 -7.539062 7.578125 -6.8125 7.578125 -5.8125 L 7.578125 0 L 6.625 0 L 6.375 -1.265625 L 6.3125 -1.265625 C 6.070312 -0.953125 5.820312 -0.6875 5.5625 -0.46875 C 5.300781 -0.257812 5 -0.101562 4.65625 0 C 4.320312 0.101562 3.910156 0.15625 3.421875 0.15625 C 2.898438 0.15625 2.4375 0.0664062 2.03125 -0.109375 C 1.625 -0.296875 1.304688 -0.570312 1.078125 -0.9375 C 0.847656 -1.3125 0.734375 -1.78125 0.734375 -2.34375 C 0.734375 -3.195312 1.070312 -3.851562 1.75 -4.3125 C 2.425781 -4.769531 3.453125 -5.019531 4.828125 -5.0625 L 6.3125 -5.125 L 6.3125 -5.640625 C 6.3125 -6.378906 6.148438 -6.894531 5.828125 -7.1875 C 5.515625 -7.488281 5.066406 -7.640625 4.484375 -7.640625 C 4.046875 -7.640625 3.625 -7.570312 3.21875 -7.4375 C 2.8125 -7.3125 2.425781 -7.160156 2.0625 -6.984375 L 1.65625 -7.96875 C 2.039062 -8.164062 2.484375 -8.332031 2.984375 -8.46875 C 3.484375 -8.613281 4.007812 -8.6875 4.5625 -8.6875 Z M 6.296875 -4.203125 L 4.984375 -4.15625 C 3.921875 -4.113281 3.171875 -3.9375 2.734375 -3.625 C 2.296875 -3.320312 2.078125 -2.890625 2.078125 -2.328125 C 2.078125 -1.835938 2.222656 -1.472656 2.515625 -1.234375 C 2.816406 -1.003906 3.210938 -0.890625 3.703125 -0.890625 C 4.460938 -0.890625 5.082031 -1.097656 5.5625 -1.515625 C 6.050781 -1.941406 6.296875 -2.578125 6.296875 -3.421875 Z M 6.296875 -4.203125 "/></g></g></g><g fill="#05415f" fill-opacity="1"><g transform="translate(325.901163, 221.700479)"><g><path d="M 2.671875 0 L 1.359375 0 L 1.359375 -12.125 L 2.671875 -12.125 Z M 2.671875 0 "/></g></g></g><g fill="#05415f" fill-opacity="1"><g transform="translate(329.931284, 221.700479)"><g><path d="M 0.015625 -8.546875 L 1.40625 -8.546875 L 3.296875 -3.59375 C 3.398438 -3.300781 3.5 -3.019531 3.59375 -2.75 C 3.6875 -2.476562 3.769531 -2.21875 3.84375 -1.96875 C 3.914062 -1.726562 3.972656 -1.492188 4.015625 -1.265625 L 4.0625 -1.265625 C 4.132812 -1.523438 4.238281 -1.867188 4.375 -2.296875 C 4.507812 -2.722656 4.65625 -3.15625 4.8125 -3.59375 L 6.609375 -8.546875 L 8 -8.546875 L 4.28125 1.25 C 4.082031 1.78125 3.851562 2.238281 3.59375 2.625 C 3.332031 3.019531 3.015625 3.320312 2.640625 3.53125 C 2.265625 3.738281 1.8125 3.84375 1.28125 3.84375 C 1.03125 3.84375 0.8125 3.828125 0.625 3.796875 C 0.4375 3.773438 0.273438 3.742188 0.140625 3.703125 L 0.140625 2.671875 C 0.253906 2.691406 0.394531 2.710938 0.5625 2.734375 C 0.726562 2.753906 0.898438 2.765625 1.078125 2.765625 C 1.398438 2.765625 1.675781 2.703125 1.90625 2.578125 C 2.144531 2.460938 2.347656 2.285156 2.515625 2.046875 C 2.691406 1.816406 2.84375 1.539062 2.96875 1.21875 L 3.4375 0.015625 Z M 0.015625 -8.546875 "/></g></g></g><g fill="#05415f" fill-opacity="1"><g transform="translate(337.929165, 221.700479)"><g><path d="M 4.125 -0.90625 C 4.332031 -0.90625 4.546875 -0.921875 4.765625 -0.953125 C 4.992188 -0.992188 5.179688 -1.039062 5.328125 -1.09375 L 5.328125 -0.078125 C 5.171875 -0.015625 4.957031 0.0351562 4.6875 0.078125 C 4.425781 0.128906 4.171875 0.15625 3.921875 0.15625 C 3.460938 0.15625 3.046875 0.078125 2.671875 -0.078125 C 2.304688 -0.234375 2.015625 -0.5 1.796875 -0.875 C 1.578125 -1.257812 1.46875 -1.789062 1.46875 -2.46875 L 1.46875 -7.53125 L 0.25 -7.53125 L 0.25 -8.15625 L 1.46875 -8.671875 L 1.984375 -10.53125 L 2.765625 -10.53125 L 2.765625 -8.546875 L 5.265625 -8.546875 L 5.265625 -7.53125 L 2.765625 -7.53125 L 2.765625 -2.5 C 2.765625 -1.96875 2.890625 -1.566406 3.140625 -1.296875 C 3.390625 -1.035156 3.71875 -0.90625 4.125 -0.90625 Z M 4.125 -0.90625 "/></g></g></g><g fill="#05415f" fill-opacity="1"><g transform="translate(343.619662, 221.700479)"><g><path d="M 2.65625 -8.546875 L 2.65625 0 L 1.359375 0 L 1.359375 -8.546875 Z M 2.03125 -11.75 C 2.238281 -11.75 2.421875 -11.675781 2.578125 -11.53125 C 2.734375 -11.394531 2.8125 -11.179688 2.8125 -10.890625 C 2.8125 -10.609375 2.734375 -10.394531 2.578125 -10.25 C 2.421875 -10.113281 2.238281 -10.046875 2.03125 -10.046875 C 1.800781 -10.046875 1.613281 -10.113281 1.46875 -10.25 C 1.320312 -10.394531 1.25 -10.609375 1.25 -10.890625 C 1.25 -11.179688 1.320312 -11.394531 1.46875 -11.53125 C 1.613281 -11.675781 1.800781 -11.75 2.03125 -11.75 Z M 2.03125 -11.75 "/></g></g></g><g fill="#05415f" fill-opacity="1"><g transform="translate(347.649784, 221.700479)"><g><path d="M 4.78125 0.15625 C 4.019531 0.15625 3.34375 0 2.75 -0.3125 C 2.164062 -0.632812 1.707031 -1.117188 1.375 -1.765625 C 1.050781 -2.421875 0.890625 -3.238281 0.890625 -4.21875 C 0.890625 -5.257812 1.0625 -6.109375 1.40625 -6.765625 C 1.75 -7.421875 2.222656 -7.90625 2.828125 -8.21875 C 3.441406 -8.539062 4.132812 -8.703125 4.90625 -8.703125 C 5.332031 -8.703125 5.742188 -8.65625 6.140625 -8.5625 C 6.546875 -8.476562 6.875 -8.375 7.125 -8.25 L 6.734375 -7.171875 C 6.472656 -7.273438 6.171875 -7.367188 5.828125 -7.453125 C 5.492188 -7.535156 5.175781 -7.578125 4.875 -7.578125 C 4.289062 -7.578125 3.800781 -7.445312 3.40625 -7.1875 C 3.007812 -6.9375 2.710938 -6.5625 2.515625 -6.0625 C 2.328125 -5.570312 2.234375 -4.960938 2.234375 -4.234375 C 2.234375 -3.546875 2.328125 -2.957031 2.515625 -2.46875 C 2.703125 -1.976562 2.984375 -1.601562 3.359375 -1.34375 C 3.742188 -1.09375 4.21875 -0.96875 4.78125 -0.96875 C 5.226562 -0.96875 5.632812 -1.015625 6 -1.109375 C 6.363281 -1.203125 6.695312 -1.316406 7 -1.453125 L 7 -0.296875 C 6.707031 -0.148438 6.382812 -0.0390625 6.03125 0.03125 C 5.6875 0.113281 5.269531 0.15625 4.78125 0.15625 Z M 4.78125 0.15625 "/></g></g></g><g fill="#05415f" fill-opacity="1"><g transform="translate(355.296886, 221.700479)"><g><path d="M 6.890625 -2.34375 C 6.890625 -1.789062 6.753906 -1.328125 6.484375 -0.953125 C 6.210938 -0.585938 5.820312 -0.3125 5.3125 -0.125 C 4.800781 0.0625 4.195312 0.15625 3.5 0.15625 C 2.90625 0.15625 2.390625 0.109375 1.953125 0.015625 C 1.515625 -0.078125 1.128906 -0.207031 0.796875 -0.375 L 0.796875 -1.578125 C 1.148438 -1.398438 1.566406 -1.238281 2.046875 -1.09375 C 2.535156 -0.957031 3.03125 -0.890625 3.53125 -0.890625 C 4.269531 -0.890625 4.804688 -1.007812 5.140625 -1.25 C 5.472656 -1.488281 5.640625 -1.816406 5.640625 -2.234375 C 5.640625 -2.460938 5.570312 -2.664062 5.4375 -2.84375 C 5.300781 -3.03125 5.078125 -3.207031 4.765625 -3.375 C 4.453125 -3.539062 4.023438 -3.726562 3.484375 -3.9375 C 2.929688 -4.132812 2.457031 -4.335938 2.0625 -4.546875 C 1.664062 -4.753906 1.359375 -5.003906 1.140625 -5.296875 C 0.921875 -5.597656 0.8125 -5.984375 0.8125 -6.453125 C 0.8125 -7.179688 1.101562 -7.738281 1.6875 -8.125 C 2.28125 -8.507812 3.050781 -8.703125 4 -8.703125 C 4.507812 -8.703125 4.988281 -8.648438 5.4375 -8.546875 C 5.894531 -8.441406 6.316406 -8.304688 6.703125 -8.140625 L 6.265625 -7.109375 C 5.910156 -7.253906 5.53125 -7.378906 5.125 -7.484375 C 4.726562 -7.585938 4.328125 -7.640625 3.921875 -7.640625 C 3.316406 -7.640625 2.851562 -7.539062 2.53125 -7.34375 C 2.21875 -7.144531 2.0625 -6.875 2.0625 -6.53125 C 2.0625 -6.269531 2.132812 -6.050781 2.28125 -5.875 C 2.425781 -5.707031 2.660156 -5.546875 2.984375 -5.390625 C 3.316406 -5.242188 3.75 -5.066406 4.28125 -4.859375 C 4.820312 -4.660156 5.285156 -4.457031 5.671875 -4.25 C 6.066406 -4.039062 6.367188 -3.785156 6.578125 -3.484375 C 6.785156 -3.191406 6.890625 -2.8125 6.890625 -2.34375 Z M 6.890625 -2.34375 "/></g></g></g><g fill="#05415f" fill-opacity="1"><g transform="translate(362.905018, 221.700479)"><g><path d="M 1.171875 -0.8125 C 1.171875 -1.175781 1.257812 -1.429688 1.4375 -1.578125 C 1.613281 -1.734375 1.828125 -1.8125 2.078125 -1.8125 C 2.347656 -1.8125 2.570312 -1.734375 2.75 -1.578125 C 2.9375 -1.429688 3.03125 -1.175781 3.03125 -0.8125 C 3.03125 -0.445312 2.9375 -0.179688 2.75 -0.015625 C 2.570312 0.140625 2.347656 0.21875 2.078125 0.21875 C 1.828125 0.21875 1.613281 0.140625 1.4375 -0.015625 C 1.257812 -0.179688 1.171875 -0.445312 1.171875 -0.8125 Z M 1.171875 -0.8125 "/></g></g></g></svg>