<svg xmlns="http://www.w3.org/2000/svg" xmlns:xlink="http://www.w3.org/1999/xlink" width="328" zoomAndPan="magnify" viewBox="0 0 246 110.999996" height="148" preserveAspectRatio="xMidYMid meet" version="1.0"><defs><g/><clipPath id="413ac0604e"><path d="M 149.335938 16.355469 L 162.722656 16.355469 L 162.722656 88.5 L 149.335938 88.5 Z M 149.335938 16.355469 " clip-rule="nonzero"/></clipPath><clipPath id="15e4f02d20"><path d="M 153.085938 16.355469 L 158.972656 16.355469 C 161.042969 16.355469 162.722656 18.035156 162.722656 20.105469 L 162.722656 84.75 C 162.722656 86.820312 161.042969 88.5 158.972656 88.5 L 153.085938 88.5 C 151.015625 88.5 149.335938 86.820312 149.335938 84.75 L 149.335938 20.105469 C 149.335938 18.035156 151.015625 16.355469 153.085938 16.355469 Z M 153.085938 16.355469 " clip-rule="nonzero"/></clipPath><clipPath id="270e31867e"><path d="M 22.992188 27.238281 L 36.378906 27.238281 L 36.378906 88.320312 L 22.992188 88.320312 Z M 22.992188 27.238281 " clip-rule="nonzero"/></clipPath><clipPath id="ed89da582e"><path d="M 26.742188 27.238281 L 32.628906 27.238281 C 34.703125 27.238281 36.378906 28.917969 36.378906 30.988281 L 36.378906 84.570312 C 36.378906 86.644531 34.703125 88.320312 32.628906 88.320312 L 26.742188 88.320312 C 24.671875 88.320312 22.992188 86.644531 22.992188 84.570312 L 22.992188 30.988281 C 22.992188 28.917969 24.671875 27.238281 26.742188 27.238281 Z M 26.742188 27.238281 " clip-rule="nonzero"/></clipPath><clipPath id="c7aeb4e711"><path d="M 61.117188 36.828125 L 122.871094 36.828125 L 122.871094 45.964844 L 61.117188 45.964844 Z M 61.117188 36.828125 " clip-rule="nonzero"/></clipPath><clipPath id="d68561dd8a"><path d="M 122.871094 41.394531 L 115.925781 36.828125 L 115.925781 40.300781 L 61.117188 40.300781 L 61.117188 42.492188 L 115.925781 42.492188 L 115.925781 45.964844 Z M 122.871094 41.394531 " clip-rule="nonzero"/></clipPath><clipPath id="5144dbab10"><path d="M 149.335938 12.441406 L 162.722656 12.441406 L 162.722656 23.324219 L 149.335938 23.324219 Z M 149.335938 12.441406 " clip-rule="nonzero"/></clipPath><clipPath id="dfff3681ae"><path d="M 153.085938 12.441406 L 158.972656 12.441406 C 161.042969 12.441406 162.722656 14.121094 162.722656 16.191406 L 162.722656 19.574219 C 162.722656 21.644531 161.042969 23.324219 158.972656 23.324219 L 153.085938 23.324219 C 151.015625 23.324219 149.335938 21.644531 149.335938 19.574219 L 149.335938 16.191406 C 149.335938 14.121094 151.015625 12.441406 153.085938 12.441406 Z M 153.085938 12.441406 " clip-rule="nonzero"/></clipPath><clipPath id="9f17765e22"><path d="M 149.335938 17.882812 L 162.722656 17.882812 L 162.722656 27.238281 L 149.335938 27.238281 Z M 149.335938 17.882812 " clip-rule="nonzero"/></clipPath></defs><rect x="-24.6" width="295.2" fill="#ffffff" y="-11.1" height="133.199995" fill-opacity="1"/><g clip-path="url(#413ac0604e)"><g clip-path="url(#15e4f02d20)"><path fill="#0874aa" d="M 149.335938 16.355469 L 162.722656 16.355469 L 162.722656 88.5 L 149.335938 88.5 Z M 149.335938 16.355469 " fill-opacity="1" fill-rule="nonzero"/></g></g><path stroke-linecap="butt" transform="matrix(0.749361, -0.00392817, 0.00393146, 0.74999, 15.803915, 88.378329)" fill="none" stroke-linejoin="miter" d="M 0.000993247 1.000789 L 204.180038 1.002481 " stroke="#05415f" stroke-width="2" stroke-opacity="1" stroke-miterlimit="4"/><path stroke-linecap="round" transform="matrix(0.749361, -0.00392817, 0.00393146, 0.74999, 15.803915, 88.378329)" fill="none" stroke-linejoin="round" d="M 200.181944 -1.997668 L 204.180038 1.002481 L 200.181742 4.002414 " stroke="#05415f" stroke-width="2" stroke-opacity="1" stroke-miterlimit="4"/><g clip-path="url(#270e31867e)"><g clip-path="url(#ed89da582e)"><path fill="#0874aa" d="M 22.992188 27.238281 L 36.378906 27.238281 L 36.378906 88.320312 L 22.992188 88.320312 Z M 22.992188 27.238281 " fill-opacity="1" fill-rule="nonzero"/></g></g><g clip-path="url(#c7aeb4e711)"><g clip-path="url(#d68561dd8a)"><path fill="#05415f" d="M 61.117188 36.828125 L 122.871094 36.828125 L 122.871094 45.964844 L 61.117188 45.964844 Z M 61.117188 36.828125 " fill-opacity="1" fill-rule="nonzero"/></g></g><g fill="#0874aa" fill-opacity="1"><g transform="translate(14.885953, 105.486666)"><g><path d="M 3.28125 0 L 1.921875 0 L 1.921875 -5.296875 L 0.1875 -5.296875 L 0.1875 -6.421875 L 5.03125 -6.421875 L 5.03125 -5.296875 L 3.28125 -5.296875 Z M 3.28125 0 "/></g></g><g transform="translate(20.097864, 105.486666)"><g><path d="M 0.640625 -6.1875 C 0.640625 -6.625 0.882812 -6.84375 1.375 -6.84375 C 1.863281 -6.84375 2.109375 -6.625 2.109375 -6.1875 C 2.109375 -5.976562 2.046875 -5.816406 1.921875 -5.703125 C 1.796875 -5.585938 1.613281 -5.53125 1.375 -5.53125 C 0.882812 -5.53125 0.640625 -5.75 0.640625 -6.1875 Z M 2.046875 0 L 0.703125 0 L 0.703125 -4.90625 L 2.046875 -4.90625 Z M 2.046875 0 "/></g></g><g transform="translate(22.844445, 105.486666)"><g><path d="M 5.109375 0 L 3.765625 0 L 3.765625 -2.875 C 3.765625 -3.226562 3.703125 -3.492188 3.578125 -3.671875 C 3.460938 -3.847656 3.28125 -3.9375 3.03125 -3.9375 C 2.6875 -3.9375 2.4375 -3.804688 2.28125 -3.546875 C 2.125 -3.296875 2.046875 -2.882812 2.046875 -2.3125 L 2.046875 0 L 0.703125 0 L 0.703125 -4.90625 L 1.734375 -4.90625 L 1.90625 -4.28125 L 1.984375 -4.28125 C 2.117188 -4.507812 2.304688 -4.6875 2.546875 -4.8125 C 2.796875 -4.9375 3.082031 -5 3.40625 -5 C 4.144531 -5 4.644531 -4.757812 4.90625 -4.28125 L 5.015625 -4.28125 C 5.148438 -4.507812 5.34375 -4.6875 5.59375 -4.8125 C 5.851562 -4.9375 6.144531 -5 6.46875 -5 C 7.03125 -5 7.453125 -4.859375 7.734375 -4.578125 C 8.023438 -4.296875 8.171875 -3.835938 8.171875 -3.203125 L 8.171875 0 L 6.828125 0 L 6.828125 -2.875 C 6.828125 -3.226562 6.765625 -3.492188 6.640625 -3.671875 C 6.523438 -3.847656 6.335938 -3.9375 6.078125 -3.9375 C 5.753906 -3.9375 5.507812 -3.816406 5.34375 -3.578125 C 5.1875 -3.347656 5.109375 -2.976562 5.109375 -2.46875 Z M 5.109375 0 "/></g></g><g transform="translate(31.681842, 105.486666)"><g><path d="M 2.734375 -4.046875 C 2.453125 -4.046875 2.226562 -3.957031 2.0625 -3.78125 C 1.90625 -3.601562 1.816406 -3.347656 1.796875 -3.015625 L 3.671875 -3.015625 C 3.671875 -3.347656 3.585938 -3.601562 3.421875 -3.78125 C 3.253906 -3.957031 3.023438 -4.046875 2.734375 -4.046875 Z M 2.921875 0.09375 C 2.128906 0.09375 1.507812 -0.125 1.0625 -0.5625 C 0.625 -1 0.40625 -1.617188 0.40625 -2.421875 C 0.40625 -3.242188 0.609375 -3.878906 1.015625 -4.328125 C 1.429688 -4.773438 2.003906 -5 2.734375 -5 C 3.421875 -5 3.957031 -4.800781 4.34375 -4.40625 C 4.738281 -4.007812 4.9375 -3.460938 4.9375 -2.765625 L 4.9375 -2.125 L 1.765625 -2.125 C 1.773438 -1.738281 1.882812 -1.4375 2.09375 -1.21875 C 2.3125 -1.007812 2.609375 -0.90625 2.984375 -0.90625 C 3.285156 -0.90625 3.566406 -0.9375 3.828125 -1 C 4.085938 -1.0625 4.363281 -1.160156 4.65625 -1.296875 L 4.65625 -0.265625 C 4.414062 -0.140625 4.160156 -0.0507812 3.890625 0 C 3.628906 0.0625 3.304688 0.09375 2.921875 0.09375 Z M 2.921875 0.09375 "/></g></g><g transform="translate(36.999222, 105.486666)"><g/></g><g transform="translate(39.337112, 105.486666)"><g><path d="M 3.71875 0 L 2.359375 0 L 2.359375 -3.71875 L 2.375 -4.328125 L 2.390625 -5 C 2.171875 -4.769531 2.015625 -4.617188 1.921875 -4.546875 L 1.1875 -3.953125 L 0.53125 -4.78125 L 2.609375 -6.421875 L 3.71875 -6.421875 Z M 3.71875 0 "/></g></g></g><g fill="#05415f" fill-opacity="1"><g transform="translate(39.153543, 34.726547)"><g><path d="M 3.71875 0 L 2.359375 0 L 2.359375 -3.71875 L 2.375 -4.328125 L 2.390625 -5 C 2.171875 -4.769531 2.015625 -4.617188 1.921875 -4.546875 L 1.1875 -3.953125 L 0.53125 -4.78125 L 2.609375 -6.421875 L 3.71875 -6.421875 Z M 3.71875 0 "/></g></g><g transform="translate(44.290749, 34.726547)"><g><path d="M 0.515625 -0.625 C 0.515625 -0.875 0.578125 -1.0625 0.703125 -1.1875 C 0.835938 -1.3125 1.03125 -1.375 1.28125 -1.375 C 1.53125 -1.375 1.71875 -1.304688 1.84375 -1.171875 C 1.976562 -1.046875 2.046875 -0.863281 2.046875 -0.625 C 2.046875 -0.394531 1.976562 -0.210938 1.84375 -0.078125 C 1.707031 0.0546875 1.519531 0.125 1.28125 0.125 C 1.039062 0.125 0.851562 0.0625 0.71875 -0.0625 C 0.582031 -0.195312 0.515625 -0.382812 0.515625 -0.625 Z M 0.515625 -0.625 "/></g></g><g transform="translate(46.857155, 34.726547)"><g/></g><g transform="translate(49.195046, 34.726547)"><g><path d="M 2.171875 -3.40625 L 2.625 -3.40625 C 3.039062 -3.40625 3.351562 -3.484375 3.5625 -3.640625 C 3.769531 -3.804688 3.875 -4.050781 3.875 -4.375 C 3.875 -4.695312 3.785156 -4.929688 3.609375 -5.078125 C 3.429688 -5.234375 3.160156 -5.3125 2.796875 -5.3125 L 2.171875 -5.3125 Z M 5.25 -4.421875 C 5.25 -3.734375 5.03125 -3.203125 4.59375 -2.828125 C 4.164062 -2.460938 3.550781 -2.28125 2.75 -2.28125 L 2.171875 -2.28125 L 2.171875 0 L 0.8125 0 L 0.8125 -6.421875 L 2.859375 -6.421875 C 3.640625 -6.421875 4.234375 -6.253906 4.640625 -5.921875 C 5.046875 -5.585938 5.25 -5.085938 5.25 -4.421875 Z M 5.25 -4.421875 "/></g></g><g transform="translate(54.846413, 34.726547)"><g><path d="M 1.765625 -2.46875 C 1.765625 -1.976562 1.84375 -1.609375 2 -1.359375 C 2.164062 -1.109375 2.429688 -0.984375 2.796875 -0.984375 C 3.148438 -0.984375 3.40625 -1.109375 3.5625 -1.359375 C 3.71875 -1.609375 3.796875 -1.976562 3.796875 -2.46875 C 3.796875 -2.945312 3.71875 -3.304688 3.5625 -3.546875 C 3.40625 -3.796875 3.144531 -3.921875 2.78125 -3.921875 C 2.425781 -3.921875 2.164062 -3.800781 2 -3.5625 C 1.84375 -3.320312 1.765625 -2.957031 1.765625 -2.46875 Z M 5.171875 -2.46875 C 5.171875 -1.664062 4.957031 -1.035156 4.53125 -0.578125 C 4.113281 -0.128906 3.523438 0.09375 2.765625 0.09375 C 2.296875 0.09375 1.878906 -0.0078125 1.515625 -0.21875 C 1.160156 -0.425781 0.882812 -0.722656 0.6875 -1.109375 C 0.5 -1.492188 0.40625 -1.945312 0.40625 -2.46875 C 0.40625 -3.269531 0.613281 -3.890625 1.03125 -4.328125 C 1.445312 -4.773438 2.035156 -5 2.796875 -5 C 3.265625 -5 3.679688 -4.894531 4.046875 -4.6875 C 4.410156 -4.488281 4.6875 -4.195312 4.875 -3.8125 C 5.070312 -3.425781 5.171875 -2.976562 5.171875 -2.46875 Z M 5.171875 -2.46875 "/></g></g><g transform="translate(60.418678, 34.726547)"><g><path d="M 3.453125 -5 C 3.628906 -5 3.773438 -4.988281 3.890625 -4.96875 L 3.796875 -3.703125 C 3.691406 -3.734375 3.5625 -3.75 3.40625 -3.75 C 2.976562 -3.75 2.644531 -3.640625 2.40625 -3.421875 C 2.164062 -3.203125 2.046875 -2.894531 2.046875 -2.5 L 2.046875 0 L 0.703125 0 L 0.703125 -4.90625 L 1.71875 -4.90625 L 1.921875 -4.09375 L 1.984375 -4.09375 C 2.128906 -4.363281 2.332031 -4.582031 2.59375 -4.75 C 2.851562 -4.914062 3.140625 -5 3.453125 -5 Z M 3.453125 -5 "/></g></g><g transform="translate(64.505591, 34.726547)"><g><path d="M 2.765625 -0.984375 C 3.003906 -0.984375 3.285156 -1.035156 3.609375 -1.140625 L 3.609375 -0.140625 C 3.273438 0.015625 2.867188 0.09375 2.390625 0.09375 C 1.847656 0.09375 1.453125 -0.0390625 1.203125 -0.3125 C 0.960938 -0.582031 0.84375 -0.988281 0.84375 -1.53125 L 0.84375 -3.90625 L 0.203125 -3.90625 L 0.203125 -4.46875 L 0.9375 -4.921875 L 1.328125 -5.953125 L 2.1875 -5.953125 L 2.1875 -4.90625 L 3.5625 -4.90625 L 3.5625 -3.90625 L 2.1875 -3.90625 L 2.1875 -1.53125 C 2.1875 -1.34375 2.238281 -1.203125 2.34375 -1.109375 C 2.457031 -1.023438 2.597656 -0.984375 2.765625 -0.984375 Z M 2.765625 -0.984375 "/></g></g><g transform="translate(68.412329, 34.726547)"><g><path d="M 3.421875 -3.90625 L 2.265625 -3.90625 L 2.265625 0 L 0.921875 0 L 0.921875 -3.90625 L 0.1875 -3.90625 L 0.1875 -4.546875 L 0.921875 -4.90625 L 0.921875 -5.28125 C 0.921875 -5.832031 1.054688 -6.238281 1.328125 -6.5 C 1.609375 -6.757812 2.050781 -6.890625 2.65625 -6.890625 C 3.113281 -6.890625 3.523438 -6.820312 3.890625 -6.6875 L 3.546875 -5.703125 C 3.273438 -5.785156 3.023438 -5.828125 2.796875 -5.828125 C 2.609375 -5.828125 2.472656 -5.769531 2.390625 -5.65625 C 2.304688 -5.539062 2.265625 -5.394531 2.265625 -5.21875 L 2.265625 -4.90625 L 3.421875 -4.90625 Z M 3.421875 -3.90625 "/></g></g><g transform="translate(71.897192, 34.726547)"><g><path d="M 1.765625 -2.46875 C 1.765625 -1.976562 1.84375 -1.609375 2 -1.359375 C 2.164062 -1.109375 2.429688 -0.984375 2.796875 -0.984375 C 3.148438 -0.984375 3.40625 -1.109375 3.5625 -1.359375 C 3.71875 -1.609375 3.796875 -1.976562 3.796875 -2.46875 C 3.796875 -2.945312 3.71875 -3.304688 3.5625 -3.546875 C 3.40625 -3.796875 3.144531 -3.921875 2.78125 -3.921875 C 2.425781 -3.921875 2.164062 -3.800781 2 -3.5625 C 1.84375 -3.320312 1.765625 -2.957031 1.765625 -2.46875 Z M 5.171875 -2.46875 C 5.171875 -1.664062 4.957031 -1.035156 4.53125 -0.578125 C 4.113281 -0.128906 3.523438 0.09375 2.765625 0.09375 C 2.296875 0.09375 1.878906 -0.0078125 1.515625 -0.21875 C 1.160156 -0.425781 0.882812 -0.722656 0.6875 -1.109375 C 0.5 -1.492188 0.40625 -1.945312 0.40625 -2.46875 C 0.40625 -3.269531 0.613281 -3.890625 1.03125 -4.328125 C 1.445312 -4.773438 2.035156 -5 2.796875 -5 C 3.265625 -5 3.679688 -4.894531 4.046875 -4.6875 C 4.410156 -4.488281 4.6875 -4.195312 4.875 -3.8125 C 5.070312 -3.425781 5.171875 -2.976562 5.171875 -2.46875 Z M 5.171875 -2.46875 "/></g></g><g transform="translate(77.469458, 34.726547)"><g><path d="M 2.046875 0 L 0.703125 0 L 0.703125 -6.84375 L 2.046875 -6.84375 Z M 2.046875 0 "/></g></g><g transform="translate(80.216039, 34.726547)"><g><path d="M 0.640625 -6.1875 C 0.640625 -6.625 0.882812 -6.84375 1.375 -6.84375 C 1.863281 -6.84375 2.109375 -6.625 2.109375 -6.1875 C 2.109375 -5.976562 2.046875 -5.816406 1.921875 -5.703125 C 1.796875 -5.585938 1.613281 -5.53125 1.375 -5.53125 C 0.882812 -5.53125 0.640625 -5.75 0.640625 -6.1875 Z M 2.046875 0 L 0.703125 0 L 0.703125 -4.90625 L 2.046875 -4.90625 Z M 2.046875 0 "/></g></g><g transform="translate(82.962621, 34.726547)"><g><path d="M 1.765625 -2.46875 C 1.765625 -1.976562 1.84375 -1.609375 2 -1.359375 C 2.164062 -1.109375 2.429688 -0.984375 2.796875 -0.984375 C 3.148438 -0.984375 3.40625 -1.109375 3.5625 -1.359375 C 3.71875 -1.609375 3.796875 -1.976562 3.796875 -2.46875 C 3.796875 -2.945312 3.71875 -3.304688 3.5625 -3.546875 C 3.40625 -3.796875 3.144531 -3.921875 2.78125 -3.921875 C 2.425781 -3.921875 2.164062 -3.800781 2 -3.5625 C 1.84375 -3.320312 1.765625 -2.957031 1.765625 -2.46875 Z M 5.171875 -2.46875 C 5.171875 -1.664062 4.957031 -1.035156 4.53125 -0.578125 C 4.113281 -0.128906 3.523438 0.09375 2.765625 0.09375 C 2.296875 0.09375 1.878906 -0.0078125 1.515625 -0.21875 C 1.160156 -0.425781 0.882812 -0.722656 0.6875 -1.109375 C 0.5 -1.492188 0.40625 -1.945312 0.40625 -2.46875 C 0.40625 -3.269531 0.613281 -3.890625 1.03125 -4.328125 C 1.445312 -4.773438 2.035156 -5 2.796875 -5 C 3.265625 -5 3.679688 -4.894531 4.046875 -4.6875 C 4.410156 -4.488281 4.6875 -4.195312 4.875 -3.8125 C 5.070312 -3.425781 5.171875 -2.976562 5.171875 -2.46875 Z M 5.171875 -2.46875 "/></g></g><g transform="translate(88.534887, 34.726547)"><g/></g><g transform="translate(90.872777, 34.726547)"><g><path d="M 2.703125 0.09375 C 1.171875 0.09375 0.40625 -0.75 0.40625 -2.4375 C 0.40625 -3.269531 0.613281 -3.90625 1.03125 -4.34375 C 1.445312 -4.78125 2.039062 -5 2.8125 -5 C 3.382812 -5 3.894531 -4.890625 4.34375 -4.671875 L 3.953125 -3.640625 C 3.742188 -3.722656 3.546875 -3.789062 3.359375 -3.84375 C 3.179688 -3.894531 3 -3.921875 2.8125 -3.921875 C 2.113281 -3.921875 1.765625 -3.425781 1.765625 -2.4375 C 1.765625 -1.476562 2.113281 -1 2.8125 -1 C 3.070312 -1 3.3125 -1.03125 3.53125 -1.09375 C 3.75 -1.164062 3.96875 -1.273438 4.1875 -1.421875 L 4.1875 -0.28125 C 3.976562 -0.144531 3.757812 -0.0507812 3.53125 0 C 3.3125 0.0625 3.035156 0.09375 2.703125 0.09375 Z M 2.703125 0.09375 "/></g></g><g transform="translate(95.500218, 34.726547)"><g><path d="M 1.765625 -2.46875 C 1.765625 -1.976562 1.84375 -1.609375 2 -1.359375 C 2.164062 -1.109375 2.429688 -0.984375 2.796875 -0.984375 C 3.148438 -0.984375 3.40625 -1.109375 3.5625 -1.359375 C 3.71875 -1.609375 3.796875 -1.976562 3.796875 -2.46875 C 3.796875 -2.945312 3.71875 -3.304688 3.5625 -3.546875 C 3.40625 -3.796875 3.144531 -3.921875 2.78125 -3.921875 C 2.425781 -3.921875 2.164062 -3.800781 2 -3.5625 C 1.84375 -3.320312 1.765625 -2.957031 1.765625 -2.46875 Z M 5.171875 -2.46875 C 5.171875 -1.664062 4.957031 -1.035156 4.53125 -0.578125 C 4.113281 -0.128906 3.523438 0.09375 2.765625 0.09375 C 2.296875 0.09375 1.878906 -0.0078125 1.515625 -0.21875 C 1.160156 -0.425781 0.882812 -0.722656 0.6875 -1.109375 C 0.5 -1.492188 0.40625 -1.945312 0.40625 -2.46875 C 0.40625 -3.269531 0.613281 -3.890625 1.03125 -4.328125 C 1.445312 -4.773438 2.035156 -5 2.796875 -5 C 3.265625 -5 3.679688 -4.894531 4.046875 -4.6875 C 4.410156 -4.488281 4.6875 -4.195312 4.875 -3.8125 C 5.070312 -3.425781 5.171875 -2.976562 5.171875 -2.46875 Z M 5.171875 -2.46875 "/></g></g><g transform="translate(101.072483, 34.726547)"><g><path d="M 5.109375 0 L 3.765625 0 L 3.765625 -2.875 C 3.765625 -3.226562 3.703125 -3.492188 3.578125 -3.671875 C 3.460938 -3.847656 3.28125 -3.9375 3.03125 -3.9375 C 2.6875 -3.9375 2.4375 -3.804688 2.28125 -3.546875 C 2.125 -3.296875 2.046875 -2.882812 2.046875 -2.3125 L 2.046875 0 L 0.703125 0 L 0.703125 -4.90625 L 1.734375 -4.90625 L 1.90625 -4.28125 L 1.984375 -4.28125 C 2.117188 -4.507812 2.304688 -4.6875 2.546875 -4.8125 C 2.796875 -4.9375 3.082031 -5 3.40625 -5 C 4.144531 -5 4.644531 -4.757812 4.90625 -4.28125 L 5.015625 -4.28125 C 5.148438 -4.507812 5.34375 -4.6875 5.59375 -4.8125 C 5.851562 -4.9375 6.144531 -5 6.46875 -5 C 7.03125 -5 7.453125 -4.859375 7.734375 -4.578125 C 8.023438 -4.296875 8.171875 -3.835938 8.171875 -3.203125 L 8.171875 0 L 6.828125 0 L 6.828125 -2.875 C 6.828125 -3.226562 6.765625 -3.492188 6.640625 -3.671875 C 6.523438 -3.847656 6.335938 -3.9375 6.078125 -3.9375 C 5.753906 -3.9375 5.507812 -3.816406 5.34375 -3.578125 C 5.1875 -3.347656 5.109375 -2.976562 5.109375 -2.46875 Z M 5.109375 0 "/></g></g><g transform="translate(109.909885, 34.726547)"><g><path d="M 3.40625 0.09375 C 2.820312 0.09375 2.367188 -0.117188 2.046875 -0.546875 L 1.96875 -0.546875 C 2.019531 -0.128906 2.046875 0.109375 2.046875 0.171875 L 2.046875 2.15625 L 0.703125 2.15625 L 0.703125 -4.90625 L 1.796875 -4.90625 L 1.984375 -4.28125 L 2.046875 -4.28125 C 2.359375 -4.757812 2.820312 -5 3.4375 -5 C 4.019531 -5 4.472656 -4.773438 4.796875 -4.328125 C 5.128906 -3.878906 5.296875 -3.257812 5.296875 -2.46875 C 5.296875 -1.9375 5.21875 -1.476562 5.0625 -1.09375 C 4.90625 -0.707031 4.6875 -0.410156 4.40625 -0.203125 C 4.125 -0.00390625 3.789062 0.09375 3.40625 0.09375 Z M 3 -3.9375 C 2.675781 -3.9375 2.4375 -3.832031 2.28125 -3.625 C 2.125 -3.425781 2.046875 -3.09375 2.046875 -2.625 L 2.046875 -2.46875 C 2.046875 -1.945312 2.125 -1.570312 2.28125 -1.34375 C 2.4375 -1.113281 2.6875 -1 3.03125 -1 C 3.625 -1 3.921875 -1.492188 3.921875 -2.484375 C 3.921875 -2.960938 3.847656 -3.320312 3.703125 -3.5625 C 3.554688 -3.8125 3.320312 -3.9375 3 -3.9375 Z M 3 -3.9375 "/></g></g><g transform="translate(115.605197, 34.726547)"><g><path d="M 1.765625 -2.46875 C 1.765625 -1.976562 1.84375 -1.609375 2 -1.359375 C 2.164062 -1.109375 2.429688 -0.984375 2.796875 -0.984375 C 3.148438 -0.984375 3.40625 -1.109375 3.5625 -1.359375 C 3.71875 -1.609375 3.796875 -1.976562 3.796875 -2.46875 C 3.796875 -2.945312 3.71875 -3.304688 3.5625 -3.546875 C 3.40625 -3.796875 3.144531 -3.921875 2.78125 -3.921875 C 2.425781 -3.921875 2.164062 -3.800781 2 -3.5625 C 1.84375 -3.320312 1.765625 -2.957031 1.765625 -2.46875 Z M 5.171875 -2.46875 C 5.171875 -1.664062 4.957031 -1.035156 4.53125 -0.578125 C 4.113281 -0.128906 3.523438 0.09375 2.765625 0.09375 C 2.296875 0.09375 1.878906 -0.0078125 1.515625 -0.21875 C 1.160156 -0.425781 0.882812 -0.722656 0.6875 -1.109375 C 0.5 -1.492188 0.40625 -1.945312 0.40625 -2.46875 C 0.40625 -3.269531 0.613281 -3.890625 1.03125 -4.328125 C 1.445312 -4.773438 2.035156 -5 2.796875 -5 C 3.265625 -5 3.679688 -4.894531 4.046875 -4.6875 C 4.410156 -4.488281 4.6875 -4.195312 4.875 -3.8125 C 5.070312 -3.425781 5.171875 -2.976562 5.171875 -2.46875 Z M 5.171875 -2.46875 "/></g></g><g transform="translate(121.177462, 34.726547)"><g><path d="M 4.125 -1.453125 C 4.125 -0.953125 3.945312 -0.566406 3.59375 -0.296875 C 3.25 -0.0351562 2.726562 0.09375 2.03125 0.09375 C 1.675781 0.09375 1.375 0.0664062 1.125 0.015625 C 0.875 -0.0351562 0.632812 -0.109375 0.40625 -0.203125 L 0.40625 -1.3125 C 0.65625 -1.1875 0.9375 -1.082031 1.25 -1 C 1.5625 -0.925781 1.835938 -0.890625 2.078125 -0.890625 C 2.566406 -0.890625 2.8125 -1.03125 2.8125 -1.3125 C 2.8125 -1.414062 2.773438 -1.5 2.703125 -1.5625 C 2.640625 -1.632812 2.53125 -1.710938 2.375 -1.796875 C 2.21875 -1.878906 2.007812 -1.976562 1.75 -2.09375 C 1.363281 -2.25 1.082031 -2.394531 0.90625 -2.53125 C 0.726562 -2.664062 0.597656 -2.816406 0.515625 -2.984375 C 0.441406 -3.160156 0.40625 -3.378906 0.40625 -3.640625 C 0.40625 -4.078125 0.570312 -4.410156 0.90625 -4.640625 C 1.25 -4.878906 1.726562 -5 2.34375 -5 C 2.9375 -5 3.515625 -4.875 4.078125 -4.625 L 3.671875 -3.65625 C 3.429688 -3.757812 3.203125 -3.84375 2.984375 -3.90625 C 2.765625 -3.976562 2.546875 -4.015625 2.328125 -4.015625 C 1.929688 -4.015625 1.734375 -3.90625 1.734375 -3.6875 C 1.734375 -3.570312 1.796875 -3.46875 1.921875 -3.375 C 2.054688 -3.289062 2.335938 -3.160156 2.765625 -2.984375 C 3.148438 -2.828125 3.429688 -2.679688 3.609375 -2.546875 C 3.785156 -2.410156 3.914062 -2.253906 4 -2.078125 C 4.082031 -1.910156 4.125 -1.703125 4.125 -1.453125 Z M 4.125 -1.453125 "/></g></g><g transform="translate(125.651095, 34.726547)"><g><path d="M 0.640625 -6.1875 C 0.640625 -6.625 0.882812 -6.84375 1.375 -6.84375 C 1.863281 -6.84375 2.109375 -6.625 2.109375 -6.1875 C 2.109375 -5.976562 2.046875 -5.816406 1.921875 -5.703125 C 1.796875 -5.585938 1.613281 -5.53125 1.375 -5.53125 C 0.882812 -5.53125 0.640625 -5.75 0.640625 -6.1875 Z M 2.046875 0 L 0.703125 0 L 0.703125 -4.90625 L 2.046875 -4.90625 Z M 2.046875 0 "/></g></g><g transform="translate(128.397677, 34.726547)"><g><path d="M 2.765625 -0.984375 C 3.003906 -0.984375 3.285156 -1.035156 3.609375 -1.140625 L 3.609375 -0.140625 C 3.273438 0.015625 2.867188 0.09375 2.390625 0.09375 C 1.847656 0.09375 1.453125 -0.0390625 1.203125 -0.3125 C 0.960938 -0.582031 0.84375 -0.988281 0.84375 -1.53125 L 0.84375 -3.90625 L 0.203125 -3.90625 L 0.203125 -4.46875 L 0.9375 -4.921875 L 1.328125 -5.953125 L 2.1875 -5.953125 L 2.1875 -4.90625 L 3.5625 -4.90625 L 3.5625 -3.90625 L 2.1875 -3.90625 L 2.1875 -1.53125 C 2.1875 -1.34375 2.238281 -1.203125 2.34375 -1.109375 C 2.457031 -1.023438 2.597656 -0.984375 2.765625 -0.984375 Z M 2.765625 -0.984375 "/></g></g><g transform="translate(132.304414, 34.726547)"><g><path d="M 0.640625 -6.1875 C 0.640625 -6.625 0.882812 -6.84375 1.375 -6.84375 C 1.863281 -6.84375 2.109375 -6.625 2.109375 -6.1875 C 2.109375 -5.976562 2.046875 -5.816406 1.921875 -5.703125 C 1.796875 -5.585938 1.613281 -5.53125 1.375 -5.53125 C 0.882812 -5.53125 0.640625 -5.75 0.640625 -6.1875 Z M 2.046875 0 L 0.703125 0 L 0.703125 -4.90625 L 2.046875 -4.90625 Z M 2.046875 0 "/></g></g><g transform="translate(135.050996, 34.726547)"><g><path d="M 1.765625 -2.46875 C 1.765625 -1.976562 1.84375 -1.609375 2 -1.359375 C 2.164062 -1.109375 2.429688 -0.984375 2.796875 -0.984375 C 3.148438 -0.984375 3.40625 -1.109375 3.5625 -1.359375 C 3.71875 -1.609375 3.796875 -1.976562 3.796875 -2.46875 C 3.796875 -2.945312 3.71875 -3.304688 3.5625 -3.546875 C 3.40625 -3.796875 3.144531 -3.921875 2.78125 -3.921875 C 2.425781 -3.921875 2.164062 -3.800781 2 -3.5625 C 1.84375 -3.320312 1.765625 -2.957031 1.765625 -2.46875 Z M 5.171875 -2.46875 C 5.171875 -1.664062 4.957031 -1.035156 4.53125 -0.578125 C 4.113281 -0.128906 3.523438 0.09375 2.765625 0.09375 C 2.296875 0.09375 1.878906 -0.0078125 1.515625 -0.21875 C 1.160156 -0.425781 0.882812 -0.722656 0.6875 -1.109375 C 0.5 -1.492188 0.40625 -1.945312 0.40625 -2.46875 C 0.40625 -3.269531 0.613281 -3.890625 1.03125 -4.328125 C 1.445312 -4.773438 2.035156 -5 2.796875 -5 C 3.265625 -5 3.679688 -4.894531 4.046875 -4.6875 C 4.410156 -4.488281 4.6875 -4.195312 4.875 -3.8125 C 5.070312 -3.425781 5.171875 -2.976562 5.171875 -2.46875 Z M 5.171875 -2.46875 "/></g></g><g transform="translate(140.623262, 34.726547)"><g><path d="M 5.234375 0 L 3.890625 0 L 3.890625 -2.875 C 3.890625 -3.226562 3.828125 -3.492188 3.703125 -3.671875 C 3.578125 -3.847656 3.378906 -3.9375 3.109375 -3.9375 C 2.734375 -3.9375 2.460938 -3.8125 2.296875 -3.5625 C 2.128906 -3.3125 2.046875 -2.894531 2.046875 -2.3125 L 2.046875 0 L 0.703125 0 L 0.703125 -4.90625 L 1.734375 -4.90625 L 1.90625 -4.28125 L 1.984375 -4.28125 C 2.128906 -4.519531 2.332031 -4.695312 2.59375 -4.8125 C 2.863281 -4.9375 3.164062 -5 3.5 -5 C 4.0625 -5 4.488281 -4.84375 4.78125 -4.53125 C 5.082031 -4.226562 5.234375 -3.785156 5.234375 -3.203125 Z M 5.234375 0 "/></g></g></g><g clip-path="url(#5144dbab10)"><g clip-path="url(#dfff3681ae)"><path fill="#05415f" d="M 149.335938 12.441406 L 162.722656 12.441406 L 162.722656 23.324219 L 149.335938 23.324219 Z M 149.335938 12.441406 " fill-opacity="1" fill-rule="nonzero"/></g></g><g clip-path="url(#9f17765e22)"><path fill="#05415f" d="M 149.335938 17.882812 L 162.722656 17.882812 L 162.722656 27.238281 L 149.335938 27.238281 Z M 149.335938 17.882812 " fill-opacity="1" fill-rule="nonzero"/></g><g fill="#05415f" fill-opacity="1"><g transform="translate(141.229785, 105.618525)"><g><path d="M 3.28125 0 L 1.921875 0 L 1.921875 -5.296875 L 0.1875 -5.296875 L 0.1875 -6.421875 L 5.03125 -6.421875 L 5.03125 -5.296875 L 3.28125 -5.296875 Z M 3.28125 0 "/></g></g><g transform="translate(146.441693, 105.618525)"><g><path d="M 0.640625 -6.1875 C 0.640625 -6.625 0.882812 -6.84375 1.375 -6.84375 C 1.863281 -6.84375 2.109375 -6.625 2.109375 -6.1875 C 2.109375 -5.976562 2.046875 -5.816406 1.921875 -5.703125 C 1.796875 -5.585938 1.613281 -5.53125 1.375 -5.53125 C 0.882812 -5.53125 0.640625 -5.75 0.640625 -6.1875 Z M 2.046875 0 L 0.703125 0 L 0.703125 -4.90625 L 2.046875 -4.90625 Z M 2.046875 0 "/></g></g><g transform="translate(149.188271, 105.618525)"><g><path d="M 5.109375 0 L 3.765625 0 L 3.765625 -2.875 C 3.765625 -3.226562 3.703125 -3.492188 3.578125 -3.671875 C 3.460938 -3.847656 3.28125 -3.9375 3.03125 -3.9375 C 2.6875 -3.9375 2.4375 -3.804688 2.28125 -3.546875 C 2.125 -3.296875 2.046875 -2.882812 2.046875 -2.3125 L 2.046875 0 L 0.703125 0 L 0.703125 -4.90625 L 1.734375 -4.90625 L 1.90625 -4.28125 L 1.984375 -4.28125 C 2.117188 -4.507812 2.304688 -4.6875 2.546875 -4.8125 C 2.796875 -4.9375 3.082031 -5 3.40625 -5 C 4.144531 -5 4.644531 -4.757812 4.90625 -4.28125 L 5.015625 -4.28125 C 5.148438 -4.507812 5.34375 -4.6875 5.59375 -4.8125 C 5.851562 -4.9375 6.144531 -5 6.46875 -5 C 7.03125 -5 7.453125 -4.859375 7.734375 -4.578125 C 8.023438 -4.296875 8.171875 -3.835938 8.171875 -3.203125 L 8.171875 0 L 6.828125 0 L 6.828125 -2.875 C 6.828125 -3.226562 6.765625 -3.492188 6.640625 -3.671875 C 6.523438 -3.847656 6.335938 -3.9375 6.078125 -3.9375 C 5.753906 -3.9375 5.507812 -3.816406 5.34375 -3.578125 C 5.1875 -3.347656 5.109375 -2.976562 5.109375 -2.46875 Z M 5.109375 0 "/></g></g><g transform="translate(158.025663, 105.618525)"><g><path d="M 2.734375 -4.046875 C 2.453125 -4.046875 2.226562 -3.957031 2.0625 -3.78125 C 1.90625 -3.601562 1.816406 -3.347656 1.796875 -3.015625 L 3.671875 -3.015625 C 3.671875 -3.347656 3.585938 -3.601562 3.421875 -3.78125 C 3.253906 -3.957031 3.023438 -4.046875 2.734375 -4.046875 Z M 2.921875 0.09375 C 2.128906 0.09375 1.507812 -0.125 1.0625 -0.5625 C 0.625 -1 0.40625 -1.617188 0.40625 -2.421875 C 0.40625 -3.242188 0.609375 -3.878906 1.015625 -4.328125 C 1.429688 -4.773438 2.003906 -5 2.734375 -5 C 3.421875 -5 3.957031 -4.800781 4.34375 -4.40625 C 4.738281 -4.007812 4.9375 -3.460938 4.9375 -2.765625 L 4.9375 -2.125 L 1.765625 -2.125 C 1.773438 -1.738281 1.882812 -1.4375 2.09375 -1.21875 C 2.3125 -1.007812 2.609375 -0.90625 2.984375 -0.90625 C 3.285156 -0.90625 3.566406 -0.9375 3.828125 -1 C 4.085938 -1.0625 4.363281 -1.160156 4.65625 -1.296875 L 4.65625 -0.265625 C 4.414062 -0.140625 4.160156 -0.0507812 3.890625 0 C 3.628906 0.0625 3.304688 0.09375 2.921875 0.09375 Z M 2.921875 0.09375 "/></g></g><g transform="translate(163.343039, 105.618525)"><g/></g><g transform="translate(165.680927, 105.618525)"><g><path d="M 4.859375 0 L 0.359375 0 L 0.359375 -0.9375 L 1.96875 -2.578125 C 2.445312 -3.066406 2.757812 -3.40625 2.90625 -3.59375 C 3.050781 -3.78125 3.15625 -3.953125 3.21875 -4.109375 C 3.289062 -4.273438 3.328125 -4.445312 3.328125 -4.625 C 3.328125 -4.875 3.253906 -5.0625 3.109375 -5.1875 C 2.960938 -5.320312 2.773438 -5.390625 2.546875 -5.390625 C 2.296875 -5.390625 2.050781 -5.332031 1.8125 -5.21875 C 1.582031 -5.101562 1.335938 -4.9375 1.078125 -4.71875 L 0.34375 -5.59375 C 0.65625 -5.863281 0.914062 -6.054688 1.125 -6.171875 C 1.332031 -6.285156 1.5625 -6.367188 1.8125 -6.421875 C 2.0625 -6.484375 2.335938 -6.515625 2.640625 -6.515625 C 3.035156 -6.515625 3.382812 -6.441406 3.6875 -6.296875 C 4 -6.148438 4.238281 -5.941406 4.40625 -5.671875 C 4.582031 -5.410156 4.671875 -5.113281 4.671875 -4.78125 C 4.671875 -4.476562 4.617188 -4.195312 4.515625 -3.9375 C 4.410156 -3.6875 4.25 -3.421875 4.03125 -3.140625 C 3.8125 -2.867188 3.425781 -2.484375 2.875 -1.984375 L 2.046875 -1.203125 L 2.046875 -1.140625 L 4.859375 -1.140625 Z M 4.859375 0 "/></g></g></g><g fill="#ffffff" fill-opacity="1"><g transform="translate(33.103032, 83.504333)"><g><path d="M -3.625 -2.3125 L -3.625 -2.78125 C -3.625 -3.226562 -3.707031 -3.5625 -3.875 -3.78125 C -4.050781 -4.007812 -4.3125 -4.125 -4.65625 -4.125 C -4.988281 -4.125 -5.238281 -4.03125 -5.40625 -3.84375 C -5.570312 -3.65625 -5.65625 -3.363281 -5.65625 -2.96875 L -5.65625 -2.3125 Z M -4.703125 -5.578125 C -3.960938 -5.578125 -3.398438 -5.347656 -3.015625 -4.890625 C -2.628906 -4.429688 -2.4375 -3.78125 -2.4375 -2.9375 L -2.4375 -2.3125 L 0 -2.3125 L 0 -0.859375 L -6.84375 -0.859375 L -6.84375 -3.046875 C -6.84375 -3.867188 -6.660156 -4.492188 -6.296875 -4.921875 C -5.941406 -5.359375 -5.410156 -5.578125 -4.703125 -5.578125 Z M -4.703125 -5.578125 "/></g></g></g><g fill="#ffffff" fill-opacity="1"><g transform="translate(33.103032, 77.48811)"><g><path d="M -6.84375 -4.765625 L -6.84375 -6.21875 L 0 -3.90625 L 0 -2.3125 L -6.84375 0 L -6.84375 -1.46875 L -2.765625 -2.75 C -2.523438 -2.820312 -2.242188 -2.894531 -1.921875 -2.96875 C -1.609375 -3.050781 -1.390625 -3.097656 -1.265625 -3.109375 C -1.546875 -3.148438 -2.046875 -3.269531 -2.765625 -3.46875 Z M -6.84375 -4.765625 "/></g></g></g><g fill="#ffffff" fill-opacity="1"><g transform="translate(33.103032, 71.261366)"><g/></g></g><g fill="#ffffff" fill-opacity="1"><g transform="translate(33.103032, 68.77254)"><g><path d="M 0 -3.953125 L 0 -2.515625 L -3.953125 -2.515625 L -4.609375 -2.53125 L -5.3125 -2.546875 C -5.070312 -2.304688 -4.914062 -2.140625 -4.84375 -2.046875 L -4.21875 -1.265625 L -5.078125 -0.5625 L -6.84375 -2.765625 L -6.84375 -3.953125 Z M 0 -3.953125 "/></g></g></g><g fill="#05415f" fill-opacity="1"><g transform="translate(172.023214, 9.883199)"><g><path d="M 3.96875 0 L 0.78125 0 L 0.78125 -5.71875 L 3.96875 -5.71875 L 3.96875 -5.125 L 1.453125 -5.125 L 1.453125 -3.28125 L 3.8125 -3.28125 L 3.8125 -2.703125 L 1.453125 -2.703125 L 1.453125 -0.59375 L 3.96875 -0.59375 Z M 3.96875 0 "/></g></g><g transform="translate(176.472446, 9.883199)"><g><path d="M 2.625 -3.78125 L 1.53125 -3.78125 L 1.53125 0 L 0.875 0 L 0.875 -3.78125 L 0.109375 -3.78125 L 0.109375 -4.078125 L 0.875 -4.3125 L 0.875 -4.546875 C 0.875 -5.597656 1.335938 -6.125 2.265625 -6.125 C 2.484375 -6.125 2.75 -6.078125 3.0625 -5.984375 L 2.890625 -5.46875 C 2.640625 -5.550781 2.425781 -5.59375 2.25 -5.59375 C 2 -5.59375 1.816406 -5.507812 1.703125 -5.34375 C 1.585938 -5.175781 1.53125 -4.914062 1.53125 -4.5625 L 1.53125 -4.28125 L 2.625 -4.28125 Z M 2.625 -3.78125 "/></g></g><g transform="translate(179.183392, 9.883199)"><g><path d="M 2.625 -3.78125 L 1.53125 -3.78125 L 1.53125 0 L 0.875 0 L 0.875 -3.78125 L 0.109375 -3.78125 L 0.109375 -4.078125 L 0.875 -4.3125 L 0.875 -4.546875 C 0.875 -5.597656 1.335938 -6.125 2.265625 -6.125 C 2.484375 -6.125 2.75 -6.078125 3.0625 -5.984375 L 2.890625 -5.46875 C 2.640625 -5.550781 2.425781 -5.59375 2.25 -5.59375 C 2 -5.59375 1.816406 -5.507812 1.703125 -5.34375 C 1.585938 -5.175781 1.53125 -4.914062 1.53125 -4.5625 L 1.53125 -4.28125 L 2.625 -4.28125 Z M 2.625 -3.78125 "/></g></g><g transform="translate(181.894338, 9.883199)"><g><path d="M 2.5 0.078125 C 1.863281 0.078125 1.363281 -0.113281 1 -0.5 C 0.632812 -0.882812 0.453125 -1.421875 0.453125 -2.109375 C 0.453125 -2.796875 0.617188 -3.34375 0.953125 -3.75 C 1.296875 -4.15625 1.753906 -4.359375 2.328125 -4.359375 C 2.867188 -4.359375 3.296875 -4.179688 3.609375 -3.828125 C 3.921875 -3.472656 4.078125 -3.007812 4.078125 -2.4375 L 4.078125 -2.03125 L 1.125 -2.03125 C 1.132812 -1.519531 1.257812 -1.132812 1.5 -0.875 C 1.738281 -0.613281 2.078125 -0.484375 2.515625 -0.484375 C 2.984375 -0.484375 3.441406 -0.582031 3.890625 -0.78125 L 3.890625 -0.203125 C 3.660156 -0.0976562 3.441406 -0.0234375 3.234375 0.015625 C 3.035156 0.0546875 2.789062 0.078125 2.5 0.078125 Z M 2.328125 -3.8125 C 1.984375 -3.8125 1.707031 -3.695312 1.5 -3.46875 C 1.289062 -3.25 1.171875 -2.941406 1.140625 -2.546875 L 3.375 -2.546875 C 3.375 -2.960938 3.28125 -3.273438 3.09375 -3.484375 C 2.914062 -3.703125 2.660156 -3.8125 2.328125 -3.8125 Z M 2.328125 -3.8125 "/></g></g><g transform="translate(186.382632, 9.883199)"><g><path d="M 2.40625 0.078125 C 1.78125 0.078125 1.296875 -0.109375 0.953125 -0.484375 C 0.617188 -0.867188 0.453125 -1.410156 0.453125 -2.109375 C 0.453125 -2.828125 0.625 -3.378906 0.96875 -3.765625 C 1.3125 -4.160156 1.800781 -4.359375 2.4375 -4.359375 C 2.644531 -4.359375 2.851562 -4.335938 3.0625 -4.296875 C 3.269531 -4.253906 3.429688 -4.203125 3.546875 -4.140625 L 3.34375 -3.59375 C 3.195312 -3.644531 3.039062 -3.6875 2.875 -3.71875 C 2.707031 -3.757812 2.554688 -3.78125 2.421875 -3.78125 C 1.554688 -3.78125 1.125 -3.226562 1.125 -2.125 C 1.125 -1.59375 1.226562 -1.1875 1.4375 -0.90625 C 1.65625 -0.625 1.972656 -0.484375 2.390625 -0.484375 C 2.742188 -0.484375 3.109375 -0.5625 3.484375 -0.71875 L 3.484375 -0.140625 C 3.191406 0.00390625 2.832031 0.078125 2.40625 0.078125 Z M 2.40625 0.078125 "/></g></g><g transform="translate(190.191237, 9.883199)"><g><path d="M 2.078125 -0.453125 C 2.191406 -0.453125 2.300781 -0.460938 2.40625 -0.484375 C 2.507812 -0.503906 2.59375 -0.519531 2.65625 -0.53125 L 2.65625 -0.046875 C 2.582031 -0.00390625 2.476562 0.0234375 2.34375 0.046875 C 2.207031 0.0664062 2.085938 0.078125 1.984375 0.078125 C 1.148438 0.078125 0.734375 -0.359375 0.734375 -1.234375 L 0.734375 -3.78125 L 0.125 -3.78125 L 0.125 -4.09375 L 0.734375 -4.359375 L 1.015625 -5.28125 L 1.390625 -5.28125 L 1.390625 -4.28125 L 2.625 -4.28125 L 2.625 -3.78125 L 1.390625 -3.78125 L 1.390625 -1.265625 C 1.390625 -1.003906 1.445312 -0.800781 1.5625 -0.65625 C 1.6875 -0.519531 1.859375 -0.453125 2.078125 -0.453125 Z M 2.078125 -0.453125 "/></g></g><g transform="translate(193.015465, 9.883199)"><g/></g><g transform="translate(195.093596, 9.883199)"><g><path d="M 4.390625 -2.140625 C 4.390625 -1.441406 4.210938 -0.894531 3.859375 -0.5 C 3.503906 -0.113281 3.019531 0.078125 2.40625 0.078125 C 2.019531 0.078125 1.675781 -0.0078125 1.375 -0.1875 C 1.082031 -0.375 0.851562 -0.632812 0.6875 -0.96875 C 0.53125 -1.300781 0.453125 -1.691406 0.453125 -2.140625 C 0.453125 -2.835938 0.625 -3.378906 0.96875 -3.765625 C 1.320312 -4.160156 1.804688 -4.359375 2.421875 -4.359375 C 3.023438 -4.359375 3.503906 -4.160156 3.859375 -3.765625 C 4.210938 -3.367188 4.390625 -2.828125 4.390625 -2.140625 Z M 1.125 -2.140625 C 1.125 -1.597656 1.234375 -1.179688 1.453125 -0.890625 C 1.671875 -0.609375 1.992188 -0.46875 2.421875 -0.46875 C 2.835938 -0.46875 3.15625 -0.609375 3.375 -0.890625 C 3.601562 -1.179688 3.71875 -1.597656 3.71875 -2.140625 C 3.71875 -2.691406 3.601562 -3.109375 3.375 -3.390625 C 3.15625 -3.671875 2.832031 -3.8125 2.40625 -3.8125 C 1.976562 -3.8125 1.65625 -3.671875 1.4375 -3.390625 C 1.226562 -3.109375 1.125 -2.691406 1.125 -2.140625 Z M 1.125 -2.140625 "/></g></g><g transform="translate(199.925642, 9.883199)"><g><path d="M 2.625 -3.78125 L 1.53125 -3.78125 L 1.53125 0 L 0.875 0 L 0.875 -3.78125 L 0.109375 -3.78125 L 0.109375 -4.078125 L 0.875 -4.3125 L 0.875 -4.546875 C 0.875 -5.597656 1.335938 -6.125 2.265625 -6.125 C 2.484375 -6.125 2.75 -6.078125 3.0625 -5.984375 L 2.890625 -5.46875 C 2.640625 -5.550781 2.425781 -5.59375 2.25 -5.59375 C 2 -5.59375 1.816406 -5.507812 1.703125 -5.34375 C 1.585938 -5.175781 1.53125 -4.914062 1.53125 -4.5625 L 1.53125 -4.28125 L 2.625 -4.28125 Z M 2.625 -3.78125 "/></g></g><g transform="translate(202.636587, 9.883199)"><g/></g><g transform="translate(204.714718, 9.883199)"><g><path d="M 2.6875 0.078125 C 2.40625 0.078125 2.148438 0.0234375 1.921875 -0.078125 C 1.691406 -0.179688 1.5 -0.335938 1.34375 -0.546875 L 1.296875 -0.546875 C 1.328125 -0.296875 1.34375 -0.0625 1.34375 0.15625 L 1.34375 1.921875 L 0.6875 1.921875 L 0.6875 -4.28125 L 1.21875 -4.28125 L 1.3125 -3.703125 L 1.34375 -3.703125 C 1.507812 -3.929688 1.703125 -4.097656 1.921875 -4.203125 C 2.140625 -4.304688 2.394531 -4.359375 2.6875 -4.359375 C 3.25 -4.359375 3.679688 -4.164062 3.984375 -3.78125 C 4.296875 -3.394531 4.453125 -2.847656 4.453125 -2.140625 C 4.453125 -1.441406 4.296875 -0.894531 3.984375 -0.5 C 3.671875 -0.113281 3.238281 0.078125 2.6875 0.078125 Z M 2.59375 -3.8125 C 2.15625 -3.8125 1.835938 -3.6875 1.640625 -3.4375 C 1.441406 -3.195312 1.34375 -2.816406 1.34375 -2.296875 L 1.34375 -2.140625 C 1.34375 -1.546875 1.441406 -1.117188 1.640625 -0.859375 C 1.835938 -0.597656 2.160156 -0.46875 2.609375 -0.46875 C 2.972656 -0.46875 3.257812 -0.613281 3.46875 -0.90625 C 3.675781 -1.207031 3.78125 -1.625 3.78125 -2.15625 C 3.78125 -2.6875 3.675781 -3.09375 3.46875 -3.375 C 3.257812 -3.664062 2.96875 -3.8125 2.59375 -3.8125 Z M 2.59375 -3.8125 "/></g></g><g transform="translate(209.617077, 9.883199)"><g><path d="M 4.390625 -2.140625 C 4.390625 -1.441406 4.210938 -0.894531 3.859375 -0.5 C 3.503906 -0.113281 3.019531 0.078125 2.40625 0.078125 C 2.019531 0.078125 1.675781 -0.0078125 1.375 -0.1875 C 1.082031 -0.375 0.851562 -0.632812 0.6875 -0.96875 C 0.53125 -1.300781 0.453125 -1.691406 0.453125 -2.140625 C 0.453125 -2.835938 0.625 -3.378906 0.96875 -3.765625 C 1.320312 -4.160156 1.804688 -4.359375 2.421875 -4.359375 C 3.023438 -4.359375 3.503906 -4.160156 3.859375 -3.765625 C 4.210938 -3.367188 4.390625 -2.828125 4.390625 -2.140625 Z M 1.125 -2.140625 C 1.125 -1.597656 1.234375 -1.179688 1.453125 -0.890625 C 1.671875 -0.609375 1.992188 -0.46875 2.421875 -0.46875 C 2.835938 -0.46875 3.15625 -0.609375 3.375 -0.890625 C 3.601562 -1.179688 3.71875 -1.597656 3.71875 -2.140625 C 3.71875 -2.691406 3.601562 -3.109375 3.375 -3.390625 C 3.15625 -3.671875 2.832031 -3.8125 2.40625 -3.8125 C 1.976562 -3.8125 1.65625 -3.671875 1.4375 -3.390625 C 1.226562 -3.109375 1.125 -2.691406 1.125 -2.140625 Z M 1.125 -2.140625 "/></g></g><g transform="translate(214.449123, 9.883199)"><g><path d="M 2.640625 -4.359375 C 2.828125 -4.359375 3 -4.34375 3.15625 -4.3125 L 3.0625 -3.71875 C 2.882812 -3.75 2.726562 -3.765625 2.59375 -3.765625 C 2.25 -3.765625 1.953125 -3.625 1.703125 -3.34375 C 1.460938 -3.0625 1.34375 -2.710938 1.34375 -2.296875 L 1.34375 0 L 0.6875 0 L 0.6875 -4.28125 L 1.21875 -4.28125 L 1.296875 -3.484375 L 1.328125 -3.484375 C 1.484375 -3.765625 1.671875 -3.976562 1.890625 -4.125 C 2.117188 -4.28125 2.367188 -4.359375 2.640625 -4.359375 Z M 2.640625 -4.359375 "/></g></g><g transform="translate(217.714757, 9.883199)"><g><path d="M 2.078125 -0.453125 C 2.191406 -0.453125 2.300781 -0.460938 2.40625 -0.484375 C 2.507812 -0.503906 2.59375 -0.519531 2.65625 -0.53125 L 2.65625 -0.046875 C 2.582031 -0.00390625 2.476562 0.0234375 2.34375 0.046875 C 2.207031 0.0664062 2.085938 0.078125 1.984375 0.078125 C 1.148438 0.078125 0.734375 -0.359375 0.734375 -1.234375 L 0.734375 -3.78125 L 0.125 -3.78125 L 0.125 -4.09375 L 0.734375 -4.359375 L 1.015625 -5.28125 L 1.390625 -5.28125 L 1.390625 -4.28125 L 2.625 -4.28125 L 2.625 -3.78125 L 1.390625 -3.78125 L 1.390625 -1.265625 C 1.390625 -1.003906 1.445312 -0.800781 1.5625 -0.65625 C 1.6875 -0.519531 1.859375 -0.453125 2.078125 -0.453125 Z M 2.078125 -0.453125 "/></g></g><g transform="translate(220.538985, 9.883199)"><g><path d="M 2.625 -3.78125 L 1.53125 -3.78125 L 1.53125 0 L 0.875 0 L 0.875 -3.78125 L 0.109375 -3.78125 L 0.109375 -4.078125 L 0.875 -4.3125 L 0.875 -4.546875 C 0.875 -5.597656 1.335938 -6.125 2.265625 -6.125 C 2.484375 -6.125 2.75 -6.078125 3.0625 -5.984375 L 2.890625 -5.46875 C 2.640625 -5.550781 2.425781 -5.59375 2.25 -5.59375 C 2 -5.59375 1.816406 -5.507812 1.703125 -5.34375 C 1.585938 -5.175781 1.53125 -4.914062 1.53125 -4.5625 L 1.53125 -4.28125 L 2.625 -4.28125 Z M 2.625 -3.78125 "/></g></g><g transform="translate(223.24993, 9.883199)"><g><path d="M 4.390625 -2.140625 C 4.390625 -1.441406 4.210938 -0.894531 3.859375 -0.5 C 3.503906 -0.113281 3.019531 0.078125 2.40625 0.078125 C 2.019531 0.078125 1.675781 -0.0078125 1.375 -0.1875 C 1.082031 -0.375 0.851562 -0.632812 0.6875 -0.96875 C 0.53125 -1.300781 0.453125 -1.691406 0.453125 -2.140625 C 0.453125 -2.835938 0.625 -3.378906 0.96875 -3.765625 C 1.320312 -4.160156 1.804688 -4.359375 2.421875 -4.359375 C 3.023438 -4.359375 3.503906 -4.160156 3.859375 -3.765625 C 4.210938 -3.367188 4.390625 -2.828125 4.390625 -2.140625 Z M 1.125 -2.140625 C 1.125 -1.597656 1.234375 -1.179688 1.453125 -0.890625 C 1.671875 -0.609375 1.992188 -0.46875 2.421875 -0.46875 C 2.835938 -0.46875 3.15625 -0.609375 3.375 -0.890625 C 3.601562 -1.179688 3.71875 -1.597656 3.71875 -2.140625 C 3.71875 -2.691406 3.601562 -3.109375 3.375 -3.390625 C 3.15625 -3.671875 2.832031 -3.8125 2.40625 -3.8125 C 1.976562 -3.8125 1.65625 -3.671875 1.4375 -3.390625 C 1.226562 -3.109375 1.125 -2.691406 1.125 -2.140625 Z M 1.125 -2.140625 "/></g></g><g transform="translate(228.081976, 9.883199)"><g><path d="M 1.34375 0 L 0.6875 0 L 0.6875 -6.078125 L 1.34375 -6.078125 Z M 1.34375 0 "/></g></g><g transform="translate(230.105419, 9.883199)"><g><path d="M 1.34375 0 L 0.6875 0 L 0.6875 -4.28125 L 1.34375 -4.28125 Z M 0.640625 -5.4375 C 0.640625 -5.59375 0.675781 -5.703125 0.75 -5.765625 C 0.820312 -5.835938 0.910156 -5.875 1.015625 -5.875 C 1.117188 -5.875 1.207031 -5.835938 1.28125 -5.765625 C 1.363281 -5.691406 1.40625 -5.582031 1.40625 -5.4375 C 1.40625 -5.289062 1.363281 -5.179688 1.28125 -5.109375 C 1.207031 -5.046875 1.117188 -5.015625 1.015625 -5.015625 C 0.910156 -5.015625 0.820312 -5.046875 0.75 -5.109375 C 0.675781 -5.179688 0.640625 -5.289062 0.640625 -5.4375 Z M 0.640625 -5.4375 "/></g></g><g transform="translate(232.128863, 9.883199)"><g><path d="M 4.390625 -2.140625 C 4.390625 -1.441406 4.210938 -0.894531 3.859375 -0.5 C 3.503906 -0.113281 3.019531 0.078125 2.40625 0.078125 C 2.019531 0.078125 1.675781 -0.0078125 1.375 -0.1875 C 1.082031 -0.375 0.851562 -0.632812 0.6875 -0.96875 C 0.53125 -1.300781 0.453125 -1.691406 0.453125 -2.140625 C 0.453125 -2.835938 0.625 -3.378906 0.96875 -3.765625 C 1.320312 -4.160156 1.804688 -4.359375 2.421875 -4.359375 C 3.023438 -4.359375 3.503906 -4.160156 3.859375 -3.765625 C 4.210938 -3.367188 4.390625 -2.828125 4.390625 -2.140625 Z M 1.125 -2.140625 C 1.125 -1.597656 1.234375 -1.179688 1.453125 -0.890625 C 1.671875 -0.609375 1.992188 -0.46875 2.421875 -0.46875 C 2.835938 -0.46875 3.15625 -0.609375 3.375 -0.890625 C 3.601562 -1.179688 3.71875 -1.597656 3.71875 -2.140625 C 3.71875 -2.691406 3.601562 -3.109375 3.375 -3.390625 C 3.15625 -3.671875 2.832031 -3.8125 2.40625 -3.8125 C 1.976562 -3.8125 1.65625 -3.671875 1.4375 -3.390625 C 1.226562 -3.109375 1.125 -2.691406 1.125 -2.140625 Z M 1.125 -2.140625 "/></g></g></g><g fill="#05415f" fill-opacity="1"><g transform="translate(172.023214, 20.549897)"><g><path d="M 2.40625 0.078125 C 1.78125 0.078125 1.296875 -0.109375 0.953125 -0.484375 C 0.617188 -0.867188 0.453125 -1.410156 0.453125 -2.109375 C 0.453125 -2.828125 0.625 -3.378906 0.96875 -3.765625 C 1.3125 -4.160156 1.800781 -4.359375 2.4375 -4.359375 C 2.644531 -4.359375 2.851562 -4.335938 3.0625 -4.296875 C 3.269531 -4.253906 3.429688 -4.203125 3.546875 -4.140625 L 3.34375 -3.59375 C 3.195312 -3.644531 3.039062 -3.6875 2.875 -3.71875 C 2.707031 -3.757812 2.554688 -3.78125 2.421875 -3.78125 C 1.554688 -3.78125 1.125 -3.226562 1.125 -2.125 C 1.125 -1.59375 1.226562 -1.1875 1.4375 -0.90625 C 1.65625 -0.625 1.972656 -0.484375 2.390625 -0.484375 C 2.742188 -0.484375 3.109375 -0.5625 3.484375 -0.71875 L 3.484375 -0.140625 C 3.191406 0.00390625 2.832031 0.078125 2.40625 0.078125 Z M 2.40625 0.078125 "/></g></g><g transform="translate(175.831819, 20.549897)"><g><path d="M 4.390625 -2.140625 C 4.390625 -1.441406 4.210938 -0.894531 3.859375 -0.5 C 3.503906 -0.113281 3.019531 0.078125 2.40625 0.078125 C 2.019531 0.078125 1.675781 -0.0078125 1.375 -0.1875 C 1.082031 -0.375 0.851562 -0.632812 0.6875 -0.96875 C 0.53125 -1.300781 0.453125 -1.691406 0.453125 -2.140625 C 0.453125 -2.835938 0.625 -3.378906 0.96875 -3.765625 C 1.320312 -4.160156 1.804688 -4.359375 2.421875 -4.359375 C 3.023438 -4.359375 3.503906 -4.160156 3.859375 -3.765625 C 4.210938 -3.367188 4.390625 -2.828125 4.390625 -2.140625 Z M 1.125 -2.140625 C 1.125 -1.597656 1.234375 -1.179688 1.453125 -0.890625 C 1.671875 -0.609375 1.992188 -0.46875 2.421875 -0.46875 C 2.835938 -0.46875 3.15625 -0.609375 3.375 -0.890625 C 3.601562 -1.179688 3.71875 -1.597656 3.71875 -2.140625 C 3.71875 -2.691406 3.601562 -3.109375 3.375 -3.390625 C 3.15625 -3.671875 2.832031 -3.8125 2.40625 -3.8125 C 1.976562 -3.8125 1.65625 -3.671875 1.4375 -3.390625 C 1.226562 -3.109375 1.125 -2.691406 1.125 -2.140625 Z M 1.125 -2.140625 "/></g></g><g transform="translate(180.663865, 20.549897)"><g><path d="M 6.140625 0 L 6.140625 -2.78125 C 6.140625 -3.125 6.066406 -3.378906 5.921875 -3.546875 C 5.773438 -3.722656 5.550781 -3.8125 5.25 -3.8125 C 4.84375 -3.8125 4.539062 -3.691406 4.34375 -3.453125 C 4.15625 -3.222656 4.0625 -2.867188 4.0625 -2.390625 L 4.0625 0 L 3.421875 0 L 3.421875 -2.78125 C 3.421875 -3.125 3.347656 -3.378906 3.203125 -3.546875 C 3.054688 -3.722656 2.828125 -3.8125 2.515625 -3.8125 C 2.109375 -3.8125 1.8125 -3.6875 1.625 -3.4375 C 1.4375 -3.195312 1.34375 -2.800781 1.34375 -2.25 L 1.34375 0 L 0.6875 0 L 0.6875 -4.28125 L 1.21875 -4.28125 L 1.328125 -3.703125 L 1.359375 -3.703125 C 1.472656 -3.910156 1.640625 -4.070312 1.859375 -4.1875 C 2.085938 -4.300781 2.34375 -4.359375 2.625 -4.359375 C 3.289062 -4.359375 3.726562 -4.117188 3.9375 -3.640625 L 3.96875 -3.640625 C 4.09375 -3.859375 4.273438 -4.03125 4.515625 -4.15625 C 4.753906 -4.289062 5.03125 -4.359375 5.34375 -4.359375 C 5.832031 -4.359375 6.195312 -4.234375 6.4375 -3.984375 C 6.675781 -3.734375 6.796875 -3.335938 6.796875 -2.796875 L 6.796875 0 Z M 6.140625 0 "/></g></g><g transform="translate(188.105294, 20.549897)"><g><path d="M 2.6875 0.078125 C 2.40625 0.078125 2.148438 0.0234375 1.921875 -0.078125 C 1.691406 -0.179688 1.5 -0.335938 1.34375 -0.546875 L 1.296875 -0.546875 C 1.328125 -0.296875 1.34375 -0.0625 1.34375 0.15625 L 1.34375 1.921875 L 0.6875 1.921875 L 0.6875 -4.28125 L 1.21875 -4.28125 L 1.3125 -3.703125 L 1.34375 -3.703125 C 1.507812 -3.929688 1.703125 -4.097656 1.921875 -4.203125 C 2.140625 -4.304688 2.394531 -4.359375 2.6875 -4.359375 C 3.25 -4.359375 3.679688 -4.164062 3.984375 -3.78125 C 4.296875 -3.394531 4.453125 -2.847656 4.453125 -2.140625 C 4.453125 -1.441406 4.296875 -0.894531 3.984375 -0.5 C 3.671875 -0.113281 3.238281 0.078125 2.6875 0.078125 Z M 2.59375 -3.8125 C 2.15625 -3.8125 1.835938 -3.6875 1.640625 -3.4375 C 1.441406 -3.195312 1.34375 -2.816406 1.34375 -2.296875 L 1.34375 -2.140625 C 1.34375 -1.546875 1.441406 -1.117188 1.640625 -0.859375 C 1.835938 -0.597656 2.160156 -0.46875 2.609375 -0.46875 C 2.972656 -0.46875 3.257812 -0.613281 3.46875 -0.90625 C 3.675781 -1.207031 3.78125 -1.625 3.78125 -2.15625 C 3.78125 -2.6875 3.675781 -3.09375 3.46875 -3.375 C 3.257812 -3.664062 2.96875 -3.8125 2.59375 -3.8125 Z M 2.59375 -3.8125 "/></g></g><g transform="translate(193.007652, 20.549897)"><g><path d="M 4.390625 -2.140625 C 4.390625 -1.441406 4.210938 -0.894531 3.859375 -0.5 C 3.503906 -0.113281 3.019531 0.078125 2.40625 0.078125 C 2.019531 0.078125 1.675781 -0.0078125 1.375 -0.1875 C 1.082031 -0.375 0.851562 -0.632812 0.6875 -0.96875 C 0.53125 -1.300781 0.453125 -1.691406 0.453125 -2.140625 C 0.453125 -2.835938 0.625 -3.378906 0.96875 -3.765625 C 1.320312 -4.160156 1.804688 -4.359375 2.421875 -4.359375 C 3.023438 -4.359375 3.503906 -4.160156 3.859375 -3.765625 C 4.210938 -3.367188 4.390625 -2.828125 4.390625 -2.140625 Z M 1.125 -2.140625 C 1.125 -1.597656 1.234375 -1.179688 1.453125 -0.890625 C 1.671875 -0.609375 1.992188 -0.46875 2.421875 -0.46875 C 2.835938 -0.46875 3.15625 -0.609375 3.375 -0.890625 C 3.601562 -1.179688 3.71875 -1.597656 3.71875 -2.140625 C 3.71875 -2.691406 3.601562 -3.109375 3.375 -3.390625 C 3.15625 -3.671875 2.832031 -3.8125 2.40625 -3.8125 C 1.976562 -3.8125 1.65625 -3.671875 1.4375 -3.390625 C 1.226562 -3.109375 1.125 -2.691406 1.125 -2.140625 Z M 1.125 -2.140625 "/></g></g><g transform="translate(197.839698, 20.549897)"><g><path d="M 3.453125 -1.171875 C 3.453125 -0.773438 3.300781 -0.46875 3 -0.25 C 2.707031 -0.03125 2.289062 0.078125 1.75 0.078125 C 1.1875 0.078125 0.742188 -0.0078125 0.421875 -0.1875 L 0.421875 -0.796875 C 0.628906 -0.691406 0.847656 -0.609375 1.078125 -0.546875 C 1.316406 -0.484375 1.546875 -0.453125 1.765625 -0.453125 C 2.109375 -0.453125 2.367188 -0.503906 2.546875 -0.609375 C 2.734375 -0.722656 2.828125 -0.890625 2.828125 -1.109375 C 2.828125 -1.273438 2.753906 -1.414062 2.609375 -1.53125 C 2.460938 -1.65625 2.179688 -1.800781 1.765625 -1.96875 C 1.367188 -2.113281 1.082031 -2.238281 0.90625 -2.34375 C 0.738281 -2.457031 0.613281 -2.582031 0.53125 -2.71875 C 0.457031 -2.863281 0.421875 -3.035156 0.421875 -3.234375 C 0.421875 -3.578125 0.5625 -3.847656 0.84375 -4.046875 C 1.125 -4.253906 1.515625 -4.359375 2.015625 -4.359375 C 2.472656 -4.359375 2.921875 -4.265625 3.359375 -4.078125 L 3.125 -3.546875 C 2.695312 -3.722656 2.3125 -3.8125 1.96875 -3.8125 C 1.65625 -3.8125 1.421875 -3.765625 1.265625 -3.671875 C 1.109375 -3.578125 1.03125 -3.445312 1.03125 -3.28125 C 1.03125 -3.164062 1.054688 -3.066406 1.109375 -2.984375 C 1.171875 -2.898438 1.265625 -2.820312 1.390625 -2.75 C 1.523438 -2.675781 1.78125 -2.570312 2.15625 -2.4375 C 2.664062 -2.25 3.007812 -2.0625 3.1875 -1.875 C 3.363281 -1.6875 3.453125 -1.453125 3.453125 -1.171875 Z M 3.453125 -1.171875 "/></g></g><g transform="translate(201.656115, 20.549897)"><g><path d="M 1.34375 0 L 0.6875 0 L 0.6875 -4.28125 L 1.34375 -4.28125 Z M 0.640625 -5.4375 C 0.640625 -5.59375 0.675781 -5.703125 0.75 -5.765625 C 0.820312 -5.835938 0.910156 -5.875 1.015625 -5.875 C 1.117188 -5.875 1.207031 -5.835938 1.28125 -5.765625 C 1.363281 -5.691406 1.40625 -5.582031 1.40625 -5.4375 C 1.40625 -5.289062 1.363281 -5.179688 1.28125 -5.109375 C 1.207031 -5.046875 1.117188 -5.015625 1.015625 -5.015625 C 0.910156 -5.015625 0.820312 -5.046875 0.75 -5.109375 C 0.675781 -5.179688 0.640625 -5.289062 0.640625 -5.4375 Z M 0.640625 -5.4375 "/></g></g><g transform="translate(203.679559, 20.549897)"><g><path d="M 2.078125 -0.453125 C 2.191406 -0.453125 2.300781 -0.460938 2.40625 -0.484375 C 2.507812 -0.503906 2.59375 -0.519531 2.65625 -0.53125 L 2.65625 -0.046875 C 2.582031 -0.00390625 2.476562 0.0234375 2.34375 0.046875 C 2.207031 0.0664062 2.085938 0.078125 1.984375 0.078125 C 1.148438 0.078125 0.734375 -0.359375 0.734375 -1.234375 L 0.734375 -3.78125 L 0.125 -3.78125 L 0.125 -4.09375 L 0.734375 -4.359375 L 1.015625 -5.28125 L 1.390625 -5.28125 L 1.390625 -4.28125 L 2.625 -4.28125 L 2.625 -3.78125 L 1.390625 -3.78125 L 1.390625 -1.265625 C 1.390625 -1.003906 1.445312 -0.800781 1.5625 -0.65625 C 1.6875 -0.519531 1.859375 -0.453125 2.078125 -0.453125 Z M 2.078125 -0.453125 "/></g></g><g transform="translate(206.503786, 20.549897)"><g><path d="M 1.34375 0 L 0.6875 0 L 0.6875 -4.28125 L 1.34375 -4.28125 Z M 0.640625 -5.4375 C 0.640625 -5.59375 0.675781 -5.703125 0.75 -5.765625 C 0.820312 -5.835938 0.910156 -5.875 1.015625 -5.875 C 1.117188 -5.875 1.207031 -5.835938 1.28125 -5.765625 C 1.363281 -5.691406 1.40625 -5.582031 1.40625 -5.4375 C 1.40625 -5.289062 1.363281 -5.179688 1.28125 -5.109375 C 1.207031 -5.046875 1.117188 -5.015625 1.015625 -5.015625 C 0.910156 -5.015625 0.820312 -5.046875 0.75 -5.109375 C 0.675781 -5.179688 0.640625 -5.289062 0.640625 -5.4375 Z M 0.640625 -5.4375 "/></g></g><g transform="translate(208.52723, 20.549897)"><g><path d="M 4.390625 -2.140625 C 4.390625 -1.441406 4.210938 -0.894531 3.859375 -0.5 C 3.503906 -0.113281 3.019531 0.078125 2.40625 0.078125 C 2.019531 0.078125 1.675781 -0.0078125 1.375 -0.1875 C 1.082031 -0.375 0.851562 -0.632812 0.6875 -0.96875 C 0.53125 -1.300781 0.453125 -1.691406 0.453125 -2.140625 C 0.453125 -2.835938 0.625 -3.378906 0.96875 -3.765625 C 1.320312 -4.160156 1.804688 -4.359375 2.421875 -4.359375 C 3.023438 -4.359375 3.503906 -4.160156 3.859375 -3.765625 C 4.210938 -3.367188 4.390625 -2.828125 4.390625 -2.140625 Z M 1.125 -2.140625 C 1.125 -1.597656 1.234375 -1.179688 1.453125 -0.890625 C 1.671875 -0.609375 1.992188 -0.46875 2.421875 -0.46875 C 2.835938 -0.46875 3.15625 -0.609375 3.375 -0.890625 C 3.601562 -1.179688 3.71875 -1.597656 3.71875 -2.140625 C 3.71875 -2.691406 3.601562 -3.109375 3.375 -3.390625 C 3.15625 -3.671875 2.832031 -3.8125 2.40625 -3.8125 C 1.976562 -3.8125 1.65625 -3.671875 1.4375 -3.390625 C 1.226562 -3.109375 1.125 -2.691406 1.125 -2.140625 Z M 1.125 -2.140625 "/></g></g><g transform="translate(213.359275, 20.549897)"><g><path d="M 3.625 0 L 3.625 -2.765625 C 3.625 -3.117188 3.539062 -3.378906 3.375 -3.546875 C 3.21875 -3.722656 2.972656 -3.8125 2.640625 -3.8125 C 2.191406 -3.8125 1.863281 -3.6875 1.65625 -3.4375 C 1.445312 -3.195312 1.34375 -2.800781 1.34375 -2.25 L 1.34375 0 L 0.6875 0 L 0.6875 -4.28125 L 1.21875 -4.28125 L 1.328125 -3.703125 L 1.359375 -3.703125 C 1.484375 -3.910156 1.664062 -4.070312 1.90625 -4.1875 C 2.144531 -4.300781 2.414062 -4.359375 2.71875 -4.359375 C 3.226562 -4.359375 3.613281 -4.234375 3.875 -3.984375 C 4.132812 -3.734375 4.265625 -3.335938 4.265625 -2.796875 L 4.265625 0 Z M 3.625 0 "/></g></g><g transform="translate(218.269446, 20.549897)"><g/></g><g transform="translate(220.347578, 20.549897)"><g><path d="M 1.625 -4.578125 C 1.625 -4.398438 1.671875 -4.226562 1.765625 -4.0625 C 1.859375 -3.894531 2.015625 -3.695312 2.234375 -3.46875 C 2.578125 -3.664062 2.8125 -3.847656 2.9375 -4.015625 C 3.070312 -4.179688 3.140625 -4.375 3.140625 -4.59375 C 3.140625 -4.789062 3.070312 -4.953125 2.9375 -5.078125 C 2.800781 -5.203125 2.625 -5.265625 2.40625 -5.265625 C 2.164062 -5.265625 1.972656 -5.203125 1.828125 -5.078125 C 1.691406 -4.953125 1.625 -4.785156 1.625 -4.578125 Z M 2.21875 -0.5 C 2.851562 -0.5 3.375 -0.703125 3.78125 -1.109375 L 2.078125 -2.765625 C 1.785156 -2.585938 1.578125 -2.441406 1.453125 -2.328125 C 1.335938 -2.210938 1.25 -2.085938 1.1875 -1.953125 C 1.132812 -1.816406 1.109375 -1.664062 1.109375 -1.5 C 1.109375 -1.195312 1.207031 -0.953125 1.40625 -0.765625 C 1.613281 -0.585938 1.882812 -0.5 2.21875 -0.5 Z M 0.4375 -1.484375 C 0.4375 -1.816406 0.523438 -2.113281 0.703125 -2.375 C 0.890625 -2.632812 1.21875 -2.898438 1.6875 -3.171875 C 1.46875 -3.421875 1.316406 -3.609375 1.234375 -3.734375 C 1.160156 -3.859375 1.097656 -3.988281 1.046875 -4.125 C 1.003906 -4.269531 0.984375 -4.414062 0.984375 -4.5625 C 0.984375 -4.945312 1.109375 -5.25 1.359375 -5.46875 C 1.617188 -5.6875 1.972656 -5.796875 2.421875 -5.796875 C 2.847656 -5.796875 3.179688 -5.6875 3.421875 -5.46875 C 3.660156 -5.257812 3.78125 -4.957031 3.78125 -4.5625 C 3.78125 -4.289062 3.691406 -4.035156 3.515625 -3.796875 C 3.335938 -3.554688 3.046875 -3.316406 2.640625 -3.078125 L 4.234375 -1.546875 C 4.378906 -1.710938 4.492188 -1.90625 4.578125 -2.125 C 4.671875 -2.34375 4.742188 -2.578125 4.796875 -2.828125 L 5.453125 -2.828125 C 5.273438 -2.085938 5.007812 -1.523438 4.65625 -1.140625 L 5.828125 0 L 4.9375 0 L 4.203125 -0.703125 C 3.898438 -0.421875 3.585938 -0.21875 3.265625 -0.09375 C 2.953125 0.0195312 2.597656 0.078125 2.203125 0.078125 C 1.648438 0.078125 1.21875 -0.0546875 0.90625 -0.328125 C 0.59375 -0.609375 0.4375 -0.992188 0.4375 -1.484375 Z M 0.4375 -1.484375 "/></g></g></g><g fill="#05415f" fill-opacity="1"><g transform="translate(172.023214, 31.216596)"><g><path d="M 2.078125 -0.453125 C 2.191406 -0.453125 2.300781 -0.460938 2.40625 -0.484375 C 2.507812 -0.503906 2.59375 -0.519531 2.65625 -0.53125 L 2.65625 -0.046875 C 2.582031 -0.00390625 2.476562 0.0234375 2.34375 0.046875 C 2.207031 0.0664062 2.085938 0.078125 1.984375 0.078125 C 1.148438 0.078125 0.734375 -0.359375 0.734375 -1.234375 L 0.734375 -3.78125 L 0.125 -3.78125 L 0.125 -4.09375 L 0.734375 -4.359375 L 1.015625 -5.28125 L 1.390625 -5.28125 L 1.390625 -4.28125 L 2.625 -4.28125 L 2.625 -3.78125 L 1.390625 -3.78125 L 1.390625 -1.265625 C 1.390625 -1.003906 1.445312 -0.800781 1.5625 -0.65625 C 1.6875 -0.519531 1.859375 -0.453125 2.078125 -0.453125 Z M 2.078125 -0.453125 "/></g></g><g transform="translate(174.847441, 31.216596)"><g><path d="M 1.34375 0 L 0.6875 0 L 0.6875 -4.28125 L 1.34375 -4.28125 Z M 0.640625 -5.4375 C 0.640625 -5.59375 0.675781 -5.703125 0.75 -5.765625 C 0.820312 -5.835938 0.910156 -5.875 1.015625 -5.875 C 1.117188 -5.875 1.207031 -5.835938 1.28125 -5.765625 C 1.363281 -5.691406 1.40625 -5.582031 1.40625 -5.4375 C 1.40625 -5.289062 1.363281 -5.179688 1.28125 -5.109375 C 1.207031 -5.046875 1.117188 -5.015625 1.015625 -5.015625 C 0.910156 -5.015625 0.820312 -5.046875 0.75 -5.109375 C 0.675781 -5.179688 0.640625 -5.289062 0.640625 -5.4375 Z M 0.640625 -5.4375 "/></g></g><g transform="translate(176.870885, 31.216596)"><g><path d="M 6.140625 0 L 6.140625 -2.78125 C 6.140625 -3.125 6.066406 -3.378906 5.921875 -3.546875 C 5.773438 -3.722656 5.550781 -3.8125 5.25 -3.8125 C 4.84375 -3.8125 4.539062 -3.691406 4.34375 -3.453125 C 4.15625 -3.222656 4.0625 -2.867188 4.0625 -2.390625 L 4.0625 0 L 3.421875 0 L 3.421875 -2.78125 C 3.421875 -3.125 3.347656 -3.378906 3.203125 -3.546875 C 3.054688 -3.722656 2.828125 -3.8125 2.515625 -3.8125 C 2.109375 -3.8125 1.8125 -3.6875 1.625 -3.4375 C 1.4375 -3.195312 1.34375 -2.800781 1.34375 -2.25 L 1.34375 0 L 0.6875 0 L 0.6875 -4.28125 L 1.21875 -4.28125 L 1.328125 -3.703125 L 1.359375 -3.703125 C 1.472656 -3.910156 1.640625 -4.070312 1.859375 -4.1875 C 2.085938 -4.300781 2.34375 -4.359375 2.625 -4.359375 C 3.289062 -4.359375 3.726562 -4.117188 3.9375 -3.640625 L 3.96875 -3.640625 C 4.09375 -3.859375 4.273438 -4.03125 4.515625 -4.15625 C 4.753906 -4.289062 5.03125 -4.359375 5.34375 -4.359375 C 5.832031 -4.359375 6.195312 -4.234375 6.4375 -3.984375 C 6.675781 -3.734375 6.796875 -3.335938 6.796875 -2.796875 L 6.796875 0 Z M 6.140625 0 "/></g></g><g transform="translate(184.312313, 31.216596)"><g><path d="M 2.5 0.078125 C 1.863281 0.078125 1.363281 -0.113281 1 -0.5 C 0.632812 -0.882812 0.453125 -1.421875 0.453125 -2.109375 C 0.453125 -2.796875 0.617188 -3.34375 0.953125 -3.75 C 1.296875 -4.15625 1.753906 -4.359375 2.328125 -4.359375 C 2.867188 -4.359375 3.296875 -4.179688 3.609375 -3.828125 C 3.921875 -3.472656 4.078125 -3.007812 4.078125 -2.4375 L 4.078125 -2.03125 L 1.125 -2.03125 C 1.132812 -1.519531 1.257812 -1.132812 1.5 -0.875 C 1.738281 -0.613281 2.078125 -0.484375 2.515625 -0.484375 C 2.984375 -0.484375 3.441406 -0.582031 3.890625 -0.78125 L 3.890625 -0.203125 C 3.660156 -0.0976562 3.441406 -0.0234375 3.234375 0.015625 C 3.035156 0.0546875 2.789062 0.078125 2.5 0.078125 Z M 2.328125 -3.8125 C 1.984375 -3.8125 1.707031 -3.695312 1.5 -3.46875 C 1.289062 -3.25 1.171875 -2.941406 1.140625 -2.546875 L 3.375 -2.546875 C 3.375 -2.960938 3.28125 -3.273438 3.09375 -3.484375 C 2.914062 -3.703125 2.660156 -3.8125 2.328125 -3.8125 Z M 2.328125 -3.8125 "/></g></g><g transform="translate(188.800608, 31.216596)"><g/></g><g transform="translate(190.878739, 31.216596)"><g><path d="M 2.5 0.078125 C 1.863281 0.078125 1.363281 -0.113281 1 -0.5 C 0.632812 -0.882812 0.453125 -1.421875 0.453125 -2.109375 C 0.453125 -2.796875 0.617188 -3.34375 0.953125 -3.75 C 1.296875 -4.15625 1.753906 -4.359375 2.328125 -4.359375 C 2.867188 -4.359375 3.296875 -4.179688 3.609375 -3.828125 C 3.921875 -3.472656 4.078125 -3.007812 4.078125 -2.4375 L 4.078125 -2.03125 L 1.125 -2.03125 C 1.132812 -1.519531 1.257812 -1.132812 1.5 -0.875 C 1.738281 -0.613281 2.078125 -0.484375 2.515625 -0.484375 C 2.984375 -0.484375 3.441406 -0.582031 3.890625 -0.78125 L 3.890625 -0.203125 C 3.660156 -0.0976562 3.441406 -0.0234375 3.234375 0.015625 C 3.035156 0.0546875 2.789062 0.078125 2.5 0.078125 Z M 2.328125 -3.8125 C 1.984375 -3.8125 1.707031 -3.695312 1.5 -3.46875 C 1.289062 -3.25 1.171875 -2.941406 1.140625 -2.546875 L 3.375 -2.546875 C 3.375 -2.960938 3.28125 -3.273438 3.09375 -3.484375 C 2.914062 -3.703125 2.660156 -3.8125 2.328125 -3.8125 Z M 2.328125 -3.8125 "/></g></g><g transform="translate(195.367034, 31.216596)"><g><path d="M 2.625 -3.78125 L 1.53125 -3.78125 L 1.53125 0 L 0.875 0 L 0.875 -3.78125 L 0.109375 -3.78125 L 0.109375 -4.078125 L 0.875 -4.3125 L 0.875 -4.546875 C 0.875 -5.597656 1.335938 -6.125 2.265625 -6.125 C 2.484375 -6.125 2.75 -6.078125 3.0625 -5.984375 L 2.890625 -5.46875 C 2.640625 -5.550781 2.425781 -5.59375 2.25 -5.59375 C 2 -5.59375 1.816406 -5.507812 1.703125 -5.34375 C 1.585938 -5.175781 1.53125 -4.914062 1.53125 -4.5625 L 1.53125 -4.28125 L 2.625 -4.28125 Z M 2.625 -3.78125 "/></g></g><g transform="translate(198.07798, 31.216596)"><g><path d="M 2.625 -3.78125 L 1.53125 -3.78125 L 1.53125 0 L 0.875 0 L 0.875 -3.78125 L 0.109375 -3.78125 L 0.109375 -4.078125 L 0.875 -4.3125 L 0.875 -4.546875 C 0.875 -5.597656 1.335938 -6.125 2.265625 -6.125 C 2.484375 -6.125 2.75 -6.078125 3.0625 -5.984375 L 2.890625 -5.46875 C 2.640625 -5.550781 2.425781 -5.59375 2.25 -5.59375 C 2 -5.59375 1.816406 -5.507812 1.703125 -5.34375 C 1.585938 -5.175781 1.53125 -4.914062 1.53125 -4.5625 L 1.53125 -4.28125 L 2.625 -4.28125 Z M 2.625 -3.78125 "/></g></g><g transform="translate(200.788925, 31.216596)"><g><path d="M 2.5 0.078125 C 1.863281 0.078125 1.363281 -0.113281 1 -0.5 C 0.632812 -0.882812 0.453125 -1.421875 0.453125 -2.109375 C 0.453125 -2.796875 0.617188 -3.34375 0.953125 -3.75 C 1.296875 -4.15625 1.753906 -4.359375 2.328125 -4.359375 C 2.867188 -4.359375 3.296875 -4.179688 3.609375 -3.828125 C 3.921875 -3.472656 4.078125 -3.007812 4.078125 -2.4375 L 4.078125 -2.03125 L 1.125 -2.03125 C 1.132812 -1.519531 1.257812 -1.132812 1.5 -0.875 C 1.738281 -0.613281 2.078125 -0.484375 2.515625 -0.484375 C 2.984375 -0.484375 3.441406 -0.582031 3.890625 -0.78125 L 3.890625 -0.203125 C 3.660156 -0.0976562 3.441406 -0.0234375 3.234375 0.015625 C 3.035156 0.0546875 2.789062 0.078125 2.5 0.078125 Z M 2.328125 -3.8125 C 1.984375 -3.8125 1.707031 -3.695312 1.5 -3.46875 C 1.289062 -3.25 1.171875 -2.941406 1.140625 -2.546875 L 3.375 -2.546875 C 3.375 -2.960938 3.28125 -3.273438 3.09375 -3.484375 C 2.914062 -3.703125 2.660156 -3.8125 2.328125 -3.8125 Z M 2.328125 -3.8125 "/></g></g><g transform="translate(205.27722, 31.216596)"><g><path d="M 2.40625 0.078125 C 1.78125 0.078125 1.296875 -0.109375 0.953125 -0.484375 C 0.617188 -0.867188 0.453125 -1.410156 0.453125 -2.109375 C 0.453125 -2.828125 0.625 -3.378906 0.96875 -3.765625 C 1.3125 -4.160156 1.800781 -4.359375 2.4375 -4.359375 C 2.644531 -4.359375 2.851562 -4.335938 3.0625 -4.296875 C 3.269531 -4.253906 3.429688 -4.203125 3.546875 -4.140625 L 3.34375 -3.59375 C 3.195312 -3.644531 3.039062 -3.6875 2.875 -3.71875 C 2.707031 -3.757812 2.554688 -3.78125 2.421875 -3.78125 C 1.554688 -3.78125 1.125 -3.226562 1.125 -2.125 C 1.125 -1.59375 1.226562 -1.1875 1.4375 -0.90625 C 1.65625 -0.625 1.972656 -0.484375 2.390625 -0.484375 C 2.742188 -0.484375 3.109375 -0.5625 3.484375 -0.71875 L 3.484375 -0.140625 C 3.191406 0.00390625 2.832031 0.078125 2.40625 0.078125 Z M 2.40625 0.078125 "/></g></g><g transform="translate(209.085825, 31.216596)"><g><path d="M 2.078125 -0.453125 C 2.191406 -0.453125 2.300781 -0.460938 2.40625 -0.484375 C 2.507812 -0.503906 2.59375 -0.519531 2.65625 -0.53125 L 2.65625 -0.046875 C 2.582031 -0.00390625 2.476562 0.0234375 2.34375 0.046875 C 2.207031 0.0664062 2.085938 0.078125 1.984375 0.078125 C 1.148438 0.078125 0.734375 -0.359375 0.734375 -1.234375 L 0.734375 -3.78125 L 0.125 -3.78125 L 0.125 -4.09375 L 0.734375 -4.359375 L 1.015625 -5.28125 L 1.390625 -5.28125 L 1.390625 -4.28125 L 2.625 -4.28125 L 2.625 -3.78125 L 1.390625 -3.78125 L 1.390625 -1.265625 C 1.390625 -1.003906 1.445312 -0.800781 1.5625 -0.65625 C 1.6875 -0.519531 1.859375 -0.453125 2.078125 -0.453125 Z M 2.078125 -0.453125 "/></g></g><g transform="translate(211.910052, 31.216596)"><g><path d="M 3.453125 -1.171875 C 3.453125 -0.773438 3.300781 -0.46875 3 -0.25 C 2.707031 -0.03125 2.289062 0.078125 1.75 0.078125 C 1.1875 0.078125 0.742188 -0.0078125 0.421875 -0.1875 L 0.421875 -0.796875 C 0.628906 -0.691406 0.847656 -0.609375 1.078125 -0.546875 C 1.316406 -0.484375 1.546875 -0.453125 1.765625 -0.453125 C 2.109375 -0.453125 2.367188 -0.503906 2.546875 -0.609375 C 2.734375 -0.722656 2.828125 -0.890625 2.828125 -1.109375 C 2.828125 -1.273438 2.753906 -1.414062 2.609375 -1.53125 C 2.460938 -1.65625 2.179688 -1.800781 1.765625 -1.96875 C 1.367188 -2.113281 1.082031 -2.238281 0.90625 -2.34375 C 0.738281 -2.457031 0.613281 -2.582031 0.53125 -2.71875 C 0.457031 -2.863281 0.421875 -3.035156 0.421875 -3.234375 C 0.421875 -3.578125 0.5625 -3.847656 0.84375 -4.046875 C 1.125 -4.253906 1.515625 -4.359375 2.015625 -4.359375 C 2.472656 -4.359375 2.921875 -4.265625 3.359375 -4.078125 L 3.125 -3.546875 C 2.695312 -3.722656 2.3125 -3.8125 1.96875 -3.8125 C 1.65625 -3.8125 1.421875 -3.765625 1.265625 -3.671875 C 1.109375 -3.578125 1.03125 -3.445312 1.03125 -3.28125 C 1.03125 -3.164062 1.054688 -3.066406 1.109375 -2.984375 C 1.171875 -2.898438 1.265625 -2.820312 1.390625 -2.75 C 1.523438 -2.675781 1.78125 -2.570312 2.15625 -2.4375 C 2.664062 -2.25 3.007812 -2.0625 3.1875 -1.875 C 3.363281 -1.6875 3.453125 -1.453125 3.453125 -1.171875 Z M 3.453125 -1.171875 "/></g></g></g><g fill="#05415f" fill-opacity="1"><g transform="translate(164.112325, 24.279081)"><g><path d="M 2.828125 -2.484375 C 2.828125 -3.179688 2.953125 -3.707031 3.203125 -4.0625 C 3.453125 -4.425781 3.847656 -4.660156 4.390625 -4.765625 L 4.390625 -4.84375 C 3.847656 -4.957031 3.453125 -5.191406 3.203125 -5.546875 C 2.953125 -5.910156 2.828125 -6.460938 2.828125 -7.203125 L 2.828125 -9.765625 C 2.828125 -10.347656 2.648438 -10.789062 2.296875 -11.09375 C 1.953125 -11.394531 1.390625 -11.5625 0.609375 -11.59375 L 0.609375 -12.34375 C 1.585938 -12.34375 2.335938 -12.125 2.859375 -11.6875 C 3.390625 -11.25 3.65625 -10.609375 3.65625 -9.765625 L 3.65625 -6.8125 C 3.65625 -6.25 3.804688 -5.832031 4.109375 -5.5625 C 4.410156 -5.289062 4.90625 -5.148438 5.59375 -5.140625 L 5.59375 -4.453125 C 4.300781 -4.429688 3.65625 -3.84375 3.65625 -2.6875 L 3.65625 0.15625 C 3.65625 1.03125 3.421875 1.675781 2.953125 2.09375 C 2.484375 2.519531 1.703125 2.734375 0.609375 2.734375 L 0.609375 1.96875 C 1.398438 1.957031 1.96875 1.804688 2.3125 1.515625 C 2.65625 1.234375 2.828125 0.804688 2.828125 0.234375 Z M 2.828125 -2.484375 "/></g></g></g><g fill="#05415f" fill-opacity="1"><g transform="translate(59.151398, 54.064548)"><g><path d="M 4.859375 0 L 0.359375 0 L 0.359375 -0.9375 L 1.96875 -2.578125 C 2.445312 -3.066406 2.757812 -3.40625 2.90625 -3.59375 C 3.050781 -3.78125 3.15625 -3.953125 3.21875 -4.109375 C 3.289062 -4.273438 3.328125 -4.445312 3.328125 -4.625 C 3.328125 -4.875 3.253906 -5.0625 3.109375 -5.1875 C 2.960938 -5.320312 2.773438 -5.390625 2.546875 -5.390625 C 2.296875 -5.390625 2.050781 -5.332031 1.8125 -5.21875 C 1.582031 -5.101562 1.335938 -4.9375 1.078125 -4.71875 L 0.34375 -5.59375 C 0.65625 -5.863281 0.914062 -6.054688 1.125 -6.171875 C 1.332031 -6.285156 1.5625 -6.367188 1.8125 -6.421875 C 2.0625 -6.484375 2.335938 -6.515625 2.640625 -6.515625 C 3.035156 -6.515625 3.382812 -6.441406 3.6875 -6.296875 C 4 -6.148438 4.238281 -5.941406 4.40625 -5.671875 C 4.582031 -5.410156 4.671875 -5.113281 4.671875 -4.78125 C 4.671875 -4.476562 4.617188 -4.195312 4.515625 -3.9375 C 4.410156 -3.6875 4.25 -3.421875 4.03125 -3.140625 C 3.8125 -2.867188 3.425781 -2.484375 2.875 -1.984375 L 2.046875 -1.203125 L 2.046875 -1.140625 L 4.859375 -1.140625 Z M 4.859375 0 "/></g></g><g transform="translate(64.288605, 54.064548)"><g><path d="M 0.515625 -0.625 C 0.515625 -0.875 0.578125 -1.0625 0.703125 -1.1875 C 0.835938 -1.3125 1.03125 -1.375 1.28125 -1.375 C 1.53125 -1.375 1.71875 -1.304688 1.84375 -1.171875 C 1.976562 -1.046875 2.046875 -0.863281 2.046875 -0.625 C 2.046875 -0.394531 1.976562 -0.210938 1.84375 -0.078125 C 1.707031 0.0546875 1.519531 0.125 1.28125 0.125 C 1.039062 0.125 0.851562 0.0625 0.71875 -0.0625 C 0.582031 -0.195312 0.515625 -0.382812 0.515625 -0.625 Z M 0.515625 -0.625 "/></g></g><g transform="translate(66.855011, 54.064548)"><g/></g><g transform="translate(69.192901, 54.064548)"><g><path d="M 3.28125 0 L 1.921875 0 L 1.921875 -5.296875 L 0.1875 -5.296875 L 0.1875 -6.421875 L 5.03125 -6.421875 L 5.03125 -5.296875 L 3.28125 -5.296875 Z M 3.28125 0 "/></g></g><g transform="translate(74.404815, 54.064548)"><g><path d="M 0.640625 -6.1875 C 0.640625 -6.625 0.882812 -6.84375 1.375 -6.84375 C 1.863281 -6.84375 2.109375 -6.625 2.109375 -6.1875 C 2.109375 -5.976562 2.046875 -5.816406 1.921875 -5.703125 C 1.796875 -5.585938 1.613281 -5.53125 1.375 -5.53125 C 0.882812 -5.53125 0.640625 -5.75 0.640625 -6.1875 Z M 2.046875 0 L 0.703125 0 L 0.703125 -4.90625 L 2.046875 -4.90625 Z M 2.046875 0 "/></g></g><g transform="translate(77.151397, 54.064548)"><g><path d="M 5.109375 0 L 3.765625 0 L 3.765625 -2.875 C 3.765625 -3.226562 3.703125 -3.492188 3.578125 -3.671875 C 3.460938 -3.847656 3.28125 -3.9375 3.03125 -3.9375 C 2.6875 -3.9375 2.4375 -3.804688 2.28125 -3.546875 C 2.125 -3.296875 2.046875 -2.882812 2.046875 -2.3125 L 2.046875 0 L 0.703125 0 L 0.703125 -4.90625 L 1.734375 -4.90625 L 1.90625 -4.28125 L 1.984375 -4.28125 C 2.117188 -4.507812 2.304688 -4.6875 2.546875 -4.8125 C 2.796875 -4.9375 3.082031 -5 3.40625 -5 C 4.144531 -5 4.644531 -4.757812 4.90625 -4.28125 L 5.015625 -4.28125 C 5.148438 -4.507812 5.34375 -4.6875 5.59375 -4.8125 C 5.851562 -4.9375 6.144531 -5 6.46875 -5 C 7.03125 -5 7.453125 -4.859375 7.734375 -4.578125 C 8.023438 -4.296875 8.171875 -3.835938 8.171875 -3.203125 L 8.171875 0 L 6.828125 0 L 6.828125 -2.875 C 6.828125 -3.226562 6.765625 -3.492188 6.640625 -3.671875 C 6.523438 -3.847656 6.335938 -3.9375 6.078125 -3.9375 C 5.753906 -3.9375 5.507812 -3.816406 5.34375 -3.578125 C 5.1875 -3.347656 5.109375 -2.976562 5.109375 -2.46875 Z M 5.109375 0 "/></g></g><g transform="translate(85.988798, 54.064548)"><g><path d="M 2.734375 -4.046875 C 2.453125 -4.046875 2.226562 -3.957031 2.0625 -3.78125 C 1.90625 -3.601562 1.816406 -3.347656 1.796875 -3.015625 L 3.671875 -3.015625 C 3.671875 -3.347656 3.585938 -3.601562 3.421875 -3.78125 C 3.253906 -3.957031 3.023438 -4.046875 2.734375 -4.046875 Z M 2.921875 0.09375 C 2.128906 0.09375 1.507812 -0.125 1.0625 -0.5625 C 0.625 -1 0.40625 -1.617188 0.40625 -2.421875 C 0.40625 -3.242188 0.609375 -3.878906 1.015625 -4.328125 C 1.429688 -4.773438 2.003906 -5 2.734375 -5 C 3.421875 -5 3.957031 -4.800781 4.34375 -4.40625 C 4.738281 -4.007812 4.9375 -3.460938 4.9375 -2.765625 L 4.9375 -2.125 L 1.765625 -2.125 C 1.773438 -1.738281 1.882812 -1.4375 2.09375 -1.21875 C 2.3125 -1.007812 2.609375 -0.90625 2.984375 -0.90625 C 3.285156 -0.90625 3.566406 -0.9375 3.828125 -1 C 4.085938 -1.0625 4.363281 -1.160156 4.65625 -1.296875 L 4.65625 -0.265625 C 4.414062 -0.140625 4.160156 -0.0507812 3.890625 0 C 3.628906 0.0625 3.304688 0.09375 2.921875 0.09375 Z M 2.921875 0.09375 "/></g></g><g transform="translate(91.306181, 54.064548)"><g/></g><g transform="translate(93.644071, 54.064548)"><g><path d="M 2.734375 -4.046875 C 2.453125 -4.046875 2.226562 -3.957031 2.0625 -3.78125 C 1.90625 -3.601562 1.816406 -3.347656 1.796875 -3.015625 L 3.671875 -3.015625 C 3.671875 -3.347656 3.585938 -3.601562 3.421875 -3.78125 C 3.253906 -3.957031 3.023438 -4.046875 2.734375 -4.046875 Z M 2.921875 0.09375 C 2.128906 0.09375 1.507812 -0.125 1.0625 -0.5625 C 0.625 -1 0.40625 -1.617188 0.40625 -2.421875 C 0.40625 -3.242188 0.609375 -3.878906 1.015625 -4.328125 C 1.429688 -4.773438 2.003906 -5 2.734375 -5 C 3.421875 -5 3.957031 -4.800781 4.34375 -4.40625 C 4.738281 -4.007812 4.9375 -3.460938 4.9375 -2.765625 L 4.9375 -2.125 L 1.765625 -2.125 C 1.773438 -1.738281 1.882812 -1.4375 2.09375 -1.21875 C 2.3125 -1.007812 2.609375 -0.90625 2.984375 -0.90625 C 3.285156 -0.90625 3.566406 -0.9375 3.828125 -1 C 4.085938 -1.0625 4.363281 -1.160156 4.65625 -1.296875 L 4.65625 -0.265625 C 4.414062 -0.140625 4.160156 -0.0507812 3.890625 0 C 3.628906 0.0625 3.304688 0.09375 2.921875 0.09375 Z M 2.921875 0.09375 "/></g></g><g transform="translate(98.961454, 54.064548)"><g><path d="M 3.421875 -3.90625 L 2.265625 -3.90625 L 2.265625 0 L 0.921875 0 L 0.921875 -3.90625 L 0.1875 -3.90625 L 0.1875 -4.546875 L 0.921875 -4.90625 L 0.921875 -5.28125 C 0.921875 -5.832031 1.054688 -6.238281 1.328125 -6.5 C 1.609375 -6.757812 2.050781 -6.890625 2.65625 -6.890625 C 3.113281 -6.890625 3.523438 -6.820312 3.890625 -6.6875 L 3.546875 -5.703125 C 3.273438 -5.785156 3.023438 -5.828125 2.796875 -5.828125 C 2.609375 -5.828125 2.472656 -5.769531 2.390625 -5.65625 C 2.304688 -5.539062 2.265625 -5.394531 2.265625 -5.21875 L 2.265625 -4.90625 L 3.421875 -4.90625 Z M 3.421875 -3.90625 "/></g></g><g transform="translate(102.446317, 54.064548)"><g><path d="M 3.421875 -3.90625 L 2.265625 -3.90625 L 2.265625 0 L 0.921875 0 L 0.921875 -3.90625 L 0.1875 -3.90625 L 0.1875 -4.546875 L 0.921875 -4.90625 L 0.921875 -5.28125 C 0.921875 -5.832031 1.054688 -6.238281 1.328125 -6.5 C 1.609375 -6.757812 2.050781 -6.890625 2.65625 -6.890625 C 3.113281 -6.890625 3.523438 -6.820312 3.890625 -6.6875 L 3.546875 -5.703125 C 3.273438 -5.785156 3.023438 -5.828125 2.796875 -5.828125 C 2.609375 -5.828125 2.472656 -5.769531 2.390625 -5.65625 C 2.304688 -5.539062 2.265625 -5.394531 2.265625 -5.21875 L 2.265625 -4.90625 L 3.421875 -4.90625 Z M 3.421875 -3.90625 "/></g></g><g transform="translate(105.93118, 54.064548)"><g><path d="M 2.734375 -4.046875 C 2.453125 -4.046875 2.226562 -3.957031 2.0625 -3.78125 C 1.90625 -3.601562 1.816406 -3.347656 1.796875 -3.015625 L 3.671875 -3.015625 C 3.671875 -3.347656 3.585938 -3.601562 3.421875 -3.78125 C 3.253906 -3.957031 3.023438 -4.046875 2.734375 -4.046875 Z M 2.921875 0.09375 C 2.128906 0.09375 1.507812 -0.125 1.0625 -0.5625 C 0.625 -1 0.40625 -1.617188 0.40625 -2.421875 C 0.40625 -3.242188 0.609375 -3.878906 1.015625 -4.328125 C 1.429688 -4.773438 2.003906 -5 2.734375 -5 C 3.421875 -5 3.957031 -4.800781 4.34375 -4.40625 C 4.738281 -4.007812 4.9375 -3.460938 4.9375 -2.765625 L 4.9375 -2.125 L 1.765625 -2.125 C 1.773438 -1.738281 1.882812 -1.4375 2.09375 -1.21875 C 2.3125 -1.007812 2.609375 -0.90625 2.984375 -0.90625 C 3.285156 -0.90625 3.566406 -0.9375 3.828125 -1 C 4.085938 -1.0625 4.363281 -1.160156 4.65625 -1.296875 L 4.65625 -0.265625 C 4.414062 -0.140625 4.160156 -0.0507812 3.890625 0 C 3.628906 0.0625 3.304688 0.09375 2.921875 0.09375 Z M 2.921875 0.09375 "/></g></g><g transform="translate(111.248562, 54.064548)"><g><path d="M 2.703125 0.09375 C 1.171875 0.09375 0.40625 -0.75 0.40625 -2.4375 C 0.40625 -3.269531 0.613281 -3.90625 1.03125 -4.34375 C 1.445312 -4.78125 2.039062 -5 2.8125 -5 C 3.382812 -5 3.894531 -4.890625 4.34375 -4.671875 L 3.953125 -3.640625 C 3.742188 -3.722656 3.546875 -3.789062 3.359375 -3.84375 C 3.179688 -3.894531 3 -3.921875 2.8125 -3.921875 C 2.113281 -3.921875 1.765625 -3.425781 1.765625 -2.4375 C 1.765625 -1.476562 2.113281 -1 2.8125 -1 C 3.070312 -1 3.3125 -1.03125 3.53125 -1.09375 C 3.75 -1.164062 3.96875 -1.273438 4.1875 -1.421875 L 4.1875 -0.28125 C 3.976562 -0.144531 3.757812 -0.0507812 3.53125 0 C 3.3125 0.0625 3.035156 0.09375 2.703125 0.09375 Z M 2.703125 0.09375 "/></g></g><g transform="translate(115.876003, 54.064548)"><g><path d="M 2.765625 -0.984375 C 3.003906 -0.984375 3.285156 -1.035156 3.609375 -1.140625 L 3.609375 -0.140625 C 3.273438 0.015625 2.867188 0.09375 2.390625 0.09375 C 1.847656 0.09375 1.453125 -0.0390625 1.203125 -0.3125 C 0.960938 -0.582031 0.84375 -0.988281 0.84375 -1.53125 L 0.84375 -3.90625 L 0.203125 -3.90625 L 0.203125 -4.46875 L 0.9375 -4.921875 L 1.328125 -5.953125 L 2.1875 -5.953125 L 2.1875 -4.90625 L 3.5625 -4.90625 L 3.5625 -3.90625 L 2.1875 -3.90625 L 2.1875 -1.53125 C 2.1875 -1.34375 2.238281 -1.203125 2.34375 -1.109375 C 2.457031 -1.023438 2.597656 -0.984375 2.765625 -0.984375 Z M 2.765625 -0.984375 "/></g></g><g transform="translate(119.782741, 54.064548)"><g><path d="M 4.125 -1.453125 C 4.125 -0.953125 3.945312 -0.566406 3.59375 -0.296875 C 3.25 -0.0351562 2.726562 0.09375 2.03125 0.09375 C 1.675781 0.09375 1.375 0.0664062 1.125 0.015625 C 0.875 -0.0351562 0.632812 -0.109375 0.40625 -0.203125 L 0.40625 -1.3125 C 0.65625 -1.1875 0.9375 -1.082031 1.25 -1 C 1.5625 -0.925781 1.835938 -0.890625 2.078125 -0.890625 C 2.566406 -0.890625 2.8125 -1.03125 2.8125 -1.3125 C 2.8125 -1.414062 2.773438 -1.5 2.703125 -1.5625 C 2.640625 -1.632812 2.53125 -1.710938 2.375 -1.796875 C 2.21875 -1.878906 2.007812 -1.976562 1.75 -2.09375 C 1.363281 -2.25 1.082031 -2.394531 0.90625 -2.53125 C 0.726562 -2.664062 0.597656 -2.816406 0.515625 -2.984375 C 0.441406 -3.160156 0.40625 -3.378906 0.40625 -3.640625 C 0.40625 -4.078125 0.570312 -4.410156 0.90625 -4.640625 C 1.25 -4.878906 1.726562 -5 2.34375 -5 C 2.9375 -5 3.515625 -4.875 4.078125 -4.625 L 3.671875 -3.65625 C 3.429688 -3.757812 3.203125 -3.84375 2.984375 -3.90625 C 2.765625 -3.976562 2.546875 -4.015625 2.328125 -4.015625 C 1.929688 -4.015625 1.734375 -3.90625 1.734375 -3.6875 C 1.734375 -3.570312 1.796875 -3.46875 1.921875 -3.375 C 2.054688 -3.289062 2.335938 -3.160156 2.765625 -2.984375 C 3.148438 -2.828125 3.429688 -2.679688 3.609375 -2.546875 C 3.785156 -2.410156 3.914062 -2.253906 4 -2.078125 C 4.082031 -1.910156 4.125 -1.703125 4.125 -1.453125 Z M 4.125 -1.453125 "/></g></g></g></svg>